<?xml version="1.0" encoding="utf-8"?>
<!-- Generator: Adobe Illustrator 19.2.1, SVG Export Plug-In . SVG Version: 6.00 Build 0)  -->
<svg version="1.1" id="Layer_1" xmlns="http://www.w3.org/2000/svg" xmlns:xlink="http://www.w3.org/1999/xlink" x="0px" y="0px"
	 viewBox="0 0 400 400" style="enable-background:new 0 0 400 400;" xml:space="preserve">
<style type="text/css">
	.st0{clip-path:url(#SVGID_2_);fill:#FFFFFF;}
</style>
<g>
	<g>
		<defs>
			<path id="SVGID_1_" d="M48.5,196c2.1-81.8,69.1-147.5,151.4-147.5c83.7,0,151.6,67.8,151.6,151.6c0,5.3-0.3,10.5-0.8,15.7
				c-13.7,5.3-71,2.9-71,2.9l34.8-31.6l-10.5-6.5l-30,28.4l6.4-89.1l-12.2,4.9l-8.9,90c-14.6-4.1-10.5-28.4-10.5-28.4l-12.2-12.2
				l-48.6,17.1c0-17.8,11.3-35.7,11.3-35.7l-11.3-6.4c-13,16.2-38.9,30-38.9,30l3.2-63.2l-16.2,2.4c-3.2,9.7-30.4,73.7-30.4,73.7
				C95.8,196.2,57,196,48.5,196z M274,232.4l1.7,38.1l-13,6.5l-2.4-48.6c0,0-6.4,0.8-13-4.9c0,0-22.7,25.1-34.8,5.7
				c0,0-10.5-12.2,12.2-38.1l-37.3,16.2c0,0,0,21.1,15.4,16.2l-0.8,12.2c0,0-22.7,8.9-28.4-21.1h-2.4l-6.4,2.4l-1.7-13l8.9-5.7
				c0,0,4.9-24.3,7.3-25.9c0,0-25.1,21.8-30,22.7c0,0,3.2,67.3,9.7,71.4l-13.8,21.8c0,0-10.5-83.5-10.5-87.5l-19.5,6.4l-19.5,44.6
				l-18.7,2.4l21.1-41.3l-48.9,4c8.4,75.8,72.6,134.6,150.6,134.6c72,0,132.2-50.1,147.7-117.4C336,234.6,282.8,236.7,274,232.4z
				 M139.5,140l-17.8,49l13.8-3.2L139.5,140z M223,220.2c1.7,7.3,11.3-1.7,13-5.7v-21.1C236,193.5,221.4,212.9,223,220.2z"/>
		</defs>
		<clipPath id="SVGID_2_">
			<use xlink:href="#SVGID_1_"  style="overflow:visible;"/>
		</clipPath>
		<circle class="st0" cx="199.1" cy="199.6" r="169.8"/>
	</g>
</g>
</svg>
