<?xml version="1.0" encoding="utf-8"?>
<!-- Generator: Adobe Illustrator 19.2.1, SVG Export Plug-In . SVG Version: 6.00 Build 0)  -->
<svg version="1.1" id="Layer_1" xmlns="http://www.w3.org/2000/svg" xmlns:xlink="http://www.w3.org/1999/xlink" x="0px" y="0px"
	 viewBox="0 0 700 700" style="enable-background:new 0 0 700 700;" xml:space="preserve">
<path d="M282.1,325.9c1.2,0.2,3.4-1.5,3.8,0.8c0.4,2.4-2.2,1.9-3.6,2.3c-5.5,1.9-11,3.6-16.5,5.4c-1.1,0.4-2.5,1.2-3.1-0.5
	c-0.5-1.4,0.8-2,1.8-2.3c3.3-1.1,3.5-3.6,2.7-6.2c-1.8-6-3.7-11.9-5.5-17.9c-0.6-2-1.9-2.3-3.6-1.7c-7.6,2.5-15.2,5-22.8,7.5
	c-1.6,0.5-2.2,1.5-1.7,3.1c1.9,6.5,3.8,13,6.4,19.3c1,2.4,3,2.6,5.4,2c1.2-0.3,2.9-0.9,3.3,1c0.4,1.7-1.4,1.7-2.5,2
	c-5.9,1.9-11.9,3.8-17.8,5.7c-1.1,0.4-2.3,1-2.9-0.2c-0.7-1.4,0.5-2,1.5-2.5c2.7-1.3,3.3-3.3,2.4-6.1c-4.5-14-8.9-28-13.5-42
	c-1-3.1-2.5-5.6-6.6-4.2c-1,0.4-2.1,0.3-2.4-1c-0.3-1.4,0.9-1.6,1.8-1.9c6.4-1.7,12.6-3.8,18.8-6c0.9-0.3,1.8-0.5,2.3,0.5
	c0.6,1.3-0.3,1.8-1.3,2.3c-3.6,1.6-3.7,4.2-2.7,7.5c1.6,4.6,3,9.3,4.4,14c0.6,2,1.7,3,4,2.2c7.5-2.5,15-4.9,22.5-7.3
	c2-0.6,2.7-1.7,1.9-3.8c-1.6-4.6-3.1-9.3-4.7-13.9c-1.1-3.3-2.6-6.1-6.9-4.8c-1,0.3-2.1,0.1-2.3-1.3c-0.1-1.2,0.8-1.4,1.7-1.6
	c6.3-1.7,12.6-3.5,18.7-6c1.1-0.4,2.1-0.5,2.6,0.6c0.6,1.2-0.4,1.8-1.4,2.2c-3.4,1.5-3.7,4.1-2.7,7.2c4.5,13.9,8.9,27.8,13.4,41.6
	C277.9,324.3,279,326.3,282.1,325.9z"/>
<path d="M405.1,324.7c-8.9-0.5-17.6-2.7-26.6-3c-0.9,0-1.9-0.2-1.9-1.4c-0.1-1.4,0.9-1.8,2-1.7c4.2,0.4,5.5-2.3,5.9-5.6
	c1.5-11.7,2.9-23.4,4.3-35.1c0.3-2.5,0.6-5.1,0.9-7.6c0.4-3-0.6-5-3.8-5.6c-1.1-0.2-2.4-0.5-2.2-2c0.3-1.5,1.6-1.2,2.7-1.2
	c8.9,0.3,17.8,1.2,26.5,3.1c9.1,2,13.3,7.6,12.6,15.7c-0.5,5.7-4.1,8.6-9.1,10.3c-0.7,0.2-1.8,0.1-1.8,1.1c-0.1,1,1,1,1.7,1.2
	c7.6,3.1,11.2,9.1,10.1,17.2c-1,7.5-6.6,13.1-14.3,14.1C409.7,324.5,407.4,324.5,405.1,324.7z M395,311.5c-0.1,3.5,0.1,6.3,3.1,8
	c4.7,2.6,11.7,1.1,14.6-3.4c3.2-5,3.5-10.4,0.8-15.5c-2.8-5.4-7.8-7.2-13.6-7.5c-1.7-0.1-2.7,0.6-2.9,2.4
	C396.4,300.9,395.7,306.5,395,311.5z M403.2,289.6c7.8,0.2,11.8-4.4,11.5-12.6c-0.2-6.2-5.7-10.8-12-10.3c-1.6,0.1-2.4,1-2.6,2.5
	c-0.7,5.7-1.4,11.5-2.1,17.2c-0.2,1.9,0.6,2.7,2.3,2.9C401.5,289.5,402.6,289.6,403.2,289.6z"/>
<path d="M631.1,414.9c0.2,0,1.3,0,2.4,0c2.2-0.1,5.2,0.3,2.5-3.4c-0.4-0.6-0.4-1.3,0.1-1.8c0.7-0.6,1.5-0.6,2.1,0
	c3.4,3.6,6.8,7.1,10.5,10.3c0.6,0.5,0.5,1.2,0,1.8c-0.6,0.8-1.4,0.9-2.1,0.3c-4.5-3.9-10.1-3-15.3-3.5c-2.1-0.2-3.2,0.4-3.8,2.7
	c-1.5,5.5-2.3,11.1-3.4,16.7c-0.5,2.3-0.4,4.7,1,6.8c0.7,1,1.2,2.1-0.1,2.9c-1.2,0.9-1.7-0.3-2.4-1.1c-3.4-3.9-6.8-7.7-10.5-11.2
	c-0.7-0.7-1.7-1.4-1.1-2.6c0.6-1.1,1.5-0.9,2.6-0.3c1.5,0.9,2.1-0.2,2.4-1.3c1.1-4.4,2.1-8.9,3.1-13.3c0.2-1,0.2-2.1-0.9-2.6
	c-1-0.5-1.7,0.2-2.3,0.8c-1.9,1.7-3.7,3.5-5.6,5.3c-2.1,1.9-3.4,3.9-1,6.5c0.5,0.6,0.6,1.5-0.2,2.1c-0.9,0.7-1.6,0.3-2.3-0.4
	c-3.8-4.1-7.5-8.2-11.3-12.3c-0.6-0.6-1-1.3-0.4-2.1c0.7-0.9,1.6-0.6,2.4,0c2.3,2,4.2,1.2,6.2-0.6c11.2-10.4,22.4-20.7,33.6-31.1
	c1.6-1.5,2.6-3.2,2.2-5.6c-0.3-1.8,0.8-2.4,2.5-1.5c2.9,1.4,5.8,2.9,8.7,4.2c2.2,1,1.9,1.9,0.3,3.3c-9.5,8.6-18.9,17.2-28.4,25.9
	c-2.5,2.3-2.1,4.1,1.2,5C625.9,415.3,628.1,415.1,631.1,414.9z"/>
<path d="M84.6,446.2c-24.8,0-39.8-26.9-27.8-47.9c4.2-7.4,10.2-13.1,17.1-18.1c1.6-1.2,2.7-1,4.1,0.2c2.7,2.1,5.5,4.1,8.3,6.2
	c0.8,0.6,1.5,1.1,0.8,2.2c-0.6,0.9-1.4,1.1-2.3,0.7c-7.8-3.9-14.6-2.1-20.1,4.2c-5.9,6.8-7.2,14.8-3.2,22.7
	c5.8,11.5,15,19.1,28.2,20.5c10.6,1.1,19.6-5.6,21.8-15.6c0.9-4.2-0.3-8.2-1.8-12c-0.4-1.1-1.4-2.4,0.1-3.3c1.6-0.9,2.1,0.8,2.8,1.6
	c6.9,7.9,7.1,10,1.6,19c-6.1,9.9-14.2,17.1-26,19.3C86.8,446.1,85.2,446.2,84.6,446.2z"/>
<path d="M558.5,344.8c-2.4-0.6-4.1,0.8-5.7,2.2c-7.2,6.1-14.4,12.3-21.6,18.4c-1.1,1-2.1,2.7-3.9,1.7c-1.8-1-1-2.7-0.8-4.2
	c0.6-6.9,1.3-13.7,1.9-20.6c0.1-0.6,0.4-1.4-0.3-1.9c-0.9-0.6-1.4,0.3-1.9,0.8c-5.6,4.6-11.1,9.3-16.7,13.9
	c-0.8,0.7-1.5,1.9-2.8,1.3c-1.5-0.7-1.4-2.1-1.2-3.5c1-10,1.8-20,2.9-29.9c0.2-2.3,0-4.2-1.8-5.7c-0.9-0.7-1.7-1.7-0.6-2.8
	c0.9-1,1.8-0.2,2.7,0.2c4.1,2.2,8.2,4.4,12.4,6.6c0.8,0.5,2.1,0.7,1.7,2.1c-0.4,1.2-1.5,1.2-2.5,1c-1.9-0.4-2.6,0.5-2.8,2.3
	c-0.6,5.2-1.2,10.4-1.8,15.6c-0.1,0.7-0.2,1.4,0.4,1.9c0.7,0.5,1.2-0.2,1.7-0.6c3.3-2.8,6.6-5.6,9.8-8.5c2.5-2.3,2.4-4,0-6.5
	c-0.8-0.9-2.2-1.7-1.1-3.1c1.1-1.5,2.1-0.2,3.2,0.4c3.9,2,7.9,4.1,11.8,6.1c0.9,0.5,2.4,0.8,2.1,2.2c-0.3,1.5-1.6,1.2-2.7,1
	c-2.1-0.5-2.8,0.4-3,2.4c-0.5,5.3-1.1,10.6-1.7,15.9c-0.1,0.6-0.3,1.4,0.4,1.8c0.7,0.4,1.2-0.3,1.7-0.7c3.7-3.3,7.5-6.7,11.2-10
	c1.8-1.6,2.6-3.1,0-4.7c-0.9-0.6-2-1.4-1-2.7c0.9-1.1,2-0.3,3,0.2c2.7,1.5,5.5,2.8,8.3,4.3c1,0.5,2.7,0.8,2.2,2.4
	C561.1,345.5,559.7,345,558.5,344.8z"/>
<path d="M164.4,383c-0.1,0.1-0.3,0.2-0.4,0.3c-0.8-0.1-1.4,0.1-1.6,1c-2.3,1.7-4.6,3.5-6.9,5.2c-0.9,0.6-1.6,1.6-2.9,1.1
	c0-0.9,0-1.8,0-2.7c0.3-0.4,0.7-0.7,1-1.1c1.8-1.2,1.5-2.5,0-3.8c-0.1-0.2-0.2-0.3-0.3-0.5c0.1-0.8-0.2-1.3-1.1-1.5
	c-3.9-5.5-7.9-11.1-11.8-16.6c-1.1-1.5-2.1-2.2-3.8-0.8c-0.7,0.6-1.6,1.5-2.6,0.4c-0.7-0.8-0.4-1.8,0.2-2.5c1.9-2.5,1.1-4.6-0.6-6.9
	c-3.2-4.2-5.4-8.9-6.4-14.2c-1.4-7.8,2.8-15.7,10.1-18.4c2.4-0.9,4.8-1.2,7.1,0.2c2.5,1.5,2.8,3.8,1.7,6.1c-1,2.3-3.1,2.2-5.2,1.5
	c-1.3-0.4-2.5-0.9-3.8-1.1c-4-0.6-5.5,1.1-4.6,5c1.2,4.6,3.7,8.5,6.4,12.4c4.6,6.9,4.6,6.9,11.5,2.2c0.4-0.3,0.7-0.5,1.1-0.8
	c1-1,2.1-0.9,2.8,0.2c0.7,1.1,1.1,2.3-0.2,3.3c-1.4,1.1-2.8,2.3-4.4,3.1c-3.1,1.7-3.1,3.5-0.9,6c1.9,2.2,3.4,4.7,5.1,7
	c-0.1,0.8,0.3,1.3,1.1,1.5c1.4,2,2.8,3.9,4.3,5.9c-0.1,0.8,0.3,1.3,1.1,1.5c0.7,1,1.5,1.9,2.7,2.5c0.9,1,1.7,0.8,2.5-0.2
	c0.8-0.4,1.6-0.8,2.4-1.3c0.7,0.1,1.3,0.1,2,0.2c1.1,2.1-0.9,2.4-1.9,3.3C166.5,380.9,165.3,381.7,164.4,383z"/>
<path d="M453.2,335.1c-11,0-19.7-7.6-19.5-17.7c0.2-11.9,8.5-21.1,19.6-21c10.3,0.1,18.9,7.9,18.7,17.9
	C471.8,325.6,464.7,335.4,453.2,335.1z M462,310.5c-0.1-0.5-0.1-1.6-0.3-2.7c-0.4-3.4-1.8-6.3-5.4-7.2c-3.6-0.9-6,1.4-7.7,4.1
	c-3.7,5.8-5.3,12.2-4.4,19.1c0.5,4,2.7,6.8,5.7,7.4c3,0.6,5.9-1,8-4.8C460.4,321.6,461.8,316.5,462,310.5z"/>
<path d="M499.9,283.4c0.4,0,0.9,0,1.3,0c6.4-0.1,6.2-0.2,3.8,6c-6.4,16.4-12.6,32.8-18.8,49.3c-0.8,2.2-0.3,3.9,1.9,5
	c0.9,0.5,1.8,1.2,1.2,2.4c-0.6,1.2-1.6,0.7-2.6,0.3c-4.9-1.9-9.8-3.7-14.7-5.6c-1-0.4-2.1-0.6-1.6-2c0.4-1.2,1.4-1.3,2.5-1
	c2.5,0.8,3.8-0.6,4.6-2.7c3.6-9.3,7.2-18.7,10.8-28c1.9-5,3.8-10,5.7-15c0.7-1.9,1.1-3.8-0.2-5.8c-1.4-2.2-0.4-3,1.9-2.9
	C497,283.4,498.4,283.4,499.9,283.4C499.9,283.4,499.9,283.4,499.9,283.4z"/>
<path d="M119.6,398.6c0.7-1.2,1.4-2.4,2-3.6c0.7-0.3,1-0.9,0.8-1.6c0.2-0.3,0.4-0.7,0.6-1c0.7-0.3,1-0.8,0.9-1.6
	c0.1-0.2,0.2-0.3,0.3-0.5c0.8-0.3,1.1-0.9,0.8-1.7c0.2-0.6,0.4-1.3,0.6-1.9c0.6-0.8,0.2-1.3-0.6-1.6c-1.5-1.7-2.8-3.5-4.7-4.7
	c-2.2-1.4-4.3-1.7-6.4,0.2c-1.9,1.8-2,3.7-0.6,6c1.6,2.7,0.2,6.8-2.4,8.4c-1.1,0.6-1.9,0.5-2.5-0.5c-0.2-0.3-0.3-0.6-0.5-0.9
	c-2.9-6.8,4.1-20.1,11.4-21.5c4.2-0.8,7.3,1,9.9,4.1c0,0.8,0.4,1.3,1.2,1.4c1.2,1.5,2.4,3,3.5,4.6c0,0.8,0.4,1.3,1.1,1.5
	c0.5,0.6,1,1.2,1.6,1.8c-0.1,0.8,0.3,1.3,1.1,1.5c1.3,1.4,2.3,3.1,4.1,4.1c1.7,2.1,3.4,2.4,5,0c0,0,0.1-0.1,0.1-0.1
	c0.9-0.2,1.1-0.8,1-1.6c0,0,0,0,0,0c0.4,0,0.7-0.2,0.7-0.6c0.6-0.2,1.1,0.2,1.4,0.7c-0.2,0.5-0.1,1,0.2,1.5
	c-0.1,0.4-0.1,0.8-0.2,1.2c-0.6,0.4-0.7,0.8-0.5,1.5c-1.2,2.6-2.7,4.9-5.5,6c-2,1-4.7-0.8-6.3,1.7c-0.2,0.5-0.3,1-0.5,1.5
	c-0.7,0.3-0.7,0.8-0.5,1.5c-0.4,0.8-0.7,1.6-1.1,2.4c-0.9,0.1-1.2,0.7-1.1,1.5c-0.7,0.7-1.4,1.3-2.1,2c-2.4,0.8-4.8,1.7-7.4,1.5
	c-2.8-0.9-5-2.6-6.1-5.4c0.3-0.7,0.1-1.2-0.5-1.5c0-0.9,0.1-1.8,0.1-2.7C119.4,401.1,119.6,399.9,119.6,398.6z M130.5,403.3
	c1.9,0.1,3.2-0.9,4.2-2.3c1-1.5,0.7-3-0.4-4.3c-1.4-1.8-2.7-3.5-4.1-5.2c-1-1.2-2-1.3-2.9,0.1c-1.1,1.6-2.1,3.2-2.3,5.1
	C124.5,399.9,127.3,403.2,130.5,403.3z"/>
<path d="M572.6,352.9c4.4,0.2,9.3,2.6,12.5,7.7c2.5,4,2.7,8.2,0.2,12.3c-1.7,2.9-3.1,3.4-5.9,1.5c-4.4-3-8.8-6.1-13-9.3
	c-2.2-1.7-3.3-1.5-4.6,1c-3.4,6.9-2.4,13.3,3,17.4c2.3,1.7,4.8,2.8,7.8,1.8c1-0.3,2.1-0.7,2.6,0.5c0.6,1.4-0.7,1.9-1.7,2.4
	c-4.1,2.1-8.3,2.4-12.6,0.7c-9.2-3.7-13-13.1-9.1-22.3C555.3,358.4,563.1,352.8,572.6,352.9z M580.7,363.1c0-1.4-0.5-2.6-1.4-3.6
	c-2.4-2.7-7.4-3.1-10.8-1c-1.8,1.1-2,2.2-0.1,3.4c2.2,1.5,4.3,3.2,6.5,4.6c1.1,0.7,2.2,1.7,3.7,0.8
	C580.1,366.4,580.6,364.9,580.7,363.1z"/>
<path d="M288.2,307.1c0.2-11.3,8.4-19.8,18.8-19.3c5.5,0.3,10.3,4.1,11.5,9.1c0.8,3.3,0.1,4.6-3.3,5.2c-5.2,1-10.5,1.9-15.8,2.6
	c-2.8,0.3-3.3,1.4-2.5,4c2.8,9,12.2,13.2,19.1,8.4c1.1-0.8,2-1.7,2.6-3c0.4-0.8,1-1.2,1.9-0.8c0.9,0.4,0.9,1.2,0.7,2
	c-0.9,2.8-2.2,5.3-4.5,7.3c-9.8,8.5-24.4,3.7-27.4-9.2C288.6,311.3,288.5,309.1,288.2,307.1z M304.7,291.6c-4.4-0.1-8.6,4.1-8.7,7.9
	c0,1.7,0.9,1.8,2.2,1.6c3-0.5,5.9-0.9,8.9-1.5c2.7-0.6,3.4-2.2,2.2-4.7C308.3,292.7,306.5,291.7,304.7,291.6z"/>
<path d="M162.8,350.7c-0.2-9.1,4.6-16,12.1-18.3c5.3-1.6,10.3,0.1,13.6,4.5c1.8,2.4,1.6,4.3-1,5.8c-4.7,2.8-9.3,5.7-14.1,8.3
	c-2.2,1.2-2.5,2.3-0.9,4.4c4.6,6.1,12.6,7.8,18.3,3.7c2.1-1.5,3.5-3.3,4-5.9c0.1-0.8,0.1-2,1.4-1.9c1.4,0.2,1.5,1.4,1.6,2.6
	c0.4,6.2-4.1,13-10.3,15.4c-6.4,2.5-13.5,0.9-18.3-4.3C165.1,360.8,162.8,355.7,162.8,350.7z M168.4,344.9c0.5,1.3-0.8,4.6,2.5,3.3
	c3.1-1.2,5.9-3.5,8.8-5.4c1.4-0.9,1.2-2.2,0.4-3.5c-1.5-2.3-4.5-3.2-7-2C169.9,338.7,168.6,341.4,168.4,344.9z"/>
<path d="M340,323.2c-5.9,0-8.9-2.9-9.4-9.4c-0.5-6.7-0.9-13.3-1.2-20c-0.1-2.2-0.6-3.4-3.1-3c-1,0.2-2.1,0-2.4-1.2
	c-0.3-1.3,0.9-1.6,1.7-2.1c3.7-2,6.9-4.5,9-8.3c0.4-0.8,1.1-1.5,2.1-1.3c1.3,0.2,1.2,1.4,1.3,2.4c0.1,0.9,0.2,1.8,0.2,2.7
	c0,1.9,0.9,2.5,2.7,2.4c1.9-0.2,3.8-0.2,5.7-0.4c1.3-0.1,2.6-0.1,2.8,1.6c0.2,1.7-0.6,2.8-2.4,2.9c-1.9,0.1-3.8,0.3-5.7,0.4
	c-1.8,0.1-2.6,0.8-2.5,2.7c0.4,6.1,0.5,12.3,1.2,18.3c0.8,6,3.9,7.6,9.5,5.5c0.8-0.3,1.5-0.7,2.1,0.2c0.5,0.8-0.1,1.5-0.6,2.1
	C348.1,322,344.3,323.3,340,323.2z"/>
<path d="M595.6,375.8c-0.3-2.3,0.4-3.2,3-2.3c2.6,1,5.3,1.7,8,2.4c2.4,0.6,2.7,1.6,1,3.4c-0.6,0.7-1.9,1.2-1.3,2.4
	c0.5,1.1,1.8,0.6,2.7,0.6c2,0,3.8,0.5,5.5,1.4c2,1,3.2,2.6,2.7,4.9c-0.5,2.4-2.2,3.9-4.6,4.2c-2.4,0.3-4.1-0.8-4.9-3.1
	c-0.2-0.6-0.4-1.3-0.7-1.9c-1.4-3.2-2.9-3.6-5.5-1.1c-4.8,4.7-8.9,9.9-13.2,15c-1.9,2.2-1,4.1,0.9,5.8c0.8,0.7,1.9,1.6,0.8,2.8
	c-1.1,1.2-2,0.2-2.8-0.6c-4.2-3.8-8.2-7.8-12.8-11.2c-0.7-0.5-1.5-1.2-0.8-2.2c0.6-0.9,1.6-0.9,2.4-0.4c2.8,1.8,4.5,0.3,6.3-1.7
	c4-4.6,8.1-9.2,12.1-13.8C595.3,379.2,596.2,377.8,595.6,375.8z"/>
<path d="M286.9,430.1c0-4.3,0-8.6,0-12.9c0-1.3-0.6-3.3,1.8-3.1c2,0.1,1.6,1.8,1.6,3.1c0,5.8,0,11.6,0,17.4c0,1.1,0.3,2.3-1.1,2.8
	c-1.5,0.5-2.3-0.4-3.1-1.4c-3.4-4.2-6.8-8.5-10.3-12.7c-0.5-0.7-0.9-1.8-1.9-1.4c-1,0.4-0.6,1.6-0.6,2.4c0,3.6,0,7.1,0,10.7
	c0,1.3,0.1,2.6-1.8,2.6c-1.6-0.1-1.6-1.3-1.5-2.4c0-6.1,0-12.2,0-18.4c0-1-0.2-2.2,1-2.6c1.3-0.4,2.1,0.4,2.8,1.3
	c3.2,4,6.4,7.9,9.7,11.9c0.8,1,1.7,2,2.5,3C286.3,430.2,286.6,430.1,286.9,430.1z"/>
<path d="M310.6,425.5c0-3,0-6,0-9c0-1.8,0.6-2.7,2.5-2.6c2.3,0.1,4.7,0,7,0.1c6.2,0.5,10.4,5,10.7,11.1c0.2,6.3-3.9,11.3-10,12.2
	c-9.8,1.4-10.1,1.1-10.1-8.5C310.6,427.7,310.6,426.6,310.6,425.5C310.6,425.5,310.6,425.5,310.6,425.5z M313.9,425.6
	c0,2.1,0,4.2,0,6.3c0,1.1,0.1,2.1,1.5,2.2c3.3,0.1,6.7,0.6,9.4-2.2c2.6-2.6,2.8-5.7,2-9c-1-4.2-5.7-6.6-11.1-5.5
	c-3.7,0.8-1,4.1-1.7,6.1C313.7,424.2,313.9,424.9,313.9,425.6z"/>
<path d="M451.6,425.5c0.1-2.6,0.2-5.1,1.4-7.5c1.1-2.3,2.8-4.2,5.5-4.3c2.6-0.1,4.5,1.5,5.5,3.7c2.5,5.5,2.5,11.2-0.1,16.7
	c-1,2.3-2.9,3.7-5.6,3.5c-2.7-0.2-4.4-1.9-5.4-4.3C451.8,430.8,451.7,428.2,451.6,425.5z M454.9,425.7c0.1,2.3,0,4.7,1.2,6.8
	c1.3,2.3,3.9,2.4,4.9,0c2-4.4,1.9-9.1,0-13.6c-0.4-1-1.3-1.8-2.6-1.7c-1.3,0.1-1.9,0.9-2.4,2C455,421.3,454.9,423.5,454.9,425.7z"/>
<path d="M433.5,422.5c-0.2,5.6-2.7,10-6.7,13.7c-0.9,0.9-2,1.6-3.1,0.2c-1.1-1.3-0.1-1.9,0.7-2.7c0.8-0.7,1.6-1.5,2.3-2.4
	c0.8-1,2.3-2.1,1.8-3.3c-0.5-1.4-2.2-0.2-3.3-0.4c-2.8-0.5-4.9-2.8-5.2-6.1c-0.3-3.6,1.6-6.6,4.7-7.5c2.8-0.9,6.1,0.6,7.6,3.4
	C433.2,419,433.5,420.7,433.5,422.5z M430.1,420.7c-0.3-1.7-1.2-3.5-3.7-3.4c-2.2,0-3.3,1.6-3.2,3.5c0.1,2.1,1.5,3.5,3.7,3.5
	C428.8,424.2,430.2,423.3,430.1,420.7z"/>
<path d="M354.4,437.8c-1.9-0.8-5-0.2-5.6-3.7c-0.1-0.6,0-1.5,0.3-1.9c0.6-0.6,1.1,0.2,1.7,0.5c0.2,0.1,0.4,0.3,0.5,0.4
	c2.2,1.2,4.6,2.2,6.2-0.4c1.5-2.5-0.8-3.8-2.4-5c-1.3-1-2.8-1.9-4-3c-2.7-2.4-3-5.7-1.1-8.4c1.9-2.6,5.8-3.4,8.7-1.9
	c1.5,0.8,2.4,2,1.6,3.5c-0.8,1.6-1.9-0.1-2.8-0.4c-1.9-0.6-3.9-1.1-5,1c-1.2,2.1,0.5,3.3,2,4.3c1.5,1.1,3.3,2,4.6,3.3
	c2.1,2.1,3,4.6,1.7,7.6C359.6,436.6,357.5,437.6,354.4,437.8z"/>
<path d="M220.5,437.7c-3.4-0.1-5.7-1.6-5.7-3.8c0-0.5,0.1-1.2,0.4-1.5c0.5-0.5,1,0.1,1.4,0.4c0.4,0.3,0.9,0.7,1.4,0.9
	c2,0.8,4.1,1.2,5.4-0.9c1.3-2.1-0.4-3.6-1.9-4.7c-1.4-1.1-3-2-4.4-3.1c-2.7-2.2-3.3-6.1-1.5-8.7c1.7-2.5,5.9-3.3,8.8-1.9
	c1.5,0.8,2.4,2,1.8,3.5c-0.9,2-2,0-2.9-0.4c-1.9-0.7-3.9-1-5.1,0.9c-1.3,2,0.4,3.3,1.9,4.4c1.5,1.1,3.2,2,4.6,3.3
	c2.3,2.2,2.9,5,1.7,8C225.3,436.6,223.2,437.7,220.5,437.7z"/>
<path d="M495.5,420.2c0.5,2.2-1.3,5.3,2,7.1c0.5,0.3,0.5,1.5,0,1.8c-2.6,1.4-1.9,3.7-1.9,5.8c0,1.3-0.1,2.6-1.8,2.5
	c-1.7-0.1-1.7-1.3-1.8-2.6c-0.2-4.9-0.2-4.9-5.4-5c-1.1,0-2.6,0.7-3.3-0.8c-0.5-1.2,0.7-2,1.3-2.9c2.7-3.7,5.5-7.3,8.2-10.9
	c0.5-0.7,1.1-1.7,2.1-1.4c1.1,0.4,0.7,1.4,0.7,2.3C495.5,417.5,495.5,418.7,495.5,420.2z M492,421c-1.5,1.6-2.4,2.5-3.1,3.4
	c-0.4,0.5-0.8,1.1-0.5,1.8c0.4,0.9,1.4,0.8,2.1,0.6C493.4,425.8,491.7,423.6,492,421z"/>
<path d="M163.3,314.5c-0.2-4.5,1.8-6.2,5.8-4.9c1.7,0.6,2.7,1.6,2.4,3.5c-1,5.9-2,11.8-3.1,17.7c-0.2,0.9-0.6,1.8-1.8,1.6
	c-1-0.1-1.1-1-1.2-1.8C164.8,325.3,164,319.9,163.3,314.5z"/>
<path d="M246.1,425.8c0-3.1,0-6.2,0-9.4c0-1.1,0-2.4,1.5-2.5c1.8-0.1,1.9,1.2,1.9,2.5c0,6.2,0,12.5,0,18.7c0,1.2-0.1,2.4-1.7,2.3
	c-1.5,0-1.7-1.1-1.7-2.4C246.1,432,246,428.9,246.1,425.8C246.1,425.8,246.1,425.8,246.1,425.8z"/>
<path d="M399,425.7c0,3.1,0,6.2,0,9.3c0,1.2-0.2,2.4-1.7,2.4c-1.5,0-1.6-1.2-1.6-2.4c0-6.2,0-12.5,0-18.7c0-1.1,0-2.4,1.6-2.4
	c1.5,0,1.6,1.3,1.7,2.4C399,419.5,399,422.6,399,425.7z"/>
<path d="M300.2,357.5c0-0.8,0-1.6,0-2.3c0-3.7,2.4-5.2,5.6-3.2c2.2,1.3,2.9,3.7,2.7,6.1c-0.2,2.4-1.2,4.5-3.7,5.5
	c-3,1.1-4.4,0.2-4.6-2.9C300.2,359.5,300.3,358.5,300.2,357.5C300.3,357.5,300.2,357.5,300.2,357.5z M302.5,357.5c0,0.4,0,0.9,0,1.3
	c0.1,1.1-0.6,2.7,1.4,2.8c1.7,0.1,2.6-1,2.4-2.8c-0.1-0.7,0.1-1.3,0-2c-0.1-1.6-0.6-3.5-2.5-3.4c-2.4,0.1-0.9,2.2-1.3,3.4
	C302.5,357,302.5,357.2,302.5,357.5z"/>
<path d="M417.3,377.9c0-0.9,0-1.8,0-2.7c0-3.6,1.8-4.7,5.1-3c2.3,1.3,3,3.4,3,5.9c-0.1,2.5-1.1,4.6-3.5,5.6
	c-2.9,1.3-4.5,0.2-4.5-2.9C417.3,379.9,417.3,378.9,417.3,377.9z M418.8,378c1.4,1-1.4,3.8,1.7,3.9c2.2,0.1,2.9-2.1,2.9-4.1
	c0-2-0.7-4.3-2.8-4.2C417.7,373.7,419.8,376.4,418.8,378z"/>
<path d="M295.4,355c-0.3,0.8-0.6,1.2,0.8,1.7c0.9,0.4,1.3,2.4,1.7,3.8c0.3,0.8,1.1,2.2-0.3,2.6c-1.2,0.3-1.2-1-1.4-1.8
	c-0.3-1.3-1.2-1.7-2.5-1.7c-1.2,0-1.7,0.6-2,1.7c-0.3,1-0.8,2.5-2.1,2c-1.2-0.5-0.2-1.7,0.1-2.6c0.7-2.1,1.3-4.2,2-6.3
	c0.4-1.1,0.4-3,2.3-2.7C296.1,351.9,295,353.8,295.4,355z"/>
<path d="M337.4,357.2c-2,1.7,0.2,2.7,0.8,3.9c0.4,0.8,1.2,1.7,0.3,2.3c-0.8,0.5-1.6-0.3-2.1-1.1c-0.2-0.4-0.4-0.8-0.7-1.1
	c-0.5-0.8-0.7-2.2-1.8-2.1c-1.4,0.2-0.6,1.6-0.8,2.5c-0.1,0.8,0,1.8-1,1.8c-1.2,0.1-1.3-0.9-1.3-1.9c0-2,0-4,0-6
	c-0.2-3.8,0.1-4,4.7-3.7c0.8,0.1,1.6,0,2.1,0.7c-0.6,0.8-1.4,1-2.4,0.8c-0.9-0.2-1.9-0.4-2.2,0.8c-0.2,0.8-0.5,1.8,0.4,2.4
	c0.9,0.6,1.7,0.1,2.4-0.5C337.7,354.6,337.5,356,337.4,357.2z"/>
<path d="M388.6,377.4c-0.1,3.4,0.7,5.4,4.2,4.7c0.6-0.1,1.5-0.1,1.6,0.7c0.1,0.8-0.7,1-1.3,1.3c-2.5,1-4.9-0.1-6.3-2.8
	c-2.2-4.1,0.2-9.7,4.2-9.9c1.2-0.1,3,0,2.9,1.5c-0.1,1.7-1.5,0.3-2.3,0.3C388.5,373.5,388.8,375.9,388.6,377.4z"/>
<path d="M401.8,378.5c-2.3-0.5-3.3,0.4-3.1,2.8c0.1,0.8,0.2,2.1-0.9,2.1c-1.1,0-0.9-1.3-0.9-2.2c0-2.3,0-4.7,0-7
	c0-0.8-0.3-2.1,0.9-2.1c0.9,0,0.9,1.1,0.9,1.8c0,1.2,0,2.2,1.7,2.2c1.7,0,2-1,2-2.4c0.4-0.3,0.5-0.8,0.4-1.3c0,0,0,0,0,0
	c0.4,0,0.9,0,1.3,0c0.4,3.5,0.5,7.1,0,10.6c-0.4,0-0.8,0-1.2,0c-0.4-0.5-0.5-1-0.3-1.6C402.9,380.5,403.5,379.2,401.8,378.5z"/>
<path d="M369.8,375.9c1.5,1.3,2.4,1.4,2.2-1.1c-0.1-1-0.5-2.6,1-2.7c1.9-0.1,1.2,1.7,1.3,2.8c0.1,2.1,0.1,4.2,0,6.3
	c0,0.9,0.3,2.1-1.2,2.3c-1.6,0.3-1.9-0.8-2.2-1.9c-0.6-1.5-0.9-3.2-2.7-4C367.9,376.4,368.9,376.2,369.8,375.9z"/>
<path d="M310.4,377.4c0.2,1.9-1.1,4.3,1.9,5.2c0.7,0.2,0.1,1.3-0.7,1.4c-1.3,0.2-2.7,0.2-4,0.1c-0.5,0-1.2-0.3-1.4-0.7
	c-0.4-0.9,0.5-0.9,1-1.3c1.6-1.1,1.7-7,0.1-7.7c-0.6-0.3-1.4-0.2-1.2-1.1c0.3-1.1,1.5-1.2,2.4-1.6c0.8-0.3,1.3,0.3,1.4,1
	C310.3,374.3,310.4,375.9,310.4,377.4z"/>
<path d="M272.4,363.7c-1,0.1-1.9-0.2-1.7-1.3c0.1-0.8,1-0.7,1.6-0.6c1.3,0.3,2.4,0,2.6-1.3c0.3-1.4-0.9-2.1-2-2.6
	c-1.6-0.8-3.2-1.9-3.1-3.8c0.1-1.3,1.1-2.7,2.9-2.6c1,0.1,2,0.2,3,0.3c0.7,1.2-0.2,1.3-1,1.2c-1.1-0.1-2.2-0.1-2.5,1
	c-0.4,1.4,1.1,1.7,1.9,2.4c0.6,0.5,1.4,0.7,2,1.2c2.3,2,1.6,3.9-1.9,5.9C273.5,363.2,272.9,363.1,272.4,363.7z"/>
<path d="M322.2,354.6c0,1.8-0.1,3.6,0.1,5.3c0.2,1.5,1.6,2.3,3,2c1.9-0.5,1-1.6,0.4-2.7c-0.2-0.4-1-1.1,0.3-1.5
	c1.1-0.3,1.9,0.2,2,1.1c0.2,1.9,1,4.1-1.7,5c-2.2,0.8-5-0.4-5.7-2.7c-0.6-2.1-0.8-4.4-0.1-6.5C321.2,354.6,321.7,354.6,322.2,354.6z
	"/>
<path d="M410.2,378.5c-1.3,2.7-0.7,4,2.4,3.7c0.7-0.1,1.5,0,1.5,0.8c0,0.8-0.7,0.9-1.4,1.1c-4.3,0.7-4.8,0.3-4.8-4.1c0-2-0.1-4,0-6
	c0-1.3,0.2-2.6,2.1-2.1c0,0.6,0,1.2,0.1,1.8c-0.5,0.9-0.7,1.8,0,2.7C410.1,377,410.1,377.8,410.2,378.5z"/>
<path d="M385.4,353c-3,2.3-0.2,3.3,1.2,4c1.5,0.8,2.4,1.9,2.4,3.2c0,1.3-0.8,2.7-2.4,3.3c-1.6,0.6-2.9,0.4-4-0.8
	c0.6-0.8,1-0.3,1.6-0.3c1.3,0.1,2.6-0.5,2.9-1.6c0.4-1.2-0.8-1.9-1.8-2.4c-1.3-0.7-2.8-1.2-3-3.1c-0.3-2.5,0.6-3.8,3.2-3.9
	C385.4,351.9,385.4,352.5,385.4,353z"/>
<path d="M357.3,372.5c1.5-2,3.5-0.9,5.3-0.9c0.2,0,0.5,0.7,0.5,1c0,0.8-0.5,1.1-1.3,1.2c-1,0.1-2.6-0.5-2.6,1.2c0,1.4,1.4,1,2.3,1.1
	c0.9,0.1,1.6,0.5,1.6,1.4c0,1-0.8,1.3-1.6,1.3c-2.3,0-2.8,1.2-2.3,3.2c-0.4,0-0.7-0.1-1.1-0.1C357.8,378.8,359.1,375.5,357.3,372.5z
	"/>
<path d="M377.2,362.7c-1.3-0.9-1.3-2.4-2-3.6c-0.6-1.1-1.2-1.1-2-0.3c-1.3-2.3,0.9-4.3,0.5-6.5c1.5,1,1.1,3.2,2.8,4.4
	c1.1-1.3,0.5-2.7,0.7-4c0.1-0.7,0.4-1.3,1.2-1.2c0.7,0,0.9,0.5,0.7,1.2c-0.6,0-1.2,0.2-1.1,0.9C378.5,356.7,377.3,359.7,377.2,362.7
	z"/>
<path d="M430.4,378.7c-0.6,2.2-0.5,3.8,2.4,3.5c0.7-0.1,1.8-0.2,1.7,0.9c0,1.1-1.1,1.1-1.8,1c-1.6-0.4-4.4,1.4-4.5-2.2
	c0.8-0.9,0.8-1.8,0-2.7c0-1.1,0-2.2,0-3.4c0.7-0.4,0.7-0.9,0-1.3c-0.1-1.5-0.2-3,2-2.8c0,0.7,0,1.4,0,2.2c-0.2,0.8-0.2,1.7,0.2,2.5
	C430.5,377.2,430.4,378,430.4,378.7z"/>
<path d="M406.2,351.7c3.1,0.3,3.7,3.1,2.6,4.6c-1.5,2.2-0.6,3.3,0.5,4.8c0.5,0.6,0.7,1.4,0.5,2.3c-1.9-0.3-2.4-1.9-3.3-3.1
	c-0.6-0.8-0.7-2.3-2.3-1.9c-1.6-0.4-1.8-1.1-0.4-2.1c1.3,0.6,2.5,0.8,3.5-0.7c1-1.5-0.3-1.9-1-2.6
	C406.2,352.7,406.2,352.2,406.2,351.7z"/>
<path d="M428.7,357.1c-0.8,1.3-1.6,2.6-2.4,4c0.9,0.2,1.6,0.3,2.3,0.5c0.6,0.2,0.9,0.6,0.8,1.3c-0.1,0.8-0.8,1.2-1.5,1.1
	c-1.8-0.2-3.9,0.9-5.3-0.9c-0.6-0.8,0-1.4,0.6-2c1.4-1.5,2.7-3.1,4-4.7C427.5,357.2,428.1,357.1,428.7,357.1z"/>
<path d="M403.8,356.4c-1.3,1-1.2,1.7,0.4,2.1c-0.7,1.6,0.9,4.6-1.1,4.6c-2.4-0.1-0.8-3-1.1-4.7c-0.2-1.1-0.1-2.2,0-3.3
	c0.1-3.8,0.4-4.1,4.3-3.4c0,0.5,0,1,0,1.5C403.7,352.9,403.7,354.6,403.8,356.4z"/>
<path d="M327,383.4c-1.7-3.6-0.7-7.3-0.5-10.9c0.1-1.4,1.7-1.2,2.8-1.1c1.2,0,2.6-0.5,3.4,0.7c0.6,0.9,0,1.5-0.9,1.6
	c-1.2,0.2-2.4,0.2-3.6,0.3c-0.2-0.3,0-1-0.6-1c-0.6,0.1-0.4,0.7-0.4,1C327,377.2,327,380.3,327,383.4z"/>
<path d="M355.8,359c0.1-2.1,0.9-4.1,1.6-6.1c0.2-0.7,0.8-1.5,1.7-1.1c0.7,0.3,0.5,1.1,0.2,1.8c-0.7,2.2-1.4,4.4-2.2,6.5
	c-0.5,1.2-0.3,3.3-2.2,3.2c-1.9-0.1-1.5-2.1-1.8-3.5c0.5-0.1,0.9-0.3,1.4-0.4c0,0,0.2,0.1,0.2,0.1c0.1,0.4,0.3,0.9,0.8,0.7
	C356.1,360.1,356,359.5,355.8,359z"/>
<path d="M369.8,375.9c-0.9,0.3-1.9,0.5-1.6,1.8c0,1.6,0.1,3.3,0.1,4.9c0,0.5-0.3,1.2-1,1c-0.3-0.1-0.7-0.6-0.7-1
	c-0.1-3.2-0.1-6.4,0-9.6c0-0.5,0.2-1.2,0.9-1.2c0.5,0,1,0.5,1.2,0.9C369.2,373.8,369.5,374.8,369.8,375.9z"/>
<path d="M396.4,362.8c-1.9,1.2-1.7-0.3-1.8-1.4c-0.3-2.7,0.6-5.5-0.5-8.2c0.1-0.5,0.1-1,0.2-1.6c1.5,0,2.9-0.1,4.4-0.1
	c0,0.5,0,1,0.1,1.5c-0.9,0.2-2,0.3-2.2,1.6c-0.7,1.9-0.5,3.7,0,5.6c0,0.2,0,0.5,0,0.7C396.5,361.5,396.5,362.2,396.4,362.8z"/>
<path d="M382.9,378.4c2.2,1.7,1,3.4-0.2,4.8c-1.3,1.5-3.2,1.4-4.9,0.7c-0.3-0.1-0.7-0.7-0.7-1c0.2-0.8,0.9-0.8,1.6-0.8
	c2.1,0.1,3.7-0.1,2.9-2.9C382.2,379.2,382.7,379,382.9,378.4z"/>
<path d="M337.4,357.2c0.1-1.2,0.3-2.6-1.6-1.2c-0.7,0.6-1.5,1.1-2.4,0.5c-0.9-0.6-0.6-1.6-0.4-2.4c0.3-1.2,1.3-1,2.2-0.8
	c1,0.2,1.8,0,2.4-0.8C340.6,354.2,339.2,355.7,337.4,357.2z"/>
<path d="M298,382.3c1.1-2.5,0.3-5.2,0.5-7.8c-0.2-1.1-0.1-2,1.4-2c0.9,3.1,0,6.4,0.5,9.5c0,0.6,0,1.1,0.1,1.7c-0.7,0-1.3,0-2,0
	C298.4,383.2,298.2,382.7,298,382.3z"/>
<path d="M340.6,371.9c2.1,0.2,3.4,1.5,3.2,3.4c-0.3,2.9-2.7,3.7-5.3,3.8c0-0.6,0-1.3,0.1-1.9c3.2-0.4,3.5-1.1,1.8-3.7
	C340.5,373,340.5,372.4,340.6,371.9z"/>
<path d="M314.4,358.2c-1.8-0.7-3.5-1.5-3.5-3.9c0-1.7,0.9-2.7,2.6-2.9c1,0.6,2,0.5,3.1,0.4c0.2,0.8-0.1,1.1-0.9,1.3
	c-3.4,0.7-3.4,0.7-1.2,3.5C314.5,357.1,314.4,357.7,314.4,358.2z"/>
<path d="M363.4,353.9c0,0.6,0,1.2,0,1.9c0,0.9,0,1.9,0,2.8c0,1.5-0.5,3.3,2,3.3c0.2,0.5,0.4,0.5,0.7,0c0.4,0,0.9,0.1,1.3,0.1
	c0,0.4,0,0.9,0,1.3c-5.5,0.8-5.6,0.7-5.6-4.8c0-1.5,0-3.1,0-4.6c0-1.2,0.2-2.2,1.7-2.3C363.5,352.4,363.5,353.1,363.4,353.9z"/>
<path d="M322.2,354.6c-0.5,0-1.1,0-1.6,0c0.8-2.9,3.3-4.4,5.8-3.4c0.7,0.3,1.6,0.5,1.5,1.5c-0.1,1.1-1,1-1.8,0.8
	C324.5,352.9,323.4,353.8,322.2,354.6z"/>
<path d="M354.5,359.5c-0.5,0.1-0.9,0.3-1.4,0.4c-1.2-1.7-1.8-3.7-2.3-5.7c-0.2-0.8-1.1-2.1,0.4-2.5c1.1-0.3,1.3,0.8,1.6,1.7
	C353.3,355.5,353.9,357.5,354.5,359.5z"/>
<path d="M435.7,360.5c0-1.2-0.1-2.4-0.1-3.6c0-1.6,0.5-3.5-2.9-3.7c2-0.8,2.9-2.1,4.1-1.3c1,0.6,0.5,1.8,0.5,2.8
	c0,2.1-0.1,4.2-0.1,6.3c-0.2,0.4-0.4,1.3-0.6,1.2C435.8,362.1,436.4,360.9,435.7,360.5z"/>
<path d="M435.7,360.5c0.7,0.4,0.1,1.5,1,1.7c0.1,0,0.4-0.8,0.6-1.2c0.7,0.7,2.6,0.4,2.2,1.9c-0.5,1.7-2.3,0.7-3.5,1
	c-0.9,0.2-2.2,0.3-2.5-0.9C433,361.3,435.4,361.8,435.7,360.5z"/>
<path d="M338.6,377.3c0,0.6,0,1.3-0.1,1.9c-1.4,1.2,0.3,3.3-1.7,5c-0.4-4.3-1.2-8.1,0.3-12c0.5,0.5,0.9,1,1.4,1.5
	C338.1,374.8,338,376.1,338.6,377.3z"/>
<path d="M279.6,375.4c-0.3-1.5-1.5-1.6-2.8-1.6c-0.8,0-1.6-0.1-1.7-1.1c-0.1-1.2,0.9-1.3,1.8-1.3c1.2,0,2.4-0.3,3.5,0.4
	c0,1.2,0,2.4,0,3.6c0,0,0,0,0,0C280.2,375.3,279.9,375.4,279.6,375.4z"/>
<path d="M292,380.6c-0.3,2.9-2.1,3.9-4.8,3.7c-0.7-0.1-1.7-0.3-1.6-1.3c0.1-0.8,0.9-0.9,1.6-0.8c1,0.1,2,0,2.7-0.8
	C290.6,381.1,291.3,380.9,292,380.6z"/>
<path d="M314.4,358.2c0-0.5,0.1-1.1,0.1-1.6c1.3,0.2,2.3,1,2.9,2.2c0,0.9-0.1,1.9-0.1,2.8c-0.2,1.4-1.2,1.8-2.5,1.9
	c-0.3-0.4-0.6-0.9-0.9-1.3C316.2,361.1,316.5,359.8,314.4,358.2z"/>
<path d="M342.6,355.2c-0.2-1.1,0.4-1.8,1.1-2.4c0.4,1.4,1,2.5,2.8,1.8c0.5,0.6,1,1.1,0.9,1.9C344.4,359.2,344.4,359.2,342.6,355.2z"
	/>
<path d="M279.6,375.4c0.3,0,0.6-0.1,0.9-0.1c0.4,2.9-1.7,4.9-2.7,7.3c-0.2,0.5-0.4,0.7-0.9,0.3c-0.5-0.4-0.6-0.8-0.5-1.4
	C277.1,379.2,278.5,377.4,279.6,375.4z"/>
<path d="M358.1,381.9c0.4,0,0.7,0.1,1.1,0.1c1.2,0.7,3.8-0.9,3.7,1.2c-0.1,1.8-2.6,0.5-4,0.8c-0.6,0.1-1.4,0.2-1.5-0.8
	C358,383,358.3,382.6,358.1,381.9z"/>
<path d="M382.9,378.4c-0.2,0.6-0.7,0.8-1.3,0.9c-1.6-1.1-4.1-1.2-4.7-3.7c0.1-0.6,0.1-1.3,0.2-1.9c0.3-0.7,0.7-1.2,1.4-1.5
	c0.4,0.4,0.8,0.9,1.2,1.3c-1.3,1.5-0.6,2.6,0.8,3.4C381.3,377.4,382.5,377.3,382.9,378.4z"/>
<path d="M283.1,351.6c0.4,0,0.9,0,1.3,0c0,0.8,0.1,1.6,0.1,2.4c0,2.9-0.1,5.7-0.1,8.6c-0.5,0-0.9,0-1.4,0c-0.1-3-0.2-6.1-0.3-9.1
	C282.9,352.8,283,352.2,283.1,351.6z"/>
<path d="M288.4,371.7c1.1-0.4,2.6-0.9,3.1,0.5c0.6,1.9-1.3,1.4-2.3,1.6c-1.2,0.2-1.5,1.1-1.6,2.1c-0.6,0-1.3-0.1-1.9-0.1
	c0-0.4,0-0.8,0-1.3C287.2,374.2,288.2,373.3,288.4,371.7z"/>
<path d="M373.7,352.3c0.4,2.2-1.8,4.2-0.5,6.5c0,0.3,0,0.5,0,0.8c-0.9,0.7,0.5,2.6-1.4,2.8c0-3.3,0.1-6.6,0.1-9.9
	C372.4,352.4,373,352.3,373.7,352.3L373.7,352.3z"/>
<path d="M363.4,353.9c0-0.8,0.1-1.5,0.1-2.3c0.5-0.1,1.1-0.4,1.6-0.4c1.2,0,3-0.5,3.1,1c0.1,1.7-1.8,1.1-2.9,1.3
	C364.7,353.7,364.1,353.8,363.4,353.9z"/>
<path d="M358.1,381.9c0.2,0.7-0.1,1.1-0.7,1.4c-0.7-3.6-0.5-7.2-0.1-10.8C359.1,375.5,357.8,378.8,358.1,381.9z"/>
<path d="M430.3,373.9c0-0.7,0-1.4,0-2.2c1.6-0.4,4.1-1.2,4.2,0.7C434.7,375.1,431.7,373.2,430.3,373.9z"/>
<path d="M363.4,358.6c0-0.9,0-1.9,0-2.8c1.3,1.2,4.4-0.6,4.3,1.7C367.7,359.1,364.8,357.6,363.4,358.6z"/>
<path d="M328,375.8c0.3,0.1,0.6,0.1,1,0.3c1.2,0.4,3.8-0.9,3.4,1.6c-0.3,2.2-2.5,0.7-3.9,0.8C328.4,377.6,328.2,376.7,328,375.8z"/>
<path d="M347.7,358.2c0.8,1,1.1,2.1,1.3,3.3c0.1,0.7,0.6,1.7-0.5,1.9c-1,0.3-1.2-0.6-1.4-1.4c-0.2-0.8-0.5-1.7-0.8-2.5
	C346.8,359.1,347.3,358.7,347.7,358.2z"/>
<path d="M328,375.8c0.2,0.9,0.3,1.8,0.5,2.7c-0.9,3.7-0.9,3.7,3.4,3.9c-1.3,1.8-3.3,0.5-4.9,1.1c0,0-0.1-0.1-0.1-0.1
	c0-3.1,0.1-6.2,0.1-9.3c0-0.4-0.2-1,0.4-1c0.6-0.1,0.4,0.7,0.6,1C328.1,374.7,328.1,375.2,328,375.8z"/>
<path d="M410.1,373.6c0-0.6,0-1.2-0.1-1.8c1.3-0.6,2.7-0.9,4,0.1c0.2,0.2,0.2,0.9,0,1.2C412.9,374.5,411.4,373.7,410.1,373.6z"/>
<path d="M410.2,378.5c0-0.7-0.1-1.5-0.1-2.2c0.3,0,0.7-0.1,1-0.1c1.2,0.1,3.1-0.6,3,1.4c0,1.7-1.8,1-2.9,1.1
	C410.8,378.7,410.5,378.6,410.2,378.5z"/>
<path d="M284.5,354c0-0.8-0.1-1.6-0.1-2.4c0.5-0.1,1-0.4,1.6-0.4c0.9-0.1,2-0.2,2.2,0.9c0.2,1.5-1.1,1.3-2,1.4
	C285.6,353.6,285.1,353.8,284.5,354z"/>
<path d="M377.2,362.7c0.1-3.1,1.3-6.1,0.8-9.2c-0.1-0.7,0.4-0.9,1.1-0.9c-0.1,3.3-0.1,6.6-0.2,9.9
	C378.4,362.6,377.8,362.7,377.2,362.7L377.2,362.7z"/>
<path d="M347.7,358.2c-0.5,0.5-0.9,0.9-1.4,1.4c-1.1,0-2.3-0.1-3.4-0.1c-0.6-0.1-1.1-0.2-1.7-0.3c0.2-0.4,0.3-0.8,0.5-1.2
	c0.9-0.4,0.9-1,0.6-1.8c0.1-0.3,0.2-0.7,0.3-1c1.8,4,1.8,4,4.8,1.3C347.5,357.1,347.6,357.6,347.7,358.2z"/>
<path d="M125,411.6c2.6,0.2,5-0.8,7.4-1.5C130.4,412.4,128,413.4,125,411.6z"/>
<path d="M379.7,373.5c-0.4-0.4-0.8-0.9-1.2-1.3c0.5-0.7,1.2-0.9,2-0.9c1.1,0,2.6-0.2,2.5,1.3c-0.1,1.6-1.4,0.8-2.3,0.8
	C380.3,373.4,380,373.4,379.7,373.5z"/>
<path d="M424.7,353.3c-0.8-0.1-1.9,0.2-1.9-0.8c0.1-1.3,1.3-1.6,2.4-1.6c0.9,0,1.9,0.5,1.8,1.5C426.8,353.8,425.4,352.9,424.7,353.3
	z"/>
<path d="M327.1,383.5c1.6-0.6,3.6,0.7,4.9-1.1c1.3,1,1.4,1.2,0.3,1.5C330.6,384.4,328.7,385.2,327.1,383.5z"/>
<path d="M283.1,351.6c-0.1,0.6-0.2,1.3-0.3,1.9c-0.1,0-0.2,0-0.3,0c-0.9-0.5-3.1,0.6-2.8-1.3C280,350,281.8,351.2,283.1,351.6z"/>
<path d="M292,380.6c-0.7,0.2-1.4,0.5-2.2,0.7c-0.1-0.9-0.1-1.8-0.2-2.7c0.7-0.3,0.8-0.9,0.8-1.5C292.2,377.8,292.8,378.9,292,380.6z
	"/>
<path d="M137.7,401.2c1.6-2.5,4.3-0.7,6.3-1.7C142.4,402,139.8,400.5,137.7,401.2z"/>
<path d="M313.9,362.2c0.3,0.4,0.6,0.9,0.9,1.3c-0.3,0.5-0.8,0.8-1.4,0.7c-1-0.3-2.6-0.3-2.2-1.7C311.7,360.7,313,361.9,313.9,362.2z
	"/>
<path d="M341.2,359.2c0.6,0.1,1.1,0.2,1.7,0.3c-0.1,0.2,0,0.5-0.2,0.6c-1,0.8-0.2,3.8-2.1,3C338.7,362.2,340.9,360.5,341.2,359.2z"
	/>
<path d="M299.9,372.5c-1.5,0-1.6,0.9-1.4,2c-0.8,0-1.8,0.5-2.2-0.7c-0.2-0.5,0.1-1.2,0.7-1.3C298,372.2,299,370.7,299.9,372.5z"/>
<path d="M428.7,357.1c-0.6,0-1.2,0.1-1.5-0.6c0-0.3,0-0.7,0.1-1c0.4-1-0.9-2.1,0.1-3c0.2-0.2,1,0,1.2,0.2c0.8,1,0.7,2.2,0.4,3.4
	C428.9,356.4,428.8,356.7,428.7,357.1z"/>
<path d="M385.4,353c0-0.6,0.1-1.1,0.1-1.7c1.1-1.1,1.9-0.2,2.7,0.5c0.2,0.2,0.3,0.7,0.2,0.9C387.5,353.7,386.4,353.2,385.4,353z"/>
<path d="M290.5,377.1c0,0.7-0.1,1.2-0.8,1.5c-0.9-0.2-1.7-0.4-2.6-0.6c-0.2-0.5-0.7-0.8-1.2-0.8c-0.1-0.4-0.2-0.9-0.2-1.3
	c0.6,0,1.3,0.1,1.9,0.1C288.6,376.4,289.5,376.8,290.5,377.1z"/>
<path d="M396.6,360.2c-0.5-1.9-0.7-3.7,0-5.6C397.6,356.4,397.5,358.3,396.6,360.2z"/>
<path d="M371.7,362.4c1.9-0.2,0.5-2.1,1.4-2.8c0.8,0.9,0.5,2,0.3,3.1c-0.1,0.6-0.5,1-1.1,0.9C371.7,363.5,371.5,363,371.7,362.4z"/>
<path d="M150.1,390.8c-0.3-0.5-0.4-1-0.2-1.5c0.9-0.4,1.8-0.9,2.7-1.3c0,0.9,0,1.8,0,2.7C151.8,390.7,150.9,390.8,150.1,390.8z"/>
<path d="M146.7,390.9c-1.7,2.4-3.4,2.1-5,0C143.4,391.4,145,391.6,146.7,390.9z"/>
<path d="M346.5,354.6c-1.8,0.7-2.3-0.4-2.8-1.8c-0.1-0.1,0-0.2,0.2-0.3c0.7,0,1.3,0,2,0.1C346.1,353.2,346.3,353.9,346.5,354.6z"/>
<path d="M394.3,351.6c-0.1,0.5-0.1,1-0.2,1.6c-1,0-2.7,0.6-2.5-1C391.8,350.8,393.3,351,394.3,351.6z"/>
<path d="M164.4,383c0.8-1.3,2-2.1,3.5-2.4C167.4,382.3,166,382.8,164.4,383z"/>
<path d="M153.6,383.1c1.4,1.3,1.8,2.6,0,3.8C153.6,385.6,153.6,384.3,153.6,383.1z"/>
<path d="M298,382.3c0.2,0.5,0.3,1,0.5,1.5c-1,0.9-2.1,0.4-2.3-0.4C296,382.2,297.1,382,298,382.3z"/>
<path d="M288.4,371.7c-0.2,1.6-1.2,2.5-2.7,2.9c0.1-0.7,0.2-1.3,0.2-2c0.5,0,1-0.3,1.2-0.8C287.5,371.8,288,371.8,288.4,371.7z"/>
<path d="M119.6,398.6c0,1.3-0.2,2.5-1.1,3.5C117.8,400.5,118.4,399.4,119.6,398.6z"/>
<path d="M280.5,375.3c0-1.2,0-2.4,0-3.6C282.8,373,282.8,373.6,280.5,375.3z"/>
<path d="M300.5,383.7c0-0.6,0-1.1-0.1-1.7c0.8,0.2,2.1-0.2,2,1.1C302.4,384.3,301.4,384.3,300.5,383.7z"/>
<path d="M430.4,378.7c0-0.8,0-1.6,0.1-2.3c0.7,0,1.4-0.3,1.9,0.5c0,0.5,0,1,0,1.5C431.7,378.5,431,378.6,430.4,378.7z"/>
<path d="M401.8,378.5c1.7,0.7,1.1,1.9,0.8,3.1C401.7,380.8,401.9,379.6,401.8,378.5z"/>
<path d="M428.3,379.3c0.8,0.9,0.8,1.8,0,2.7C427.7,381.1,427.7,380.2,428.3,379.3z"/>
<path d="M316.6,351.8c-1.1,0.1-2.1,0.2-3.1-0.4C314.7,350.5,315.8,350.1,316.6,351.8z"/>
<path d="M275.7,351.8c-1-0.1-2-0.2-3-0.3C273.9,350.3,274.9,350.4,275.7,351.8z"/>
<path d="M398.8,353c0-0.5,0-1-0.1-1.5c0.8-0.4,1.3-0.1,1.3,0.7C400.1,353,399.5,353.3,398.8,353z"/>
<path d="M377.2,362.8c0.6-0.1,1.1-0.2,1.7-0.3c0.5,0.7,0,1-0.5,1.1C377.8,363.8,377.3,363.5,377.2,362.8z"/>
<path d="M373.6,352.2c-0.6,0.1-1.2,0.2-1.8,0.3c-0.5-0.8,0.2-1,0.7-1.1C373,351.3,373.6,351.5,373.6,352.2z"/>
<path d="M317.3,361.5c0-0.9,0.1-1.9,0.1-2.8C318.3,359.7,318.2,360.6,317.3,361.5z"/>
<path d="M169.9,377.4c-0.7-0.1-1.3-0.1-2-0.2C168.7,375.8,169.3,375.9,169.9,377.4z"/>
<path d="M165.6,378.5c-0.8,0.9-1.6,1.2-2.5,0.2C163.8,378.2,164.7,378.2,165.6,378.5z"/>
<path d="M338.7,373.6c-0.5-0.5-0.9-1-1.4-1.5c0.6-0.7,1.4-0.5,2.1-0.4c0,0.5,0,1.1,0,1.6C339.1,373.5,338.9,373.6,338.7,373.6z"/>
<path d="M345.8,352.5c-0.7,0-1.3,0-2-0.1C344.6,351,345.2,351.2,345.8,352.5z"/>
<path d="M118.4,404.7c0.7,0.3,0.8,0.8,0.5,1.5C118.1,405.9,117.7,405.5,118.4,404.7z"/>
<path d="M134.5,408.1c-0.1-0.8,0.3-1.4,1.1-1.5C135.8,407.4,135.4,407.9,134.5,408.1z"/>
<path d="M155,368.8c-0.7-0.2-1.2-0.7-1.1-1.5C154.8,367.3,155.2,367.8,155,368.8z"/>
<path d="M272.4,363.7c0.5-0.6,1.1-0.5,1.7-0.3C273.7,364.1,273.1,364.4,272.4,363.7z"/>
<path d="M285.9,377.2c0.5,0.1,1,0.3,1.2,0.8C286.1,378.6,286,378,285.9,377.2z"/>
<path d="M283,362.6c0.5,0,0.9,0,1.4,0c0.1,0.5-0.1,1-0.5,1C283.2,363.7,283,363.2,283,362.6z"/>
<path d="M377.1,373.7c-0.1,0.6-0.1,1.3-0.2,1.9C376.3,374.9,376.2,374.2,377.1,373.7z"/>
<path d="M367.4,363.3c0-0.4,0-0.9,0-1.3c0.5-0.1,0.8,0.1,0.8,0.6C368.2,363.1,368,363.4,367.4,363.3z"/>
<path d="M396.4,362.8c0.1-0.6,0.1-1.3,0.2-1.9C397.3,361.6,397.4,362.2,396.4,362.8z"/>
<path d="M160.3,376.1c-0.8-0.2-1.2-0.7-1.1-1.5C160.1,374.7,160.6,375.2,160.3,376.1z"/>
<path d="M355.8,359c0.1,0.5,0.3,1-0.3,1.3c-0.5,0.2-0.7-0.3-0.8-0.7C355.1,359.4,355.4,359.2,355.8,359z"/>
<path d="M428.3,374.6c0.6,0.5,0.6,0.9,0,1.3C427.7,375.5,427.9,375,428.3,374.6z"/>
<path d="M342.3,356.2c0.4,0.8,0.3,1.4-0.6,1.8C341.4,357.2,341.7,356.7,342.3,356.2z"/>
<path d="M130.2,377.5c-0.8-0.2-1.2-0.6-1.2-1.4C129.9,376.1,130.4,376.5,130.2,377.5z"/>
<path d="M162.4,384.4c0.2-0.9,0.8-1.1,1.6-1C163.9,384.3,163.3,384.6,162.4,384.4z"/>
<path d="M402.9,383.3c0.4,0,0.8,0,1.2,0c0,0.4-0.1,0.8-0.6,0.8C403.1,384.1,402.9,383.7,402.9,383.3z"/>
<path d="M124.9,385c0.8,0.3,1.2,0.7,0.6,1.6C124.9,386.3,124.7,385.7,124.9,385z"/>
<path d="M137.6,386.8c-0.8-0.2-1.2-0.7-1.1-1.5C137.4,385.4,137.7,385.9,137.6,386.8z"/>
<path d="M134.9,383.5c-0.8-0.2-1.2-0.7-1.1-1.5C134.7,382.1,135.1,382.6,134.9,383.5z"/>
<path d="M125,388.5c0.2,0.8,0,1.4-0.8,1.7C123.9,389.4,124.2,388.8,125,388.5z"/>
<path d="M152.3,381.1c0.8,0.2,1.2,0.7,1.1,1.5C152.4,382.5,152,382,152.3,381.1z"/>
<path d="M147.8,389.3c0.1,0.8-0.1,1.4-1,1.6C146.8,390.1,146.9,389.4,147.8,389.3z"/>
<path d="M123.9,390.7c0.2,0.8-0.1,1.3-0.9,1.6C122.6,391.4,122.9,390.9,123.9,390.7z"/>
<path d="M404.1,372.6c-0.4,0-0.9,0-1.3,0c0-0.5,0.2-0.8,0.7-0.8C404,371.8,404.2,372.2,404.1,372.6z"/>
<path d="M339.4,373.4c0-0.5,0-1.1,0-1.6c0.4,0,0.8,0.1,1.3,0.1c-0.1,0.5-0.2,1.1-0.2,1.6C340,373.5,339.7,373.4,339.4,373.4z"/>
<path d="M149.4,393.5c-0.3-0.6-0.1-1.1,0.5-1.5C150.5,392.7,150.2,393.2,149.4,393.5z"/>
<path d="M122.5,393.3c0.2,0.8-0.1,1.3-0.8,1.6C121.4,394.1,121.5,393.5,122.5,393.3z"/>
<path d="M402.9,372.6c0.1,0.5,0,1-0.4,1.3C401.7,373.1,401.9,372.8,402.9,372.6z"/>
<path d="M287.1,371.8c-0.2,0.5-0.6,0.8-1.2,0.8C285.9,371.8,286.1,371.3,287.1,371.8z"/>
<path d="M136.7,404.2c-0.3-0.6-0.2-1.1,0.5-1.5C137.8,403.4,137.5,403.9,136.7,404.2z"/>
<path d="M432.3,378.3c0-0.5,0-1,0-1.5c0.7-0.3,1.4-0.1,1.4,0.6C433.7,378.2,433,378.4,432.3,378.3z"/>
<path d="M366.1,361.9c-0.2,0.5-0.4,0.5-0.7,0C365.6,361.9,365.8,361.9,366.1,361.9z"/>
<path d="M148.5,388.6c0,0.5-0.3,0.6-0.7,0.6C147.8,388.8,148,388.5,148.5,388.6z"/>
</svg>
