<?xml version="1.0" encoding="utf-8"?>
<!-- Generator: Adobe Illustrator 19.2.1, SVG Export Plug-In . SVG Version: 6.00 Build 0)  -->
<svg version="1.1" id="Layer_1" xmlns="http://www.w3.org/2000/svg" xmlns:xlink="http://www.w3.org/1999/xlink" x="0px" y="0px"
	 viewBox="0 0 700 700" style="enable-background:new 0 0 700 700;" xml:space="preserve">
<style type="text/css">
	.st0{fill:#EFECE9;}
	.st1{fill:#5FA4A4;}
	.st2{fill:#60A4A3;}
	.st3{fill:#40365C;}
	.st4{fill:#403B5F;}
	.st5{fill:#404666;}
	.st6{fill:#3F4062;}
	.st7{fill:#EBE7E7;}
	.st8{fill:#FDFDFD;}
	.st9{fill:#1E1F45;}
	.st10{fill:#402B56;}
	.st11{fill:#1E2340;}
	.st12{fill:#413059;}
	.st13{fill:#AC4F73;}
	.st14{fill:#337681;}
	.st15{fill:#443450;}
	.st16{fill:#422453;}
	.st17{fill:#431E52;}
	.st18{fill:#A56E87;}
	.st19{fill:#A76884;}
	.st20{fill:#A86280;}
	.st21{fill:#A95C7D;}
	.st22{fill:#AB5476;}
	.st23{fill:#404D6B;}
	.st24{fill:#435062;}
	.st25{fill:#AC577A;}
	.st26{fill:#A4728B;}
	.st27{fill:#A27A90;}
	.st28{fill:#A4758C;}
</style>
<path class="st0" d="M382,337.2c-1.4,0.3-2.8,0.6-4.2,0.9c-0.1-0.5-0.2-0.9-0.3-1.4c-6.9,4.7-13.7,9.4-21,14.3
	c4.6,4.4,7.9,9.5,14.9,8c1.1-0.2,2.5,0.6,3.7,0.9c-0.1,0.1-0.2,0.2-0.3,0.4c-15.6-0.1-31.2-0.3-46.8-0.4c-3.6-0.6-7.8,1-10-3.6
	c-2.6-5.5-5.3-10.9-7.9-16.3c-1.1-2.4-2-4.9-3.2-7.3c-8.1-15.9-16.3-31.7-24.4-47.6c-1.1-2.4-2.2-4.9-3.3-7.3
	c-0.2-0.4-0.4-0.7-0.6-1.1c-7.1-13.9-14.2-27.8-21.3-41.7c-2.5-5.7-5.1-11.5-7.6-17.2c0.9-0.9,1.7-2,2.8-2.5
	c28.3-14.2,56.7-28.4,85.1-42.6c9.7-4.9,19.5-9.8,29.8-15c-4.2-2.5-7.8-4.6-11.3-6.7c7.7,0,15.3,0,23,0c0.1,27.1,0.2,54.2,0.2,81.3
	c0,32.8-0.1,65.5,0.1,98.3C379.3,332.8,381.1,335,382,337.2z M348.1,358.2c0,0.1,0,0.3,0,0.4c3.6,0,7.1,0,10.7,0c0-0.1,0-0.3,0-0.4
	C355.2,358.2,351.6,358.2,348.1,358.2z"/>
<path class="st1" d="M382,337.2c-0.9-2.2-2.7-4.4-2.7-6.5c-0.2-32.8-0.1-65.5-0.1-98.3c0-27.1-0.1-54.2-0.2-81.3c2,0,4,0,6,0
	c1.1,0.7,2.2,1.7,3.4,1.9c9,2,18,3.8,26.9,5.7c3.6,0.8,7.1,1.7,10.6,2.5c0.7,0.1,1.4,0.3,2.1,0.4c0.8,0.4,1.6,0.9,2.4,1.3
	c0.5,0.1,1.1,0.2,1.6,0.3c1.4,0.6,2.8,1.1,4.3,1.7c0.6,0.2,1.3,0.5,1.9,0.7c0.2,0.2,0.5,0.3,0.8,0.4c0,0,0,0,0,0
	c2.7,1.3,5.4,2.6,8.2,3.9c0,0-0.1,0-0.1,0c2.2,1.1,4.5,2.2,6.7,3.2c0,0,0.2,0.1,0.2,0.1c1,0.6,2.1,1.2,3.1,1.7c0,0,0,0,0,0
	c-0.4,2.9,0.5,4.3,3.7,4.2c1.5,0,3.5,0.5,4.6,1.5c6.4,5.3,12.6,10.9,18.9,16.4c5.5,4.7,11.1,9.4,16.7,14.1
	c-9.1,18-18.2,35.9-27.1,53.9c-2.3,4.7-4,9.7-5.9,14.5c-16.8,11.3-33.7,22.5-50.5,33.8C405.7,321.2,393.9,329.2,382,337.2z"/>
<path class="st2" d="M297.1,159.1c9.6-2.7,19.3-5.4,28.9-8.1c10,0,20,0,30,0c3.5,2.1,7,4.2,11.3,6.7c-10.3,5.2-20.1,10.1-29.8,15
	c-28.4,14.2-56.7,28.4-85.1,42.6c-1.1,0.5-1.9,1.7-2.8,2.5c-0.3-0.1-0.6-0.2-0.9-0.3c-3.8-8.1-7.6-16.1-11.4-24.2
	c-0.2-0.3-0.9-0.4-1.3-0.5c10-6.6,19.6-13.7,30-19.5C275.8,167.8,286.7,163.7,297.1,159.1z"/>
<path class="st3" d="M405,547.7c-2.7,1.1-5.3,2.2-8,3.3c-5.7,0-11.3,0-17,0c0.7-1,1.6-2,2.1-3.1c1.7-3.4,4.6-6.8,4.7-10.3
	c0.4-23.8,0.3-47.6,0.1-71.4c0-1.8-1.1-3.6-1.7-5.4c-0.7-2.2-1.5-4.5-2.2-6.7c1.6,0.3,3.3,0.6,4.9,1c0.4-0.3,0.7-0.6,1.1-1
	c7.7,0,15.3,0,23,0c-0.3,3.4-1.1,6.7,2.4,9.4c0.8,0.6,0.6,2.8,0.6,4.3c0,13.6-0.1,27.3,0.1,40.9c0.1,9.1,0.6,18.2,0.9,27.3
	c0.1,3.5-0.9,6.9-4.8,7.1C407.8,543.3,405.8,544.4,405,547.7z"/>
<path class="st4" d="M383,454c0.7,2.2,1.5,4.5,2.2,6.7c0.6,1.8,1.7,3.6,1.7,5.4c0.1,23.8,0.3,47.6-0.1,71.4c-0.1,3.5-3,6.9-4.7,10.3
	c-0.6,1.1-1.4,2.1-2.1,3.1c-8,0-16,0-24,0c1-5.4,2.6-10.8,2.9-16.3c0.5-8.9,0.3-17.9,0.1-26.9c-0.2-5.2-1.4-10.4-1.7-15.7
	c-0.3-6.8-0.2-13.6-0.1-20.4c0-0.9,1.2-1.8,1.8-3c0.1,0.6,0.1,1,0.2,1.1c0.4,0.2,0.9,0.2,1.3,0.3c-0.4-0.5-0.9-0.9-1.6-1.5
	c-1.3-0.1-2.7-0.9-3.9-0.6c-3.4,0.7-6.7,1.9-10,2.9c0.8-1,1.4-2.3,2.4-2.8c2.8-1.3,5.7-2.2,8.6-3.3c4.1-1.9,8.3-3.7,12.3-5.6
	c1.3-0.6,2.4-1.5,3.5-2.3c0,0,0.1-0.1,0.1-0.1c2-0.7,4-1.3,5.9-2c0.3,0,0.6,0.1,1,0.1c0.7-0.3,1.4-0.7,2.1-1c0.7,0,1.3,0,2-0.1
	L383,454z"/>
<path class="st5" d="M311.9,547.8c-0.7-0.1-1.4-0.2-2.1-0.3c-4.6-1.6-9.3-3.3-13.9-4.9c5.9-1.5,5.3-6.2,5-10.6
	c-0.6-10.3-1.3-20.6-2-30.9c2.5,0,5,0,7.5,0c0.2-0.6,0.3-1.2,0.5-1.8c-1.5-0.7-3.1-1.5-4.6-2.2c-1.5-0.7-3.1-1.4-4.6-2.2
	c3.4-2,6.8-4,10.2-5.9c6.1-3.3,12.2-6.5,18.2-9.8c1.6-0.3,3.2-0.7,4.8-1c1,1,1.8,2.1,3,2.9c1.5,1,3.2,1.7,4.8,2.6
	c-0.2,0.4-0.4,0.8-0.6,1.2c-2.2,0.2-4.4,0.4-6.8,0.6c1.8,7.3,5.5,13.4,3.9,21.2c-2.1,10-2,20.4,0.4,30.7c0.7,3.1-1.3,7-2.9,10.1
	c-0.6,1.1-3.8,0.6-5.7,1.2c-0.8,0.3-1.3,1.6-2,2.4c-1,0-2,0-3,0c-1-0.4-1.9-0.7-2.9-1.1c-0.7-0.5-1.3-1-2-1.5
	c1.6-0.2,3.2-0.4,4.8-0.6c-0.1-0.4-0.2-0.7-0.3-1.1c-1.6,0.5-3.2,1.1-4.8,1.6C315.2,548.2,313.6,548,311.9,547.8z"/>
<path class="st6" d="M325,551c0.6-0.8,1.1-2.1,2-2.4c1.9-0.6,5.2-0.1,5.7-1.2c1.6-3.1,3.6-7.1,2.9-10.1c-2.3-10.3-2.4-20.7-0.4-30.7
	c1.6-7.9-2.1-13.9-3.9-21.2c2.3-0.2,4.6-0.4,6.8-0.6c0.2-0.4,0.4-0.8,0.6-1.2c-1.6-0.9-3.3-1.6-4.8-2.6c-1.1-0.8-2-1.9-3-2.9
	c3.4-1.8,6.7-3.6,10.1-5.4c0.2-0.2,0.5-0.5,0.7-0.7c0.4-0.3,0.8-0.7,1.2-1c0.7,0,1.3,0,2,0c3.3-1,6.6-2.2,10-2.9
	c1.2-0.3,2.7,0.6,4,0.9c-0.7,0.9-1.9,1.8-1.9,2.7c-0.1,6.8-0.2,13.6,0.1,20.4c0.3,5.2,1.5,10.4,1.7,15.7c0.3,9,0.4,18-0.1,26.9
	c-0.3,5.5-1.9,10.9-2.9,16.3C345.7,551,335.3,551,325,551z"/>
<path class="st2" d="M425.9,161.1c-3.5-0.8-7.1-1.7-10.6-2.5c-9-1.9-18-3.7-26.9-5.7c-1.2-0.3-2.2-1.3-3.4-1.9c3.3,0,6.7,0,10,0
	c5.7,1.8,11.4,3.4,17.1,5.3C416.7,157.8,421.3,159.5,425.9,161.1z"/>
<path class="st7" d="M317.2,548.4c0.7,0.5,1.3,1,2,1.5c-0.4,0.4-0.8,0.7-1.1,1.1c-2,0-4,0-6,0c0-1.1-0.1-2.1-0.1-3.2
	c1.7,0.2,3.3,0.4,5,0.5C316.9,548.3,317.2,548.4,317.2,548.4z"/>
<path class="st8" d="M318,551c0.4-0.4,0.8-0.7,1.1-1.1c1,0.4,1.9,0.7,2.9,1.1C320.7,551,319.3,551,318,551z"/>
<path class="st9" d="M412,454c-7.7,0-15.3,0-23,0c-0.4,0.3-0.7,0.6-1.1,1c-1.6-0.3-3.3-0.6-4.9-1c0,0,0-0.1,0-0.1
	c1.7-3.5,3.4-6.9,5.5-11.3c0.4,2.6,0.6,4.2,0.9,6c1.4-1,2.3-2.1,3.6-2.5c6.7-2.7,13.6-4.8,20.1-7.9c10.5-4.9,20.7-10.3,30.9-15.5
	c0.7-0.3,1.1-1.2,1.5-1.9c2.3-3.8,6.1-5,10.2-3.2c1.3,0.5,2.9,0.4,4.3,0.5c1.6,0.8,3.2,1.5,4.7,2.5c15.5,10.4,30.9,20.9,46.3,31.3
	c-1.3,0.9-2.6,2.7-4,2.7c-6.7,0-13.3-0.4-20-0.6c-7.7,0-15.3,0-23,0c-9.3,0-18.7,0-28,0C428,454,420,454,412,454z"/>
<path class="st10" d="M436,454c9.3,0,18.7,0,28,0c0,4.7,0.2,9.3-0.1,14c-0.2,2.9-1.8,5.8-1.7,8.7c0.4,12.5,1.3,25.1,1.6,37.6
	c0.1,2.2-1.9,4.5-3,6.7c0.5,0.8,1.3,2.2,2,3.5c-8.3,4.2-16.6,8.4-24.9,12.6c-0.7-1.5-1.9-3-1.9-4.5c0.1-12.4,0.5-24.8,0.8-37.2
	c0.1-3.1,0.1-6.1-0.1-9.2c-0.1-2.3-0.8-4.6-0.8-6.8C435.9,470.9,436,462.5,436,454z"/>
<path class="st11" d="M460,418.2c-1.4-0.2-3,0-4.3-0.5c-4.1-1.7-7.9-0.6-10.2,3.2c-0.4,0.7-0.9,1.5-1.5,1.9
	c-10.3,5.2-20.5,10.6-30.9,15.5c-6.5,3-13.4,5.2-20.1,7.9c-1.2,0.5-2.2,1.5-3.6,2.5c-0.3-1.8-0.5-3.4-0.9-6
	c-2.1,4.4-3.8,7.8-5.5,11.3c-0.7,0-1.3,0-2,0.1c0.2-1.6,0-3.4,0.6-4.8c3.4-7.3,7.1-14.5,10.7-21.7c6-12,11.9-24.1,18.1-36
	c0.8-1.6,3.1-2.4,4.6-3.5C430.1,398,445,408.1,460,418.2z"/>
<path class="st12" d="M436,454c0,8.5-0.1,16.9,0,25.4c0,2.3,0.7,4.6,0.8,6.8c0.2,3,0.2,6.1,0.1,9.2c-0.3,12.4-0.6,24.8-0.8,37.2
	c0,1.5,1.2,3,1.9,4.5c-11,3.5-22,7.1-33.1,10.6c0.8-3.3,2.8-4.4,6.2-4.7c3.9-0.3,4.9-3.6,4.8-7.1c-0.3-9.1-0.8-18.2-0.9-27.3
	c-0.2-13.6,0-27.3-0.1-40.9c0-1.5,0.2-3.7-0.6-4.3c-3.5-2.6-2.7-6-2.4-9.4C420,454,428,454,436,454z"/>
<path class="st13" d="M378,454.9c-2,0.7-4,1.3-5.9,2c-0.1-3.6-2.8-1.7-4.2-1.7c-7.2-0.3-8.1-0.6-8.9-7.3c-0.6-5,0.1-10.1,0.1-15.2
	c0-16.6,0-33.3,0-49.9c0-4.6,0.2-9.2-0.6-13.6c-1.2-6-1.5-6,4.6-6.1c4.8,0,9.5-0.1,14.3-0.1c0.3-0.1,0.5-0.3,0.6-0.5
	c0.7,0.7,1.4,1.4,2.1,2c0.2,0.3,0.2,0.6,0.1,0.9c-0.3,1.5-0.5,3-0.8,4.5c0,1.8,0,3.5,0,5.3c-0.1,25.9-0.1,51.8-0.2,77.8
	c-0.1,0.4-0.2,0.7-0.3,1.1C378.6,454.3,378.3,454.6,378,454.9z"/>
<path class="st14" d="M468,279.4c2-4.8,3.6-9.8,5.9-14.5c8.9-18,18-36,27.1-53.9c0.6-0.6,1.1-1.3,1.7-1.9c8,9.5,16.1,18.9,23.9,28.5
	c0.5,0.6-0.7,3.6-1.8,4.3c-18.3,12.2-36.8,24.2-55.2,36.3C469.1,278.6,468.6,279,468,279.4z"/>
<path class="st15" d="M378.9,454c0.1-0.4,0.2-0.7,0.3-1.1c0.3-1.4,0.8-2.8,0.8-4.2c0-23.2,0-46.5,0-69.7c0-1.3-0.4-2.5-0.6-3.8
	c0-1.8,0-3.5,0-5.3c0.3-1.5,0.5-3,0.8-4.5c0.1-0.3,0.1-0.6-0.1-0.9c11.7,7.8,23.4,15.7,35.1,23.5c-1.6,1.2-3.8,2-4.6,3.5
	c-6.2,11.9-12.1,24-18.1,36c-3.6,7.2-7.2,14.4-10.7,21.7c-0.7,1.4-0.4,3.2-0.6,4.8c-0.7,0.3-1.4,0.7-2.1,1
	C378.9,454.6,378.9,454.3,378.9,454z"/>
<path class="st16" d="M462.9,524.5c-0.8-1.4-1.6-2.7-2-3.5c1-2.3,3-4.5,3-6.7c-0.3-12.5-1.2-25.1-1.6-37.6c-0.1-2.9,1.5-5.8,1.7-8.7
	c0.3-4.6,0.1-9.3,0.1-14c7.7,0,15.3,0,23,0c-0.1,1.3-0.1,2.6-0.2,4c-0.3,11.7-1.4,23.4-0.4,34.9c0.4,4.9,2.4,8.8-3.3,10.8
	c0.8,2.3,1.4,3.9,2,5.6c-0.1,0.1-0.1,0.4-0.2,0.4c-6.5,4.5-13,8.9-19.5,13.4C464.6,523.6,463.7,524.1,462.9,524.5L462.9,524.5z"/>
<path class="st17" d="M485.1,509.3c-0.6-1.6-1.2-3.3-2-5.6c5.7-2,3.7-5.8,3.3-10.8c-1-11.6,0.1-23.3,0.4-34.9c0-1.3,0.1-2.6,0.2-4
	c6.7,0.3,13.3,0.7,20,0.6c1.3,0,2.6-1.7,4-2.7c5.7,3.6,11.3,7.2,17.3,11c-11.2,16.2-23.1,30.5-38.1,42.1c-0.7,0.6-1.5,1.3-2.2,1.9
	C487,507.8,486.1,508.5,485.1,509.3z"/>
<path class="st2" d="M502.8,209.1c-0.6,0.6-1.1,1.3-1.7,1.9c-5.6-4.7-11.2-9.4-16.7-14.1c-6.3-5.4-12.5-11-18.9-16.4
	c-1.2-1-3.1-1.5-4.6-1.5c-3.2,0.1-4.2-1.3-3.7-4.2c8.9,5.6,18.2,10.8,26.7,17C490.6,197,496.5,203.3,502.8,209.1z"/>
<path class="st2" d="M447.2,169.9c-2.7-1.3-5.4-2.6-8.2-3.9C441.7,167.3,444.4,168.6,447.2,169.9z"/>
<path class="st2" d="M453.8,173.1c-2.2-1.1-4.5-2.2-6.7-3.2C449.3,170.9,451.5,172,453.8,173.1z"/>
<path class="st2" d="M436.3,164.9c-1.4-0.6-2.8-1.1-4.3-1.7C433.4,163.8,434.9,164.3,436.3,164.9z"/>
<path class="st2" d="M457.1,174.9c-1-0.6-2.1-1.2-3.1-1.7C455,173.8,456.1,174.4,457.1,174.9z"/>
<path class="st16" d="M488,507c0.7-0.6,1.5-1.3,2.2-1.9C489.5,505.7,488.7,506.4,488,507z"/>
<path class="st2" d="M430.4,162.9c-0.8-0.4-1.6-0.9-2.4-1.3C428.8,162,429.6,162.4,430.4,162.9z"/>
<path class="st10" d="M462.9,524.5c0.8-0.5,1.6-0.9,2.4-1.4C464.6,523.6,463.7,524.1,462.9,524.5z"/>
<path class="st2" d="M439,166c-0.3-0.1-0.5-0.2-0.8-0.4C438.5,165.7,438.7,165.9,439,166z"/>
<path class="st0" d="M377.9,362.4c-0.2,0.2-0.4,0.4-0.6,0.5c-0.1-0.3-0.2-0.6-0.3-0.9l0.1-0.1C377.5,361.9,377.7,362.1,377.9,362.4z
	"/>
<path class="st0" d="M376.1,360.9c0.3,0.3,0.7,0.7,1,1c0,0-0.1,0.1-0.1,0.1c-0.4-0.3-0.8-0.6-1.1-0.9
	C375.9,361.1,376.1,360.9,376.1,360.9z"/>
<path class="st0" d="M375.1,359.9c0.3,0.3,0.7,0.6,1,0.9c0,0-0.2,0.3-0.2,0.3c-0.4-0.3-0.8-0.5-1.1-0.8
	C374.9,360.2,375,360,375.1,359.9z"/>
<path class="st18" d="M248.6,217.5c0.3,0.1,0.6,0.2,1,0.3c2.5,5.7,5.1,11.5,7.6,17.2c-1.9,0.7-4.8,0.9-5.3,2.1
	c-0.6,1.4,0.4,4.1,1.6,5.6c2.3,2.9,1.7,4.2-1.4,4.9c-1.2-2.1-2.2-3.9-3.2-5.8c-0.5,0.2-1,0.3-1.6,0.5c0.1,1.6,0.1,3.3,0.4,4.9
	c0.7,3.8,2.2,7.6,2.2,11.4c-0.1,34.6-0.7,69.2-0.8,103.7c-0.1,10.3,0.8,20.6,0.9,30.8c0.2,18.2,0.1,36.5,0,54.7
	c-0.1,8.3-0.9,16.6-0.9,24.8c0,7.3,0.7,14.6,0.9,21.8c0.2,8.3,0.1,8.3-6.2,14c-0.2,0.2-0.1,0.6-0.2,1.9c4.5-1.4,8.6-2.7,12.8-4
	c0.2,0.6,0.4,1.3,0.6,1.9c-3.2,1.9-6.3,3.7-9.3,5.5c0,1.5,0,3,0,4.4c-8.9-7.3-17.9-14.6-26.8-21.8c-1.5-3.1-2.9-6.2-4.3-9.1
	c6.7-1.3,6.7-1.3,6.5-9.5c0-1.5-0.6-2.9-0.6-4.4c-0.1-7,0-14.1,0-21.1c0-3.6,0.2-7.2,0-10.8c-0.2-3.8-1.2-7.5-1.2-11.3
	c-0.1-53.3-0.1-106.6,0-159.8c0-2.8,0.4-5.6,1-8.3c1.4-6,2.5-11.8-4.3-16.1c2.4-1.2,4.5-1.9,6.1-3.2c1.3-1.1,2.1-2.9,3.1-4.5
	c-1.7-0.2-3.5-0.7-5.1-0.4c-2.4,0.5-4.7,1.7-7.5,2.9c0.6-2.2,0.9-3.8,1.4-5.7c2.7-0.1,6.2,0.4,5.5-4.1c0.3-0.1,0.6-0.1,0.9-0.1
	c5.1,0.1,9.2-1.9,12-6.2c0.4-0.3,0.7-0.5,1.1-0.8c2-1,4-2,6-2.9C243.5,219.9,246.1,218.7,248.6,217.5z"/>
<path class="st19" d="M247.6,518.3c0-1.5,0-2.9,0-4.4c3-1.8,6.2-3.7,9.3-5.5c-0.2-0.6-0.4-1.3-0.6-1.9c-4.1,1.3-8.2,2.6-12.8,4
	c0.1-1.3,0-1.8,0.2-1.9c6.3-5.7,6.4-5.7,6.2-14c-0.2-7.3-0.9-14.6-0.9-21.8c0-8.3,0.8-16.6,0.9-24.8c0.1-18.2,0.2-36.5,0-54.7
	c-0.1-10.3-0.9-20.6-0.9-30.8c0.2-34.6,0.7-69.2,0.8-103.7c0-3.8-1.5-7.6-2.2-11.4c-0.3-1.6-0.3-3.2-0.4-4.9c0.5-0.2,1-0.3,1.6-0.5
	c1,1.8,2,3.7,3.2,5.8c3.1-0.7,3.6-2,1.4-4.9c-1.2-1.5-2.2-4.2-1.6-5.6c0.5-1.2,3.5-1.5,5.3-2.1c7.1,13.9,14.2,27.8,21.3,41.7
	c-1.6,5.8-3.3,11.6-4.9,17.4c0.6,0.1,1.2,0.3,1.8,0.4c0.4-1.4,0.9-2.8,1.3-4.3c5.6,3.8,5.5,6.8,0,12.3c-0.5-1.3-1-2.7-1.5-4
	c-0.2,0.1-0.4,0.2-0.6,0.3c0,66.9,0,133.7,0,200.6c0.5,0,1.1,0,1.6,0c0-63.6,0-127.1,0-190.7c0.6,0,1.2-0.1,1.8-0.1
	c0.3,2.7,0.9,5.4,0.9,8.2c0.1,54.8,0,109.6,0.1,164.4c0,2.5,1.3,4.9,2.1,7.6c-0.2,0.1-1.6,0.5-3.6,1.2c1.2,1.7,2.2,2.9,3.2,4.3
	c-0.3,0.7-0.7,1.4-1,2.2c-0.4,1.1-0.7,2.3-1.1,3.5c1.1-0.2,2.2-0.6,3.4-0.7c1.6-0.2,3.3-0.2,5-0.3c-0.4,0.6-0.8,1.3-1.3,1.9
	c-2,0.7-4,1.3-5.9,2.1c-5.9,2.6-11.8,5.4-17.7,8c-4.8-0.2-8.8,1.3-11.2,5.9c-0.6,0.4-1.3,0.7-1.9,1.1c-0.4,0.1-0.9,0.1-1.3,0.2
	C247.8,518.2,247.6,518.3,247.6,518.3z"/>
<path class="st20" d="M287,499c-1.7,0.1-3.3,0.1-5,0.3c-1.1,0.1-2.2,0.4-3.4,0.7c0.3-1.2,0.7-2.3,1.1-3.5c0.3-0.8,0.7-1.5,1-2.2
	c-1-1.4-1.9-2.6-3.2-4.3c2-0.6,3.4-1.1,3.6-1.2c-0.8-2.7-2.1-5.2-2.1-7.6c-0.1-54.8-0.1-109.6-0.1-164.4c0-2.7-0.6-5.5-0.9-8.2
	c-0.6,0-1.2,0.1-1.8,0.1c0,63.6,0,127.1,0,190.7c-0.5,0-1.1,0-1.6,0c0-66.9,0-133.7,0-200.6c0.2-0.1,0.4-0.2,0.6-0.3
	c0.5,1.3,1,2.6,1.5,4c5.5-5.5,5.6-8.5,0-12.3c-0.5,1.5-0.9,2.9-1.3,4.3c-0.6-0.1-1.2-0.3-1.8-0.4c1.6-5.8,3.3-11.6,4.9-17.4
	c0.2,0.4,0.4,0.7,0.6,1.1c-0.6,3.2,0.5,5.6,3.3,7.3c8.2,15.9,16.3,31.7,24.4,47.6c1.2,2.4,2.2,4.8,3.2,7.3c-4.2,1.8-8.1,3.5-7.2,9.5
	c0.6,4.5,0.2,9.1,0.2,13.7c0,37.1,0,74.1,0,111.2c0,5.4-1.3,11.3,5,14.5c-3.4,2-6.8,4-10.2,5.9c-2.3,1-4.6,2.1-6.9,3.1
	C289.6,498.3,288.3,498.7,287,499z M285.8,303.2c-1.3-1.3-2-2.1-2.7-2.8c-0.7,0.8-1.7,1.5-1.9,2.4c-0.1,0.6,0.9,2,1.4,2
	C283.5,304.8,284.3,304,285.8,303.2z M280.3,288.2c0.1,0,0.3,0,0.4,0c0-0.5,0-1,0-1.5c-0.1,0-0.3,0-0.4,0
	C280.3,287.3,280.3,287.7,280.3,288.2z"/>
<path class="st21" d="M308,488.9c-6.3-3.3-5-9.1-5-14.5c0-37.1,0-74.1,0-111.2c0-4.6,0.4-9.2-0.2-13.7c-0.8-6,3-7.7,7.2-9.5
	c2.6,5.4,5.3,10.9,7.9,16.3c2.2,4.6,6.5,3,10,3.6c0.3,0.4,0.7,0.8,1,1.1c-1.9,1.4-3.6,3-5.7,4c-2.9,1.5-3.3,3.8-1,5.3
	c3.1,2.1,3.9,3.9,2,7.3c-0.7,1.3-0.4,3.2-0.4,4.9c0,27.3,0,54.5,0,81.8c0,2.5,0.4,5.1-3.1,5.9c-0.6,0.1-1.1,1.2-1.6,1.9
	c1.7,0.5,2.7-0.1,3.9-0.3c1.1-0.2,2.3,0,3.5,0.1c-0.6,1.1-1,2.6-1.9,3.2c-2.6,1.6-5.6,2.6-8.3,4.1c-1.2,0.7-2.1,1.9-3.2,2.8
	c0.2,0.2,0.4,0.3,0.6,0.5c4.1-1.1,8.3-2.3,12.4-3.4C320.2,482.4,314.1,485.6,308,488.9z"/>
<path class="st22" d="M329,361c-0.3-0.4-0.7-0.8-1-1.1c15.6,0.1,31.2,0.3,46.8,0.4c0.4,0.3,0.8,0.5,1.1,0.8c0.4,0.3,0.8,0.6,1.1,0.9
	c0.1,0.3,0.2,0.6,0.3,0.9c-4.8,0-9.5,0.1-14.3,0.1c-6.1,0-5.8,0-4.6,6.1c0.9,4.4,0.6,9.1,0.6,13.6c0.1,16.6,0,33.3,0,49.9
	c0,5.1-0.7,10.2-0.1,15.2c0.8,6.8,1.8,7,8.9,7.3c1.3,0.1,4.1-1.8,4.2,1.7c0,0-0.1,0.1-0.1,0.1c-1.7,0.1-3.6,0.7-5.2,0.3
	c-5.6-1.3-9.5,1.3-13.3,4.6c1,1.2,1.8,2.1,2.6,3c-2.9,1.1-5.8,2-8.6,3.3c-1,0.5-1.6,1.9-2.4,2.8c-0.7,0-1.3,0-2,0
	c1.3-5-3.1-11.2,3.4-15.1c-0.1-1.9-0.4-3.8-0.4-5.8c0-18.6,0-37.3,0-55.9c0-10.1,0.1-20.2-0.2-30.3c0-1-2.1-2.7-3.3-2.8
	C338,360.8,333.5,361,329,361z"/>
<path class="st8" d="M348.1,358.2c3.6,0,7.1,0,10.7,0c0,0.1,0,0.3,0,0.4c-3.6,0-7.1,0-10.7,0C348.1,358.5,348.1,358.4,348.1,358.2z"
	/>
<path class="st19" d="M282.4,285.1c-2.8-1.7-3.9-4.1-3.3-7.3C280.2,280.3,281.3,282.7,282.4,285.1z"/>
<path class="st7" d="M220.8,496.5c8.9,7.3,17.9,14.6,26.8,21.8c0,0,0.2-0.1,0.2-0.1c0.3,0.3,0.5,0.7,0.8,1
	c5.3,3.3,10.5,6.9,16.1,9.8c8.3,4.3,16.9,8.1,25.3,12.2c-4.8-0.9-10.1-0.9-14.4-2.9c-18.2-8.6-35.7-18.4-51-31.9
	c-14-12.4-26.5-25.8-36.8-41.3c-5.7-8.6-11.8-17.2-15.9-26.6c-5.2-11.8-9-24.3-12.7-36.7c-6.1-20.1-7.2-40.8-6.1-61.5
	c0.8-14.3,1.6-28.7,7.5-42.2c2.9-6.7,3.8-14.3,6.5-21.1c3.1-7.9,6.5-15.9,10.9-23.1c6.6-10.8,13.5-21.5,21.5-31.3
	c7.4-9,15.9-17.2,24.7-24.9c7.4-6.5,15.7-12.1,23.9-17.6c4.2-2.8,9-4.6,13.5-6.9c6.3-3.1,12.5-6.5,19.1-9.1
	c5.3-2.1,10.9-3.3,16.4-4.9c-10.4,4.7-21.2,8.7-31.2,14.2c-10.4,5.7-20.1,12.9-30,19.5c-18.9,14.9-35,32.3-47.2,53.1
	c-9,14-15.7,29.1-20.6,45c-8.7,28.3-11.3,57.1-7.4,86.6c3,22.8,9.6,44.3,19.7,64.9c1.7,3.5,4.2,6.6,6.3,9.9c0,0,0.1,0,0.1,0
	c1,1.6,2,3.3,3,4.9l0,0c-0.1,0.3-0.1,0.6,0,0.8c4.7,6.4,9.4,12.8,14.1,19.2c1.7,2.3,3.4,4.6,5.1,6.9c0.3,0.3,0.6,0.6,0.9,0.9
	C213.5,488.9,217.2,492.7,220.8,496.5z"/>
<path class="st23" d="M290,541.2c-8.4-4-17-7.9-25.3-12.2c-5.5-2.9-10.7-6.5-16.1-9.8c0.2-0.4,0.3-0.8,0.5-1.2
	c0.6-0.4,1.3-0.7,1.9-1.1c3.7-2,7.5-3.9,11.2-5.9c5.9-2.7,11.8-5.4,17.7-8c1.9-0.8,3.9-1.4,5.9-2.1c2-0.5,3.9-1.1,5.9-1.6
	c-0.2-0.5-0.5-0.9-0.7-1.4c2.3-1,4.6-2.1,6.9-3.1c1.5,0.7,3.1,1.4,4.6,2.2c1.5,0.7,3.1,1.5,4.6,2.2c-0.2,0.6-0.3,1.2-0.5,1.8
	c-2.5,0-5,0-7.5,0.1c0.1-0.2,0.2-0.6,0.2-0.9c-1.1-0.3-2.2-0.6-3.3-0.8c-0.1,0-0.2,0.5-0.5,1.1c1.2,0.2,2.4,0.5,3.5,0.6
	c0.7,10.2,1.4,20.5,2,30.8c0.3,4.4,0.9,9.1-5,10.6c-1.4-0.3-2.7-0.5-4.1-0.8C291.3,541.6,290.6,541.4,290,541.2z"/>
<path class="st7" d="M291.9,541.8c1.4,0.3,2.7,0.5,4.1,0.8c4.6,1.6,9.3,3.3,13.9,4.9C303.3,547.5,297.1,546,291.9,541.8z"/>
<path class="st24" d="M188.6,245.9c12.2-20.8,28.3-38.3,47.2-53.1c0.5,0.2,1.2,0.2,1.3,0.5c3.8,8.1,7.6,16.1,11.4,24.2
	c-2.5,1.2-5.1,2.4-7.6,3.6c-2,1-4,2-6,2.9c-0.4,0.3-0.7,0.5-1.1,0.8c-4,2.1-8,4.1-12,6.2c-0.3,0-0.6,0-0.9,0.1c-4,2-8,3.9-12,5.9
	c-0.7,0.7-1.4,1.3-2,2c0,0,0,0,0,0c-2,1-4.1,2-6.1,3c-0.3,0-0.6,0.1-0.9,0.1c-1.7,0.9-3.4,1.9-5.1,2.8l-0.1-0.1
	C192.8,245.2,190.7,245.5,188.6,245.9z"/>
<path class="st4" d="M387.9,455c0.4-0.3,0.7-0.6,1.1-1C388.6,454.3,388.3,454.7,387.9,455z"/>
<path class="st13" d="M356,464.9c-0.8-0.9-1.6-1.8-2.6-3c3.7-3.3,7.6-5.9,13.3-4.6c1.6,0.4,3.5-0.2,5.2-0.3
	c-1.2,0.8-2.3,1.7-3.5,2.3C364.3,461.2,360.1,463,356,464.9z"/>
<path class="st6" d="M358.9,468.4c0.8,0.8,1.2,1.3,1.6,1.8c-0.4-0.1-0.9-0.1-1.3-0.3C359,469.8,359.1,469.3,358.9,468.4z"/>
<path class="st24" d="M378.9,454c0,0.3,0.1,0.6,0,1c-0.3,0-0.7,0-1-0.1C378.3,454.6,378.6,454.3,378.9,454z"/>
<path class="st25" d="M329,361c4.5,0,9-0.2,13.5,0.1c1.2,0.1,3.3,1.8,3.3,2.8c0.3,10.1,0.2,20.2,0.2,30.3c0,18.6,0,37.3,0,55.9
	c0,2,0.3,3.9,0.4,5.8c-6.5,3.8-2.1,10.1-3.4,15.1c-0.4,0.3-0.8,0.7-1.2,1c-0.2,0.2-0.5,0.5-0.7,0.7c-3.4,1.8-6.7,3.6-10.1,5.4
	c-1.6,0.3-3.2,0.7-4.8,1c-4.1,1.1-8.3,2.3-12.4,3.4c-0.2-0.2-0.4-0.3-0.6-0.5c1.1-1,2-2.2,3.2-2.8c2.7-1.5,5.6-2.5,8.3-4.1
	c0.9-0.6,1.3-2.1,1.9-3.2c-1.2,0-2.4-0.3-3.5-0.1c-1.1,0.2-2.2,0.8-3.9,0.3c0.5-0.7,1-1.8,1.6-1.9c3.5-0.7,3.1-3.4,3.1-5.9
	c0-27.3,0-54.5,0-81.8c0-1.7-0.4-3.6,0.4-4.9c1.9-3.4,1.1-5.2-2-7.3c-2.4-1.6-1.9-3.8,1-5.3C325.4,364,327.1,362.4,329,361z"/>
<path class="st6" d="M317.2,548.4c0,0-0.3,0-0.3,0c1.6-0.5,3.2-1.1,4.8-1.6c0.1,0.4,0.2,0.7,0.3,1.1
	C320.4,548,318.8,548.2,317.2,548.4z"/>
<path class="st22" d="M341.1,472.7c0.2-0.2,0.5-0.5,0.7-0.7C341.6,472.2,341.3,472.5,341.1,472.7z"/>
<path class="st24" d="M379.3,375.2c0.2,1.3,0.6,2.5,0.6,3.8c0,23.2,0,46.5,0,69.7c0,1.4-0.5,2.8-0.8,4.2
	C379.2,427,379.3,401.1,379.3,375.2z"/>
<path class="st24" d="M380.1,365.4c-0.3,1.5-0.6,3-0.8,4.5C379.6,368.4,379.8,366.9,380.1,365.4z"/>
<path class="st26" d="M209,237c4-2,8-3.9,12-5.9c0.7,4.5-2.7,4-5.5,4.1c-0.5,1.9-0.9,3.5-1.4,5.7c2.9-1.1,5.1-2.3,7.5-2.9
	c1.6-0.4,3.4,0.2,5.1,0.4c-1,1.5-1.7,3.4-3.1,4.5c-1.6,1.3-3.7,2-6.1,3.2c6.9,4.3,5.7,10.1,4.3,16.1c-0.6,2.7-1,5.6-1,8.3
	c-0.1,53.3-0.1,106.6,0,159.8c0,3.8,1,7.5,1.2,11.3c0.2,3.6,0,7.2,0,10.8c0,7,0,14.1,0,21.1c0,1.5,0.6,2.9,0.6,4.4
	c0.2,8.1,0.2,8.1-6.5,9.5c1.4,2.9,2.9,6,4.3,9.1c-3.7-3.8-7.4-7.6-11-11.4c0.2-0.6,0.3-1.1,0.5-1.7c-0.5,0.3-0.9,0.5-1.4,0.8
	c-1.7-2.3-3.4-4.6-5.1-6.9c0.7-3.4,2.1-6.9,2.1-10.3c0.1-71.6,0.1-143.2,0.1-214.8c0-3.7,0-7.5,0-11.2c0.3-0.7,0.6-1.4,0.9-2.1
	c0,0,0,0,0,0C207.6,238.3,208.3,237.6,209,237z"/>
<path class="st26" d="M221.9,231c4-2.1,8-4.1,12-6.2C231.1,229.1,227,231.1,221.9,231z"/>
<path class="st26" d="M235,224c2-1,4-2,6-2.9C239,222,237,223,235,224z"/>
<path class="st18" d="M262.2,511.1c-3.7,2-7.5,3.9-11.2,5.9C253.4,512.4,257.4,510.9,262.2,511.1z"/>
<path class="st5" d="M290.9,498c0.2,0.5,0.5,0.9,0.7,1.4c-2,0.5-3.9,1.1-5.9,1.6c0.4-0.6,0.8-1.3,1.3-1.9
	C288.3,498.7,289.6,498.3,290.9,498z"/>
<path class="st18" d="M249.1,518c-0.2,0.4-0.3,0.8-0.5,1.2c-0.3-0.3-0.5-0.7-0.8-1C248.2,518.2,248.6,518.1,249.1,518z"/>
<path class="st19" d="M285.8,303.2c-1.5,0.8-2.4,1.6-3.2,1.5c-0.6,0-1.6-1.5-1.4-2c0.2-0.9,1.2-1.6,1.9-2.4
	C283.8,301.1,284.6,301.9,285.8,303.2z"/>
<path class="st19" d="M280.3,288.2c0-0.5,0-1,0-1.5c0.1,0,0.3,0,0.4,0c0,0.5,0,1,0,1.5C280.6,288.2,280.4,288.2,280.3,288.2z"/>
<path class="st27" d="M188.6,245.9c2.1-0.3,4.1-0.7,6.2-1c-1.6,1.8-3,4-4.9,5.3c-4.7,3.1-5.2,9.4-0.1,12.7c1.3-2.9,2.5-5.8,4-9.2
	c3.5,3.7,4.4,6.6,1.1,10c-1,1.1-1.8,2.9-1.9,4.3c-0.5,10.6-1,21.2-1,31.9c-0.1,41.3,0,82.6-0.1,123.9c0,2-0.6,4-0.3,5.9
	c0.4,3.1,1.2,6.2,1.8,9.2c0.3,1.8,0.5,3.7,0.8,5.5c-4-1.5-6.5-4.6-8.5-0.7c0.3,3.5,0.6,6,0.8,8.5c-2.1-3.3-4.6-6.4-6.3-9.9
	c-10-20.5-16.7-42.1-19.7-64.9c-3.9-29.5-1.3-58.3,7.4-86.6C172.9,275,179.6,259.9,188.6,245.9z"/>
<path class="st28" d="M186.6,452.3c-0.2-2.5-0.5-5-0.8-8.5c1.9-3.8,4.5-0.8,8.5,0.7c-0.3-1.8-0.4-3.7-0.8-5.5
	c-0.6-3.1-1.4-6.1-1.8-9.2c-0.2-1.9,0.3-4,0.3-5.9c0-41.3,0-82.6,0.1-123.9c0-10.6,0.6-21.2,1-31.9c0.1-1.5,0.8-3.3,1.9-4.3
	c3.3-3.5,2.4-6.4-1.1-10c-1.5,3.4-2.7,6.3-4,9.2c-5-3.3-4.6-9.6,0.1-12.7c2-1.3,3.3-3.5,4.9-5.3c0,0,0.1,0.1,0.1,0.1
	c0.7,0,1.4,0.1,2.1,0.1c0.3,0.5,0.5,1,0.8,1.6c0.4-0.5,0.8-1,1.2-1.6c0.3-1,0.6-2,1-2.9c0.3-0.1,0.6-0.1,0.9-0.1
	c1.7-0.3,3.4-0.6,5.2-0.9c0,3.7,0,7.5,0,11.2c0,71.6,0,143.2-0.1,214.8c0,3.4-1.3,6.9-2.1,10.3c-4.7-6.4-9.4-12.8-14.1-19.2
	c0.2-0.2,0.5-0.3,0.7-0.5c-0.2-0.1-0.5-0.2-0.7-0.4c0,0,0,0,0,0c0.3-1.5,0.6-3.1,0.9-4.9c-1.5,0-2.7,0-4,0L186.6,452.3z"/>
<path class="st27" d="M186.7,452.3c1.2,0,2.4,0,4,0c-0.4,1.9-0.6,3.4-0.9,4.9C188.7,455.6,187.7,453.9,186.7,452.3z"/>
<path class="st18" d="M208.9,484.2c0.5-0.3,0.9-0.5,1.4-0.8c-0.2,0.6-0.3,1.1-0.5,1.7C209.5,484.8,209.2,484.5,208.9,484.2z"/>
<path class="st27" d="M189.7,457.2c0.2,0.1,0.5,0.2,0.7,0.4c-0.2,0.2-0.5,0.3-0.7,0.5C189.6,457.8,189.6,457.5,189.7,457.2z"/>
<path class="st5" d="M299,501.2c-1.1-0.2-2.3-0.5-3.5-0.7c0.3-0.6,0.4-1.1,0.5-1.1c1.1,0.2,2.2,0.5,3.3,0.8
	C299.1,500.5,299,500.9,299,501.2z"/>
<path class="st27" d="M206,241c-1.7,0.3-3.4,0.6-5.2,0.9c2-1,4-2,6.1-3C206.6,239.6,206.3,240.3,206,241z"/>
<path class="st27" d="M197,245c-0.7,0-1.4-0.1-2.1-0.1c1.7-0.9,3.4-1.9,5.1-2.8c-0.3,1-0.7,2-1,2.9C198.3,245,197.7,245,197,245z"/>
<path class="st27" d="M209,237c-0.7,0.7-1.4,1.3-2,2C207.6,238.3,208.3,237.6,209,237z"/>
<path class="st26" d="M197,245c0.7,0,1.3,0,2,0c-0.4,0.5-0.8,1-1.2,1.6C197.5,246,197.3,245.5,197,245z"/>
</svg>
