<?xml version="1.0" encoding="utf-8"?>
<!-- Generator: Adobe Illustrator 19.2.1, SVG Export Plug-In . SVG Version: 6.00 Build 0)  -->
<svg version="1.1" id="Layer_1" xmlns="http://www.w3.org/2000/svg" xmlns:xlink="http://www.w3.org/1999/xlink" x="0px" y="0px"
	 viewBox="0 0 400 400" style="enable-background:new 0 0 400 400;" xml:space="preserve">
<style type="text/css">
	.st0{fill:#FFFFFF;}
</style>
<path class="st0" d="M159,278.1c-0.1,0.3-0.5,0.3-1.2,0.2l0.4-1.2L159,278.1L159,278.1z M160.6,280l-0.4,1.1l-0.8-2.2
	c0.1,0,0.1,0,0.2,0c0.2,0,0.4,0.2,0.5,0.4C160.4,279.8,160.6,280,160.6,280L160.6,280z M160.1,286.1c-1.6,1.3-3.3,1.8-5,1.5
	c-0.7-0.1-1.3-0.4-1.9-0.7c-0.8,0.7-2,0.9-3.7,0.6c-0.2,0-0.6-0.1-1.1-0.2c-0.5-0.1-0.8-0.2-1.1-0.2c-1.1-0.2-2-0.2-2.6-0.1
	c-0.5-0.5-1.1-0.9-2-1.1c-0.3-0.1-0.9-0.1-1.6-0.1c-0.7,0-1.2-0.1-1.5-0.1c-1.2-0.2-1.9-0.9-2.2-2.1c0.3-0.8,0.8-1.1,1.5-1
	c0.2,0,0.6,0.2,1.2,0.4s1,0.4,1.3,0.4c0.8,0.1,1.3-0.2,1.7-0.9c0.3-0.6,0.3-1.5,0.1-2.7c-0.2-1.1-0.1-2,0.3-2.6
	c-0.3-0.4-0.4-1.1-0.3-2c0.1-0.9,0.1-1.5,0-1.7c0.3-0.8,0.5-1.8,0.5-2.9c0-0.2,0-0.7,0-1.4c0-0.6,0-1,0-1.4c0.1-0.1,0.1-0.2,0.1-0.4
	c0-0.3-0.1-0.8-0.3-1.5c-0.3-0.9-0.5-1.5-0.5-1.6c-0.6-0.3-2.1-0.9-4.4-1.6c0-0.1-0.1-0.3-0.1-0.4c0-0.2,0.1-0.3,0.4-0.4
	c0.2-0.1,0.4-0.2,0.5-0.4c0.9,0.1,2.5,0.4,4.6,0.9c1.9,0.4,3.4,0.7,4.2,0.8c0.1,0.3,0.4,0.6,0.8,0.9c0.4,0.4,0.8,0.6,1.2,0.7
	c0.5,0.1,0.8-0.1,0.8-0.7c2.2,0.2,3.7,1.2,4.4,2.9c0,0.4,0.1,1.1,0.5,2c0.3,0.9,0.5,1.5,0.5,1.9c0,0.5-0.2,0.8-0.6,1.1
	c0.2,0.3,0.2,0.6,0.2,0.8c0,0.4-0.3,0.8-0.8,1.3c-0.5,0.4-0.8,0.7-0.8,0.9c0,0.3,0.4,0.7,1.2,1.2c0.1,0.4,0.4,1.4,1,3
	c0.4,1.3,0.6,2.3,0.6,3.1c0,0.7-0.2,1.3-0.5,1.9c0,0.3-0.2,0.6-0.7,1c-0.4,0.4-0.6,0.7-0.6,0.9c0,0.3,0.1,0.5,0.4,0.8
	c1.6-0.8,3-1.9,4.1-3.3l-0.4-1.3c0.7,0.4,1,1,1,1.8C160.8,284.8,160.6,285.4,160.1,286.1L160.1,286.1z M153.5,268.8
	c-0.1-0.1-0.4-0.4-1-1.2c-0.4-0.5-0.7-0.7-1-0.8c-0.4,0-1-0.2-1.8-0.7c-0.9-0.5-1.5-0.8-1.9-0.9c-0.8-0.1-1.3,0.3-1.5,1.4
	c0.2,0,0.4,0.2,0.8,0.6c-0.5,0.2-0.8,0.5-0.8,0.9c0,0.2,0,0.5,0.2,0.8c0.1,0.4,0.2,0.7,0.2,0.8c0,0.4-0.3,0.7-0.8,0.9
	c0.6,0.9,1.3,1.5,2.3,1.6c0.5,0.1,1.2,0.1,2.3,0c1-0.1,1.8-0.1,2.3,0c0.3-0.4,0.5-0.7,0.8-1.1c0.3-0.5,0.5-0.9,0.5-1.3
	C153.9,269.6,153.8,269.2,153.5,268.8L153.5,268.8z M154.1,282.5c-0.2-0.5-0.3-1.2-0.4-2.1c-0.1-1-0.1-1.6-0.3-2
	c-0.2-0.7-0.7-1.2-1.3-1.5c-0.4-0.6-0.9-1-1.5-1.1c-0.3-0.1-0.7-0.1-1.3,0c-0.6,0-1.1,0-1.4,0c-0.2,0-0.4-0.1-0.6-0.2
	c-0.1-0.3-0.2-0.4-0.3-0.4c-0.1,0-0.2,0-0.3,0.2c-0.2,0.1-0.3,0.2-0.4,0.2c-0.1,0-0.1,0-0.2,0c0.2,0.3,0.3,0.8,0.3,1.4
	c0,0.1,0,0.3,0,0.5c0,0.2,0,0.4,0,0.5c0,0.8,0.3,1.3,0.8,1.5c-0.5,0.2-0.8,0.5-0.8,1c0,0.3,0,0.7,0.1,1.4c0.1,0.6,0,0.9-0.1,1.1
	c0.3,0.9,0.6,1.3,1,1.4c0.2,0,0.5-0.1,1-0.3c0.5-0.2,0.8-0.3,1.1-0.3c0.3,0.1,0.6,0.3,0.9,0.7c0.3-0.1,0.7-0.2,1.4-0.3
	c0.7-0.1,1.1-0.2,1.4-0.3C153.7,283.4,154,283,154.1,282.5L154.1,282.5z M148.5,279.8l-0.4-0.1l0-0.8l0.4,0.1L148.5,279.8
	L148.5,279.8z M181.8,290c0,0-0.4,0.1-1,0.3c-0.4,0.1-0.6,0.4-0.6,0.8c-0.6-0.5-1.5-0.8-2.7-0.7c-1.6,0.1-2.5,0.1-2.7,0.1
	c-0.9-0.1-1.6-0.8-1.9-1.8c0.2-0.5,0.7-0.7,1.3-0.7c0.5,0.1,0.8,0.2,1.1,0.5c0.3-0.5,0.4-1,0.4-1.5c0-1-0.4-2.1-1.2-3.5
	c-0.4,0.2-1.1,0.2-1.8,0.1c-0.2,0-0.5-0.1-1-0.1c-0.5-0.1-0.8-0.1-1-0.1c-1.5-0.2-2.4,0.3-2.8,1.4c0.3,1,0.5,1.7,0.4,2.1
	c0.1,0.1,0.5,0.3,1.3,0.6c0.6,0.3,0.9,0.6,0.9,1c0,0.2-0.1,0.4-0.2,0.7c-0.7,0.4-1.7,0.6-3.1,0.6c-1.5,0-2.5,0.1-3,0.3
	c-0.6-0.3-1.3-0.7-1.9-1.1c-0.6-0.4-0.9-0.9-0.9-1.7c0.3-0.4,1.1-0.7,2.1-0.8c1-0.1,1.6-0.5,1.9-1.2c0.4-1.6,0.8-3.2,1.3-4.8
	c0.5-1.9,1.1-3.5,1.7-4.6c-0.1-0.2-0.1-0.4-0.1-0.6c0-0.2,0.1-0.6,0.3-0.9c0.2-0.4,0.3-0.7,0.3-0.9c0-0.3-0.1-0.6-0.4-0.9
	c0.6,0,1-0.2,1.1-0.6c0-0.5,0.1-0.9,0.1-1.4c0.1-0.6,0.3-0.9,0.8-1c-0.2-0.2-0.3-0.6-0.3-1.3c0-0.6-0.2-1-0.4-1.3
	c0.6-0.3,1.3-0.3,2-0.3c0.7,0.1,1.2,0.3,1.6,0.7c0,0.2,0.1,0.5,0.1,0.8c0,0.2,0,0.5-0.1,0.8c0,0.3-0.1,0.6-0.1,0.7
	c0,0.7,0.4,1.4,1.2,2c-0.3,0.3-0.5,0.6-0.5,1c0,0.4,0.2,1,0.7,1.9c0.4,0.9,0.7,1.6,0.7,2.1c0,0.1,0,0.3,0,0.4
	c0.1,0.9,0.6,2.4,1.3,4.6c0.6,1.9,1,3.5,1,4.7c-0.1,0.5,0.2,0.8,0.8,0.9c0.6,0.1,0.9,0.4,0.8,0.9c0.2,0.3,0.6,0.5,1.5,0.6
	c0.7,0.1,1,0.4,1,0.8C181.9,289.7,181.9,289.9,181.8,290L181.8,290z M172.1,289.7l-0.4-0.4l0.4,0L172.1,289.7L172.1,289.7z
	 M174.2,281.4c0.1-0.8-0.1-2-0.6-3.4c-0.5-1.4-0.7-2.5-0.7-3.2c0-0.4,0.1-0.9,0.2-1.3c0,0-0.3,0-0.9-0.1c-0.4,0-0.6-0.2-0.7-0.5
	l1.2-1.5l-0.4-0.4c-0.8,0-1.2,0.5-1.2,1.3c0,0.2,0,0.5,0.1,0.9s0.1,0.7,0.1,0.9c0,0.6-0.2,1-0.6,1.1c0.4,0.4,0.5,0.9,0.5,1.3
	c0,0.3-0.2,0.8-0.6,1.4c-0.4,0.6-0.6,1-0.6,1.4c0,0.4,0.2,0.8,0.5,1.3c0.3-0.3,0.6-0.4,1-0.3c0.3,0,0.7,0.2,1.3,0.6
	C173.5,281.1,173.9,281.3,174.2,281.4L174.2,281.4z M172.2,275.9l-0.4-0.5l0.4,0L172.2,275.9L172.2,275.9z M198.8,284.3
	c0.3,0.4,0.4,0.9,0.4,1.4c0,0.4-0.1,1-0.4,1.7c-0.3,0.7-0.4,1.3-0.5,1.6c-0.5,0.2-0.9,0.7-1.2,1.5c-0.3,0.8-0.7,1.3-1.2,1.5
	c-1.3,0.5-2.7,0.7-4,0.7c-1-0.1-2-0.3-3.1-0.7c-2.5-1.8-4.1-4-5.1-6.6c0.3-0.3,0.4-0.5,0.4-0.8c0-0.2-0.1-0.6-0.4-1.1
	c-0.3-0.5-0.4-0.9-0.4-1.2c-0.1-0.6-0.1-1.2-0.1-1.8c0-1.2,0.2-2.4,0.6-3.7c0.1-0.3,0.5-1.4,1.2-3.6c0.4-2.3,2.4-3.9,6-4.7
	c0.7,0,1.6,0.2,2.8,0.7c1.2,0.5,2.1,0.8,2.7,0.9c0.6,0,1.1-0.1,1.6-0.3c0.8,1.7,1.2,3.7,1.2,6c0,1.3-0.2,2.5-0.5,3.5
	c-0.7,0-1.2-0.4-1.7-1.2c-0.6-1-1.1-1.6-1.5-1.8c0.5-0.3,0.8-0.6,0.8-0.9c0-0.2-0.2-0.6-0.6-1.2c-0.4-0.6-0.6-1.1-0.6-1.4
	c-0.4-0.4-1-0.8-1.7-1.1c-0.6-0.2-1.2-0.5-1.8-0.7c-0.2,0.1-0.9,0.5-2.1,1c-0.8,0.4-1.3,0.7-1.5,1.1c-0.6,0.6-1,1.5-1.3,2.7
	c-0.3,1.4-0.6,2.3-0.8,2.7c0.1,0.2,0.1,0.4,0.1,0.7c0,0.2,0,0.5-0.1,0.9c0,0.4-0.1,0.7-0.1,0.9c0,0.8,0.3,1.5,0.8,1.9
	c-0.3,0.1-0.4,0.3-0.4,0.7c0,0.6,0,0.9,0,0.9l1.2,1.3l-0.4,0.4c0.6,0.3,1.1,1,1.5,2c0.4,0.9,0.9,1.5,1.6,1.7
	c0.2,0.1,0.4,0.1,0.7,0.1c1,0.1,2.1-0.3,3.1-1.2c0.5-0.4,1.2-1.3,2.2-2.5c0-0.2,0-0.4-0.2-0.7c-0.2-0.3-0.3-0.5-0.3-0.6
	c0-0.1,0-0.2,0.1-0.3c0.2,0,0.5-0.1,1-0.4c0.5-0.2,0.8-0.3,1-0.3C198.3,283.8,198.6,284,198.8,284.3L198.8,284.3z M221.7,290.3
	c-0.1,1.4-1,2.1-2.7,2.1c-0.3,0-0.7,0-1.4,0c-0.6,0-1.1,0-1.4,0c-0.9,0-1.6,0.2-2.1,0.5c-0.2-0.4-0.7-0.7-1.5-0.8
	c-0.7-0.1-1-0.4-1-0.9c0-0.2,0.1-0.6,0.2-0.9c0.1-0.2,0.5-0.4,1.2-0.4c0.5,0,0.8-0.3,0.8-0.8c-0.1-0.3-0.5-0.4-1.2-0.4
	c0.2-0.3,0.3-0.6,0.3-0.9c0-0.3-0.2-0.8-0.7-1.5c-0.5-0.7-0.7-1.2-0.7-1.6l-0.8,0c0,0.2,0-0.1,0-0.9c0-0.3-0.1-0.6-0.4-0.7
	c0.2,0-0.1,0-1.1,0c-0.4,0-0.7,0.2-0.9,0.4c0,0.4,0,0.7,0,1.1c0,0.4,0.1,0.7,0.4,0.9l0.4,0c-0.1,0-0.2,0-0.3,0
	c-0.6,0-0.9,0.4-1.1,1.1c-0.3,1-0.4,1.6-0.5,1.7c0.3,0.6,0.8,1,1.7,1.1c1,0.1,1.7,0.2,1.9,0.4c0,0.2,0,0.4,0,0.6
	c0,1.5-1,2.3-2.9,2.3c-0.5,0-1.2,0-2.2-0.1c-1-0.1-1.8-0.1-2.2-0.1c-0.6,0-1,0.1-1.4,0.2l-1.2-1.5c0.2-0.4,0.7-0.8,1.5-1.1
	c1.1-0.5,1.6-0.7,1.8-0.8c0.6-0.4,0.9-0.9,0.9-1.6c0-0.3,0-0.6-0.1-0.9c-0.1-0.6,0-2,0-4.1c0-1.7-0.1-3.1-0.3-4.2
	c0.3-0.4,0.4-1,0.4-1.7c0-0.3,0-0.7-0.1-1.3c-0.1-0.6-0.1-1-0.1-1.3c0-0.7,0.2-1.3,0.6-1.7c-0.2-0.8-0.7-1.2-1.5-1.1
	c-0.1,0-0.3,0-0.5,0c-0.2,0-0.4,0-0.5,0c-0.8,0-1.1-0.4-1-1.2c0.4-0.5,0.9-0.8,1.5-0.8c0.3,0,0.7,0.1,1.3,0.2c0.6,0.1,1,0.2,1.3,0.2
	c0.6,0,1.1-0.3,1.5-0.8c0.2-0.1,0.3-0.1,0.5-0.1c0.4,0,0.8,0.2,1.4,0.6c0.6,0.4,1,0.6,1.2,0.6c0.3,0,0.6-0.1,0.9-0.4l0.4,0.4
	c-0.4,0.3-1.1,0.6-2.3,1s-2,0.8-2.5,1.1l0.8,0.8c-0.3,0.2-0.4,0.5-0.4,0.9c0,0.4,0,0.7,0,1.1c0.3,0.4,0.4,0.9,0.4,1.5
	c0,0.3-0.1,0.9-0.2,1.8c-0.2,0.8-0.2,1.5-0.2,1.9c0,0.2,0.1,0.5,0.4,0.8c2-1.9,3.2-3.7,3.6-5.2c0.6-0.2,1.1-0.7,1.5-1.3
	c0.4-0.7,0.8-1.3,1.3-1.6c0-0.1,0.1-0.2,0.1-0.3c0-0.3-0.2-0.8-0.6-1.3c-0.4-0.6-0.6-0.9-0.6-1.1c0-0.3,0.3-0.6,0.8-0.8
	c0.6,0.3,1.2,0.5,1.8,0.5c0.4,0,1-0.1,1.8-0.3c0.8-0.2,1.3-0.3,1.7-0.3c0.8,0,1.5,0.3,2.2,0.8c0,0.5-0.2,0.9-0.7,1.2
	c-0.3,0.1-0.8,0.3-1.6,0.4c-0.8,0.1-1.4,0.3-1.7,0.4c-0.6,0.6-1.3,1.7-2.2,3.6c-0.8,1.6-1.6,2.7-2.6,3.3c-0.1,0.4-0.2,0.8-0.2,1.2
	c0,0.8,0.3,1.7,1,2.7c1.1,1.6,1.7,2.5,1.8,2.7C216.6,288.4,218.9,290.1,221.7,290.3L221.7,290.3z M245.3,269.8l-0.4,0.1l0-0.8
	l0.4-0.1L245.3,269.8L245.3,269.8z M251.8,284.4l-0.4,0.4c0.1,0.2,0.2,0.5,0.2,0.8c0,0.8-0.7,2.1-2.2,3.8c-1.1,0.7-2.3,1.1-3.7,1.3
	c-2.1,0.3-4.2,0-6.1-0.8c-0.2,0.3-0.5,0.5-0.7,0.8c-0.3,0.3-0.5,0.7-0.5,0.9c-1.2,0.3-2.2-0.2-3.1-1.6c0.3-0.8,0.5-1.6,0.8-2.4
	c0.3-0.9,0.4-1.6,0.4-2.2c0-0.9-0.3-1.8-0.8-2.6c0.2-0.5,0.5-0.8,1-0.9c0.2,0,0.5,0,0.9,0.1c0.4,0.1,0.7,0.1,0.9,0.1
	c0.4,0.3,0.7,0.9,1.1,1.8c0.5,1.1,0.8,1.8,1,2c0.5,0.7,1,1.1,1.8,1.2c0.6,0.3,1.3,0.4,2,0.3c0.3,0,1.4-0.4,3-0.9
	c0.5-0.3,0.9-0.9,1.2-1.7c0.5-1.4,0.7-2.1,0.8-2.1c0-0.6-0.3-1.2-0.7-1.8c-0.4-0.5-0.8-1-1.2-1.5c-0.5-0.1-1.2-0.2-2.1-0.1
	c-0.5,0-1.3,0.1-2.3,0.3c-1,0.2-1.6,0.2-1.9,0.3c-0.2-0.6-0.7-1.1-1.5-1.4c-0.7-0.2-1.3-0.4-2-0.6c-0.7-0.3-1-0.9-1.1-1.7l-0.3-4.7
	l3.1-3.5c0.5-0.1,1.3-0.3,2.6-0.6c1.1-0.3,1.9-0.5,2.5-0.5c1.8-0.2,3.2,0.2,4.2,1.1l1.2-0.9c0.7-0.1,1.1,0,1.2,0.2
	c-0.3,0.4-0.5,0.9-0.5,1.3c0,0.3,0.1,0.7,0.3,1.2c0.2,0.5,0.3,0.9,0.3,1.2c0,0.5-0.2,0.9-0.7,1.4l0,1.2c-0.1,0.1-0.2,0.1-0.4,0.1
	c-0.4,0-0.7-0.2-0.9-0.7c-0.3-0.7-0.5-1.1-0.6-1.2l0.4-0.4c-0.2-0.7-0.6-1.1-1.2-1.4c-0.4-0.2-0.9-0.4-1.7-0.6
	c-0.8-0.2-1.4-0.4-1.7-0.6c-0.2,0-0.4,0.1-0.6,0.2c-0.3,0.2-0.4,0.3-0.5,0.3c-0.2,0-0.3-0.1-0.4-0.3c-0.2,0.6-0.9,1.2-2,1.8
	c-1.1,0.6-1.7,1.2-2,1.9c0.3,0.1,0.4,0.2,0.4,0.4c0,0.1-0.1,0.3-0.2,0.6c-0.1,0.3-0.2,0.5-0.2,0.6c0.8,1.2,2.1,1.9,4.1,2.2
	c1.7,0.2,3.3,0.4,5,0.6c1.8,0.4,2.9,1.5,3.3,3.1c0.1,0.2,0.3,0.7,0.6,1.4c0.3,0.5,0.4,1,0.4,1.4
	C252.5,283.4,252.2,283.9,251.8,284.4L251.8,284.4z M267.4,273.6l-0.4,0.1l0-0.8l0.4-0.1L267.4,273.6L267.4,273.6z M265.5,272.4
	l-0.8,0.2l0-0.8c0.2-0.1,0.5,0,0.8,0.2L265.5,272.4L265.5,272.4z M258.2,270.8l-0.4,0.1l0-0.8l0.4-0.1L258.2,270.8L258.2,270.8z
	 M271.3,266.2c-0.1,0.4-0.1,0.9-0.1,1.4c0,0.4,0,1,0,1.7c0,0.8,0,1.4,0,1.8c0,1.6-0.3,2.8-0.8,3.8c-0.2,0.1-0.3,0.1-0.5,0.1
	c-0.7,0.1-1.1-0.2-1.3-0.9c-0.2-1-0.5-1.6-0.9-1.8c0-0.2,0.1-0.6,0.4-1.2c0.3-0.6,0.4-0.9,0.4-1.2c0-0.4-0.2-0.6-0.8-0.8
	c0.5-0.5,0.8-1.1,0.8-1.7c0-0.1,0-0.3,0-0.4c-0.3-0.7-0.7-1-1.2-0.9c-0.2,0-0.6,0.2-1.2,0.5c-0.5,0.3-0.9,0.4-1.2,0.5
	c-0.2,0-0.4,0-0.6,0c-0.5,0.6-0.7,1.4-0.7,2.4c0,0.2,0,0.4,0,0.8c0,0.3,0,0.6,0,0.7c0,0.4-0.1,0.7-0.2,1l0.8,2.2
	c-0.2,0-0.5,0.2-0.8,0.5c-0.1,0.2-0.1,0.4-0.1,0.5c0,0.3,0.1,0.6,0.4,1c0.3,0.4,0.5,0.7,0.4,0.8c0,0.3-0.3,0.5-0.8,0.8
	c0,0.9,0.2,2.4,0.8,4.5c0,0.1-0.2,0.3-0.5,0.6c-0.2,0.2-0.3,0.4-0.3,0.6c0,0.1,0,0.1,0,0.2l0.8,0.6c0.4-0.4,0.7-0.6,1.1-0.6
	c0.4-0.1,0.9,0,1.7,0.3c0.7,0.3,1.4,0.3,1.8,0.2l0.3,1.5c-1.1,0.9-2.4,1.6-4,2c-0.6,0.2-2,0.4-4.3,0.7c-1.8,0.2-3.2,0.6-4.3,1
	c-0.5-0.1-0.7-0.4-0.8-1c0-0.5,0-1,0-1.5c0.2-0.1,0.6-0.5,1.2-1c0.5-0.4,0.9-0.7,1.2-0.8c0.2,0,0.4,0,0.6,0c0.1,0.1,0.3,0.1,0.5,0.1
	c0.5-0.1,1-0.4,1.4-0.9l0.1-9l-1.5-0.4c0.5-0.3,0.8-0.4,0.8-0.5c0.3-0.2,0.6-0.4,0.7-0.6c0.1-0.2,0.1-0.4,0.1-0.6
	c0-0.4-0.2-0.6-0.6-0.8c-0.4-0.1-0.7-0.2-1.1-0.3c0.6-0.1,1-0.5,1.3-1.1c0.2-0.7,0.4-1.3,0.6-2c0-0.1,0.1-0.2,0.1-0.3
	c0-0.2-0.1-0.4-0.3-0.6c-0.2-0.1-0.4-0.3-0.5-0.4c-0.4,0.2-1,0.5-1.9,0.8c-0.9,0.3-1.5,0.6-1.9,0.9c-0.6,0.5-0.8,1.1-0.8,2
	c0,0.3,0.2,0.5,0.4,0.8c0.2,0.2,0.5,0.4,0.7,0.6c-0.4,0-0.7,0.3-0.7,0.7c-0.1,0.6-0.2,0.9-0.5,1.1c0.5,0.1,0.8,0.3,0.8,0.7
	c0,0.2-0.1,0.5-0.4,1c-0.3,0.5-0.4,0.8-0.4,1l-1.5,1.5c0,0-0.2-0.2-0.4-0.4c-0.2-0.2-0.3-0.2-0.5-0.2c-0.1,0-0.1,0-0.2,0.1
	c0.2-0.4,0.3-0.9,0.3-1.5c0-0.2,0-0.5-0.1-0.9c0-0.4-0.1-0.7-0.1-0.9c0-0.4,0.1-0.8,0.2-1.1c0.1-0.9,0.1-2.1,0-3.5
	c0.4-0.4,0.5-0.7,0.5-0.9c-0.1-0.1-0.1-0.2-0.1-0.3c0-0.2,0.1-0.6,0.4-1c0.3-0.6,0.5-1,0.5-1.1c1.2-1,2.7-1.7,4.6-2.1
	c0.9-0.2,2.4-0.3,4.4-0.5c2-0.1,3.5-0.3,4.4-0.5c0.7-0.2,1.4-0.1,2.1,0.3C271.1,264.5,271.4,265.3,271.3,266.2L271.3,266.2z
	 M258.2,273.9l-1.2-0.2l1.2-0.2L258.2,273.9L258.2,273.9z M292.5,278.9c0,0-0.4,0.2-1,0.7c-0.4,0.3-0.6,0.6-0.6,1
	c-0.6-0.3-1.5-0.2-2.6,0.3c-1.6,0.7-2.5,1.1-2.6,1.1c-0.9,0.2-1.5-0.2-1.9-1.1c0.2-0.6,0.6-1,1.3-1.2c0.4-0.1,0.8-0.1,1.1,0.1
	c0.3-0.6,0.4-1.1,0.4-1.7c0-1-0.4-2-1.2-3c-0.4,0.3-1,0.6-1.8,0.8c-0.2,0.1-0.5,0.1-0.9,0.3s-0.8,0.2-0.9,0.3
	c-1.5,0.4-2.3,1.2-2.7,2.5c0.3,0.9,0.4,1.5,0.4,1.9c0.1,0.1,0.5,0.1,1.3,0.1c0.6,0,0.9,0.2,0.9,0.6c0,0.2-0.1,0.5-0.2,0.8
	c-0.6,0.6-1.7,1.2-3,1.8c-1.5,0.6-2.4,1-2.9,1.5c-0.6-0.1-1.2-0.2-1.9-0.3c-0.6-0.1-0.9-0.6-0.9-1.4c0.3-0.5,1-1.1,2.1-1.6
	c0.9-0.5,1.6-1.1,1.9-1.9c0.4-1.8,0.8-3.6,1.2-5.3c0.5-2.1,1-3.9,1.6-5.3c-0.1-0.2-0.1-0.3-0.1-0.5c0-0.2,0.1-0.6,0.3-1
	c0.2-0.5,0.3-0.8,0.3-1c0-0.3-0.1-0.5-0.4-0.7c0.6-0.2,1-0.6,1.1-1.1c0-0.5,0.1-1,0.1-1.4c0.1-0.6,0.3-1,0.8-1.3
	c-0.2-0.1-0.3-0.5-0.3-1.1c0-0.6-0.2-1-0.4-1.1c0.6-0.5,1.2-0.8,1.9-1c0.6-0.2,1.2-0.2,1.6,0c0,0.2,0.1,0.5,0.1,0.7
	c0,0.2,0,0.5-0.1,0.8c0,0.3,0,0.6-0.1,0.7c0,0.7,0.4,1.2,1.2,1.5c-0.3,0.4-0.5,0.8-0.5,1.2c0,0.4,0.2,0.9,0.6,1.6
	c0.4,0.7,0.6,1.3,0.6,1.8c0,0.1,0,0.3,0,0.4c0.1,0.8,0.5,2.2,1.2,4.1c0.6,1.7,1,3.1,1,4.2c-0.1,0.6,0.2,0.8,0.8,0.6
	c0.6-0.2,0.8,0,0.8,0.6c0.2,0.2,0.6,0.2,1.4,0c0.7-0.1,1,0,1,0.4C292.6,278.5,292.6,278.7,292.5,278.9L292.5,278.9z M283.1,282.3
	l-0.4-0.3l0.4-0.1L283.1,282.3L283.1,282.3z M285.1,273.2c0.1-0.9-0.1-1.9-0.6-3.1c-0.5-1.2-0.7-2.2-0.7-2.9c0-0.4,0.1-0.9,0.2-1.4
	c0,0-0.3,0.1-0.9,0.2c-0.3,0.1-0.6,0-0.7-0.2l1.2-2l-0.4-0.3c-0.8,0.4-1.2,1-1.2,1.8c0,0.2,0,0.5,0.1,0.9c0,0.4,0.1,0.7,0.1,0.9
	c0,0.6-0.2,1-0.5,1.4c0.3,0.3,0.5,0.7,0.5,1.1c0,0.3-0.2,0.9-0.5,1.6c-0.4,0.7-0.5,1.3-0.5,1.6c0,0.4,0.2,0.8,0.5,1.1
	c0.3-0.4,0.6-0.6,1-0.7c0.3-0.1,0.7-0.1,1.3,0.1C284.5,273.2,284.9,273.2,285.1,273.2L285.1,273.2z M283.2,268.4l-0.4-0.4l0.4-0.1
	L283.2,268.4L283.2,268.4z"/>
<path class="st0" d="M311,265.3c-0.3-0.1-0.6-0.1-1.1,0.1c-0.4,0.2-0.8,0.5-1.1,0.8c-0.3,0.4-0.4,0.9-0.4,1.3c0,0.2-0.1,0.5-0.1,0.8
	c0,0.3,0,0.7,0,1.3c0,0.6,0,1.1,0,1.4c0,1.3-0.3,2.5-0.8,3.3c-0.1,0.1-0.3,0.2-0.4,0.3c-0.3,0.1-0.6,0.1-0.9-0.1s-0.6-0.3-0.8-0.5
	c-1.2,1.5-2.7,2.6-4.5,3.4c-0.8,0.3-1.6,0.5-2.3,0.6c-0.8-0.5-1.5-1-2.2-1.5c-0.9-0.7-1.6-1.3-2-2c-0.6-0.9-0.8-2-0.7-3.3
	c0.2-0.3,0.4-0.7,0.4-0.9c0,0-0.1-0.4-0.4-1c-0.1-0.4,0-0.8,0.4-1.3c-0.2-0.6-0.3-1.4-0.3-2.1c0-2,0.8-4.3,2.2-6.7
	c0.1-1,0.7-1.9,1.6-2.9c0.8-0.8,1.6-1.5,2.4-2.2c0.4-0.3,0.8-0.5,1.1-0.7c0.7-0.3,1.7-0.4,3-0.2c1.3,0.2,2.3,0.1,3-0.1
	c0.1-0.3,0.5-0.6,1.1-0.8l0.7,0.5c-0.7,0.3-1,0.7-1,1.1c0,0.1,0.1,0.4,0.2,0.7c0.1,0.3,0.2,0.6,0.2,0.7c0,0.3-0.1,0.7-0.4,1
	c0,0.2,0.1,0.5,0.4,0.9c0.2,0.4,0.4,0.7,0.4,0.9c0,0.3-0.2,0.7-0.7,0.9c-0.5,0.3-0.9,0.2-1.2-0.3c-0.3-0.5-0.6-0.8-0.9-0.7
	c0.6-0.7,0.8-1.3,0.9-1.8c0-0.5-0.4-0.9-1.4-1.1c-1.3-0.2-2-0.4-2-0.4c-0.3,0.4-1,0.8-2.2,1.3l-0.3-0.3c-1.2,1.7-2,3-2.4,3.7
	c-0.8,1.5-1.3,2.9-1.3,4c0,0.2,0,0.5,0,0.7c-0.2,0.8-0.4,1.6-0.4,2.5c0,0.9,0.1,1.6,0.3,2.2c-0.2,0.3-0.4,0.5-0.4,0.7
	c0,0.2,0.1,0.3,0.4,0.5c0.2,0.2,0.4,0.4,0.4,0.6c0,0.1,0,0.3,0,0.4c0,0.4,0.1,0.8,0.3,1.4c0.3,0.8,0.4,1.2,0.5,1.4
	c0.6,0.6,1.6,0.6,2.9,0c0.5-0.2,1.1-0.5,1.8-0.9c0.6-0.3,1.1-0.7,1.7-1c0.3-0.6,0.5-1.1,0.8-1.6c0.3-0.7,0.4-1.2,0.4-1.7
	c0-0.2,0-0.4-0.1-0.6c-0.2,0-0.6,0-1.3,0c-0.6,0-1,0-1.2-0.1l0.4-0.5c0,0-0.2-0.1-0.4-0.3c-0.1-0.1-0.3-0.2-0.5-0.1
	c-0.1,0-0.1,0.1-0.2,0.1c0.4-0.2,1-0.6,1.9-1.2c0.9-0.6,1.5-1,2-1.2c0.6-0.2,1.1-0.3,1.5-0.2c0.4-0.5,0.9-0.8,1.5-1.1
	c0.6-0.3,1.2-0.4,1.8-0.3c0,0.1,0.1,0.3,0.3,0.6c0.2,0.3,0.3,0.5,0.3,0.7C311.7,264.6,311.5,265,311,265.3L311,265.3z M299.6,270.8
	l-0.4-0.2l0.4-0.1L299.6,270.8L299.6,270.8z M307.2,253.8l0-0.4l-0.4,0.1L307.2,253.8L307.2,253.8z M328,260.2
	c-0.3,0.7-0.5,1.4-0.8,2.1c-0.3,0.7-0.7,1.2-1.2,1.5c-0.4,0-1.1,0.3-2,1c-1,0.7-1.6,1.1-1.9,1.2c-0.2,0.2-1,0.7-2.2,1.6
	c-0.9,0.7-1.6,1.2-2.2,1.5c-1,0.6-1.9,1.1-2.8,1.4c-0.3,0.6-0.6,1-0.9,1.3c-0.2,0.1-0.5,0.2-0.9,0.3c-0.4,0.1-0.7,0.2-0.9,0.3
	c-0.2,0.1-0.4,0.3-0.6,0.5l-0.6-1.9c0.3-0.4,0.8-0.8,1.4-1.3c0.6-0.5,1.1-0.9,1.4-1.3c0.5-0.5,0.9-1.2,1.1-1.9c0,0.2,0-0.1,0-0.9
	c0-0.3-0.1-0.5-0.3-0.5c0.4-0.5,0.6-1,0.6-1.4c0-0.2-0.1-0.5-0.3-0.9c-0.2-0.4-0.3-0.7-0.3-1c0-0.3,0.1-0.8,0.4-1.2
	c-0.2-0.1-0.3-0.3-0.3-0.6c0-0.2,0.1-0.6,0.3-1.2c0.2-0.6,0.3-1,0.3-1.2c0-0.4-0.2-0.6-0.6-0.6c0.1-0.9,0.2-1.9,0.3-2.8
	c0.1-1,0.1-2,0.1-2.9c-0.3-0.2-0.7-0.2-1.4,0.1c-0.9,0.4-1.4,0.6-1.6,0.6c-0.5,0-0.7-0.4-0.6-1.2c0.2-0.6,0.5-1.1,1-1.4
	c0.1,0,0.1-0.1,0.2-0.2c0.1-0.1,0.2-0.1,0.2-0.2c0.4-0.2,0.7-0.6,0.8-0.9c0.3-0.2,0.9-0.5,1.8-1.1c0.8-0.5,1.5-1,2-1.2
	c0.7-0.4,1.4-0.7,1.9-0.8c0.4-0.8,0.8-1.4,1.4-1.6c0.5-0.2,1-0.4,1.5-0.6c0.6-0.3,1.1-0.7,1.5-1.3c0.3,0.1,0.7,0,1.2-0.4
	c0.1-0.1,0.2-0.2,0.4-0.3c0.2-0.1,0.3-0.2,0.4-0.3c0.6-0.4,1-0.5,1.2-0.4c-0.1,0.3-0.1,0.6-0.1,1c0,0.6,0.2,1.5,0.5,2.6
	c0.4,1.1,0.5,1.9,0.5,2.4c0,1.1-0.6,2.3-1.7,3.4c-0.7-0.1-1-0.6-1-1.5c0-0.1,0-0.3,0-0.6c0-0.3,0-0.5,0-0.6c0-0.6-0.1-1.1-0.3-1.5
	c0.2-0.2,0.3-0.7,0.3-1.4c-0.5-0.5-1.1-0.5-1.8,0c-0.5,0.3-1.1,0.8-1.8,1.6c-0.5,0.6-1.1,1.1-1.6,1.7c0.1-0.2-0.1-0.4-0.3-0.6
	c-0.2,0.3-0.7,0.8-1.4,1.3c-0.6,0.5-1.1,1-1.3,1.5c-0.1,0.2-0.2,0.5-0.2,0.7c0,0.3,0.1,0.5,0.4,0.7c0.3,0.2,0.4,0.4,0.4,0.6
	c0,0.3-0.2,0.6-0.7,1.2c0.1,0.1,0.2,0.2,0.5,0.5c0.2,0.2,0.3,0.4,0.3,0.6c0,0.1,0,0.3-0.1,0.4l-0.7,1.2c0.2,0.4,0.5,0.5,1.1,0.1
	c0.1-0.1,0.3-0.2,0.6-0.4c0.3-0.2,0.5-0.3,0.6-0.4c0.2-0.1,0.3-0.2,0.4-0.2l1-1.8l-0.6-0.4c0.4-0.2,0.7-0.6,0.9-1.1
	c0.1-0.2,0.1-0.6,0.2-1.3c0.1-0.5,0.2-0.8,0.4-0.9c0.2-0.1,0.4-0.1,0.8,0c0.7,0.2,1,0.8,1,1.8c0,0-0.1,1-0.4,3.1
	c-0.1,1.3,0,2.1,0.3,2.6c-0.2,0.2-0.3,0.5-0.3,0.9c0,0.6,0,0.9,0,0.8l0.3,0.2l-2.3,2.3c-0.1-0.2-0.2-0.5-0.3-1
	c-0.1-0.5-0.2-0.8-0.3-1c-0.2-0.3-0.5-0.3-0.9-0.1l0.3-0.6c0,0-0.2-0.1-0.4-0.3c-0.2-0.1-0.3-0.1-0.4,0c-0.1,0-0.1,0.1-0.2,0.1
	c-0.4,0.5-0.7,1.1-0.9,1.8c-0.3,1-0.4,1.6-0.5,1.8l0.7,0.4c-0.6,0.7-0.8,1.3-0.6,2c0.2,0.7,0.2,1.4-0.1,1.9c0.2,0,0.3,0,0.5-0.1
	c0.2-0.1,0.4-0.3,0.7-0.7c0.3-0.4,0.5-0.6,0.7-0.7c0.3-0.2,0.6-0.1,0.8,0.2c0.4-0.8,1.1-1.4,2-2c0.2-0.1,0.5-0.3,0.8-0.5
	c0.3-0.2,0.6-0.3,0.8-0.4c1-0.6,1.5-1.5,1.5-2.7c0-0.3,0-0.6-0.1-1l0.3-0.6l-0.9-0.6c0.5-0.3,0.8-0.9,1.1-1.8
	c0.2-0.9,0.5-1.4,0.8-1.6c0.2-0.1,0.4-0.2,0.7-0.2c0.7,0.2,1,1.1,1,2.8c0,0.2,0,0.6,0,1.1c0,0.5,0,0.8,0,1.1
	C327.7,259.1,327.8,259.8,328,260.2L328,260.2z"/>
<path class="st0" d="M96.6,138l-0.5,0.2l-0.4-1l0.5-0.2L96.6,138L96.6,138z M107.4,142.6c0.4,4.3-1.2,7.8-4.8,10.3
	c-3.9,0.5-6.2,0.7-6.9,0.7c-2.6,0-4.6-0.9-6-2.4c-0.1-0.2-0.1-0.3-0.2-0.5c-0.3-0.8-0.9-1.3-1.7-1.5c0.2-0.5,0.3-0.9,0.1-1.1
	c-0.5-0.3-0.8-0.8-1.1-1.5c-0.3-0.7-0.4-1.6-0.4-2.8c0-0.9,0-1.8,0-2.8c0.2-0.5,0.4-1.2,0.6-2.2c0.2-0.9,0.4-1.6,0.5-2
	c0.3-0.7,0.8-1.2,1.5-1.7c0.6-1.4,1.7-2.4,3.4-3c1.4-0.5,3-0.7,4.9-0.5c1.1,0.3,2.2,0.6,3.2,0.9c1.2,0.3,2.1,0.9,2.6,1.8
	c0.2,0.6,0.5,1.2,0.7,1.8c0.2,0.7,0.1,1.3-0.4,1.8c-0.1,0-0.4,0.3-0.8,0.8c-0.4,0.5-0.8,0.8-1.2,1c-0.4,0.1-0.7,0.1-1.1-0.1
	c-1-1.6-1.7-2.6-2.2-3.1c-1-1.1-2.1-1.4-3.2-1c-0.3,0.1-0.5,0.2-0.8,0.4c0,0.6-0.6,1.2-1.7,1.9c-0.9,0.6-1.1,1.3-0.6,2.2
	c-0.6,0.4-1,1-1.1,1.9c0,0,0,0.8-0.1,2.2c0.3,0.1,0.8,0.8,1.3,1.9c0.4,0.9,0.9,1.3,1.5,1.1c0.2-0.1,0.5-0.3,0.8-0.5
	c-0.3,0-0.5,0.3-0.8,0.8c0.6,1.3,2.2,2.2,4.7,2.5c0.5-0.2,1-0.4,1.5-0.5c0.6-0.2,1-0.5,1.2-0.9c0.2,0.2,0.4,0.3,0.7,0.2
	c0.1,0,0.3-0.2,0.6-0.5c0.2-0.3,0.5-0.4,0.7-0.5c-0.1-0.4,0-0.9,0.4-1.7c0.4-0.8,0.6-1.3,0.5-1.6c-0.1-0.2-0.3-0.4-0.7-0.6
	c0.3-0.2,0.7-0.6,1.3-1.1c0.4-0.5,0.8-0.7,1-0.8C105.9,142.1,106.6,142.2,107.4,142.6L107.4,142.6z M132.4,137.3
	c0.3,0.4,0.6,0.9,0.7,1.4c0.4,1.7-0.6,3.6-3.2,5.7c-0.4-0.1-1-0.1-1.9-0.1c-0.9,0.1-1.5,0-1.9,0c-0.6-0.2-1.1-0.6-1.4-1.3
	c-1.8,2.2-4,3.7-6.8,4.4c-1.8,0.4-3.7,0.6-5.9,0.4c-0.1-0.3-0.8-1-1.9-2.3c-0.8-0.9-1.3-1.7-1.5-2.6c-0.1-0.4-0.1-0.8-0.1-1.2
	c0-2.2,1-3.8,3-4.8c2-0.7,4-1.5,6-2.2c2.3-1,3.7-2.4,4.3-4.3c0.1-0.4,0.1-0.7,0-0.9c-0.2-1-1.3-1.5-3.3-1.4c-0.3,0-0.6,0.2-0.9,0.7
	c-0.2-0.3-0.6-0.4-1-0.3c-1,0.2-1.3,0.3-1.1,0.3l-0.4,0.6c-0.5-0.2-1-0.3-1.3-0.2c-0.6,0.1-1,0.9-1.1,2.2c-0.2,1.4-0.4,2.3-0.7,2.5
	c-0.8,0.2-1.6,0.4-2.4,0.6c-1,0.1-1.6-0.2-2-1.1c0.3-0.2,0.4-0.5,0.4-0.7c0-0.1-0.2-0.3-0.4-0.6c-0.3-0.3-0.4-0.5-0.4-0.7
	c0.1-0.2,0.7-1.2,1.9-3.2c0.7-1.3,1.6-2.2,2.5-2.7c0.8,0,2.3-0.2,4.7-0.6c2-0.3,3.5-0.4,4.6-0.2c1.6,0.3,2.9,1,3.9,2.4
	c0.4,1.7,0.9,3.5,1.3,5.3c0.5,2.1,1.1,3.8,1.8,5.1c0,0.2-0.1,0.6-0.3,1.2c-0.2,0.6-0.3,1-0.2,1.2c0.1,0.3,0.3,0.5,0.7,0.7
	c1.2-0.2,1.9-0.7,2.3-1.6c0,0-0.1-0.3-0.3-1.1c-0.1-0.4,0-0.8,0.3-1c0.1-0.1,0.3-0.2,0.4-0.2c0.3-0.1,0.6,0,0.9,0.2
	C131.8,136.9,132.1,137.1,132.4,137.3L132.4,137.3z M122.4,135.5c-0.5,0.4-0.9,0.8-1.4,1.1c-0.6,0.5-0.9,1-1.1,1.6
	c-0.5-0.3-0.9-0.3-1.5-0.2c-0.3,0.1-0.8,0.3-1.5,0.7c-0.6,0.4-1.1,0.6-1.4,0.7c-0.2,0.1-0.5,0.1-0.7,0c0.1,0.6-0.1,1.1-0.6,1.5
	c-0.5,0.4-1,0.8-1.4,1.2c1.2,0.9,2.8,1.1,4.6,0.6c1.1-0.3,2.5-0.9,4.1-1.7c1.2-1.3,1.5-2.9,1.1-4.6
	C122.6,136.2,122.5,135.9,122.4,135.5L122.4,135.5z M146.9,127.3l-1,0.2c0.3-0.5,0.6-0.7,0.9-0.7L146.9,127.3L146.9,127.3z
	 M151.4,110.6c0.4,0.7,0.8,1.3,1.2,1.9c0.5,0.9,0.9,1.6,1,2.2c0.2,1-0.3,1.8-1.6,2.2l-0.8,1.1c-1-0.1-2.2-0.8-3.5-2.2
	c-1.2-1.2-2.2-1.8-3-1.6c-0.5,0.1-1,0.3-1.6,0.8c-1,0.7-1.3,2.1-0.8,4.1c0.6,0.4,1.5,0.7,2.6,0.8c1.7,0.2,2.6,0.3,2.6,0.3
	c0.1,0.7-0.1,1.2-0.6,1.7c-0.7,0.7-1.1,1.3-1.3,1.6c-0.2,0.1-0.5,0-0.9-0.1c-0.3-0.2-0.6-0.2-0.8-0.2c-0.1,0-0.2,0.1-0.4,0.2
	c-0.6,0.4-0.8,1-0.7,1.7c0.1,0.5,0.3,1,0.7,1.2c0.8,4.6,1,5.6,0.5,3.1c0.2,1.2,0.6,2.2,1.1,3.2c-0.2,0.4-0.2,0.9-0.1,1.4
	c0.1,0.4,0.3,1,0.6,1.7c0.5,0.9,0.8,1.5,0.8,1.7c0.6-0.4,2-0.8,4.3-1.2c0.8,0.3,1.2,0.9,1.3,1.7c0,0.1,0,0.3,0,0.5
	c-0.3,0.7-0.9,1.1-2,1.3c-0.1,0-0.2,0-0.4,0.1c-0.2,0-0.3,0.1-0.4,0.1c-0.8,0.1-1.4,0.4-1.7,0.8l-0.6-0.4c-0.4,0.1-1.4,0.4-3.1,0.9
	c-1.4,0.4-2.5,0.7-3.3,0.9c-2.5,0.4-4.3,0.1-5.5-1.2l-0.3-1.4c0.5-0.4,1.2-0.7,2.2-0.9c0.2,0,0.6-0.1,1-0.2c0.5-0.1,0.8-0.1,1-0.2
	c1.6-0.3,2.5-1,2.6-2c-0.5-0.4-0.9-1.3-1.1-2.5c-0.1-0.6-0.2-1.7-0.3-3.2c-0.1-1.5-0.2-2.6-0.3-3.2c-0.3-1.6-0.8-2.6-1.6-3
	c-1-0.5-2.5-0.3-4.6,0.8l-0.9-2.3c0.9-0.4,1.8-0.8,2.7-1.2c1-0.5,1.8-1.1,2.3-1.7c-0.2-0.3-0.3-0.6-0.4-0.9c-0.1-0.7,0-1.6,0.4-2.9
	c0.5-1.5,0.7-2.4,0.8-2.8c2.8-1.6,4.8-2.6,6.2-2.8c0.6-0.1,1.2-0.1,1.8-0.1c0.2-0.2,0.4-0.3,0.6-0.3c0.3-0.1,0.8,0.1,1.6,0.4
	c0.8,0.3,1.4,0.4,1.8,0.3C151,110.7,151.2,110.7,151.4,110.6L151.4,110.6z M147.9,130.2c0.1,0.2,0,0.5-0.1,0.8
	c-0.1,0.3-0.2,0.6-0.1,0.8c0,0.1,0,0.2,0.1,0.4l-0.5,0.1c0.2-0.3,0.3-0.5,0.2-0.7c0-0.1-0.1-0.3-0.3-0.6c-0.2-0.2-0.3-0.5-0.3-0.7
	c0-0.1,0-0.3,0-0.5C147,129.7,147.4,129.8,147.9,130.2L147.9,130.2z M153.6,137.2l-0.6-0.4l0.4-0.6L153.6,137.2L153.6,137.2z
	 M148.8,135.5c-0.5-0.3-0.8-0.4-1.1-0.3l0.2-1.5L148.8,135.5L148.8,135.5z M174.5,110.1l-0.9-0.4l0.9-0.1L174.5,110.1L174.5,110.1z
	 M173.4,112.8c-0.6,0-1.2,0.4-1.9,1.3c-0.7,0.9-1.3,1.3-1.8,1.4c-0.2,0-0.4,0-0.6,0c1.1-0.6,2-2,2.8-4.3c0.3,0.1,0.7,0.3,1,0.4
	c0.3,0.1,0.5,0.4,0.5,0.7C173.4,112.5,173.4,112.6,173.4,112.8L173.4,112.8z M172.2,109.8c-0.7,0.4-1.6,1.2-2.7,2.3
	c-1.3,1.4-2.2,2.2-2.7,2.6c-1.1,0.9-2.2,1.3-3.2,1.4c-0.5,0-1,0-1.5-0.1c0-1,0.7-2.3,1.9-3.8c1.2-1.5,1.8-2.8,1.9-3.7
	c1.3-0.8,2.6-1.3,3.9-1.4c1.5-0.1,2.4,0.5,2.5,1.8C172.3,109.2,172.3,109.5,172.2,109.8L172.2,109.8z M177.5,123.6l-0.5,0l-0.1-0.9
	l0.5,0L177.5,123.6L177.5,123.6z M178.6,127.1c-0.5,0.6-1.4,0.7-2.7,0.4c-1.2-0.2-2,0.1-2.5,0.9c-1,0.4-3.1,0.7-6.2,1
	c-0.6-0.2-1.3-0.3-2-0.2c-0.7,0.1-1.5,0.2-2.5,0.5c-1.5,0.5-2.3,0.7-2.5,0.8c0.8,1.9,1.8,3,3,3.3c0.3-0.4,0.6-0.7,0.8-1.1
	c0.3-0.4,0.4-0.8,0.4-1.1c0-0.2-0.1-0.4-0.1-0.5c0.4,0.1,0.8,0.6,1.4,1.4c0.6,0.8,1.1,1.3,1.5,1.5c0.9-0.1,1.8-0.6,2.8-1.5
	c1-0.9,1.9-1.4,2.6-1.4c0.5,0,1,0,1.5,0.1c-0.2,0.2-0.2,0.9-0.2,1.9c0,0.9-0.2,1.4-0.8,1.8c0.3,0.3,0.5,0.5,0.7,0.4
	c0.2,0,0.5-0.3,0.9-0.8c0.4-0.5,0.7-0.8,1-0.8c0.4,0.3,0.7,0.5,0.9,0.4c0.2-0.1,0.3-0.5,0.5-1.2c0.1-0.5,0.3-0.8,0.6-0.8
	c0.2,0,0.3,0,0.5,0.1l0.5,0.4c-1.2,2.1-3.4,3.5-6.8,4.3c-2.9,0.5-5.8,1-8.8,1.5c-0.5-0.5-1.4-1.1-2.7-2c-1.4-0.8-2.3-1.6-2.9-2.1
	c-0.9-0.9-1.4-1.9-1.5-3c0-0.5,0-1,0.1-1.6c0.1-1.3,0.2-2.5,0.3-3.8c0.1-1.5,0.6-2.5,1.4-3.1c0-0.9,0.4-1.7,1.3-2.4
	c0.5-0.4,1.2-0.9,2.4-1.5c1.5-0.1,2.9-0.3,4.4-0.4c1.8-0.1,3.1,0.2,4.1,1c0.3-0.3,1.2-0.6,2.6-0.7c0,0.7,0.2,1.1,0.7,1.4
	c0.3,0.1,0.8,0.2,1.6,0.2c0.7,0,1.2,0.1,1.5,0.3c0.1,0.8,0.2,1.2,0.5,1.3l0.5,0c0.1,0.2,0,0.5-0.4,0.9c-0.4,0.1-1-0.2-1.6-0.8
	c-0.6-0.6-1.1-0.9-1.4-0.9c-0.3,0-0.7,0.2-1,0.7c0,0.6,0.4,1.4,1.1,2.3c0.7,0.9,1.1,1.7,1.1,2.4c0.2,0,0.3,0,0.5,0
	c0.2,0,0.5-0.1,0.9-0.2c0.4-0.1,0.7-0.1,0.9-0.2C178.1,126.2,178.5,126.5,178.6,127.1L178.6,127.1z M170.5,125.2l0-0.5l-2.5-2.5
	c-0.1,0-0.3-0.1-0.4,0c-0.6,0-1,0.5-1.3,1.3c-0.2,0.7-0.4,1.4-0.7,2.1c0.4,0.3,0.8,0.5,1.2,0.5c0.3,0,0.7-0.3,1.3-0.7
	c0.5-0.4,1-0.7,1.3-0.7C169.7,124.7,170.1,124.8,170.5,125.2L170.5,125.2z M163.9,122.1c-1.3,0.3-2.4,1.2-3.3,2.5l1,1.2
	c0,0,0.3,0,1-0.1c0.4,0,0.7-0.2,0.8-0.5C163.1,124.2,163.3,123.1,163.9,122.1L163.9,122.1z"/>
<path class="st0" d="M93,164.3c3,0,5.6,0.3,7.4-0.9c1.3-0.9,3.3-3.3,5.2-3.3c0.8,0,1.9,0.7,2.1,1.4c0.1,0,19.7-6.4,19.7-6.4
	c2.2,0,6-1.5,8.3-1.9c3-0.5,5.5-1.2,8.7-1.7c2.8-0.5,5.5-1,8.7-1.5c3.1-0.5,6.2-0.7,9.1-1.3c2.3-0.5,6.7-0.6,9.3-0.9
	c2.9-0.3,6.6-0.7,9.8-0.7c6.3,0,13.2-0.7,20-0.7c18.6,0,37,1.7,53.1,4.4c8.6,1.4,15.7,3.3,23.6,5.1c3.9,0.9,19.2,5.7,21.8,7.3
	l0.6-3.8c-4.9-2.4-17.3-6.3-23.1-7.6c-8.5-1.9-16.5-3.8-25.7-5.2c-18.8-2.9-36.3-3.8-57.1-3.8c-10,0-19.6,1.1-28.8,1.9
	c-8.6,0.8-18.9,2.3-26.8,4.1c-8.6,2-16.6,3.7-24.4,6.5C111.3,156.4,94.1,162.6,93,164.3L93,164.3z"/>
<path class="st0" d="M102.3,174.5l0.2,0.2c0.1,0.1,2.2-1.1,2.4-1.2c0.8-0.4,1.6-0.7,2.5-1.1c1.7-0.8,3.3-1.3,5-2.1
	c2-0.9,8.4-3,10.7-3.6c3.7-0.9,7.5-2.4,11.3-3c3.2-0.5,8.6-1.8,11.9-2.6c2.8-0.7,9.3-1.7,12.4-1.9c3.8-0.3,9.2-1,12.9-1.6
	c4.2-0.6,9.2-0.3,13.5-0.8c4.1-0.5,9.5-0.5,14-0.5h5.5c7.4,0,14.1,0.5,20.9,1c7.2,0.5,13.3,1.4,20,1.9c5.8,0.4,13,2.7,18.6,3.3
	c1.5,0.2,7.4,1.5,8.9,2.1c1.3,0.5,7.5,2.2,8.7,2.2h0.2c0.6,0,2.6-1.5,2.9-1.9c-1.4,0-7.4-2.1-9.1-2.6c-3.1-0.8-6.4-1.3-9.4-2.2
	c-4.8-1.5-14.1-2.9-19.7-3.6c-14-1.6-27.7-3.1-43.5-3.1h-0.7c-18.9,0-39.8,1.5-55.6,4.8c-8,1.7-17,3.4-24.3,5.9
	c-3.8,1.3-7.4,2.7-11,3.9c-1.1,0.4-4.8,1.7-5.2,2.4C104.8,172,103.8,173.5,102.3,174.5L102.3,174.5z"/>
<path class="st0" d="M293.2,171.2l3.6,1.2c-0.5-0.9-1-2.4-2.4-2.4C294.1,170,293.4,170.9,293.2,171.2L293.2,171.2z"/>
<path class="st0" d="M313.9,169.5c0,0.1,7.9,5.1,8.6,5.5c0.2-0.2,1.9-3.1,1.9-3.1c0-0.7-8.5-5.8-9.7-5.9
	C314.4,166.8,313.9,168.6,313.9,169.5L313.9,169.5z"/>
<path class="st0" d="M97.3,166.7l-16.9-1c-4.8-0.3-13.9,1.7-16.7,3.3c-2.4,1.4-4,1.8-6.3,3.6c-2.2,1.7-3.4,2.6-5.5,4.5
	c-5.3,4.7-13.9,16.8-13.9,26.3v2.4c0,6,3.9,12.2,8.4,13.7c6.3,2.1,13.4-1.8,15.8-5.4c3.3-4.9,4.9-9.4,4.3-17.3
	c-0.3-3.9-3.7-15.7-6.7-15.7c-0.5,0-0.7,0.2-0.7,0.7v1.2c0,0.1,1.2,3.8,1.4,4.7c0.3,1.3,0.7,4.3,0.7,5.7v1.7c0,5-1.7,9.8-3.3,13.4
	c-0.6,1.4-2.3,4-3.2,5.1c-0.7,0.9-4,3.4-5.2,3.4h-2.4c-4.9,0-7.4-7.8-7.4-12.4c0-8,5.2-16.6,8.8-21.1c4.5-5.6,9.5-10.7,19.5-10.7
	c4.7,0,7.8,0.6,11.7,1.2c3,0.5,8.3,1.7,11.2,1.7h3.8c4.3,0,11.4-7.2,11.4-11.4v-0.2c0-0.8-0.2-0.9-0.2-1.7
	C104.3,162.5,101.7,167,97.3,166.7L97.3,166.7z"/>
<path class="st0" d="M65.9,185.7l1.7,4.8H68c1.2-5.1,11.6-13.2,11.9-14.2l-4.7-0.5C74.1,175.6,66.9,184.3,65.9,185.7L65.9,185.7z"/>
<polygon class="st0" points="92.1,178.1 88.3,180.5 87.5,184.3 96.8,177.6 92.1,178.1 "/>
<path class="st0" d="M156.7,184.3c3.6,0,5.9-2.7,5.9-6.2v-0.5c0-2.8-2.2-5.9-4.8-5.9C150.3,171.7,150.2,184.3,156.7,184.3
	L156.7,184.3z"/>
<path class="st0" d="M311.8,180.5l5.7,4c0.2-0.4,1.2-2.1,1.2-2.4c0-0.6-3.5-3-4-3.3C312.4,177.5,311.8,176.3,311.8,180.5
	L311.8,180.5z"/>
<path class="st0" d="M328.2,179.6l7.3,7.6v-5.9c0-0.8-4.2-4.5-5-5L328.2,179.6L328.2,179.6z"/>
<path class="st0" d="M94.9,202.8l0.2,2.9c1-0.7,3.1-3.5,3.1-5v-1c0-1.4-0.8-1.7-1.7-2.1C95.3,198.7,94.6,200.4,94.9,202.8
	L94.9,202.8z"/>
<path class="st0" d="M293.2,171.2c0.2-0.3,0.9-1.2,1.2-1.2c1.3,0,1.9,1.4,2.4,2.4L293.2,171.2L293.2,171.2z"/>
<path class="st0" d="M64,215.7c0.2,0.3,0.9,1.4,1.1,1.4c0,0,3.2-1.7,3.6-1.9l-2.1-4.1L64,215.7L64,215.7z"/>
<path class="st0" d="M94.2,225.9v0.5c1.6,0.4,5.7,3.4,7.9,4.3c2,0.8,6.6,3.4,8.5,3.6l-0.4-2.9c-2.8-0.7-13-6.4-13.6-6.4
	C96.4,224.9,95,225.7,94.2,225.9L94.2,225.9z"/>
<path class="st0" d="M183.4,212.6c0-6.6,4.7-24.3,9.5-24.3h0.2c2.3,0,3.3,3.5,3.3,5.9c0,3.7-2.7,9.2-4.3,11.4
	C190.7,207.5,186.1,212.5,183.4,212.6L183.4,212.6z M280.6,202.6c0-8.1,8.1-34.7,14-34.7c3,0,5,2.7,5,5.7c0,9.1-9.4,34-16.6,34
	c-1.8,0-2.4-2-2.4-3.8V202.6L280.6,202.6z M301.3,170.2c-0.8-1-1.2-2.1-2.2-3c-1-0.9-2.2-1.2-3.3-1.9L293,165
	c-1.8-0.2-6.8,2-7.9,2.8c-2.1,1.6-3.8,3.3-5.6,5.1c-3.8,3.7-5.7,8.3-8.5,12.9c-2.5,4-13.4,26.1-17,26.1h-0.2c-0.8,0-0.9-0.7-1.2-1.2
	c1.5-6.2,6.4-15.3,6.4-22.1v-0.5c0-6.3-2.8-14.3-8.8-14.3c-5.6,0-8.9,5.9-11.3,9.4c-1.4,2.1-2.4,4.3-3.7,6.6c-0.9,1.7-2.4,6-3.4,7.1
	l0.3-2.6c0.6-4.9-2.4-15.2-6.4-15.2h-1c-3.7,0-8.3,8.8-9.6,12c-1.9,4.6-5.2,9.7-7.7,13.9c-2.2,3.8-5.9,9.7-8.6,13
	c-2.7,3.2-7.7,8.6-13.3,8.6c-2.1,0-2.6-2-2.6-4l-0.1-4.3l0.3-3.1c2.7-0.7,9.2-4.8,11-6.6c1.5-1.5,3.1-2.8,4.2-4.6
	c1-1.6,2.2-4.5,3.1-5.7l0.3-2.9v-1.7c0-4.2-3.4-8.6-7.8-8.6h-0.7c-4.6,0-10.8,5.3-13,8.1c-0.9,1.2-1.5,1.3-2.4,2.8
	c-0.6,1-1.5,2.1-2.1,3.1c-1.3,2-2.6,4.7-3.7,7c-1.1,2.2-2.5,4.5-3.7,6.8c-1.3,2.4-2.2,4.7-3.7,7c-1.6,2.5-6.2,12.3-9.1,12.3h-0.7
	c-0.1-0.5-0.2-0.5-0.2-1.2v-1.7c0-4.3,2.5-14.1,3.4-19c0.4-2.3,1.2-6.7,1.9-9.3c0.5-1.8,1.8-7.7,1.9-9.6c-1.5,0.1-6.3,1.7-8,2.2
	c-4,1.2-3.7,1.1-5.3,5.1c-1.7,4.2-5,9.5-7.3,13.4c-2,3.5-13.3,25.7-15.9,25.7h-0.2c-0.5,0-0.7-0.2-0.7-0.7v-1.2
	c0-2.3,3-10.2,3.8-12.4c0.9-2.6,3.1-10,3.1-13c0-3.9-3.9-6.2-8.1-6.2h-1.9c-2.1,0-6.1,0.6-7.4-0.2c-1.8-1.1-1-5.3-2.8-5.3h-0.2
	c-1.5,0-1.4,4.3-1.4,5.9c0,4.8,0,3.2-1.2,6.4c-0.8,2-5,8.5-5,10.3v0.5c0,0.4,0.1,0.7,0.5,0.7c2.1,0,5.4-7.9,6.5-9.9
	c1.5-2.7,1.2-3,4.9-3.4c2.2-0.2,5.2-1.6,6.6-1.7c-2.2,3.3-3.6,4.6-5.5,8.8c-1,2.2-2.8,8.4-2.8,11.5v3.6c0,4.8,3.5,10.7,8.3,10.7h0.7
	c5.3,0,12.5-12,14.4-16.3c1-2.3,10-19.6,10.8-20.1c-0.1,1.1-1.6,8.3-1.9,9.3c-0.3,0.9-1.2,8.5-1.2,10v1.4c0,4.4,3.1,9.8,7.4,9.8h1.2
	c2.1,0,5.3-2.3,6.5-3.5c1.7-1.7,3.1-3.7,4.3-5.9c1.6-2.8,6.3-10.3,7-13.2c0.6,0.4,1,5,1.3,6c0.6,1.6,1.6,3.6,2.5,4.8
	c1.8,2.4,5.6,5.1,9.7,5.1c11.7,0,16.2-10,21.5-16.8c1.9-2.5,5.8-9.2,7.1-12.2c1-2.2,5.6-11.2,7.6-11.7c0.3,0.5,0.7,1.2,0.7,1.9v0.2
	c0,4-3.4,12.9-4.2,16.7c-0.6,2.8-1.8,5.6-2.4,8.1c-0.3,1.6-1.9,7.1-2.4,8.3c1.5,0,6.3-1.5,8.2-2c1-0.3,3.1-0.8,4.1-1.2
	c2.2-0.8,2.2,0.2,3-2.3c1.5-5,3.3-10.8,5.3-15.7c2.3-5.7,10.2-25.8,16.1-25.8c0.6,0,1,0.4,1,1v0.5c0,0.3-5.9,15.7-6.2,16.2
	c0,1.2-0.9,5.2-1.1,6.7c-0.3,1.9,0.6,5.4,1.1,6.6c1.3,3.3,3.8,7.8,8.1,7.8c5.1,0,8.6-6.8,10.9-10c1.3-1.8,7.3-13.1,7.6-13.3
	c0,8.6,3.2,17.1,11.4,17.1c4.8,0,7.9-3.3,9.9-6.3c0.9-1.3,2.4-3.7,3-5.1c0.5-1.1,2-5.1,2.5-5.6c0,7.2,2.4,13.7,10.2,12.1
	c4.6-0.9,9.1-7.9,11.3-11.8c1.5-2.5,2.8-4.6,4.1-7.3c1.1-2.2,2.7-5.8,3.9-7.7c1.5-2.3,3-4.5,4.2-7.3c0.7-1.6,3.5-6.2,4.6-7.1
	c0.8,1.7,3.1,14,3.1,16.9v5.2c0,4.4-1.7,10.2-5.7,10.2c-1.3,0-2.3-0.4-2.9-1.2c2.4,0,2.4-1.4,3.3-2.9c0-9.9-9-7-9-2.4v1.7
	c0,4,5,7.8,9.3,7.8h1c10.7,0,17.1-12,21.1-19.4c2.2-4.1,5.2-9.1,7-13.2c1.1-2.4,2.2-4.4,3.6-6.6c0.7-1,4-5.4,4.2-6
	c-3.3,0.9-5.3,3.7-6.7,6.6c-1.4,2.7-3.6,5.4-5,8.3c-1.1,2.3-9,15.7-10.1,16.5c0.4-1.5,1-2.6,1-4.5V179c0-4.3-3.8-11-6-13.3
	c-1.6-1.6-3-3.2-4.4-5.1c-2.4-3.2,0.4-4.6,0.4-7.3v-0.2c0-0.6-0.4-1-1-1h-0.7c-1.5,0-2.1,5.3-3,6.9c-1.1,2-2.1,4.8-3.4,6.5
	c-1,1.3-2.8,4.8-3.6,6.4c-1.1,2.3-2.4,4.1-3.6,6.4c-2.1,4-4.7,9.2-7,13c-1.9,3.1-5.2,10.7-9.6,10.7c-0.5,0-0.3-0.1-1-0.2v-3.3
	c0-4.6,1.7-10.3,2.3-14.3c0.6-3.9,2.7-10.5,2.6-14l0.3-0.7l9.7-48c-2.4,0.6-4.3,1.5-6.5,2.1c-1.4,0.4-1.9,0.7-3.2,1
	c-1.7,0.4-1.1,0.8-1.5,2.8c-0.8,4.4-2.2,9.7-3,14.1c-0.8,4.7-1.8,9.9-2.9,14.3c-0.4,1.7-1.3,5.7-1.5,7.1
	C302.5,165.1,301.5,168.2,301.3,170.2L301.3,170.2z"/>
<path class="st0" d="M327.2,202.8c0,5.2-3.8,11.3-6.5,14c-1.9,1.9-3.6,3-5.5,4.8c-2,1.8-4,2.6-6.1,4.2c-2,1.5-11,5.7-13.8,6.7
	c-5.2,1.7-9.9,3.4-15.3,5.2c-2.1,0.7-5.8,1.7-8.1,2.2c-2.6,0.5-5.9,1.6-8.4,1.8c-5.3,0.6-11.9,2.6-17.6,2.9
	c-2.6,0.1-6.6,0.8-9.1,1.1c-3,0.5-6.7,0.3-9.5,0.7c-5.1,0.8-14.2,0.8-19.9,0.8H201c-6.6,0-12.7-0.5-18.8-0.7c-4-0.1-14.8-0.9-18-1.8
	c-1.6-0.5-6.6-0.8-8.6-1.2c-2.6-0.5-5.7-0.8-8.3-1.5c-2.6-0.7-5.4-0.9-8.1-1.7c-1.3-0.4-7.3-1.8-8-1.7l-1.8,2
	c2.1,1,12.2,3.1,15.4,3.7c2.8,0.5,5.4,1.1,8,1.5c2.7,0.5,5.9,0.7,8.5,1.3c2.7,0.6,5.7,0.5,8.5,1c2.6,0.5,6.2,0.7,8.9,0.8
	c5.9,0.2,12.1,1,18.3,1h15.2c39.4,0,118.6-14.1,118.6-48.2l-3.6-1.2V202.8L327.2,202.8z"/>
<path class="st0" d="M94.9,202.8c-0.3-2.4,0.4-4.2,1.7-5.2c0.9,0.4,1.7,0.8,1.7,2.1v1c0,1.5-2.1,4.3-3.1,5L94.9,202.8L94.9,202.8z
	 M72.3,216.1c-3.1,1.7-7.6,3.8-9.9,6.2c-1.3,1.4-7.4,6.9-7.4,8.7v1c0,0.5,0.2,0.7,0.7,0.7c0.8,0,10.4-12.3,16.2-13.8
	c0,6.9-3.1,20.1-5.8,24.2c-3.9,6-9,11.5-18.7,11.5c-3.9,0-10.2-1.6-10.2-5v-1c0-3.5,9.2-3.8,8.6-8.6l-0.3-2.4
	c-1.1-1.7-1.2-3.1-3.2-4.2c-1.8-1-4.2-0.8-6.3-0.3c-3.7,0.9-6,4.5-6,9.2c0,8,6.2,13.2,13.1,14.2c8,1.2,17.4-1.9,22.5-4.5
	c5.6-2.8,11.3-7.8,14.2-13.4c2.9-5.6,5.8-13.4,5.8-21.8l0-3.3l4.4-1.5l-1.5,13.7l6.4-2.8l0.5-9.3l-0.3-5c1.8-2.7,4.8-3.9,4.8-8.8
	v-1.7c0-1.3-1.1-3.3-2.6-3.3h-0.5c-2.7,0-4,3.2-4.4,5.6c-0.5,2.5-1.5,6.1-1.5,8.8l-5,1.6L84.7,194c-0.4-4.7,1.1-10.2,1.5-14.3
	l-0.8-0.7c-3.6,0.8-8,11.9-9.2,15.7C74.3,201,72.3,208.1,72.3,216.1L72.3,216.1z"/>
<path class="st0" d="M340.8,200.3c-0.1,8.6-1.3,12.9-5.1,17.9c-3.9,5.2-6.5,7.7-11.7,11.6c-8.8,6.7-19.9,11.3-31.1,15.5
	c-19.5,7.3-53.2,13.1-79.9,13.1h-19c-10,0-22.2-1.1-31.3-2.4c-4.5-0.7-10.3-1.2-14.7-2.2c-4.6-1-9.5-2.2-13.9-3
	c-3.5-0.7-10.1-2.4-13.3-3.6c-4-1.5-8.7-2.6-12.6-4.3c-3.7-1.6-8.1-3.3-11.6-5.2c-1.3-0.7-10.8-6.1-11-6.1c-0.4,0-1.4,3.2-1.4,3.8
	c3.6,1.9,7.6,4.7,11.4,6.2c1.9,0.8,3.8,1.9,6.1,2.7c1.5,0.5,4.7,1.9,6.4,2.7c3.8,1.8,8.9,3.1,13.1,4.5c3.5,1.2,10.5,3.1,14.1,3.7
	c4.4,0.7,9.9,2.5,14.5,3.1c5.4,0.6,10,1.6,15.7,2.2c2.1,0.2,5.6,0.6,7.8,1c2.5,0.4,5.8,0.3,8.2,0.6c1.5,0.2,6.8,0.5,8.3,0.5
	c3.1,0,5.6,0.2,8.8,0.2H210c14.2,0,32.8-1.4,44.9-3.9c1.5-0.3,3.6-0.3,5.2-0.7c1.7-0.4,3.5-0.8,5.1-1.1c3.5-0.6,6.7-1.5,10.2-2.2
	c6.6-1.3,12.8-3.8,18.9-5.6c9.4-2.7,26-10.8,32.6-16.1c8.3-6.7,19.1-15.2,19.1-29.9l0.1-1.2l-0.6-4.6L340.8,200.3L340.8,200.3z"/>
</svg>
