<?xml version="1.0" encoding="utf-8"?>
<!-- Generator: Adobe Illustrator 19.2.1, SVG Export Plug-In . SVG Version: 6.00 Build 0)  -->
<svg version="1.1" id="Layer_1" xmlns="http://www.w3.org/2000/svg" xmlns:xlink="http://www.w3.org/1999/xlink" x="0px" y="0px"
	 viewBox="0 0 700 700" style="enable-background:new 0 0 700 700;" xml:space="preserve">
<style type="text/css">
	.st0{fill:#252020;}
	.st1{fill:#FACC37;}
	.st2{fill:#FEFEFE;}
	.st3{fill:#D81A35;}
	.st4{fill:#9B2939;}
</style>
<path class="st0" d="M552.1,246.1c3,0,6,0,9,0c3.5,0,6.9,0,10.3,0.6c3.7,0.6,7.2,1.7,10.5,3.5c7.7,4,14.9,8.9,20.8,15.4
	c4,4.5,7,9.5,8.4,15.4c0.2,0.8,0.3,1.5,0.3,2.3c0,1.2-0.1,2.4,0,3.6c0.7,7.2-1.3,13.9-3.8,20.5c-0.5,1.4-1,2.9-2,4.1
	c-0.5,0.5-0.1,0.9,0.2,1.4c1.6,2.4,3.1,4.9,4.2,7.6c0.5,1.2,0.7,2.3,0.7,3.6c-0.1,2.2-0.2,4.4,0,6.6c0.4,4.4-1.3,7.9-3.7,11.4
	c-2.6,3.7-5.8,6.9-9.2,9.9c-1.6,1.4-3.6,2.3-5.4,3.3c-9.7,5.7-19.7,10.7-30.6,13.8c-6,1.7-12.2,2.8-18.4,3.5
	c-10.6,1.2-21.2,1.2-31.9,0.6c-2.7-0.2-5.3,0.5-8,0.7c-0.3,0-0.6,0.2-0.8,0.4c-1.7,2.1-4.2,2.5-6.7,3c-5.6,1-11.3,1.1-17,1.1
	c-1,0-1.9-0.5-2.8-0.9c-4.8-2.2-9-5.3-13.4-8.2c-0.5-0.3-1-0.6-1.6-1c-2.3,3-4.6,6-6.9,9c-11.6,15.1-23.1,30.4-34.9,45.4
	c-10.9,13.9-22,27.6-33.2,41.3c-6.1,7.5-12.3,15-19.6,21.5c-4.6,4.1-9.5,7.8-15.4,10c-0.4,0.2-0.8,0.3-1.2,0.3
	c-3.3,0-6.7,0.3-10-0.1c-6.8-0.6-13-2.6-17.9-7.8c-5.6-6-10.5-12.4-14.6-19.6c-9.5-16.9-17.9-34.3-26.2-51.7c-5-10.5-9.9-21-15-31.7
	c-1.9,0.7-3.9,1.3-5.8,2.2c-3.9,1.9-8,2.3-12.3,2.1c-3.2-0.2-6.4-0.1-9.6-0.1c-0.6,0-1.1,0-1.6,0.3c-7,4.3-14.9,5.9-22.9,6.6
	c-8.7,0.7-17.3,0-25.8-2.3c-3.3-0.9-5.7-3.1-8-5.5c-0.3-0.3-0.3-0.7-0.4-1.1c0-0.3-0.1-0.7-0.1-1.4c-2.1,0-4.2,0-6.3,0
	c-1.1,0-2-0.2-2.9-0.9c-2.1-1.6-4.3-3.1-6.5-4.6c-1-0.7-1.9-1.6-2.7-2.5c-0.6-0.7-1.3-1.2-2.3-1.3c-0.4,0.8-0.8,1.6-1.2,2.4
	c-1.1,2.9-3.1,5.2-5.3,7.4c-0.5,0.4-0.9,0.5-1.5,0.5c-0.6,0-1.3,0.1-1.8,0.2c-0.1,0.2-0.2,0.2-0.1,0.3c0.2,2.3-1.3,3.5-2.7,5
	c-5,5.2-11.2,6.3-18,5.7c-0.3,0-0.5-0.1-0.7-0.3c-1-0.9-2.2-1.6-2.8-2.8c-0.6-1.2-1.5-1.4-2.6-1.3c-2.7,0.1-5.4,0.2-8-0.2
	c-4.3-0.7-7.9-3-11.3-5.6c0,0-0.1,0-0.1-0.1c-1.9-2.4-4.4-3.1-7.3-2.9c-0.7,0-1.3-0.2-1.8-0.8c-0.4-0.4-0.8-0.8-1.2-1.2
	c-2.7-2.3-3.7-5.2-3.6-8.7c0-2.3,0.1-4.5,0-6.8c-0.3-7.8,1.2-15.5,2.4-23.2c0.8-5.4,1.8-10.9,3.8-16c1-2.6,2.1-5.1,2.5-7.9
	c0.1-0.9,1.1-1.4,1.7-2c0.5-0.5,0.6-0.9,0.5-1.6c-0.3-1.6-0.6-3.2-0.8-4.8c-0.1-1-0.5-1.9-1.2-2.7c-1.2-1.3-1.9-3-1.8-4.9
	c0.1-2.6-0.1-5.3,0-7.9c0.2-5.7,2.3-10.5,6.5-14.3c0.6-0.5,1.2-0.3,1.8-0.5c0.3-0.3,0.2-0.6,0.2-1c-0.3-2.6,0.7-4.7,2.2-6.8
	c4.9-7.3,10.7-13.6,18.1-18.5c5.6-3.7,11.6-5.9,18.4-5.4c9,0.7,17.9,0,26.9,0.1c9.2,0.1,18.3,1.4,27,4.9c2.4,0.9,4.6,2.1,7,3.4
	c-0.7-1.7-1.6-2.9-2.5-4.2c-1.3-1.8-2.8-3.4-3.2-5.7c-0.2-1-1.2-1.5-1.9-2c-1.7-1.2-2.2-2.7-2.2-4.8c0-4-0.3-8.1,0.8-12
	c0.7-2.3,1.7-4.4,3.5-6.1c0.5-0.5,1.1-1,1.5-1.6c4-4.9,9.7-7,15.4-8.9c0.4-0.1,0.8-0.1,1.3-0.1c13.9-0.2,27.8,0.7,41.7,1.2
	c9.8,0.4,19.6,0.8,29.3,1.2c12.7,0.5,25.4,1.1,38.1,1.5c6.9,0.2,13.8-0.4,20.7-0.7c13.5-0.6,26.9-1.4,40.4-2.4
	c14.8-1.1,29.6-2.3,44.4-3.4c13.7-1.1,27.4-1.9,41.1-2.9c11.8-0.8,23.7-1.1,35.6-1.8c6.4-0.4,12.8-0.5,19.1-0.1
	c6.2,0.3,12.6,0.6,18.7,2.5c4.9,1.5,8.4,4.7,11.2,8.8c1,1.5,1.4,3.2,1.4,5c0,4,0.2,8.1-0.5,12.1c-0.4,2.4-1.1,4.7-2.4,6.8
	C554.5,242.3,553.2,244.3,552.1,246.1z M442.9,349.2c0.7-0.1,1-0.4,1.4-0.7c2.6-1.9,4.6-4.4,6.6-6.9c1-1.2,2.4-1.3,3.4-0.1
	c5.5,5.8,11.1,11.5,16.9,17c4.8,4.5,10.5,6.2,17,5.6c3.3-0.3,6.4-1.8,9.6-2.5c3-0.7,5.8-1.8,9-1.8c9.8-0.1,19.7-0.3,29.5-1.1
	c8.3-0.6,16.6-1.8,24.5-4.5c8.2-2.8,16.1-6.5,23.7-10.6c0.3-0.2,0.6-0.3,0.8-0.6c1.2-2,2.5-4,3-6.3c1.3-5.1,0.1-9.7-3.3-13.7
	c-3.3-4-7.6-6.6-12.1-9c-7.1-3.9-14.7-6.7-22.2-9.7c-2.3-0.9-2.9-2.2-2.1-4.7c2.7,1.5,5.3,3,8.1,4.2c7,3.1,14.1,5.7,21.9,5.8
	c1.5,0,3.2,0.2,4.5-0.7c2.4-1.8,4.6-3.8,6.6-6c3.5-3.9,3.5-10.6,0.2-14.2c-0.7-0.7-1.2-1.6-1.8-2.3c-3.6-4.7-7.5-9-12.6-12
	c-7.1-4.2-15-5.6-23.2-5.2c-7.3,0.4-14.3,2.2-21.2,4.3c-5.3,1.6-10.4,3.8-15.7,5.7c-2.6,0.9-5.2,0.9-7.5-1
	c-3.1-2.5-6.8-3.1-10.6-2.3c-6.3,1.3-12,4-17.5,7.1c-6.2,3.5-12,7.6-18,11.4c-1.7,1.1-3.6,2-5.5,2.6c-1.1,0.4-2.2,0.3-3.1-0.6
	c-0.8-0.8-0.4-1.8,0-2.6c0.4-1.1,1-2.1,1.5-3.1c0.5-0.9,0.9-1.7,1.1-2.7c0.6-3.1,0.2-6.2-0.7-9.2c-0.2-0.7-0.6-1.1-1.3-1.4
	c-4.3-1.5-8.7-2.8-13.2-3.2c-6.4-0.5-11.9,1.2-15.9,6.7c-2.8,3.8-4.8,8-6.5,12.4c-0.5,1.3-1.2,1.8-2.5,1.9c-0.1-0.1-0.2-0.2-0.2-0.3
	c-0.2-0.5-0.3-1.1-0.5-1.6c-1.8-5-4.5-9.3-9-12.3c-7.2-4.8-15.2-6.6-23.7-6.8c-6.7-0.2-13.3,0.6-19.9,1.9c-5.2,1.1-10.5,2.2-15.2,5
	c-3.2,1.9-6.3,3.9-9.3,6c-4.8,3.3-9.5,6.8-14.5,9.7c-1.8,1-1.9,1-3.5-0.2c-3-2.4-6.2-4.4-9.7-6.1c-9.2-4.3-19.1-6-29.1-6.5
	c-11.3-0.6-22.5,0.3-33.6,2.7c-3.9,0.9-7.9,1.8-11.2,4.4c-1.8,1.4-3.5,2.9-5,4.5c-6.2,6.3-10.6,13.7-14.1,21.7
	c-4,9.1-6.8,18.6-9.6,28.1c-0.4,1.5-0.8,1.7-2.2,0.8c-4.3-2.7-7.8-6.4-11.3-10.1c-1-1-0.9-2.8,0.2-3.8c1.2-1,2.4-1.9,3.5-3
	c2.7-2.5,5.9-4.5,8-7.6c4.5-6.8,5.6-13.9,2.9-21.6c-1.9-5.5-5.7-9.6-9.8-13.3c-9.3-8.4-20.4-13-32.7-14.8c-3.4-0.5-6.8-0.6-10.1,0.6
	c-1.1,0.4-2.3,0.7-3.5,0.8c-3.4,0.4-6.8,0.6-10.2,0.7c-0.8,0-1.5-0.1-2.2-0.5c-4.6-2.8-9.3-2.5-13.6,0.4
	c-10,6.8-15.3,16.6-17.2,28.4c0,0.3,0,0.6,0.1,0.9c2,4.4,2.3,9,2.1,13.7c-0.4,7.5-2.4,14.6-4.6,21.7c-1.5,4.8-3.6,9.5-4.2,14.6
	c-0.7,5.7-1.3,11.4-0.6,17.2c0.5,4.3,2.3,7.9,6,10.5c2.3,1.6,4.8,2.9,7.4,3.9c1,0.4,2,1,3.1,1c4.5,0,8.9-0.4,13.2-1.7
	c7.3-2.2,12.5-6.8,15-14.1c1.2-3.7,1.9-7.5,2.3-11.4c0.3-2.3,0.4-4.6,0.5-6.9c1.1-0.4,1.7,0.1,2.4,0.7c4.2,3.8,8.5,7.6,12.9,11.2
	c6.9,5.5,13.8,10.9,22,14.5c4.8,2.1,9.6,3.8,14.8,4.7c5.5,1,10.9-0.2,16.1-1.5c4.8-1.2,9.5-2.6,13-6.4c0.5-0.5,1.1-0.5,1.7-0.5
	c6,0.1,11.9,0.3,17.9,0.3c3.3,0,6.8,0.1,9.6-2.2c0.9-0.7,1.8-1.2,2.8-1.8c2.6-1.7,5.4-3.1,8.5-3.6c1.8-0.3,3,0.5,3.4,2.2
	c0.1,0.6,0.3,1.2,0.5,1.7c7.2,15.7,14.4,31.5,22,47c7.8,15.8,15.5,31.7,24.5,46.9c3.3,5.6,6.8,10.9,12,14.9c3.1,2.3,3.1,2.4,6.8,1.5
	c0.8-0.2,1.7-0.1,2.4-0.8c4.1-4,8.6-7.5,12.4-11.7c10.3-11.2,19.6-23.2,28.7-35.4c10.3-13.8,20.4-27.7,31.7-40.7
	c2-2.2,3.9-4.5,5.5-7c2.3-3.8,4.4-7.7,6.6-11.5c0.2-0.3,0.5-0.5,0.3-0.9c-0.9-0.5-1.4,0.1-1.9,0.7c-3.9,4.6-7.9,9.2-11.8,13.8
	c-12.1,14.1-24.2,28.3-36.4,42.4c-11.7,13.6-23.6,27.1-35.4,40.6c-1.2,1.3-2.6,2-4.2,2.5c-0.9,0.3-1.6,0.1-2.2-0.7
	c-1.9-2.2-3.7-4.5-5.3-6.9c-7.8-11.6-13.8-24.2-19.9-36.7c-1.8-3.7-2.9-7.7-4.7-11.4c-3.9-8.2-8.8-15.9-13.5-23.7
	c-3.7-6.1-7.8-12-10.2-18.8c-1.1-3.2-2.3-6.3-2.5-9.7c-0.1-2,0.3-2.5,2.3-3.1c2.2-0.7,4.5-1.4,6.7-2c3-0.8,5.8-1.9,8.1-4.1
	c0.7-0.7,1.5-1.2,2.3-1.8c1.8-1.3,3.7-2.5,5.9-3c0.9-0.2,1.5-0.1,2.1,0.7c1.5,1.9,3.1,3.7,4.6,5.6c4.2,5.4,9.7,9,15.9,11.6
	c2.1,0.9,4.2,2.1,6.5,2c12.1-0.2,24.1-1.5,35.8-5c6.9-2.1,13.8-4.2,20.1-7.7c5.6-3.1,10.8-6.7,15.6-10.8c1.4-1.2,2.2-1.1,3.3,0.3
	c0.7,0.9,1.2,2,1.4,3.1c0.4,1.5,0.6,3,1.1,4.5c0.7,2.3,2.3,3.2,4.6,3c2.6-0.3,5.1-1,7.5-2.1c4-1.8,7.6-4.3,11.4-6.5
	c1.8-1,2.5-2.4,2.6-4.3c0-0.3,0.1-0.6,0.1-0.9c0.2-2.8,0.3-5.6,0.5-8.4c2.4-0.6,2.5-0.5,3,1.8C442.3,341.7,442.7,345.4,442.9,349.2z
	 M483.1,265.4c-1.8,0-3.4,0.6-5.2,1.9c-1.7,1.3-3.5,1.2-5.2,0c-1-0.7-0.5-1.6-0.6-2.4c-0.1-0.7,0.5-0.9,1-1.1
	c1.3-0.4,2.7-0.7,4.1-1.1c0.5-0.1,1-0.2,1.1-0.9c0.1-0.6,0.1-1.1-0.6-1.5c-1.7-1.1-2.6-2.7-2.7-4.7c-0.1-0.7-0.4-0.9-1-0.9
	c-0.8,0-1.6-0.2-2.3-0.6c0.1-0.4,0.1-0.7,0.2-1c0.2-0.9,0.4-1.9,1.2-2.5c0.6-0.5,1.3,0.2,1.9,0.2c0.3,0,0.6,0.1,0.9,0
	c2.4,0,3.3-1,3.3-3.3c0-0.6,0-1.2,0-1.8c0-0.4-0.1-0.7-0.5-0.9c-2.5-0.8-5.1-1.5-7.7-1.6c-0.6,0-0.9,0.2-1.1,0.7
	c-0.5,2.1-1.8,2.3-3.6,1.8c-0.9-0.2-1.9-0.2-2.8-0.3c-0.8-0.1-1.7,0-2.8-0.5c4.2-2.8,8.2-5.5,10.6-9.8c-2.8,0-5.5,0-8.2,0
	c-0.6,0-1.3,0-1.9,0.1c-0.8,0.2-0.4,1.2-0.9,1.6c-0.6-0.5,0.1-1.8-1.3-1.7c-6.5,0.2-13,0-19.5,0.5c-3.7,0.3-7.5,0.6-11.1,1.8
	c-1.1,0.4-2.2,0.5-3.4,0.5c-4.1,0-8.3,0.1-12.4,0.2c-7.9,0.1-15.8,0.4-23.7,1.3c-3.4,0.4-6.8,1-10.3,1.2c-4.5,0.3-9,0.4-13.5,0.5
	c-19.8,0.6-39.6,1.1-59.3,1.8c-9.8,0.3-19.6-0.2-29.3,1.6c-2.1,0.4-4.3,0.6-6.8,1c1.4,1.2,2.6,2.2,3.7,3.2c0.6,0.5,0.8,0.9,0.4,1.6
	c-4.5,0.4-4.6,0.4-7-3.2c-0.2-0.2-0.3-0.5-0.5-0.7c-0.6-0.9-2.1-1.3-2.9-0.5c-0.8,0.8,0.1,1.4,0.5,2c0.1,0.2,0.3,0.3,0.4,0.5
	c0.3,0.7-0.2,1.9-0.9,1.9c-1.3,0-2.6,0.1-3.8-0.2c-0.9-0.2-0.8-1.5-1.4-2.2c-0.1-0.1-0.1-0.1-0.3-0.2c-1.6,0.6-3.2,1.2-4.9,1.7
	c-1.2,0.3-1.6,0.9-1.8,2.1c-0.6,3.5-2.1,4.8-5.6,5.5c-1.6,0.3-3.1,0.3-4.7,0.3c-1.6,0-3.3,0-4.9,0c0,2.3,0,2.3,1.9,2.9
	c1.4,0.5,2.8,1,4.1,1.7c0.8,0.4,1.7,0.9,2.2,1.7c0.7,0.9,0.5,1.6-0.7,1.9c-0.5,0.1-1,0.3-1.5,0.4c-2.5,0.7-3.6,2.9-3,5.5
	c1.1-0.1,2.3-0.1,3.4-0.2c2.5-0.2,4.8-0.1,7,1.2c1,0.6,1.2,1.2,0.8,3c-0.2,1-1,0.6-1.5,0.7c-1.5,0.1-2.9-0.5-4.4-0.6
	c-0.1,0.6-0.2,1.2-0.3,1.8c2,0.6,4,1,5.9,1.4c8.4,1.6,17,1.8,25.5,2c2.5,0.1,5-0.2,7.4,0.2c10.1,1.9,20.1,4.2,30,6.9
	c4.2,1.1,7.9-0.5,10-4c0.5-0.9,1-1.9,1.6-3.1c0.4,2.2,0.7,4.2,1.1,6.2c0.7-0.1,1.3-0.3,1.9-0.4c0.2-1.7,0.1-3.3,0.6-4.8
	c0.6-1.6,1.6-2.2,3.4-2.1c-0.1,1.5-0.3,3-0.4,4.6c0.6-0.1,1.1-0.2,1.5-0.3c4.7-1.1,9-3,13.3-5c5.3-2.5,10.5-5.3,16.1-7
	c1-0.3,1.5-0.7,1.4-1.8c-0.1-1.4,0.2-1.5,1.4-1.7c0.2,0.7,0,1.5,0.4,2.3c0.4,0,0.9,0,1.4,0c4.2-0.1,8.4-0.3,12.6-0.1
	c8.7,0.3,17.1,1.4,24.9,5.6c1.4,0.7,2.8,1,4.3,1c3.4,0.2,6.8,0,10.1,1.2c1.5,0.6,2.5,0.1,3.3-1c1.1-1.3,1.8-2.9,2.3-4.5
	c0.2-0.8,0.5-1.1,1.4-1.2c5-0.4,9.9-0.5,14.9-0.7c0.8,0,1.3-0.2,1.7-0.9c0.7-1.1,1.6-1.7,3-1.4c0.3,0.8,0,1.7,0.4,2.6
	c0.5,0,1.2,0.4,1.5-0.3c0.5-1.3,1.5-1.1,2.6-0.9c2.6,0.4,4.7,1.9,6.6,3.7c1.1,1.1,2.2,2.2,3.3,3.3c1-0.5,0.9-1.5,1.3-2.3
	c1.3,0.1,2.5,0.3,3.7,0.4c0.4,0,0.7,0.2,0.8,0.7c0.4,1.8,0.9,3.6,0.9,5.4c0,0.8,0.1,1.9-0.6,2.4c-0.8,0.4-1.6-0.4-2.2-0.9
	c-0.7-0.5-1.4-1.1-2.5-0.9c0.3,1.7,0.7,3.3,1,5c1.9-0.3,3.3-1,4.7-2c1.9-1.4,3.9-2.7,6.3-3.2c1.7-0.4,2.7-1.5,2.9-3.2
	c0.1-1-0.1-2-0.4-3c-0.6-1.7-0.1-2.7,1.5-3.5c0.7-0.3,1.2-0.3,1.5,0.5c0.4,0.8,0.9,1.7,1.5,2.4c1.2,1.5,3.1,1.5,4.3,0
	c0.6-0.7,1.3-1.3,2.1-1.8c1.6-0.9,3.1-1.9,4.7-2.8c0.9-0.5,1.7-1.1,2.4-1.9c-0.8-0.5-1.6-0.6-2.3-0.7c-2.7-0.2-5.3,0.1-7.5,1.8
	C482.1,268.2,483.1,266.8,483.1,265.4z M330.7,448c3.8,0.4,6.9-0.7,9.8-2.7c2.6-1.9,4.7-4.3,6.5-6.9c0.8-1.1,1.6-2.3,2.6-3.6
	c0.2,0.9,0.1,1.5,0,2.1c-0.7,3.6-2.9,6.3-5.7,8.5c-0.4,0.3-0.7,0.6-0.8,1.2c-0.3,2.6,0.3,5,1.5,7.4c2.7-0.1,5.1-1.7,5.8-3.8
	c-1.8,0.1-1.8,0.1-2.8,1.4c-0.2,0.3-0.4,0.8-1,0.5c-0.5-0.3-0.4-0.7-0.3-1.1c1-2.7,2-5.4,4.1-7.6c1.5-1.6,3.4-2.5,5.7-2.6
	c0.1,1.7,0.3,3.4,0.4,5c0,1.3,0.5,1.7,1.8,1.2c0.6-1.6,0.9-3.4,2.3-4.4c2.7-1.9,2.7-4.5,2.4-7.3c-0.1-0.8-0.1-1.5-0.1-2.3
	c-0.1-1.7-0.2-3.5-0.2-5.3c-1.3,0.1-2.5,0.2-3.8,0.4c0.4-2.6,0-5.2,2-7.5c1.4,2.1,2.7,4,4,5.9c0.8-0.3,1.2-1,1.3-1.7
	c0.3-1.5,1.5-1,2.3-1.1c0.9-0.1,0.8,0.7,0.9,1.2c0.2,0.9,0.6,1.1,1.3,0.5c1.4-1.3,3.6-1.8,4.7-3.2c1.9-2.6,4.9-3.2,7.3-4.8
	c7.1-4.8,12.9-10.8,17.6-17.8c1.7-2.5,2.5-5.4,3.9-8c1.5-2.8,3.3-5.4,5.1-8c0.6,0.7,0.6,1.6,1.2,2.1c3.2-2.1,5.2-5.2,7.5-8.4
	c-2.8,0.2-4.6,1.9-6.7,3.2c0-2,1-3.6,1.4-5.3c-3-0.3-3.6,3.2-6.1,3.7c0.6-3.1,3-5.4,3-8.6c-1.2-0.1-1.9,0.2-2.5,1.2
	c-0.6,1.2-1.4,2.3-2,3.4c-0.5,0.9-1.2,0.3-1.8,0.4c-0.6,0.1-0.8-0.3-0.9-0.8c-0.2-1,0-2,0.2-3c0.9-4.3,3-8.1,5.2-11.8
	c0.6-1.1,0.7-2.1,0.5-3.3c-3-0.4-6-1.1-9-0.4c-2,0.4-2.9,1.6-3,3.7c2.1,0.3,4.2,0.6,6.3,0.8c1.3,0.1,1.5,1,1.5,2.1
	c-0.4-0.1-0.7-0.1-1-0.1c-1.9-0.3-3.8-0.5-5.4,1c-0.3,0.3-0.8,0.2-1.2,0.2c-1.7,0-3.4-0.2-4.9,0.3c-1.9,0.7-3.7,1.7-5.8,1.2
	c-0.2,1.4,0.1,2.6,0.1,3.7c0,1.2,0.6,1.7,1.6,2.1c1.8,0.6,3.7,0.7,5.5,0.8c0.5,0,1.1-0.2,1.5,0.3c-0.3,0.6-0.9,0.6-1.3,0.8
	c-3.1,1-6.2,0.8-9.4,0.7c-0.2,0-0.4,0-0.5-0.1c-0.5-0.9-1.3-0.5-2.1-0.5c-0.4,0-0.8,0.2-1.4-0.1c0.8-2.6,1.5-5.2,2.3-8
	c-0.6,0.1-1.1,0.2-1.5,0.2c-1.5,0-2.4,0.7-3.1,1.9c-0.7,1.3-1.8,2.4-3,3.3c-1.1,0.9-1,1.9-0.8,3c0.3,1.3-0.2,1.9-1.5,1.8
	c-0.8-0.1-1.4-0.5-1.9-1.2c-0.7-0.9-1.1-1.9-1.6-2.9c-0.1-0.3-0.2-0.7-0.8-0.7c-1.5,0.1-3.1-0.2-4.4,1.2c-1,1.1-2.3,1.7-3.7,2.2
	c-2.7,1.1-5.5,1.7-8.4,2c-4.3,0.5-8.5,0.1-12.7-0.1c-2.6-0.2-5.2-0.3-7.7-0.5c-0.3,0.9-0.5,1.6-0.3,2.4c0.5,0.1,1.1,0.3,1.7,0.4
	c-1.6,0.8-3,0.5-4-0.8c-0.7-1-1-2.1-1.3-3.3c-0.1-0.6-0.3-1.1-0.8-1.5c-3-2.2-6.5-3.1-10.2-4.2c0,0.7,0.1,1.2,0.1,1.7
	c0.1,0.5,0.1,1,0.2,1.5c0.5,1.7,0.4,2.1-1.1,2.9c-3.2,1.7-6,4-8.8,6.2c-1.6,1.3-3.3,2.6-5.2,4.1c-1.3-2.8-0.2-5.4-0.4-8
	c-0.6,0-1.1-0.1-1.6,0.1c-0.7,3.3-1.3,6.6-2,9.9c0.5,0.2,0.8,0.4,1.2,0.5c1.1,0.3,1.3,0.9,0.9,1.9c-0.5,1.3-0.6,2.7-0.7,4.1
	c-0.1,0.8,0.2,1.2,0.9,1.6c1.7,0.8,3.3,1.6,5,2.5c-0.6,1.2-1.7,0.9-2.7,1.3c0.8,4.2,1.7,8.4,3.4,12.3c2.9,6.7,6.3,13.2,9.2,19.9
	c0.3,0.7,0.9,0.9,1.5,1.1c1.3,0.4,2.6,0.2,4,0.3c0,0.4,0.1,0.7,0.1,1c0.3,3.8,1.5,7.3,3.6,10.5c1.1,1.7,1.2,1.7,3.2,1.3
	c1.4-0.3,2.6-1,4-1.4c0.2,0.5,0.4,0.9,0.6,1.3c0.2,0.5,0.4,0.9-0.3,1.1C330.3,446,330.5,447,330.7,448z M533.1,260.8
	c0-1,0.5-1.6,0.9-2.3c3.6-6.9,7.9-13.3,12.4-19.6c2.4-3.3,3.7-6.9,4.3-10.7c0.8-4.8-0.8-9.6-6.2-11.8c-2.2-0.9-4.4-1.5-6.7-1.9
	c-8.1-1.4-16.2-1.5-24.3-1.3c-13.1,0.3-26.2,1-39.3,2c-11.4,0.8-22.8,1.5-34.1,2.4c-17.5,1.4-34.9,2.8-52.4,4.1
	c-15.5,1.1-31,2-46.5,2.5c-7.2,0.2-14.4,0.6-21.6,0.4c-8.7-0.3-17.4-0.8-26.1-1.2c-10.7-0.5-21.3-0.9-32-1.4
	c-13.5-0.6-27-1-40.6-1.4c-0.3,0-0.7,0-1,0.1c-2.8,0.8-5.6,1.7-8.2,3.1c-3.7,2-6.8,4.5-8.3,8.6c-0.8,2.4-1.2,4.9-1.1,7.7
	c0.6-0.6,1-1.1,1.4-1.5c3.5-3.6,7.2-6.7,11.8-8.8c3.6-1.7,7.3-2.7,11.3-2.4c7.9,0.5,15.9,0.9,23.8,1.2c12.5,0.5,25,0.9,37.5,1.2
	c17.4,0.5,34.9,0.9,52.3,0.9c9.6,0,19.2,0.6,28.8-0.3c11.1-1,22.1-2,33.2-2.9c14.1-1.3,28.2-2.5,42.4-3.5
	c20.8-1.6,41.7-2.8,62.6-3.3c8.3-0.2,16.7-0.7,25,0.3c3.6,0.4,7,1.1,10.2,3.1c0.7,0.4,1,0.9,0.9,1.8c-0.2,2.8-1.1,5.3-2.5,7.7
	c-2.5,4.4-5.6,8.4-8.7,12.4c-3.6,4.7-7.3,9.3-9.9,14.7c-0.6,1.2-0.8,2.4-0.9,3.7c5.2-0.4,10-1.6,14.8-3c7.3-2.1,14.6-4.3,22.2-5.2
	c3.2-0.4,6.3-0.5,9.4,0.5c6.8,2.2,13,5.3,19,9.2c5.4,3.6,9.5,8.4,12.4,14.1c3.3,6.6,3.9,13.3,0.3,20.1c-1.9,3.7-4.8,6.6-7.6,9.5
	c-1.1,1.2-1.1,2.4,0.1,3.5c3.2,3.1,5.9,6.5,7.9,10.6c1,2.1,1.2,4.1,0.9,6.3c-0.6,4.3-3,7.5-6,10.4c-3.7,3.5-7.9,6.4-12,9.3
	c-0.3,0.2-0.8,0.3-0.8,1c1.2,0.1,2.1-0.5,3-1c2.8-1.7,5.6-3.5,8.4-5.3c0.4-0.2,0.8-0.5,1.1-0.9c2.1-2.5,4.2-5,6-7.7
	c3-4.4,3-9,0.8-13.7c-1.2-2.6-2.9-5-4.7-7.3c-2.1-2.6-2.1-2.6-0.2-5.5c0.8-1.2,1.8-2.4,2.4-3.7c1.5-3.4,2.9-6.9,3.7-10.6
	c1.2-5.1,1.6-10.3-0.7-15.3c-1.2-2.8-2.8-5.3-4.8-7.7c-5.3-6.5-12.1-11-19.7-14.4c-3.1-1.4-6.2-2.8-9.6-3.3
	c-6.9-1-13.7-0.1-20.5,1.7C542.5,257.4,537.9,259.1,533.1,260.8z M497.4,367.2c-0.2,0-0.3-0.1-0.4-0.1c-0.4,0-0.8,0.1-1.1,0.2
	c-4.3,1.2-8.6,1.4-12.9,0.6c-4.4-0.8-8.4-2.4-11.9-5.4c-4.1-3.5-7.7-7.4-11.6-11.1c-1.8-1.7-2.5-1.8-4.7-0.6c-1,0.6-1.8,1.3-2.6,2
	c-1.4,1.3-2.7,2.8-3.9,4.4c-6.4,8.6-12.8,17.2-19.1,25.9c-11.8,16.2-24,32.2-37.1,47.4c-12.3,14.3-24.7,28.5-37,42.8
	c-3.6,4.1-7.4,7.8-12.3,10.3c-1.9,1-3.9,1.2-5.9,0.9c-4-0.7-6.9-3.1-9.4-6.1c-3.9-4.8-7.2-10.1-10.4-15.4
	c-8.7-14.3-16.1-29.3-23.3-44.5c-7-14.8-13.8-29.7-21.1-44.4c-0.7-1.3-1.4-1.6-2.8-1.4c-3.7,0.6-7.3,1.9-10.5,3.8
	c-4.5,2.6-9.2,3.3-14.2,2.8c-3.4-0.3-6.9-0.6-10.3-0.9c-1-0.1-1.8,0.1-2.6,0.7c-1.8,1.2-3.6,2.3-5.5,3.1c-6.8,2.8-13.9,3.6-21.1,4
	c-3.9,0.2-7.6,0.1-11.2-1.5c-0.7-0.3-1.5-0.5-2.2-0.6c-1.4-0.3-2.8-0.6-4.4-0.5c0.1,0.5,0.5,0.5,0.8,0.7c3.3,1.8,6.9,2.6,10.6,3.1
	c12.4,1.8,24.2,0.3,35-6.5c0.7-0.4,1.4-0.5,2.1-0.4c2.7,0.4,5.4,0.2,8,0.6c4.6,0.5,9,0,13.1-2.1c0.5-0.2,0.9-0.4,1.4-0.6
	c3.7-1.4,7.3-2.8,11.2-3.5c1-0.2,1.5,0.1,1.9,1.1c12,25.3,23.6,50.8,36.8,75.5c5,9.2,9.4,18.8,16.2,26.9c3.6,4.4,7.9,7.5,13.6,8.5
	c1.7,0.3,3.3,0.7,5,1c1.3,0.2,2.6,0.2,3.8-0.3c2.9-1.1,5.7-2.6,8.4-4.3c5.7-3.8,10.5-8.7,14.9-13.8c12.9-15.1,25.3-30.6,37.6-46.3
	c16.7-21.3,33.1-42.8,49.7-64.2c1.3-1.7,1.8-1.8,3.7-0.7c2.9,1.6,5.6,3.5,8.3,5.3c3.8,2.5,7.6,5,11.9,6.7c0.4,0.2,0.9,0.4,1.3,0.4
	c4.2-0.2,8.3-0.6,12.4-1.6C496.1,368.6,497,368.2,497.4,367.2z M212.5,262.1c0,0.5,0,0.7,0,0.8c0.1,0.4,0.2,0.8,0.4,1.2
	c1.6,4,3.8,7.8,6,11.5c2.6,4.2,5.3,8.4,8.1,12.6c0.5,0.8,0.3,1.3-0.3,1.8c-0.9,0.7-2,0.8-3,0.8c-0.9-0.1-1-1-1.2-1.6
	c-3.8-8-9.2-14.7-16.5-19.6c-14.1-9.5-29.8-13-46.7-11.5c-3.6,0.3-7.1,1.4-11,0.3c-5.3-1.6-10.6-0.3-15.5,2.3
	c-8.7,4.5-14.8,11.7-19.9,19.8c-0.1,0.2-0.4,0.5-0.1,0.8c0.3,0.3,0.6,0.1,0.9-0.1c1.5-1,2.7-2.2,3.9-3.5c1.9-1.8,3.6-3.9,5.6-5.6
	c5.3-4.4,11.8-5.8,18.4-7c3.3-0.6,6.5,0.2,9.8,0.6c1.8,0.2,3.5,0.6,5.3,0.1c7.1-1.8,14.3-1.8,21.4-0.3c9.8,2.1,18.6,6.4,26.1,13.2
	c5.3,4.7,10.1,9.7,12.2,16.8c0.5,1.7,1.5,3.2,2.7,4.6c1,1.2,2.2,0.9,3.4,0.9c0.9,0,0.9-0.8,1.2-1.3c0.8-1,1.6-1.9,2.5-2.7
	c1.2-1,2.4-2,3.4-3.1c1.1-1.3,1.8-2.7,0.8-4.4c-0.3-0.6-0.5-1.2-0.9-1.8c-3.5-6.2-7.2-12.1-11.3-17.9
	C216.3,267.4,214.4,264.9,212.5,262.1z M227.2,275.1c-0.1-1.6-0.4-3.1-0.9-4.6c-1.2-3.5-3.2-6.5-5.4-9.5c-2.6-3.6-5.3-7.1-7-11.2
	c-0.6-1.4-0.9-2.9-0.5-4.5c0.8-3.6,4.6-7.2,7.9-7.4c13.2-0.8,26.4-0.6,39.6-0.1c13.2,0.4,26.4,1.1,39.7,0.9
	c3.9-0.1,7.8-0.2,11.7-0.6c-0.6-0.2-1.1-0.3-1.7-0.4c-16.5-2.4-33-3.1-49.6-3.2c-12.8-0.1-25.5,0.2-38.3,0.3c-3.6,0-7,0.4-10.4,1.4
	c-3.4,1-5.2,3.2-5.7,6.8c-0.2,1.6-0.1,2.9,1,4.1c0.8,1,1.4,2.1,2.2,3.2c5.4,8.1,10.9,16.2,16.3,24.4
	C226.1,275,226.4,275.6,227.2,275.1z M533.9,230.4c-3.8-0.8-7.4-2.2-11.4-2.2c-7.1,0-14.2-0.2-21.3-0.1c-9.6,0.1-19.2,0.3-28.8,0.7
	c-9.5,0.5-18.9,1.1-28.4,1.6c-7.5,0.4-15,0.8-22.5,1.4c-11.5,1-23,2-34.5,3c-4.1,0.4-8.2,0.7-12.3,1.1c0,0.1,0,0.3,0,0.4
	c2.9,0,5.8,0.1,8.6,0c7.2-0.4,14.4-1,21.6-1.5c14.6-1.1,29.2-2,43.8-2.7c11.2-0.5,22.4-0.8,33.6-0.9c13.1-0.1,26.1,0.1,39,2.6
	c1.5,0.3,3.1,0.5,4.5,1.3c1.3,0.7,2.3,1.6,2,3.6c-0.4,2.5-1.2,4.8-2.3,7c-1.7,3.4-3.9,6.5-6.1,9.6c-0.7,1.1-0.6,1.8,0.3,2.6
	c1-1.4,1.9-2.8,2.9-4.1c3.5-4.8,6.9-9.7,9.4-15.1C533.2,236,533.9,233.4,533.9,230.4z M581,351.7c-0.9-0.7-0.9-0.7-1.7-0.4
	c-0.6,0.2-1.1,0.4-1.6,0.7c-8.3,3.9-16.8,7.1-25.7,9.4c-5.8,1.5-11.6,2.6-17.6,2.1c-3.6-0.3-7.2-0.3-10.8-0.5
	c-5.7-0.2-11.3-0.5-16.9,0.3c-2.2,0.3-4.4,0.7-6.4,1.8c0.6,0.8,0.6,0.7,1.5,0.6c4.6-0.5,9.1-1.2,13.7-0.7c3.2,0.3,6.4,0.7,9.5,0.7
	c8.4-0.1,16.6-0.9,24.8-2.5c9.3-1.8,18.1-5.2,26.7-9.2C577.9,353.2,579.5,352.6,581,351.7z M98.9,376.8c0.4-1.9,0.4-3.8-0.1-5.7
	c-0.7-2.5-0.8-5-0.8-7.6c0.1-7.2,1.6-14.2,3.4-21.1c1-3.8,2.1-7.7,3.2-11.5c-1-0.4-1.5,0-1.7,0.9c-0.5,1.9-1.2,3.8-1.6,5.8
	c-1.9,8-3.1,16.2-4.1,24.4c-0.5,3.5-0.7,7-0.2,10.6C97.1,374.2,97.6,375.7,98.9,376.8z M344.9,237.4c0,0,0-0.1,0-0.1
	c-10,0-20,0-30.1,0c-0.1,0.5-0.2,0.9,0,1.4C324.8,238.3,334.8,237.8,344.9,237.4z M105,304.4c0.9,0,1-0.5,1-1.1
	c0-3.4,0.5-6.8,1.4-10.1c0.3-0.9,0.3-1.9,0.5-2.9c0.1-0.4,0.1-0.8-0.4-0.9c-0.5-0.1-0.5,0.3-0.6,0.6c-0.9,1.9-1.8,3.9-2.3,5.9
	C103.6,298.8,103.6,301.7,105,304.4z M148,379c0.6-1.1,1.2-2.2,1.7-3.2c1.4-3.1,3.1-6.1,3.8-9.5c0.3-1.5,0.2-2.3-0.3-3.4
	c-0.2,0-0.2,0.2-0.3,0.4c-1.6,4.8-2.9,9.7-5.4,14.1C147,378.1,147.4,378.5,148,379z M209.1,324.1c-1.7,0.9-2.9,2-4.1,3.1
	c-0.7,0.7-0.9,1.5-0.9,2.4c0,0.4,0,0.7,0.4,0.8c0.9,0.2,2.1,0.2,2.6-0.6C208.2,328.2,209.1,326.4,209.1,324.1z M177.6,377.4
	c-3.3-2.3-6.5-4.6-9.8-6.9c-0.4,0.9-0.3,1.5,0.5,2.1c2.1,1.4,4.2,2.8,6.3,4.4C175.5,377.6,176.3,378.1,177.6,377.4z M132.3,389.8
	c3-1.6,6.9-1.4,9.1-4.7C139.4,384.3,133.8,387.2,132.3,389.8z M305.5,365.3c0.1,1,0.1,1.9,0.1,2.9c0,0.4,0.1,0.7,0.4,0.8
	c0.6,0.3,1.1,0.8,1.5,1.3c0.2,0.3,0.5,0.4,0.9,0.3c0.4-0.2,0.4-0.5,0.4-0.8c-0.1-0.8-0.1-1.6-0.4-2.4
	C308.1,365.9,307.3,365.4,305.5,365.3z M108.5,314.2c0.5-2.1,0.8-4.1,0.3-6.2c-0.1-0.5-0.3-0.7-0.9-0.7c-0.5,0-0.8,0.3-0.9,0.7
	c-0.1,0.5-0.2,0.9-0.1,1.4C107.1,311,107.6,312.6,108.5,314.2z M366.5,236.9c-5.9-0.5-11.9-0.2-17.8,0.1
	C354.6,237.6,360.6,237.2,366.5,236.9z M164.1,367.6c-2.1-1.7-4.1-3.3-6-4.9c-0.5,0.2-0.8,0.4-0.9,0.9c1.9,1.6,3.8,3.2,5.8,4.7
	C163.4,368.2,163.7,367.9,164.1,367.6z M339.1,455.8c0.6-0.1,1.3,0,1.4-0.9c0-1.4,0-2.8,0-4.2c-0.4-0.1-0.7,0-1.1,0.1
	c-1.5,0.4-1.7,0.7-1.3,2.2C338.3,453.9,338.7,454.8,339.1,455.8z"/>
<path class="st1" d="M442.9,349.2c-0.2-3.8-0.6-7.5-1.5-11.2c-0.6-2.3-0.6-2.3-3-1.8c-0.2,2.8-0.3,5.6-0.5,8.4
	c0,0.3-0.1,0.6-0.1,0.9c-0.1,1.9-0.9,3.2-2.6,4.3c-3.8,2.2-7.4,4.8-11.4,6.5c-2.4,1-4.9,1.8-7.5,2.1c-2.4,0.2-3.9-0.7-4.6-3
	c-0.5-1.4-0.8-3-1.1-4.5c-0.3-1.1-0.7-2.2-1.4-3.1c-1.1-1.4-2-1.4-3.3-0.3c-4.8,4.1-10,7.8-15.6,10.8c-6.3,3.5-13.2,5.6-20.1,7.7
	c-11.7,3.5-23.7,4.7-35.8,5c-2.3,0-4.4-1.1-6.5-2c-6.2-2.6-11.7-6.2-15.9-11.6c-1.5-1.9-3.1-3.7-4.6-5.6c-0.6-0.8-1.2-0.9-2.1-0.7
	c-2.2,0.6-4,1.8-5.9,3c-0.8,0.6-1.6,1.1-2.3,1.8c-2.3,2.2-5.1,3.3-8.1,4.1c-2.3,0.6-4.5,1.3-6.7,2c-2,0.6-2.4,1.1-2.3,3.1
	c0.2,3.4,1.4,6.6,2.5,9.7c2.5,6.8,6.5,12.7,10.2,18.8c4.7,7.8,9.6,15.5,13.5,23.7c1.8,3.7,2.8,7.7,4.7,11.4
	c6.2,12.5,12.2,25.1,19.9,36.7c1.6,2.4,3.4,4.7,5.3,6.9c0.7,0.8,1.3,0.9,2.2,0.7c1.6-0.5,3-1.2,4.2-2.5c11.8-13.6,23.6-27,35.4-40.6
	c12.2-14.1,24.3-28.3,36.4-42.4c3.9-4.6,7.9-9.2,11.8-13.8c0.5-0.6,1-1.2,1.9-0.7c0.2,0.4-0.1,0.6-0.3,0.9
	c-2.2,3.8-4.3,7.7-6.6,11.5c-1.5,2.6-3.5,4.8-5.5,7c-11.3,13-21.4,26.9-31.7,40.7c-9.1,12.2-18.4,24.2-28.7,35.4
	c-3.8,4.2-8.3,7.8-12.4,11.7c-0.7,0.6-1.6,0.6-2.4,0.8c-3.8,0.9-3.7,0.8-6.8-1.5c-5.3-4-8.7-9.3-12-14.9
	c-9-15.2-16.7-31.1-24.5-46.9c-7.7-15.5-14.8-31.3-22-47c-0.2-0.5-0.4-1.1-0.5-1.7c-0.4-1.8-1.6-2.5-3.4-2.2
	c-3.1,0.5-5.9,1.9-8.5,3.6c-0.9,0.6-1.9,1.1-2.8,1.8c-2.9,2.3-6.3,2.2-9.6,2.2c-6,0-11.9-0.2-17.9-0.3c-0.6,0-1.2,0-1.7,0.5
	c-3.5,3.8-8.2,5.2-13,6.4c-5.3,1.3-10.6,2.4-16.1,1.5c-5.2-0.9-10-2.6-14.8-4.7c-8.2-3.5-15.1-9-22-14.5c-4.5-3.5-8.7-7.3-12.9-11.2
	c-0.7-0.6-1.3-1.1-2.4-0.7c-0.1,2.3-0.2,4.6-0.5,6.9c-0.4,3.9-1.1,7.7-2.3,11.4c-2.5,7.3-7.6,11.9-15,14.1
	c-4.3,1.3-8.8,1.7-13.2,1.7c-1.1,0-2.1-0.6-3.1-1c-2.6-1-5.1-2.3-7.4-3.9c-3.7-2.6-5.4-6.2-6-10.5c-0.7-5.7-0.1-11.5,0.6-17.2
	c0.6-5.1,2.7-9.7,4.2-14.6c2.1-7.1,4.2-14.2,4.6-21.7c0.3-4.7,0-9.4-2.1-13.7c-0.1-0.3-0.2-0.6-0.1-0.9c1.9-11.8,7.1-21.6,17.2-28.4
	c4.3-2.9,9-3.2,13.6-0.4c0.7,0.4,1.4,0.6,2.2,0.5c3.4-0.1,6.8-0.3,10.2-0.7c1.2-0.1,2.4-0.4,3.5-0.8c3.3-1.2,6.7-1.1,10.1-0.6
	c12.3,1.8,23.4,6.5,32.7,14.8c4.2,3.7,8,7.8,9.8,13.3c2.6,7.7,1.5,14.8-2.9,21.6c-2.1,3.2-5.2,5.2-8,7.6c-1.1,1-2.4,2-3.5,3
	c-1.1,0.9-1.2,2.7-0.2,3.8c3.5,3.7,7,7.4,11.3,10.1c1.4,0.9,1.8,0.7,2.2-0.8c2.8-9.5,5.5-19,9.6-28.1c3.5-8,7.9-15.4,14.1-21.7
	c1.6-1.6,3.3-3.1,5-4.5c3.3-2.6,7.3-3.5,11.2-4.4c11.1-2.5,22.3-3.4,33.6-2.7c10,0.6,19.9,2.2,29.1,6.5c3.5,1.6,6.7,3.6,9.7,6.1
	c1.6,1.3,1.7,1.3,3.5,0.2c5.1-2.9,9.7-6.4,14.5-9.7c3-2.1,6.1-4.1,9.3-6c4.7-2.8,10-3.9,15.2-5c6.6-1.4,13.2-2.2,19.9-1.9
	c8.5,0.3,16.5,2.1,23.7,6.8c4.5,3,7.2,7.4,9,12.3c0.2,0.5,0.3,1.1,0.5,1.6c0,0.1,0.2,0.2,0.2,0.3c1.3-0.1,2-0.6,2.5-1.9
	c1.7-4.4,3.7-8.6,6.5-12.4c4-5.4,9.5-7.2,15.9-6.7c4.6,0.4,8.9,1.6,13.2,3.2c0.7,0.3,1,0.7,1.3,1.4c0.9,3,1.3,6,0.7,9.2
	c-0.2,1-0.6,1.9-1.1,2.7c-0.5,1-1.1,2-1.5,3.1c-0.4,0.9-0.7,1.8,0,2.6c0.8,0.9,2,0.9,3.1,0.6c1.9-0.6,3.8-1.5,5.5-2.6
	c6-3.8,11.8-7.9,18-11.4c5.5-3.1,11.3-5.9,17.5-7.1c3.8-0.8,7.5-0.2,10.6,2.3c2.4,1.9,4.9,1.9,7.5,1c5.3-1.8,10.4-4,15.7-5.7
	c6.9-2.1,13.9-3.9,21.2-4.3c8.2-0.4,16.1,1,23.2,5.2c5.1,3,9,7.3,12.6,12c0.6,0.8,1.1,1.6,1.8,2.3c3.3,3.6,3.3,10.3-0.2,14.2
	c-2,2.3-4.2,4.3-6.6,6c-1.3,1-2.9,0.8-4.5,0.7c-7.8-0.1-14.9-2.7-21.9-5.8c-2.8-1.2-5.5-2.7-8.1-4.2c-0.8,2.5-0.2,3.8,2.1,4.7
	c7.5,3,15.1,5.8,22.2,9.7c4.4,2.4,8.8,5.1,12.1,9c3.4,4,4.6,8.6,3.3,13.7c-0.6,2.3-1.8,4.3-3,6.3c-0.2,0.3-0.5,0.5-0.8,0.6
	c-7.6,4.2-15.5,7.8-23.7,10.6c-7.9,2.7-16.2,3.9-24.5,4.5c-9.8,0.7-19.6,0.9-29.5,1.1c-3.1,0-6,1.1-9,1.8c-3.2,0.8-6.3,2.2-9.6,2.5
	c-6.5,0.7-12.2-1.1-17-5.6c-5.8-5.5-11.4-11.2-16.9-17c-1.1-1.2-2.4-1.1-3.4,0.1c-2,2.4-4,5-6.6,6.9
	C443.9,348.8,443.6,349.2,442.9,349.2z M408.9,334c-0.4,0-0.7,0-0.9,0c-4.5,0.1-8.9,0.2-13.4,0.3c-3.4,0.1-6.4,1-9.2,2.9
	c-1.7,1.2-3.3,2.4-4.9,3.7c-4.2,3.6-8.2,7.4-13.4,9.6c-4,1.7-8,3.2-12.5,2.7c-3.2-0.3-6-1.4-8.4-3.5c-4.7-4.1-7-9.5-8.1-15.5
	c-0.7-3.6-0.6-7.1,1-10.6c2.7-6.1,6-11.9,10.7-16.6c4-4,8.5-7.3,14.1-8.9c4.8-1.4,9.7-1.8,14.5-0.1c3,1,5.6,2.7,8.1,4.5
	c0.7,0.5,1.3,0.7,2.1,0.6c6-0.6,12.1-0.7,18-2c1.2-0.3,1.6-0.8,1.5-1.9c-0.1-2.1-0.7-3.9-2.1-5.5c-2.8-3.2-6.2-5.7-10.1-7.4
	c-9.4-4.1-19.3-5.2-29.4-4.4c-10,0.7-18.8,4.7-26.8,10.7c-6.5,4.9-12.4,10.5-17.9,16.5c-0.7,0.7-1.2,1.6-2.3,2
	c-0.2-0.3-0.4-0.5-0.5-0.7c-4.2-6.7-10-11.3-17.3-14.3c-5.7-2.3-11.7-2.8-17.8-2.9c-9.4-0.2-18.4,1.5-27.3,4.3
	c-2.7,0.8-5.4,1.5-7.9,2.9c-6.8,3.8-12.8,8.6-18.1,14.4c-5.2,5.7-7.8,12.5-8.3,20.1c-0.3,4.8,0.3,9.6,1.7,14.3
	c0.2,0.8,0.5,1.5,1,2.2c4.5,5.6,10,9.5,17.1,11.1c6.5,1.4,13,1.2,19.4,0c8.3-1.6,16.3-4.6,23.9-8.4c7.8-3.9,15.4-8.4,22.8-12.9
	c0.8-0.5,1.6-0.7,2.6-0.6c0.2,0.8,0.4,1.5,0.7,2.2c1.1,3.4,2,6.9,3.6,10.1c2,4.2,4.3,8.1,8.9,10c4.8,2,9.9,3.1,15.1,3.1
	c7.6,0,15.1-0.7,22.6-2c9.8-1.7,19.3-4,28.2-8.4c5.7-2.8,11-6.2,14.9-11.5C406.9,341,408.3,337.8,408.9,334z M352.8,319.5
	c-0.4-0.9-1.7-1.2-1-2.3c2-3,3.9-6.1,6.6-8.6c3.3-3,8.1-5.4,13.7-2c0.4,0.3,0.9,0.5,1.3,0.7c2.1,1.4,4.4,2.1,7,1.9
	c3.8-0.3,7,0.9,9.6,3.8c0.5,0.6,1.1,0.7,1.8,0.7c2.2,0,4.4-0.7,6.5-1.2c1.3-0.3,2.5-0.8,3.7-0.7c0.5,1.9-0.3,3-2,3.6
	c-0.9,0.3-1.4,1.1-1.9,1.9c-0.7,1.1-1.5,2.3-1.7,3.6c-0.6,3.6-2.9,5.2-6.1,6.3c-2.3,0.9-4.6,1.9-7.1,2.7c0.2,0.1,0.3,0.2,0.3,0.2
	c7.4,0.7,14.9,0.7,22.3,0.6c0.8,0,1.3-0.3,1.7-1.1c0.4-1.1,1-2.1,1.5-3.1c2.7-6.5,4.6-13.2,6.4-19.9c0.7-2.4,1.3-4.8,2.1-7.4
	c-1.4,0.6-2.6,1.1-3.7,1.6c-3.1,1.3-6.1,3.2-9.4,3.9c-5.9,1.4-11.9,2.2-17.9,2.4c-0.7,0-1.3-0.2-1.8-0.7c-1.9-1.7-3.8-3.4-5.9-4.9
	c-5-3.6-10.2-4.3-15.8-1.3c-2.4,1.3-4.7,2.8-6.8,4.5c-1.2,1-2.6,1.7-3.6,3c-2.2,2.9-4.2,5.9-5.8,9.2c-2.5,5.1-4.6,10.2-4.4,16.1
	c0.2,3.7,1,7.1,3.7,9.8c2.6,2.4,5.2,4.5,9.3,3.9c10.2-1.5,17.4-7.3,23.2-15.2c0.1-0.1,0-0.2,0-0.4c-1,0-1.8,0.4-2.6,0.8
	c-2.8,1.4-5.1,3.5-7.5,5.5c-0.5,0.4-1.1,0.6-1.7,0.6c-2.4,0-4.9,0-7.3,0.1c-3.3,0.1-3.3,0.1-4.3-3.1c-0.3-1-0.5-2.1-0.8-3.2
	c-1.1,0.9-0.9,2.1-1.2,3c-1.3,0-2.5,0-3.9,0c0.7-2,2.3-3.3,3.4-4.9c-1.8-1.3-4.9-1.6-4.5-4.4C348.8,323.1,349.1,320,352.8,319.5z
	 M230.5,361c-3.8-0.6-7.6-1.2-11.4-1.9c-4.5-0.8-9.1-1.2-13.2-3.6c-5.9-3.5-11.9-7-16.8-11.9c-3.4-3.3-6-7-7.1-11.7
	c-0.2-1.1,0-1.6,1-2.1c3.6-1.9,7.1-4.1,10.7-6.2c2-1.1,3.5-2.6,4.6-4.6c2-3.8,4-7.6,4.6-12.1c0.9-6.5-0.8-12-5.9-16.3
	c-3-2.5-6.5-4.2-10.3-5.3c-6.4-1.9-13-2.6-19.6-3.1c-8.7-0.7-17.4-0.8-26,1.1c-4,0.9-7.9,2.1-11.2,4.4c-5.4,3.7-8.5,8.9-8.8,15.6
	c0,1.1-0.3,2.3,1,3.1c0.5,0.3,0.6,0.9,0.8,1.4c1,2.8,0.7,5.7,0.3,8.5c-1.3,7.9-3.5,15.7-5.4,23.5c-1.6,6.6-3.6,13.2-4.2,20.1
	c-0.3,3.2-0.5,6.4,0.4,9.5c0.8,2.7,3.7,4.6,6.2,4.3c5.5-0.8,10.5-2.7,15.4-5.2c5.8-3.1,9-8.2,9.8-14.6c0.7-5.6,1.1-11.3,1.1-16.9
	c0-2.4,0.3-4.8,1.1-7.2c1.8-6,3.6-12,5.4-18c1.4-4.7,2.9-9.3,4.6-13.9c0.2-0.6,0.3-1.3,1.3-1.3c4.8-0.1,9.3,0.9,13.3,3.7
	c0.8,0.6,1.7,1.3,2,2.3c0.9,2.9,1.1,5.9,0.2,8.8c-1.5,4.5-4.9,7.5-8.9,9.8c-3.8,2.1-8.1,3.3-12.2,5c-0.5,0.2-1,0.4-1.3,1
	c-1.3,2.9-1.5,5.8-0.1,8.7c2.9,5.7,7.1,10.3,12,14.2c8,6.4,16.6,11.8,25.6,16.7c4.5,2.5,9,5.2,13.8,7.2c1.7,0.7,3.6,1.2,5.5,0.8
	c7-1.6,13.5-4.2,19.6-8.1c2.9-1.9,2.9-1.8,2.6-5.2C230.6,361.3,230.6,361.2,230.5,361z M553.8,333.6c-1.1,0.8-2.4,1.3-3.7,1.8
	c-5.2,2-10.7,2.7-16.2,3.4c-1.7,0.2-2.6-0.3-3.4-1.9c-1.7-3.4-4.2-6.1-8.2-6.9c-4.1-0.9-8.2-0.3-12.3,0.2c-0.4,0.1-0.8,0.4-1.1,0.6
	c-4,3-5.1,7.2-4.5,11.9c0.6,5,3.6,8.6,7.5,11.6c0.5,0.4,1.1,0.6,1.8,0.6c3.3-0.2,6.6-0.3,9.9-0.5c9.9-0.6,19.6-1.9,29.2-4.6
	c10.3-2.9,19.7-7.5,27.8-14.5c0.6-0.6,0.9-1.1,0.9-2c0-2.3-0.6-4.4-1.7-6.3c-2.2-3.8-5.7-6.4-9.3-8.8c-7.1-4.7-14.9-7.8-22.6-11.3
	c-3.4-1.6-6.9-2.8-10.2-4.6c-1.2-0.6-1.2-1.7-0.2-2.5c1.6-1.3,3.4-2.5,5.1-3.6c3.7-2.3,7.3-2,10.8,0.3c2.3,1.5,4.2,3.4,5.8,5.6
	c1.5,2.1,3.3,2.4,5.5,2c0.8-0.1,1.5-0.3,2.3-0.4c5.3-1.2,10.2-3.5,15.2-5.5c2.1-0.9,2-0.9,2-3.1c0-1.5-0.3-2.7-1.4-3.9
	c-2.5-2.6-4.9-5.3-7.8-7.5c-3.2-2.4-6.6-4.8-10.6-5.8c-8.4-2.1-16.3-0.6-24.2,2.6c-8.5,3.5-16,8.8-23.7,13.8
	c-0.3,0.2-0.5,0.4-0.7,0.7c-2,3.2-3.2,6.5-3.2,10.3c0,5.4,4.3,12.3,10.2,13.7c2.1,0.5,4.2,1.3,6.3,2.1c8.2,3,16.1,6.6,23.4,11.5
	C553,332.7,553.6,332.9,553.8,333.6z M445.5,306.6c0.2-1.1,0.4-2.1,0.6-3.1c1.1-4.5,2.9-8.7,4.5-13c0.6-1.7,1.2-3.5,0.8-5.3
	c-0.2-1-0.4-2-1.3-2.7c-1.5-1.1-3.2-1.9-5.1-2.2c-2.7-0.5-5.5-0.6-8.2-1c-0.9-0.1-1.8,0.1-2.5,0.7c-2.3,2.1-4.4,4.3-5.9,7.2
	c-7.1,13.7-12.5,28-15.7,43.1c-1,4.8-1.8,9.7-1.6,14.6c0.1,2.8,0.5,5.6,1.9,8.1c1.2,2.2,3.2,2.9,5.4,1.7c2.1-1.1,4.1-2.3,6.2-3.3
	c3.4-1.6,6.8-3.3,10.2-4.9c0.4-0.2,0.8-0.3,0.9-0.8c0.8-2.7,1.6-5.4,2-8.3c0.3-2.2,1.5-4.6,4-5.2c1.5-0.3,2.9-0.5,4.4-0.6
	c0.7-0.1,1.3,0.2,1.7,0.7c1.5,1.7,3.3,3.1,4.9,4.7c2.9,3.1,6.1,5.9,9.6,8.4c4.2,3,8.8,5.2,14,5.6c6.2,0.4,12-1.2,17.8-3.2
	c0.7-0.2,1-0.6,1-1.4c0-1.9-0.2-3.6-1.1-5.3c-1.9-3.6-4.7-6.4-7.8-9c-2.3-2-4.7-4-7-6c-2.6-2.3-4.9-4.9-6.6-7.9
	c-0.9-1.6-0.6-2.8,0.7-3.8c11.4-9.1,22.5-18.4,34.6-26.5c0.3-0.2,0.6-0.3,0.7-0.7c0.2-0.9-1.4-4.5-2.2-5c-0.2-0.1-0.5-0.2-0.7-0.2
	c-3.4-0.1-6.7-0.1-10,0.6c-7,1.5-13.3,4.5-19.3,8.3c-7.1,4.5-13.4,9.9-19.9,15.2c-0.6,0.5-1.1,1.1-1.9,1.2
	C451.6,307.4,448.6,307.5,445.5,306.6z M538.9,334.2c0.8,0,1.4,0,2,0c1.1-0.1,1.9-1.7,1.2-2.5c-1.6-1.8-3.3-3.6-5.5-4.7
	c-4.8-2.4-10-3.5-15.3-4.2c-3.1-0.5-5.7-2-7.9-4c-4-3.7-7.1-8.1-10-12.7c-0.5-0.8-0.9-1.1-1.8-0.9c-1.6,0.3-3.2,0.6-4.7,1.2
	c-5.2,1.8-9.5,5.1-13.5,8.7c-0.5,0.4-0.4,0.8-0.2,1.4c0.7,1.8,1.6,3.5,2.6,5.1c2.3,3.6,5.1,6.7,7.7,10c1.1,1.4,2.8,1.6,4.2,0.5
	c1.9-1.5,3.9-2.8,6-4.1c5.6-3.6,11.4-4,17.4-1c4.5,2.2,9,4.2,13.5,6.4C536,333.9,537.4,334.6,538.9,334.2z M154.9,314.2
	c0,2.6,0.6,3.1,2.7,2.6c0.9-0.2,1.7-0.4,2.6-0.8c3.3-1.2,5.8-3.2,7-6.7c1.3-3.9-1.1-5.8-3.7-6.6c-1.3-0.4-2.6-0.4-3.9-0.5
	c-0.8,0-1.1,0.3-1.4,1c-0.4,1.2-0.9,2.4-1.4,3.6C155.9,309.3,155.1,311.8,154.9,314.2z"/>
<path class="st1" d="M483.1,265.4c0,1.3-1,2.8,0.6,3.8c2.2-1.7,4.8-2,7.5-1.8c0.8,0.1,1.6,0.2,2.3,0.7c-0.7,0.9-1.5,1.4-2.4,1.9
	c-1.6,1-3.1,1.9-4.7,2.8c-0.8,0.5-1.5,1.1-2.1,1.8c-1.2,1.4-3.1,1.5-4.3,0c-0.6-0.7-1.1-1.5-1.5-2.4c-0.4-0.8-0.9-0.8-1.5-0.5
	c-1.6,0.8-2,1.8-1.5,3.5c0.3,1,0.5,2,0.4,3c-0.2,1.8-1.2,2.8-2.9,3.2c-2.4,0.5-4.4,1.8-6.3,3.2c-1.4,1-2.8,1.7-4.7,2
	c-0.3-1.7-0.7-3.3-1-5c1.1-0.2,1.8,0.4,2.5,0.9c0.7,0.5,1.4,1.3,2.2,0.9c0.8-0.4,0.6-1.5,0.6-2.4c0-1.8-0.5-3.6-0.9-5.4
	c-0.1-0.5-0.3-0.7-0.8-0.7c-1.2-0.1-2.4-0.2-3.7-0.4c-0.3,0.8-0.3,1.8-1.3,2.3c-1.1-1.1-2.1-2.2-3.3-3.3c-1.9-1.8-3.9-3.2-6.6-3.7
	c-1-0.2-2-0.3-2.6,0.9c-0.3,0.8-1,0.4-1.5,0.3c-0.4-0.8-0.1-1.7-0.4-2.6c-1.3-0.3-2.3,0.3-3,1.4c-0.4,0.7-0.9,0.8-1.7,0.9
	c-5,0.1-10,0.3-14.9,0.7c-0.9,0.1-1.2,0.4-1.4,1.2c-0.4,1.7-1.2,3.2-2.3,4.5c-0.9,1.1-1.9,1.6-3.3,1c-3.2-1.2-6.7-1.1-10.1-1.2
	c-1.5-0.1-2.9-0.3-4.3-1c-7.8-4.1-16.3-5.2-24.9-5.6c-4.2-0.2-8.4,0-12.6,0.1c-0.5,0-0.9,0-1.4,0c-0.4-0.8-0.2-1.6-0.4-2.3
	c-1.3,0.1-1.5,0.2-1.4,1.7c0,1.1-0.4,1.5-1.4,1.8c-5.6,1.7-10.8,4.5-16.1,7c-4.3,2-8.7,3.9-13.3,5c-0.4,0.1-0.9,0.2-1.5,0.3
	c0.2-1.6,0.3-3.1,0.4-4.6c-1.8-0.1-2.8,0.5-3.4,2.1c-0.5,1.5-0.5,3.1-0.6,4.8c-0.6,0.1-1.2,0.2-1.9,0.4c-0.3-2-0.7-4-1.1-6.2
	c-0.6,1.2-1.1,2.2-1.6,3.1c-2,3.5-5.7,5.2-10,4c-9.9-2.7-19.9-5-30-6.9c-2.4-0.5-4.9-0.2-7.4-0.2c-8.6-0.2-17.1-0.4-25.5-2
	c-2-0.4-3.9-0.8-5.9-1.4c0.1-0.6,0.2-1.2,0.3-1.8c1.5,0.1,3,0.7,4.4,0.6c0.6-0.1,1.3,0.3,1.5-0.7c0.4-1.9,0.2-2.5-0.8-3
	c-2.2-1.3-4.6-1.4-7-1.2c-1.1,0.1-2.3,0.1-3.4,0.2c-0.7-2.6,0.5-4.7,3-5.5c0.5-0.1,1-0.3,1.5-0.4c1.1-0.3,1.4-1,0.7-1.9
	c-0.6-0.8-1.4-1.2-2.2-1.7c-1.3-0.7-2.7-1.2-4.1-1.7c-1.9-0.6-1.9-0.6-1.9-2.9c1.6,0,3.3,0,4.9,0c1.6,0,3.1,0,4.7-0.3
	c3.5-0.7,5-2,5.6-5.5c0.2-1.1,0.6-1.7,1.8-2.1c1.7-0.5,3.3-1.1,4.9-1.7c0.2,0.1,0.2,0.1,0.3,0.2c0.6,0.7,0.5,2,1.4,2.2
	c1.2,0.3,2.5,0.2,3.8,0.2c0.6,0,1.2-1.3,0.9-1.9c-0.1-0.2-0.3-0.3-0.4-0.5c-0.4-0.6-1.3-1.2-0.5-2c0.8-0.8,2.3-0.4,2.9,0.5
	c0.2,0.2,0.3,0.5,0.5,0.7c2.4,3.6,2.5,3.6,7,3.2c0.4-0.7,0.1-1.1-0.4-1.6c-1.2-1-2.3-2-3.7-3.2c2.5-0.4,4.7-0.6,6.8-1
	c9.7-1.7,19.5-1.3,29.3-1.6c19.8-0.6,39.6-1.2,59.3-1.8c4.5-0.1,9-0.2,13.5-0.5c3.4-0.2,6.8-0.9,10.3-1.2c7.9-0.9,15.8-1.2,23.7-1.3
	c4.1-0.1,8.3-0.1,12.4-0.2c1.2,0,2.3-0.1,3.4-0.5c3.6-1.2,7.3-1.5,11.1-1.8c6.5-0.4,13-0.2,19.5-0.5c1.4,0,0.7,1.2,1.3,1.7
	c0.6-0.4,0.1-1.4,0.9-1.6c0.6-0.1,1.3-0.1,1.9-0.1c2.7,0,5.4,0,8.2,0c-2.5,4.3-6.5,7-10.6,9.8c1,0.4,1.9,0.3,2.8,0.5
	c0.9,0.2,1.9,0.1,2.8,0.3c1.8,0.4,3.1,0.3,3.6-1.8c0.1-0.5,0.5-0.7,1.1-0.7c2.7,0.1,5.2,0.8,7.7,1.6c0.5,0.1,0.5,0.5,0.5,0.9
	c0,0.6,0,1.2,0,1.8c0,2.3-0.9,3.3-3.3,3.3c-0.3,0-0.6,0-0.9,0c-0.7,0-1.3-0.7-1.9-0.2c-0.8,0.6-1,1.5-1.2,2.5
	c-0.1,0.3-0.1,0.7-0.2,1c0.7,0.4,1.5,0.6,2.3,0.6c0.6,0,0.9,0.2,1,0.9c0.2,2,1.1,3.6,2.7,4.7c0.6,0.4,0.6,0.9,0.6,1.5
	c-0.1,0.7-0.6,0.8-1.1,0.9c-1.3,0.4-2.7,0.7-4.1,1.1c-0.5,0.2-1.1,0.3-1,1.1c0.1,0.8-0.4,1.8,0.6,2.4c1.8,1.2,3.5,1.3,5.2,0
	C479.7,266.1,481.3,265.4,483.1,265.4z M281,248.6c0.6,1.4,1.7,2.3,3,2.2c3.8-0.3,7.5-0.7,11.1-2c0.3-0.1,0.7-0.1,0.8-0.6
	c0.4-1.3-0.6-2.8-2-2.8C289.4,245.5,285.3,247.4,281,248.6z M268.2,256c-0.2,2.2,0,2.5,1.9,3.1c1.1,0.3,2.2,0.4,3.3,0.3
	c2.5-0.3,4.6-1.3,6.4-3.3C275.7,256,272,256,268.2,256z M313,285.4c0.3-2-0.7-4.2-1.9-4.8c-1.2-0.6-3.2-0.2-4.2,0.9
	c-0.3,0.3-0.6,0.5-0.5,0.9c0.1,0.4,0.6,0.5,0.9,0.5C309.3,283.2,311.5,283.2,313,285.4z M254.3,265.5c0-1.3-1.5-2.4-3.1-2.2
	c-0.7,0.1-1.7,0.1-2,0.9c-0.3,0.7,0.4,1.2,0.7,1.8c0.2,0.3,0.4,0.5,0.5,0.7c0.5,1.1,1.4,0.8,2.2,0.5
	C253.4,266.9,254.6,266.8,254.3,265.5z M472.9,272c-0.7,0.2-1.5,0.1-1.6,0.8c-0.1,1.4,0,2.7,0,4.1
	C473.2,276.1,473.5,275.4,472.9,272z M267.7,270.4c-3-0.7-4.3,0-4,2C265,271.8,266.3,271.1,267.7,270.4z"/>
<path class="st1" d="M330.7,448c-0.1-1-0.4-2,0.9-2.4c0.7-0.2,0.5-0.7,0.3-1.1c-0.2-0.4-0.4-0.8-0.6-1.3c-1.4,0.4-2.6,1.2-4,1.4
	c-2,0.4-2.1,0.3-3.2-1.3c-2.1-3.2-3.3-6.7-3.6-10.5c0-0.3-0.1-0.7-0.1-1c-1.4-0.1-2.7,0.1-4-0.3c-0.6-0.2-1.2-0.3-1.5-1.1
	c-2.9-6.7-6.3-13.2-9.2-19.9c-1.7-3.9-2.6-8.1-3.4-12.3c0.9-0.4,2.1,0,2.7-1.3c-1.7-0.8-3.3-1.7-5-2.5c-0.7-0.3-1-0.8-0.9-1.6
	c0.1-1.4,0.2-2.8,0.7-4.1c0.4-1,0.2-1.6-0.9-1.9c-0.4-0.1-0.7-0.3-1.2-0.5c0.7-3.3,1.4-6.6,2-9.9c0.5-0.3,1-0.1,1.6-0.1
	c0.1,2.6-0.9,5.3,0.4,8c1.8-1.5,3.5-2.8,5.2-4.1c2.8-2.3,5.6-4.5,8.8-6.2c1.4-0.8,1.5-1.2,1.1-2.9c-0.1-0.5-0.2-1-0.2-1.5
	c-0.1-0.5-0.1-1-0.1-1.7c3.6,1.1,7.2,2,10.2,4.2c0.5,0.4,0.7,0.9,0.8,1.5c0.3,1.2,0.6,2.3,1.3,3.3c1,1.3,2.4,1.6,4,0.8
	c-0.6-0.1-1.1-0.3-1.7-0.4c-0.2-0.8,0-1.5,0.3-2.4c2.6,0.2,5.1,0.3,7.7,0.5c4.2,0.3,8.5,0.6,12.7,0.1c2.9-0.3,5.7-0.9,8.4-2
	c1.4-0.5,2.7-1.1,3.7-2.2c1.2-1.4,2.8-1.1,4.4-1.2c0.5,0,0.6,0.4,0.8,0.7c0.5,1,0.9,2,1.6,2.9c0.5,0.6,1.1,1.1,1.9,1.2
	c1.3,0.1,1.8-0.5,1.5-1.8c-0.2-1.1-0.3-2.1,0.8-3c1.2-0.9,2.3-2,3-3.3c0.7-1.3,1.7-2,3.1-1.9c0.5,0,0.9-0.1,1.5-0.2
	c-0.8,2.8-1.6,5.4-2.3,8c0.6,0.3,1,0,1.4,0.1c0.7,0,1.5-0.4,2.1,0.5c0.1,0.1,0.3,0.1,0.5,0.1c3.1,0.1,6.3,0.3,9.4-0.7
	c0.5-0.2,1-0.2,1.3-0.8c-0.4-0.5-1-0.3-1.5-0.3c-1.9-0.1-3.7-0.2-5.5-0.8c-1-0.3-1.7-0.8-1.6-2.1c0-1.2-0.3-2.3-0.1-3.7
	c2.2,0.5,3.9-0.5,5.8-1.2c1.6-0.6,3.3-0.3,4.9-0.3c0.4,0,0.9,0.1,1.2-0.2c1.6-1.5,3.5-1.3,5.4-1c0.3,0,0.6,0.1,1,0.1
	c0-1.1-0.2-1.9-1.5-2.1c-2.1-0.2-4.2-0.5-6.3-0.8c0.1-2.1,1.1-3.3,3-3.7c3-0.6,6,0.1,9,0.4c0.2,1.2,0.1,2.2-0.5,3.3
	c-2.2,3.7-4.3,7.5-5.2,11.8c-0.2,1-0.4,2-0.2,3c0.1,0.5,0.2,0.9,0.9,0.8c0.6-0.1,1.3,0.5,1.8-0.4c0.6-1.2,1.4-2.2,2-3.4
	c0.5-1.1,1.3-1.3,2.5-1.2c0,3.2-2.4,5.5-3,8.6c2.5-0.5,3.1-4,6.1-3.7c-0.5,1.8-1.4,3.3-1.4,5.3c2.1-1.3,4-3,6.7-3.2
	c-2.3,3.2-4.2,6.3-7.5,8.4c-0.6-0.6-0.7-1.4-1.2-2.1c-1.9,2.6-3.7,5.2-5.1,8c-1.4,2.6-2.2,5.5-3.9,8c-4.8,7.1-10.6,13.1-17.6,17.8
	c-2.4,1.6-5.4,2.2-7.3,4.8c-1.1,1.4-3.3,1.9-4.7,3.2c-0.6,0.6-1.1,0.4-1.3-0.5c-0.1-0.6,0-1.3-0.9-1.2c-0.9,0.1-2-0.3-2.3,1.1
	c-0.1,0.7-0.5,1.4-1.3,1.7c-1.3-1.9-2.6-3.8-4-5.9c-1.9,2.2-1.6,4.9-2,7.5c1.3-0.1,2.5-0.2,3.8-0.4c0.1,1.8,0.2,3.6,0.2,5.3
	c0,0.8,0,1.5,0.1,2.3c0.3,2.8,0.3,5.3-2.4,7.3c-1.4,1-1.7,2.9-2.3,4.4c-1.2,0.4-1.7,0.1-1.8-1.2c0-1.6-0.2-3.3-0.4-5
	c-2.3,0.1-4.2,1-5.7,2.6c-2.1,2.1-3.1,4.8-4.1,7.6c-0.1,0.4-0.2,0.9,0.3,1.1c0.6,0.3,0.7-0.2,1-0.5c1-1.3,1-1.3,2.8-1.4
	c-0.7,2.1-3.1,3.7-5.8,3.8c-1.2-2.3-1.8-4.7-1.5-7.4c0.1-0.6,0.4-0.9,0.8-1.2c2.8-2.2,5-4.8,5.7-8.5c0.1-0.6,0.2-1.2,0-2.1
	c-0.9,1.3-1.7,2.5-2.6,3.6c-1.9,2.6-3.9,5-6.5,6.9C337.6,447.3,334.4,448.4,330.7,448z"/>
<path class="st2" d="M533.1,260.8c4.8-1.6,9.4-3.3,14.2-4.6c6.7-1.8,13.5-2.7,20.5-1.7c3.4,0.5,6.5,1.9,9.6,3.3
	c7.6,3.4,14.4,7.9,19.7,14.4c1.9,2.3,3.5,4.9,4.8,7.7c2.2,5,1.8,10.1,0.7,15.3c-0.8,3.7-2.2,7.2-3.7,10.6c-0.6,1.3-1.6,2.5-2.4,3.7
	c-1.9,2.9-1.9,2.9,0.2,5.5c1.8,2.3,3.5,4.6,4.7,7.3c2.2,4.7,2.2,9.3-0.8,13.7c-1.8,2.7-3.9,5.3-6,7.7c-0.3,0.3-0.7,0.6-1.1,0.9
	c-2.8,1.8-5.6,3.5-8.4,5.3c-0.9,0.5-1.8,1.1-3,1c0-0.7,0.5-0.8,0.8-1c4.1-2.9,8.3-5.8,12-9.3c3-2.9,5.4-6.1,6-10.4
	c0.3-2.2,0.2-4.3-0.9-6.3c-2-4-4.7-7.5-7.9-10.6c-1.2-1.1-1.2-2.3-0.1-3.5c2.8-3,5.7-5.9,7.6-9.5c3.6-6.7,3-13.5-0.3-20.1
	c-2.9-5.8-6.9-10.5-12.4-14.1c-5.9-4-12.2-7.1-19-9.2c-3.2-1-6.3-0.9-9.4-0.5c-7.6,0.9-14.9,3.1-22.2,5.2c-4.8,1.4-9.7,2.6-14.8,3
	c0.1-1.3,0.3-2.5,0.9-3.7c2.7-5.3,6.3-10,9.9-14.7c3.1-4,6.3-8,8.7-12.4c1.3-2.4,2.2-4.9,2.5-7.7c0.1-0.8-0.2-1.3-0.9-1.8
	c-3.1-2-6.6-2.7-10.2-3.1c-8.3-0.9-16.7-0.5-25-0.3c-20.9,0.5-41.7,1.8-62.6,3.3c-14.1,1.1-28.2,2.3-42.4,3.5
	c-11.1,1-22.1,1.9-33.2,2.9c-9.6,0.9-19.2,0.3-28.8,0.3c-17.4-0.1-34.9-0.5-52.3-0.9c-12.5-0.3-25-0.7-37.5-1.2
	c-8-0.3-15.9-0.7-23.8-1.2c-4.1-0.3-7.7,0.8-11.3,2.4c-4.5,2.1-8.3,5.3-11.8,8.8c-0.4,0.4-0.8,0.8-1.4,1.5c-0.1-2.8,0.3-5.3,1.1-7.7
	c1.4-4.2,4.6-6.6,8.3-8.6c2.6-1.4,5.4-2.3,8.2-3.1c0.3-0.1,0.7-0.1,1-0.1c13.5,0.4,27.1,0.8,40.6,1.4c10.7,0.5,21.3,0.9,32,1.4
	c8.7,0.4,17.4,0.9,26.1,1.2c7.2,0.2,14.4-0.1,21.6-0.4c15.5-0.5,31-1.4,46.5-2.5c17.5-1.2,35-2.7,52.4-4.1
	c11.4-0.9,22.7-1.6,34.1-2.4c13.1-0.9,26.2-1.6,39.3-2c8.1-0.2,16.3-0.1,24.3,1.3c2.3,0.4,4.5,1.1,6.7,1.9c5.4,2.2,7,6.9,6.2,11.8
	c-0.6,3.9-2,7.5-4.3,10.7c-4.5,6.3-8.8,12.7-12.4,19.6C533.6,259.1,533.1,259.8,533.1,260.8z"/>
<path class="st2" d="M497.4,367.2c-0.4,1-1.3,1.4-2.2,1.6c-4.1,1-8.2,1.4-12.4,1.6c-0.4,0-0.9-0.2-1.3-0.4
	c-4.3-1.7-8.1-4.2-11.9-6.7c-2.7-1.8-5.4-3.7-8.3-5.3c-1.9-1.1-2.3-1-3.7,0.7c-16.5,21.4-32.9,42.9-49.7,64.2
	c-12.3,15.6-24.6,31.2-37.6,46.3c-4.4,5.2-9.2,10.1-14.9,13.8c-2.6,1.7-5.4,3.2-8.4,4.3c-1.2,0.5-2.5,0.5-3.8,0.3
	c-1.7-0.3-3.3-0.7-5-1c-5.7-1.1-10-4.2-13.6-8.5c-6.8-8.1-11.3-17.7-16.2-26.9c-13.2-24.7-24.8-50.2-36.8-75.5
	c-0.4-0.9-0.9-1.2-1.9-1.1c-3.9,0.6-7.5,2.1-11.2,3.5c-0.5,0.2-1,0.3-1.4,0.6c-4.1,2.1-8.5,2.6-13.1,2.1c-2.7-0.3-5.4-0.2-8-0.6
	c-0.7-0.1-1.4,0-2.1,0.4c-10.8,6.7-22.6,8.3-35,6.5c-3.7-0.5-7.3-1.3-10.6-3.1c-0.3-0.2-0.7-0.1-0.8-0.7c1.5-0.1,2.9,0.2,4.4,0.5
	c0.7,0.2,1.5,0.3,2.2,0.6c3.6,1.6,7.4,1.7,11.2,1.5c7.2-0.4,14.3-1.2,21.1-4c2-0.8,3.8-1.9,5.5-3.1c0.8-0.5,1.6-0.8,2.6-0.7
	c3.4,0.3,6.9,0.6,10.3,0.9c5,0.5,9.8-0.2,14.2-2.8c3.2-1.9,6.8-3.1,10.5-3.8c1.4-0.2,2.1,0.1,2.8,1.4c7.3,14.7,14.1,29.6,21.1,44.4
	c7.2,15.1,14.6,30.1,23.3,44.5c3.2,5.3,6.5,10.6,10.4,15.4c2.5,3,5.4,5.5,9.4,6.1c2.1,0.3,4,0.1,5.9-0.9c4.9-2.5,8.7-6.2,12.3-10.3
	c12.3-14.3,24.7-28.5,37-42.8c13.1-15.2,25.3-31.2,37.1-47.4c6.3-8.7,12.7-17.3,19.1-25.9c1.2-1.6,2.5-3,3.9-4.4
	c0.8-0.8,1.7-1.5,2.6-2c2.1-1.2,2.9-1.1,4.7,0.6c3.9,3.7,7.5,7.6,11.6,11.1c3.5,3,7.5,4.6,11.9,5.4c4.3,0.8,8.6,0.6,12.9-0.6
	c0.4-0.1,0.8-0.1,1.1-0.2C497.1,367.1,497.2,367.1,497.4,367.2z"/>
<path class="st2" d="M212.5,262.1c2,2.8,3.8,5.3,5.6,7.8c4.1,5.8,7.9,11.7,11.3,17.9c0.3,0.6,0.5,1.2,0.9,1.8c1,1.7,0.3,3.1-0.8,4.4
	c-1,1.2-2.2,2.1-3.4,3.1c-0.9,0.8-1.8,1.7-2.5,2.7c-0.4,0.5-0.3,1.3-1.2,1.3c-1.2-0.1-2.4,0.3-3.4-0.9c-1.1-1.4-2.2-2.9-2.7-4.6
	c-2.1-7.1-6.9-12.1-12.2-16.8c-7.5-6.7-16.3-11.1-26.1-13.2c-7.1-1.5-14.3-1.5-21.4,0.3c-1.8,0.5-3.6,0.1-5.3-0.1
	c-3.2-0.4-6.5-1.2-9.8-0.6c-6.5,1.2-13,2.6-18.4,7c-2,1.7-3.7,3.7-5.6,5.6c-1.3,1.2-2.5,2.5-3.9,3.5c-0.3,0.2-0.6,0.4-0.9,0.1
	c-0.3-0.3,0-0.6,0.1-0.8c5.1-8.2,11.1-15.4,19.9-19.8c4.9-2.5,10.2-3.9,15.5-2.3c3.9,1.2,7.4,0.1,11-0.3c16.9-1.5,32.6,2,46.7,11.5
	c7.3,4.9,12.7,11.6,16.5,19.6c0.3,0.6,0.3,1.5,1.2,1.6c1.1,0.1,2.1,0,3-0.8c0.6-0.5,0.9-1,0.3-1.8c-2.7-4.2-5.4-8.3-8.1-12.6
	c-2.3-3.7-4.4-7.5-6-11.5c-0.2-0.4-0.3-0.8-0.4-1.2C212.4,262.8,212.5,262.7,212.5,262.1z"/>
<path class="st2" d="M227.2,275.1c-0.8,0.5-1.1,0-1.4-0.5c-5.4-8.1-10.9-16.2-16.3-24.4c-0.7-1.1-1.3-2.2-2.2-3.2
	c-1.1-1.3-1.2-2.6-1-4.1c0.5-3.5,2.3-5.8,5.7-6.8c3.4-1,6.9-1.4,10.4-1.4c12.8-0.1,25.5-0.4,38.3-0.3c16.6,0.1,33.2,0.9,49.6,3.2
	c0.6,0.1,1.1,0.2,1.7,0.4c-3.9,0.4-7.8,0.5-11.7,0.6c-13.2,0.2-26.5-0.4-39.7-0.9c-13.2-0.4-26.4-0.7-39.6,0.1
	c-3.2,0.2-7.1,3.9-7.9,7.4c-0.4,1.6-0.1,3,0.5,4.5c1.7,4.1,4.4,7.6,7,11.2c2.1,3,4.2,6,5.4,9.5C226.8,271.9,227.1,273.5,227.2,275.1
	z"/>
<path class="st2" d="M533.9,230.4c0,2.9-0.7,5.6-1.9,8.1c-2.5,5.4-6,10.3-9.4,15.1c-1,1.3-1.9,2.7-2.9,4.1c-0.9-0.8-1-1.5-0.3-2.6
	c2.2-3.1,4.4-6.2,6.1-9.6c1.1-2.2,1.9-4.5,2.3-7c0.3-1.9-0.7-2.9-2-3.6c-1.4-0.8-3-1-4.5-1.3c-12.9-2.5-25.9-2.7-39-2.6
	c-11.2,0.1-22.4,0.4-33.6,0.9c-14.6,0.7-29.2,1.6-43.8,2.7c-7.2,0.5-14.4,1.1-21.6,1.5c-2.9,0.2-5.8,0-8.6,0c0-0.1,0-0.3,0-0.4
	c4.1-0.4,8.2-0.7,12.3-1.1c11.5-1,23-2,34.5-3c7.5-0.6,15-1,22.5-1.4c9.5-0.6,18.9-1.2,28.4-1.6c9.6-0.5,19.2-0.6,28.8-0.7
	c7.1-0.1,14.2,0.1,21.3,0.1C526.5,228.2,530.1,229.7,533.9,230.4z"/>
<path class="st2" d="M581,351.7c-1.5,1-3.1,1.6-4.7,2.3c-8.6,4-17.3,7.4-26.7,9.2c-8.2,1.6-16.5,2.5-24.8,2.5
	c-3.2,0-6.4-0.3-9.5-0.7c-4.6-0.5-9.2,0.2-13.7,0.7c-0.9,0.1-0.9,0.1-1.5-0.6c2-1.1,4.2-1.5,6.4-1.8c5.6-0.8,11.3-0.5,16.9-0.3
	c3.6,0.1,7.2,0.2,10.8,0.5c6,0.4,11.9-0.7,17.6-2.1c8.9-2.3,17.4-5.5,25.7-9.4c0.5-0.3,1.1-0.5,1.6-0.7
	C580.1,351,580.1,351,581,351.7z"/>
<path class="st2" d="M98.9,376.8c-1.4-1.1-1.8-2.6-2-4.2c-0.5-3.5-0.2-7,0.2-10.6c1.1-8.2,2.2-16.3,4.1-24.4
	c0.5-1.9,1.1-3.8,1.6-5.8c0.2-0.9,0.7-1.3,1.7-0.9c-1.1,3.8-2.1,7.7-3.2,11.5c-1.9,6.9-3.4,13.9-3.4,21.1c0,2.6,0.1,5.1,0.8,7.6
	C99.3,373,99.3,374.9,98.9,376.8z"/>
<path class="st2" d="M344.9,237.4c-10,0.4-20,0.8-30,1.3c-0.2-0.5-0.1-0.9,0-1.4c10,0,20,0,30.1,0
	C344.9,237.3,344.9,237.4,344.9,237.4z"/>
<path class="st2" d="M105,304.4c-1.4-2.8-1.4-5.6-0.6-8.5c0.6-2.1,1.5-4,2.3-5.9c0.1-0.3,0.1-0.7,0.6-0.6c0.5,0.1,0.5,0.5,0.4,0.9
	c-0.1,1-0.2,2-0.5,2.9c-0.9,3.3-1.5,6.6-1.4,10.1C105.9,303.9,105.9,304.4,105,304.4z"/>
<path class="st2" d="M148,379c-0.6-0.5-1.1-0.9-0.6-1.7c2.5-4.4,3.9-9.3,5.4-14.1c0.1-0.2,0.1-0.3,0.3-0.4c0.5,1.1,0.6,1.9,0.3,3.4
	c-0.6,3.4-2.3,6.4-3.8,9.5C149.2,376.9,148.6,377.9,148,379z"/>
<path class="st2" d="M209.1,324.1c0,2.3-0.9,4.1-2,5.8c-0.5,0.8-1.6,0.8-2.6,0.6c-0.4-0.1-0.4-0.5-0.4-0.8c0-0.9,0.3-1.8,0.9-2.4
	C206.2,326.1,207.4,325,209.1,324.1z"/>
<path class="st2" d="M177.6,377.4c-1.2,0.7-2.1,0.2-3-0.4c-2-1.5-4.1-3-6.3-4.4c-0.9-0.6-0.9-1.2-0.5-2.1
	C171.1,372.8,174.3,375,177.6,377.4z"/>
<path class="st2" d="M132.3,389.8c1.5-2.7,7.1-5.5,9.1-4.7C139.2,388.4,135.3,388.2,132.3,389.8z"/>
<path class="st2" d="M305.5,365.3c1.8,0.1,2.6,0.6,3,2.1c0.2,0.8,0.3,1.6,0.4,2.4c0,0.3,0,0.7-0.4,0.8c-0.4,0.2-0.6,0-0.9-0.3
	c-0.4-0.5-0.9-1.1-1.5-1.3c-0.4-0.2-0.4-0.5-0.4-0.8C305.6,367.3,305.6,366.3,305.5,365.3z"/>
<path class="st2" d="M108.5,314.2c-0.9-1.5-1.4-3.1-1.6-4.8c0-0.5,0.1-0.9,0.1-1.4c0.1-0.5,0.3-0.7,0.9-0.7c0.5,0,0.8,0.3,0.9,0.7
	C109.2,310,109,312.1,108.5,314.2z"/>
<path class="st2" d="M366.5,236.9c-6,0.3-11.9,0.7-17.8,0.1C354.6,236.7,360.6,236.4,366.5,236.9z"/>
<path class="st2" d="M164.1,367.6c-0.4,0.3-0.7,0.5-1.1,0.8c-1.9-1.6-3.9-3.2-5.8-4.7c0.1-0.5,0.4-0.7,0.9-0.9
	C160.1,364.3,162,365.9,164.1,367.6z"/>
<path class="st2" d="M339.1,455.8c-0.4-1-0.8-1.8-1-2.7c-0.4-1.5-0.2-1.9,1.3-2.2c0.4-0.1,0.7-0.2,1.1-0.1c0,1.4,0,2.8,0,4.2
	C340.5,455.8,339.8,455.6,339.1,455.8z"/>
<path class="st0" d="M408.9,334c-0.6,3.8-2,6.9-4.1,9.8c-3.8,5.3-9.1,8.7-14.9,11.5c-8.9,4.4-18.5,6.7-28.2,8.4
	c-7.5,1.3-15,2-22.6,2c-5.2,0-10.3-1-15.1-3.1c-4.6-1.9-6.9-5.8-8.9-10c-1.5-3.2-2.5-6.7-3.6-10.1c-0.2-0.7-0.4-1.5-0.7-2.2
	c-1,0-1.8,0.2-2.6,0.6c-7.5,4.6-15,9-22.8,12.9c-7.6,3.8-15.5,6.8-23.9,8.4c-6.4,1.2-13,1.4-19.4,0c-7-1.5-12.6-5.5-17.1-11.1
	c-0.5-0.6-0.8-1.4-1-2.2c-1.4-4.7-2-9.4-1.7-14.3c0.5-7.6,3.1-14.4,8.3-20.1c5.2-5.8,11.2-10.7,18.1-14.4c2.5-1.4,5.2-2,7.9-2.9
	c8.9-2.8,18-4.6,27.3-4.3c6,0.1,12,0.6,17.8,2.9c7.3,2.9,13.1,7.6,17.3,14.3c0.2,0.2,0.3,0.5,0.5,0.7c1.1-0.3,1.7-1.2,2.3-2
	c5.5-6,11.4-11.6,17.9-16.5c8-6,16.8-10,26.8-10.7c10.1-0.7,20,0.3,29.4,4.4c3.9,1.7,7.3,4.2,10.1,7.4c1.4,1.6,2,3.4,2.1,5.5
	c0,1.1-0.3,1.6-1.5,1.9c-5.9,1.2-12,1.4-18,2c-0.8,0.1-1.5-0.1-2.1-0.6c-2.5-1.8-5.1-3.5-8.1-4.5c-4.9-1.7-9.7-1.3-14.5,0.1
	c-5.5,1.6-10.1,5-14.1,8.9c-4.7,4.7-8,10.5-10.7,16.6c-1.5,3.5-1.6,7-1,10.6c1.1,6,3.4,11.4,8.1,15.5c2.4,2.1,5.3,3.1,8.4,3.5
	c4.5,0.5,8.5-1,12.5-2.7c5.2-2.2,9.2-6,13.4-9.6c1.5-1.3,3.2-2.6,4.9-3.7c2.8-1.9,5.9-2.8,9.2-2.9c4.5-0.1,8.9-0.2,13.4-0.3
	C408.2,334,408.4,334,408.9,334z M318.3,312.9c0-0.5-0.5-0.3-0.7-0.6c0-0.1-0.1-0.3-0.1-0.4c0.1-0.8-0.3-1.3-1-1.6
	c-0.6-0.8-1.1-1.7-1.7-2.4c-4.4-5.3-9.9-8.8-16.3-10.9c-4-1.3-8.2-1.6-12.3-1.9c-3.9-0.3-7.9,0-11.8,0.4c-2.4,0.2-4.7,0.8-7.1,1.2
	c-2.7,0.4-5.3,1.1-7.9,1.9c-1,0.1-2,0.3-2.9,0.9c-1.4,0.4-2.8,0.7-4.1,1.2c-4.3,1.9-8.1,4.6-11.9,7.2c-2.2,1.6-3.9,3.7-5.9,5.5
	c-1.8,1.8-3.7,3.6-5.1,5.7c-1.9,2.9-3.3,6.1-4.2,9.5c-0.6,2-1.1,4.1-1.1,6.2c0.1,3.5,0.2,7,0.9,10.5c0.5,2.6,1.5,4.9,3.4,7
	c2.7,2.8,5.9,4.8,9.3,6.5c0.5,0.7,1.4,0.6,2.1,0.9c2.6,0.6,5.2,1.2,7.9,1.2c1.7,0,3.3,0.3,5,0c1.8-0.3,3.6-0.2,5.4-0.2
	c1.1,0.1,2.1,0,3.1-0.4c1.1-0.5,2.3-0.6,3.5-0.9c4.2-1.3,8.5-2.3,12.5-4.2c2.5-1.2,5.1-2.1,7.6-3.4c4.9-2.5,9.7-5.2,14.4-8
	c2.7-1.6,5.5-3,8-5c0.6-0.2,1.2-0.3,1.8-0.5c0.1,0,0.2,0,0.2,0c0.6,0,1.1,0,1.7,0c0.9-0.1,1.4,0.2,1.5,1.2c0.1,0.9,0.3,1.8,0.9,2.5
	c-0.1,0.8,0.3,1.4,0.5,2c1.4,3.7,2.2,7.5,4.5,10.9c2,3,4.4,5.2,7.8,6.5c2.6,1,5.3,1.4,8,1.9c1.4,0.3,3,0.5,4.4,0.4
	c4.7-0.4,9.5-0.1,14.2-0.8c2.3-0.4,4.5-0.5,6.8-0.9c2.9-0.5,5.9-1.1,8.8-1.7c3-0.7,6.1-1.2,9-2.2c4.5-1.5,9.1-3.2,13.3-5.5
	c5.6-3,10.7-6.6,13.9-12.3c0.8-1.4,1.5-2.8,1.6-4.5c-4.5,0.1-8.8,0.3-13.1,0.4c-1.8,0-3.3,0.7-4.8,1.4c-3.2,1.6-6.1,3.9-8.6,6.4
	c-4.6,4.7-10.3,7.7-16.3,10.1c-2.9,1.1-5.9,1.3-9,1c-0.8-0.8-1.7-0.3-2.6-0.4c-1.7-0.3-3.3-1.1-4.7-1.9c-2.2-1.3-4-3-5.5-5
	c-2.6-3.5-4.1-7.3-5.2-11.5c-0.5-1.9-0.2-3.8-0.8-5.6c-0.3-1-0.3-2.2,0-3.2c0.8-2.6,1.8-5.2,3-7.7c2.5-5.3,5.8-9.9,9.7-14.2
	c1.4-1.5,3.2-2.6,4.8-3.9c3.4-2.8,7.2-4.8,11.6-5.9c4.9-1.2,9.7-1.4,14.5,0.3c2.9,1,5.5,2.5,7.9,4.4c0.6,0.4,1.1,0.5,1.7,0.6
	c1.6,0.2,3.1-0.6,4.6-0.5c3.8,0.2,7.5-0.7,11.2-1.1c0.8-0.1,1.7-0.4,1.3-1.5c-0.3-0.8-0.5-1.7-1-2.4c-2.6-3.1-5.7-5.6-9.4-7.3
	c-3.2-1.5-6.5-2.6-10-3.2c-3.9-0.8-7.9-1.3-11.8-1.3c-4-0.1-7.9-0.1-11.9,0.9c-3.8,0.9-7.5,1.8-11,3.5c-1.9,0.9-3.7,2.1-5.6,3.2
	c-2.8,1.7-5.4,3.6-7.9,5.6c-4.2,3.4-8,7.3-11.8,11.1c-1.6,1.6-3,3.5-4.9,4.7C319.8,312.9,319.1,312.9,318.3,312.9L318.3,312.9z"/>
<path class="st0" d="M352.8,319.5c-3.8,0.4-4.1,3.6-4.4,6.1c-0.4,2.8,2.7,3.1,4.5,4.4c-1.1,1.6-2.7,2.8-3.4,4.9c1.4,0,2.6,0,3.9,0
	c0.4-0.9,0.1-2.1,1.2-3c0.3,1.2,0.5,2.2,0.8,3.2c0.9,3.3,0.9,3.2,4.3,3.1c2.4-0.1,4.9-0.1,7.3-0.1c0.7,0,1.2-0.2,1.7-0.6
	c2.4-2,4.7-4.1,7.5-5.5c0.8-0.4,1.6-0.9,2.6-0.8c0,0.2,0.1,0.3,0,0.4c-5.9,7.9-13.1,13.7-23.2,15.2c-4.1,0.6-6.7-1.5-9.3-3.9
	c-2.8-2.6-3.6-6.1-3.7-9.8c-0.2-5.8,1.9-11,4.4-16.1c1.6-3.3,3.6-6.2,5.8-9.2c1-1.3,2.4-2.1,3.6-3c2.2-1.7,4.4-3.2,6.8-4.5
	c5.6-3,10.8-2.4,15.8,1.3c2.1,1.5,4,3.2,5.9,4.9c0.5,0.5,1.1,0.7,1.8,0.7c6.1-0.2,12.1-1.1,17.9-2.4c3.3-0.8,6.3-2.6,9.4-3.9
	c1.2-0.5,2.3-1,3.7-1.6c-0.7,2.6-1.4,5-2.1,7.4c-1.9,6.7-3.8,13.4-6.4,19.9c-0.4,1.1-1,2.1-1.5,3.1c-0.3,0.8-0.8,1.1-1.7,1.1
	c-7.4,0.1-14.9,0.1-22.3-0.6c-0.1,0-0.1-0.1-0.3-0.2c2.5-0.8,4.8-1.8,7.1-2.7c3.1-1.2,5.5-2.8,6.1-6.3c0.2-1.3,0.9-2.5,1.7-3.6
	c0.5-0.7,1-1.6,1.9-1.9c1.7-0.6,2.4-1.7,2-3.6c-1.2-0.1-2.5,0.4-3.7,0.7c-2.2,0.5-4.3,1.1-6.5,1.2c-0.7,0-1.3-0.1-1.8-0.7
	c-2.6-2.9-5.8-4.1-9.6-3.8c-2.6,0.2-4.9-0.5-7-1.9c-0.4-0.3-0.9-0.5-1.3-0.7c-5.6-3.4-10.5-1.1-13.7,2c-2.7,2.5-4.5,5.6-6.6,8.6
	C351.1,318.3,352.4,318.6,352.8,319.5z"/>
<path class="st0" d="M230.5,361c0.1,0.2,0.1,0.3,0.1,0.3c0.4,3.4,0.4,3.4-2.6,5.2c-6.1,3.8-12.6,6.5-19.6,8.1
	c-1.9,0.4-3.7-0.1-5.5-0.8c-4.8-2-9.2-4.7-13.8-7.2c-9-4.9-17.6-10.4-25.6-16.7c-4.9-3.9-9.2-8.5-12-14.2c-1.5-2.9-1.2-5.8,0.1-8.7
	c0.3-0.6,0.7-0.8,1.3-1c4-1.7,8.3-2.8,12.2-5c4-2.3,7.4-5.2,8.9-9.8c0.9-2.9,0.7-5.9-0.2-8.8c-0.3-0.9-1.2-1.7-2-2.3
	c-4-2.8-8.5-3.8-13.3-3.7c-1,0-1.1,0.7-1.3,1.3c-1.7,4.6-3.2,9.3-4.6,13.9c-1.8,6-3.5,12-5.4,18c-0.7,2.3-1,4.7-1.1,7.2
	c0,5.7-0.4,11.3-1.1,16.9c-0.8,6.4-3.9,11.4-9.8,14.6c-4.8,2.6-9.9,4.5-15.4,5.2c-2.5,0.4-5.4-1.6-6.2-4.3c-0.9-3.1-0.7-6.3-0.4-9.5
	c0.6-6.8,2.6-13.4,4.2-20.1c1.9-7.8,4.1-15.5,5.4-23.5c0.5-2.8,0.8-5.7-0.3-8.5c-0.2-0.5-0.3-1.2-0.8-1.4c-1.2-0.8-1-1.9-1-3.1
	c0.2-6.7,3.3-11.9,8.8-15.6c3.4-2.3,7.2-3.5,11.2-4.4c8.6-1.9,17.3-1.8,26-1.1c6.6,0.5,13.2,1.2,19.6,3.1c3.7,1.1,7.2,2.8,10.3,5.3
	c5.1,4.3,6.8,9.8,5.9,16.3c-0.6,4.4-2.6,8.2-4.6,12.1c-1.1,2-2.6,3.5-4.6,4.6c-3.6,2.1-7,4.3-10.7,6.2c-0.9,0.5-1.2,1-1,2.1
	c1.1,4.7,3.8,8.4,7.1,11.7c5,4.9,10.9,8.4,16.8,11.9c4.1,2.4,8.7,2.8,13.2,3.6C222.9,359.8,226.7,360.4,230.5,361z M228.4,364
	c0.5,0,0.8-0.3,0.7-0.8c-0.2-0.7-0.8-0.8-1.4-0.7c-0.6,0-1.2,0-1.8-0.1c-3.9-0.6-7.8-1.2-11.7-2c-1.8-0.3-3.6-0.3-5.3-1.2
	c-2.3-1.1-4.6-2.3-6.8-3.6c-5-3.1-10.1-6.1-14.2-10.4c-2-2.1-4-4.2-5.4-6.7c-1.4-2.4-2.1-5-2.7-7.6c-0.2-0.7-0.1-1.4,0.7-1.8
	c3.9-2.1,7.8-4.2,11.5-6.7c1-0.7,2.4-1,3.1-2c1.6-2.3,2.9-4.7,4.1-7.2c0.9-1.9,1.3-4,1.7-6c0.6-2.8,0.6-5.6-0.4-8.1
	c-2-5.2-6.1-8.4-11.2-10.4c-2.7-1.1-5.4-1.8-8.3-2.4c-2.6-0.5-5.3-0.7-7.9-1.2c-0.8-0.5-1.7-0.5-2.6-0.4c-2.2,0.1-4.3-0.5-6.4-0.6
	c-3.1,0-6.1-0.1-9.2,0c-7.3,0-14.5,1-21.2,4.1c-3.8,1.7-6.6,4.5-8.7,8.1c-1.3,2.2-1.5,4.6-1.9,7c-0.1,0.6-0.2,1.2,0.3,1.8
	c1.7,2.2,2.2,4.8,2,7.6c-0.2,2.6-0.5,5.2-1.1,7.8c-0.4,1.5-0.5,3.1-0.9,4.5c-1,3.4-1.6,6.8-2.5,10.2c-0.5,2.2-1.1,4.3-1.6,6.5
	c-0.7,2.7-1.4,5.3-1.9,8c-0.2,1.1-0.3,2.2-0.7,3.2c-0.8,2.1-0.9,4.4-1.2,6.6c-0.4,2.8-0.3,5.6-0.1,8.4c0.1,2.1,2.4,4.3,4.3,4
	c2-0.3,4-0.5,5.9-1.3c1.8-0.8,3.8-1.2,5.6-2.1c2.4-1.2,4.8-2.4,6.8-4.1c3.6-3,4.7-7.2,5.5-11.6c0.3-1.8,0.2-3.7,0.4-5.5
	c0.4-2.7,0.2-5.6,0.5-8.4c0.3-3.2-0.1-6.4,1.1-9.5c1.2-3.2,1.6-6.6,2.8-9.8c1.4-4,2.5-8.1,3.8-12.1c1.2-3.7,2.4-7.5,3.8-11.2
	c0.2-0.6,0.3-1.6,1.4-1.5c2.3,0.2,4.5-0.1,6.8,0.4c3.3,0.7,6.4,1.8,9.1,3.8c1.4,1,2.6,2.2,2.9,4c0.3,1.5,0.4,3.1,0.5,4.7
	c0,1.1,0.2,2.3-0.2,3.4c-1.2,3.7-3.1,6.9-6.3,9.2c-1.6,1.2-3.1,2.5-5,3.3c-3.4,1.4-6.9,2.8-10.4,4c-0.6,0.2-1.2,0.6-1.3,1.1
	c-0.3,1.6-1,3.1-0.4,4.8c2,5.6,5.9,9.7,10.2,13.6c3,2.8,6.5,5,9.9,7.4c5.6,4,11.5,7.4,17.5,10.8c4.2,2.4,8.5,4.6,12.9,6.8
	c1.6,0.8,3.4,1.2,5.2,0.8c2.2-0.6,4.5-1.1,6.6-1.9c2.5-0.9,5-1.9,7.4-3.2C224.5,366.4,226.4,365.2,228.4,364z"/>
<path class="st0" d="M553.8,333.6c-0.2-0.7-0.8-0.9-1.2-1.2c-7.3-4.9-15.2-8.5-23.4-11.5c-2.1-0.8-4.2-1.6-6.3-2.1
	c-5.9-1.4-10.2-8.2-10.2-13.7c0-3.8,1.2-7.2,3.2-10.3c0.2-0.3,0.4-0.5,0.7-0.7c7.7-5,15.2-10.2,23.7-13.8c7.8-3.2,15.8-4.8,24.2-2.6
	c4,1,7.3,3.4,10.6,5.8c2.9,2.2,5.4,4.8,7.8,7.5c1.1,1.2,1.4,2.4,1.4,3.9c-0.1,2.3,0,2.3-2,3.1c-5,2-9.9,4.4-15.2,5.5
	c-0.7,0.2-1.5,0.3-2.3,0.4c-2.2,0.4-4,0-5.5-2c-1.6-2.2-3.5-4.1-5.8-5.6c-3.5-2.3-7.1-2.6-10.8-0.3c-1.8,1.1-3.5,2.3-5.1,3.6
	c-1,0.8-1,1.9,0.2,2.5c3.3,1.8,6.8,3,10.2,4.6c7.6,3.5,15.5,6.6,22.6,11.3c3.6,2.4,7,5,9.3,8.8c1.1,1.9,1.7,4,1.7,6.3
	c0,0.8-0.3,1.4-0.9,2c-8.1,7-17.6,11.6-27.8,14.5c-9.5,2.7-19.3,4-29.2,4.6c-3.3,0.2-6.6,0.3-9.9,0.5c-0.7,0-1.2-0.2-1.8-0.6
	c-3.9-3-6.9-6.6-7.5-11.6c-0.6-4.7,0.5-8.9,4.5-11.9c0.3-0.3,0.7-0.5,1.1-0.6c4.1-0.5,8.2-1.1,12.3-0.2c3.9,0.8,6.5,3.5,8.2,6.9
	c0.8,1.6,1.7,2.1,3.4,1.9c5.5-0.6,11-1.3,16.2-3.4C551.4,334.9,552.7,334.5,553.8,333.6z M530.2,341c-0.2-1.5-1.1-2.6-1.7-3.7
	c-1.8-3.3-4.4-5.3-8.3-5.6c-2.7-0.2-5.4,0.1-8.1,0.2c-1.1,0-2.2,0.4-3.1,1.4c-1,1.2-1.9,2.3-2.2,3.9c-0.6,2.4-0.7,4.8,0.1,7.3
	c1,3.1,3,5.6,5.5,7.7c0.6,0.5,1.1,0.7,1.8,0.7c2.8-0.1,5.6-0.2,8.4-0.4c6.1-0.4,12.2-1.1,18.3-2.1c3.8-0.6,7.4-1.7,11.1-2.5
	c4.2-1,8.1-2.7,12-4.4c5.3-2.4,10.2-5.6,14.7-9.2c0.8-0.6,1.1-1.3,0.8-2.2c-0.3-1.2-0.6-2.4-1.2-3.6c-1.4-2.9-3.8-4.9-6.3-6.8
	c-3.6-2.7-7.5-4.9-11.6-6.8c-3.9-1.9-7.8-3.7-11.7-5.5c-3.8-1.7-7.7-3.4-11.5-5.1c-0.8-0.3-1.7-0.7-2.1-1.5c-1-2.4-0.6-3.3,1.5-4.8
	c0.2-0.2,0.5-0.4,0.7-0.5c2.7-2.1,5.4-4,8.8-4.7c2.6-0.5,4.9,0,7.2,1.3c3.1,1.8,5.5,4.3,7.7,7c0.9,1.1,1.8,1.3,3,1.1
	c2.2-0.5,4.5-0.8,6.6-1.6c3.5-1.2,6.9-2.7,10.4-4.2c1.4-0.6,1.8-2.4,0.8-3.6c-1.1-1.3-2.3-2.7-3.5-3.9c-2.6-2.5-5.3-4.8-8.4-6.7
	c-3.8-2.3-7.8-3.5-12.2-3.6c-2,0-4,0-6.1,0.4c-2.1,0.4-4.1,0.9-6.1,1.5c-2.4,0.7-4.7,1.7-6.9,2.7c-2.9,1.3-5.7,2.7-8.4,4.4
	c-3.6,2.3-7.2,4.7-10.9,7c-0.7,0.4-1.5,0.8-1.9,1.6c-1,1.9-1.8,3.7-2.3,5.8c-1,4.5,0.3,8.4,3.3,11.7c1.7,1.8,3.8,2.7,6.2,3.4
	c4.9,1.5,9.7,3.4,14.5,5.5c3.3,1.5,6.6,3.2,9.8,4.8c2.2,1.1,4.2,2.7,6.3,4.1c0.2,0.2,0.4,0.4,0.5,0.7c0.6,1.6-0.1,2.9-1.7,3.6
	c-0.2,0.1-0.4,0.2-0.6,0.3c-2.8,1.1-5.5,2.2-8.5,2.8c-2.1,0.4-4.2,0.8-6.2,1.1C535.8,340.6,533.1,340.8,530.2,341z"/>
<path class="st0" d="M445.5,306.6c3.1,0.9,6.1,0.8,9.1,0.5c0.8-0.1,1.3-0.7,1.9-1.2c6.4-5.3,12.8-10.7,19.9-15.2
	c6-3.8,12.3-6.8,19.3-8.3c3.3-0.7,6.7-0.7,10-0.6c0.2,0,0.5,0,0.7,0.2c0.8,0.5,2.4,4.1,2.2,5c-0.1,0.4-0.4,0.5-0.7,0.7
	c-12.1,8.1-23.3,17.5-34.6,26.5c-1.4,1.1-1.6,2.3-0.7,3.8c1.7,3,4,5.6,6.6,7.9c2.3,2,4.6,4,7,6c3.1,2.6,5.8,5.4,7.8,9
	c0.9,1.7,1.2,3.4,1.1,5.3c0,0.8-0.4,1.2-1,1.4c-5.8,2-11.6,3.6-17.8,3.2c-5.3-0.3-9.8-2.6-14-5.6c-3.5-2.5-6.6-5.3-9.6-8.4
	c-1.6-1.6-3.4-3-4.9-4.7c-0.4-0.5-1-0.7-1.7-0.7c-1.5,0.1-3,0.3-4.4,0.6c-2.6,0.6-3.8,3-4,5.2c-0.3,2.8-1.2,5.6-2,8.3
	c-0.1,0.5-0.6,0.6-0.9,0.8c-3.4,1.7-6.8,3.3-10.2,4.9c-2.1,1-4.1,2.2-6.2,3.3c-2.2,1.1-4.2,0.5-5.4-1.7c-1.4-2.5-1.8-5.3-1.9-8.1
	c-0.1-4.9,0.6-9.8,1.6-14.6c3.2-15.1,8.6-29.4,15.7-43.1c1.5-2.8,3.5-5.1,5.9-7.2c0.7-0.6,1.6-0.8,2.5-0.7c2.7,0.3,5.5,0.5,8.2,1
	c1.9,0.3,3.6,1.1,5.1,2.2c0.9,0.7,1.1,1.7,1.3,2.7c0.4,1.9-0.1,3.6-0.8,5.3c-1.6,4.3-3.4,8.5-4.5,13
	C445.9,304.5,445.7,305.5,445.5,306.6z M413.1,343.7c-0.4,2.5,0.2,5,1.1,7.3c0.8,2.2,1.8,2.8,3.8,1.6c0.7-0.4,1.4-1,2.1-1.4
	c4.3-2.1,8.5-4.1,12.8-6.1c0.3-0.2,0.5-0.4,0.7-0.6c1-0.9,0.9-2.1,1.2-3.2c0.5-1.7,0.9-3.4,1.2-5.1c0.4-2.4,1.5-4.3,3.7-5.4
	c2.6-1.2,5.3-1.1,8-1c0.3,0,0.4,0.2,0.6,0.4c2.6,2.5,5.4,4.9,7.9,7.5c3.2,3.3,6.8,6.1,10.8,8.4c5.1,2.9,10.6,3.4,16.2,2.5
	c2.7-0.4,5.4-1.3,8.1-2c2-0.5,2.3-1.5,1.4-3.4c-1.7-3.7-4.4-6.6-7.4-9.3c-3.8-3.3-7.9-6.3-11.1-10.2c-1.3-1.5-2.5-3.2-3.5-4.9
	c-0.8-1.4-0.5-2.9-0.4-4.4c0-0.4,0.3-0.6,0.6-0.8c3.5-2.4,6.6-5.2,9.9-7.8c4.4-3.5,8.8-7.1,13.3-10.5c3.9-2.9,7.7-5.8,11.7-8.5
	c0.4-0.3,1-0.7,0.6-1.2c-0.5-0.7-0.5-1.8-1.7-1.8c-3.8-0.2-7.6,0.1-11.2,1.2c-4.1,1.2-8.1,2.8-11.8,4.9c-3.7,2.1-7.2,4.4-10.6,7
	c-4.1,3.1-8,6.3-12,9.5c-1.2,0.9-2.2,2.1-3.8,2.6c-2.2,0.6-4.3,0.2-6.5,0.3c-1.7,0.1-3.3-0.6-4.9-1c-0.5-0.1-0.8-0.6-0.6-1.1
	c0.8-3,1.3-6,2.3-9c1.1-3.2,2.4-6.4,3.5-9.6c0.6-1.7,0.3-4.3-0.9-5c-1-0.6-2.1-1-3.2-1.3c-2.2-0.6-4.5-0.5-6.8-0.9
	c-0.9-0.1-2-0.5-2.7,0.2c-1.5,1.3-2.9,2.7-4.1,4.3c-1.4,2-2.3,4.2-3.4,6.4c-1.7,3.3-3.2,6.8-4.5,10.3c-1.3,3.4-2.7,6.9-3.9,10.3
	c-1.8,4.9-3.1,9.9-4.3,14.8c-0.7,2.7-1.3,5.5-1.6,8.3C413.5,338.5,412.7,341.1,413.1,343.7z"/>
<path class="st0" d="M538.9,334.2c-1.5,0.4-2.9-0.3-4.3-1c-4.5-2.1-9-4.2-13.5-6.4c-6-3-11.8-2.6-17.4,1c-2,1.3-4,2.7-6,4.1
	c-1.4,1.1-3.1,0.8-4.2-0.5c-2.6-3.3-5.4-6.4-7.7-10c-1-1.6-1.9-3.3-2.6-5.1c-0.2-0.5-0.3-0.9,0.2-1.4c4-3.6,8.3-6.9,13.5-8.7
	c1.5-0.5,3.1-0.9,4.7-1.2c0.9-0.2,1.4,0.1,1.8,0.9c2.9,4.6,6,9,10,12.7c2.2,2.1,4.7,3.6,7.9,4c5.3,0.8,10.5,1.8,15.3,4.2
	c2.2,1.1,3.9,2.9,5.5,4.7c0.7,0.8-0.1,2.4-1.2,2.5C540.3,334.2,539.6,334.2,538.9,334.2z"/>
<path class="st0" d="M154.9,314.2c0.2-2.4,1-4.9,2-7.4c0.4-1.2,1-2.4,1.4-3.6c0.2-0.7,0.6-1,1.4-1c1.3,0.1,2.6,0.1,3.9,0.5
	c2.6,0.7,5,2.7,3.7,6.6c-1.2,3.5-3.8,5.4-7,6.7c-0.8,0.3-1.7,0.5-2.6,0.8C155.5,317.3,154.9,316.8,154.9,314.2z"/>
<path class="st0" d="M281,248.6c4.3-1.2,8.4-3.1,12.9-3.1c1.4,0,2.4,1.5,2,2.8c-0.1,0.4-0.5,0.4-0.8,0.6c-3.6,1.2-7.4,1.7-11.1,2
	C282.7,250.9,281.6,250,281,248.6z"/>
<path class="st0" d="M268.2,256c3.8,0,7.6,0,11.6,0c-1.8,2.1-3.9,3.1-6.4,3.3c-1.1,0.1-2.2,0.1-3.3-0.3
	C268.1,258.5,267.9,258.2,268.2,256z"/>
<path class="st0" d="M313,285.4c-1.5-2.2-3.7-2.2-5.7-2.5c-0.4-0.1-0.8-0.1-0.9-0.5c-0.1-0.4,0.2-0.7,0.5-0.9c1-1,3-1.4,4.2-0.9
	C312.3,281.1,313.3,283.4,313,285.4z"/>
<path class="st0" d="M254.3,265.5c0.3,1.3-0.9,1.4-1.7,1.7c-0.8,0.3-1.6,0.7-2.2-0.5c-0.1-0.3-0.4-0.5-0.5-0.7
	c-0.4-0.6-1-1.1-0.7-1.8c0.3-0.8,1.2-0.8,2-0.9C252.8,263.1,254.3,264.2,254.3,265.5z"/>
<path class="st0" d="M472.9,272c0.6,3.3,0.4,4.1-1.7,5c0-1.4-0.1-2.8,0-4.1C471.3,272.1,472.2,272.2,472.9,272z"/>
<path class="st0" d="M267.7,270.4c-1.4,0.7-2.7,1.4-4,2C263.4,270.4,264.6,269.7,267.7,270.4z"/>
<path class="st3" d="M354.4,355.3c3.1,0.2,6.1,0.1,9-1c6-2.3,11.7-5.3,16.3-10.1c2.5-2.6,5.4-4.8,8.6-6.4c1.5-0.7,3-1.4,4.8-1.4
	c4.3-0.1,8.6-0.3,13.1-0.4c-0.1,1.7-0.8,3.1-1.6,4.5c-3.2,5.7-8.3,9.3-13.9,12.3c-4.2,2.3-8.8,3.9-13.3,5.5c-2.9,1-6,1.6-9,2.2
	c-2.9,0.6-5.8,1.2-8.8,1.7c-2.2,0.4-4.5,0.5-6.8,0.9c-4.7,0.8-9.5,0.4-14.2,0.8c-1.5,0.1-3-0.1-4.4-0.4c-2.7-0.5-5.4-1-8-1.9
	c-3.4-1.3-5.8-3.5-7.8-6.5c-2.3-3.4-3.1-7.2-4.5-10.9c-0.3-0.7-0.7-1.3-0.5-2c0.2-1.3-0.8-2.4-0.5-3.7c0-0.1-0.1-0.2-0.2-0.3
	c-0.4-0.4-2.9-0.1-3.4,0.4c-0.1,0-0.1,0-0.2,0c-0.9-0.9-1.4-0.5-1.8,0.5c-2.5,2-5.3,3.4-8,5c-4.7,2.8-9.5,5.5-14.4,8
	c-2.5,1.2-5.1,2.2-7.6,3.4c-4,1.9-8.3,2.9-12.5,4.2c-1.2,0.3-2.4,0.4-3.5,0.9c-1,0.2-2.2-0.5-3.1,0.4c-1.8,0.1-3.7-0.1-5.4,0.2
	c-1.7,0.3-3.3,0-5,0c-2.7-0.1-5.3-0.6-7.9-1.2c-0.4-1-1.2-1-2.1-0.9c-3.4-1.7-6.6-3.7-9.3-6.5c-1.9-2-2.9-4.3-3.4-7
	c-0.7-3.5-0.8-7-0.9-10.5c0-2.1,0.5-4.2,1.1-6.2c0.9-3.3,2.3-6.5,4.2-9.5c1.4-2.2,3.3-4,5.1-5.7c1.9-1.9,3.6-3.9,5.9-5.5
	c3.8-2.7,7.6-5.4,11.9-7.2c1.3-0.6,2.7-0.8,4.1-1.2c1.1,0.2,2.1,0,2.9-0.9c2.6-0.8,5.2-1.5,7.9-1.9c2.4-0.4,4.7-1,7.1-1.2
	c3.9-0.4,7.9-0.6,11.8-0.4c4.2,0.3,8.3,0.6,12.3,1.9c6.5,2.1,12,5.6,16.3,10.9c0.6,0.8,1.2,1.6,1.7,2.4c-0.1,0.8,0.2,1.3,1,1.6
	c0,0.1,0.1,0.3,0.1,0.4c-0.1,0.6,0.3,0.6,0.7,0.6c0,0,0,0,0,0c0.7,0.8,1.7,0.7,2.2-0.1c2-1.2,3.3-3.1,4.9-4.7
	c3.8-3.8,7.5-7.8,11.8-11.1c2.5-2,5.1-4,7.9-5.6c1.8-1.1,3.6-2.3,5.6-3.2c3.5-1.7,7.3-2.6,11-3.5c3.9-1,7.9-0.9,11.9-0.9
	c4,0.1,7.9,0.6,11.8,1.3c3.5,0.7,6.8,1.8,10,3.2c3.7,1.7,6.8,4.2,9.4,7.3c0.6,0.7,0.7,1.6,1,2.4c0.4,1.1-0.5,1.4-1.3,1.5
	c-3.7,0.4-7.5,1.3-11.2,1.1c-1.6-0.1-3.1,0.7-4.6,0.5c-0.6-0.1-1.2-0.1-1.7-0.6c-2.4-1.9-5.1-3.4-7.9-4.4c-4.8-1.7-9.6-1.5-14.5-0.3
	c-4.3,1.1-8.1,3.1-11.6,5.9c-1.6,1.3-3.4,2.4-4.8,3.9c-3.9,4.3-7.2,8.9-9.7,14.2c-1.2,2.5-2.2,5.1-3,7.7c-0.3,1-0.3,2.2,0,3.2
	c0.6,1.8,0.3,3.8,0.8,5.6c1.1,4.2,2.6,8,5.2,11.5c1.5,2,3.3,3.7,5.5,5c1.5,0.9,3,1.6,4.7,1.9C352.5,355.9,353.5,355.2,354.4,355.3z
	 M276.8,304c-1.5,0-2.6-0.1-3.6,0c-1.6,0.2-3.3-0.1-4.9,0.6c-4.6,2.2-8.4,5.4-12,9c-2.3,2.3-4.3,4.9-6.2,7.6
	c-2.6,3.6-4.5,7.5-5.8,11.7c-0.9,2.8-1.9,5.6-1.8,8.7c0.1,1.1,0.4,2.1,0.4,3.1c0.1,1.4,0.6,2.9,1.5,3.9c2.8,3.5,6.6,5.5,11,6
	c4.7,0.6,9.3-0.4,13.7-2c4.9-1.7,9.2-4.4,13-7.7c3.5-3,6.3-6.6,8.8-10.5c0.7-1.2,1.4-2.5,2-3.7c0.7-1.4,1-3,1.5-4.5
	c1.3-4,1.2-8,0.1-11.9c-0.4-1.4-0.9-2.9-1.9-4.1c-1.5-1.7-3.1-3.4-5.4-4.3c-1.6-0.6-3.2-1.4-4.9-1.6
	C280.4,304.1,278.4,304,276.8,304z"/>
<path class="st4" d="M309.4,338.5c0.5-0.5,3-0.7,3.4-0.4c0.1,0.1,0.2,0.2,0.2,0.3c-0.3,1.3,0.7,2.4,0.5,3.7
	c-0.6-0.7-0.8-1.6-0.9-2.5c-0.1-1-0.5-1.3-1.5-1.2C310.5,338.5,309.9,338.5,309.4,338.5z"/>
<path class="st4" d="M259.3,298.7c-0.8,0.9-1.8,1.1-2.9,0.9C257.3,299,258.3,298.8,259.3,298.7z"/>
<path class="st4" d="M258.3,360.9c0.9-0.9,2.1-0.3,3.1-0.4C260.4,361,259.4,361,258.3,360.9z"/>
<path class="st4" d="M354.4,355.3c-0.9-0.1-1.9,0.5-2.6-0.4C352.7,355,353.6,354.5,354.4,355.3z"/>
<path class="st4" d="M237.8,359c0.9-0.1,1.7-0.1,2.1,0.9C239.2,359.6,238.4,359.7,237.8,359z"/>
<path class="st4" d="M320.6,312.9c-0.6,0.8-1.6,0.8-2.2,0.1C319.1,312.9,319.8,312.9,320.6,312.9z"/>
<path class="st4" d="M307.4,339c0.4-0.9,0.9-1.4,1.8-0.5C308.6,338.7,308,338.9,307.4,339z"/>
<path class="st4" d="M317.5,312c-0.7-0.3-1.1-0.8-1-1.6C317.2,310.7,317.7,311.2,317.5,312z"/>
<path class="st4" d="M318.3,312.9c-0.4,0-0.8,0-0.7-0.6C317.8,312.6,318.4,312.4,318.3,312.9z"/>
<path class="st3" d="M173,284.9c2.6,0.6,5.3,0.7,7.9,1.2c2.9,0.6,5.6,1.3,8.3,2.4c5.1,2.1,9.2,5.2,11.2,10.4
	c0.9,2.5,0.9,5.3,0.4,8.1c-0.4,2.1-0.8,4.1-1.7,6c-1.2,2.5-2.4,5-4.1,7.2c-0.7,1-2.1,1.4-3.1,2c-3.7,2.4-7.6,4.6-11.5,6.7
	c-0.8,0.4-0.8,1.1-0.7,1.8c0.6,2.6,1.3,5.3,2.7,7.6c1.5,2.5,3.4,4.6,5.4,6.7c4.1,4.3,9.2,7.3,14.2,10.4c2.2,1.4,4.5,2.5,6.8,3.6
	c1.6,0.8,3.5,0.8,5.3,1.2c3.9,0.8,7.8,1.4,11.7,2c0.6,0.1,1.2,0.1,1.8,0.1c0.3,0.5,0.9,0.8,0.8,1.5c-2,1.2-4,2.4-6,3.5
	c-2.4,1.3-4.9,2.3-7.4,3.2c-2.2,0.8-4.4,1.4-6.6,1.9c-1.8,0.5-3.6,0-5.2-0.8c-4.3-2.2-8.6-4.4-12.9-6.8c-6-3.4-11.9-6.9-17.5-10.8
	c-3.4-2.4-6.9-4.6-9.9-7.4c-4.2-3.8-8.2-8-10.2-13.6c-0.6-1.7,0.1-3.2,0.4-4.8c0.1-0.5,0.7-0.9,1.3-1.1c3.5-1.1,7-2.6,10.4-4
	c1.9-0.8,3.4-2.2,5-3.3c3.2-2.3,5.1-5.5,6.3-9.2c0.4-1.1,0.3-2.3,0.2-3.4c-0.1-1.6-0.2-3.1-0.5-4.7c-0.3-1.8-1.5-3-2.9-4
	c-2.7-2-5.8-3.1-9.1-3.8c-2.3-0.5-4.6-0.2-6.8-0.4c-1.1-0.1-1.2,0.9-1.4,1.5c-1.4,3.7-2.6,7.4-3.8,11.2c-1.3,4-2.4,8.1-3.8,12.1
	c-1.1,3.2-1.6,6.6-2.8,9.8c-1.1,3.1-0.7,6.3-1.1,9.5c-0.3,2.8-0.1,5.6-0.5,8.4c-0.3,1.9-0.1,3.7-0.4,5.5c-0.8,4.3-1.9,8.5-5.5,11.6
	c-2.1,1.7-4.4,2.9-6.8,4.1c-1.8,0.9-3.8,1.3-5.6,2.1c-1.9,0.8-3.9,1-5.9,1.3c-1.9,0.3-4.1-1.9-4.3-4c-0.2-2.8-0.3-5.6,0.1-8.4
	c0.3-2.2,0.4-4.4,1.2-6.6c0.4-1,0.5-2.1,0.7-3.2c0.5-2.7,1.2-5.4,1.9-8c0.6-2.1,1.1-4.3,1.6-6.5c0.9-3.4,1.6-6.8,2.5-10.2
	c0.4-1.5,0.5-3,0.9-4.5c0.6-2.6,0.9-5.2,1.1-7.8c0.2-2.8-0.3-5.4-2-7.6c-0.5-0.6-0.4-1.2-0.3-1.8c0.4-2.4,0.7-4.8,1.9-7
	c2.1-3.6,4.9-6.3,8.7-8.1c6.8-3.1,13.9-4,21.2-4.1c3.1,0,6.1,0,9.2,0c2.2,0,4.2,0.7,6.4,0.6C171.2,285.3,172.2,284.7,173,284.9z"/>
<path class="st4" d="M228.4,364c0.2-0.7-0.4-1.1-0.8-1.5c0.6-0.1,1.2,0,1.4,0.7C229.2,363.7,229,364,228.4,364z"/>
<path class="st4" d="M173,284.9c-0.9-0.2-1.9,0.4-2.6-0.4C171.3,284.4,172.2,284.3,173,284.9z"/>
<path class="st3" d="M530.2,341c2.9-0.2,5.6-0.5,8.4-0.9c2.1-0.3,4.2-0.7,6.2-1.1c3-0.6,5.7-1.7,8.5-2.8c0.2-0.1,0.4-0.2,0.6-0.3
	c1.7-0.7,2.3-1.9,1.7-3.6c-0.1-0.3-0.3-0.5-0.5-0.7c-2.1-1.4-4.1-3-6.3-4.1c-3.2-1.7-6.5-3.4-9.8-4.8c-4.7-2.1-9.5-3.9-14.5-5.5
	c-2.4-0.7-4.5-1.6-6.2-3.4c-3-3.3-4.3-7.2-3.3-11.7c0.4-2.1,1.3-4,2.3-5.8c0.4-0.8,1.2-1.2,1.9-1.6c3.7-2.3,7.2-4.7,10.9-7
	c2.7-1.7,5.5-3.1,8.4-4.4c2.3-1,4.5-2,6.9-2.7c2-0.6,4-1.1,6.1-1.5c2-0.4,4-0.4,6.1-0.4c4.4,0,8.4,1.3,12.2,3.6
	c3.1,1.9,5.8,4.2,8.4,6.7c1.3,1.2,2.4,2.6,3.5,3.9c1,1.2,0.6,3-0.8,3.6c-3.4,1.4-6.9,2.9-10.4,4.2c-2.1,0.8-4.4,1.1-6.6,1.6
	c-1.2,0.2-2.1,0-3-1.1c-2.2-2.7-4.6-5.2-7.7-7c-2.2-1.3-4.6-1.8-7.2-1.3c-3.4,0.6-6.1,2.6-8.8,4.7c-0.2,0.2-0.5,0.4-0.7,0.5
	c-2.1,1.5-2.4,2.4-1.5,4.8c0.3,0.8,1.3,1.2,2.1,1.5c3.8,1.7,7.7,3.4,11.5,5.1c3.9,1.8,7.8,3.6,11.7,5.5c4.1,1.9,8,4.2,11.6,6.8
	c2.5,1.9,4.9,3.9,6.3,6.8c0.6,1.1,0.8,2.4,1.2,3.6c0.3,0.9,0,1.6-0.8,2.2c-4.5,3.6-9.4,6.9-14.7,9.2c-3.9,1.7-7.8,3.4-12,4.4
	c-3.7,0.9-7.4,1.9-11.1,2.5c-6.1,1-12.1,1.7-18.3,2.1c-2.8,0.2-5.6,0.3-8.4,0.4c-0.7,0-1.3-0.2-1.8-0.7c-2.5-2.1-4.5-4.5-5.5-7.7
	c-0.8-2.4-0.6-4.8-0.1-7.3c0.3-1.5,1.2-2.7,2.2-3.9c0.8-1,2-1.4,3.1-1.4c2.7-0.1,5.4-0.4,8.1-0.2c4,0.3,6.5,2.4,8.3,5.6
	C529.1,338.5,530,339.5,530.2,341z"/>
<path class="st3" d="M413.1,343.7c-0.4-2.7,0.3-5.2,0.5-7.8c0.2-2.8,0.9-5.6,1.6-8.3c1.3-5,2.5-10,4.3-14.8
	c1.3-3.5,2.6-6.9,3.9-10.3c1.3-3.5,2.8-6.9,4.5-10.3c1.1-2.1,2-4.4,3.4-6.4c1.2-1.6,2.6-3,4.1-4.3c0.7-0.7,1.8-0.3,2.7-0.2
	c2.3,0.4,4.6,0.3,6.8,0.9c1.1,0.3,2.3,0.7,3.2,1.3c1.2,0.7,1.4,3.3,0.9,5c-1.1,3.2-2.3,6.4-3.5,9.6c-1.1,2.9-1.6,6-2.3,9
	c-0.1,0.5,0.1,1,0.6,1.1c1.6,0.4,3.2,1.1,4.9,1c2.2-0.1,4.3,0.3,6.5-0.3c1.6-0.5,2.6-1.6,3.8-2.6c4-3.2,7.9-6.5,12-9.5
	c3.4-2.5,6.9-4.8,10.6-7c3.7-2.2,7.7-3.7,11.8-4.9c3.6-1.1,7.4-1.4,11.2-1.2c1.2,0.1,1.2,1.2,1.7,1.8c0.4,0.5-0.2,0.9-0.6,1.2
	c-4,2.7-7.8,5.6-11.7,8.5c-4.5,3.4-8.9,6.9-13.3,10.5c-3.3,2.6-6.4,5.4-9.9,7.8c-0.3,0.2-0.6,0.4-0.6,0.8c-0.1,1.5-0.3,3,0.4,4.4
	c1,1.8,2.2,3.4,3.5,4.9c3.3,3.9,7.3,6.9,11.1,10.2c3,2.6,5.8,5.5,7.4,9.3c0.9,1.9,0.6,2.9-1.4,3.4c-2.7,0.7-5.3,1.6-8.1,2
	c-5.6,0.9-11.1,0.4-16.2-2.5c-4-2.3-7.6-5-10.8-8.4c-2.5-2.6-5.3-5-7.9-7.5c-0.2-0.2-0.3-0.4-0.6-0.4c-2.7-0.1-5.5-0.2-8,1
	c-2.2,1.1-3.3,3-3.7,5.4c-0.3,1.7-0.7,3.4-1.2,5.1c-0.3,1.1-0.2,2.3-1.2,3.2c-0.2,0.2-0.4,0.5-0.7,0.6c-4.3,2-8.5,4.1-12.8,6.1
	c-0.7,0.4-1.4,0.9-2.1,1.4c-2,1.2-3,0.5-3.8-1.6C413.3,348.7,412.7,346.2,413.1,343.7z"/>
<path class="st0" d="M276.8,304c1.6,0,3.6,0,5.5,0.3c1.7,0.3,3.3,1,4.9,1.6c2.2,0.9,3.8,2.5,5.4,4.3c1,1.2,1.6,2.6,1.9,4.1
	c1,4,1.2,8-0.1,11.9c-0.5,1.5-0.8,3.1-1.5,4.5c-0.6,1.3-1.3,2.5-2,3.7c-2.4,3.9-5.3,7.5-8.8,10.5c-3.9,3.3-8.1,6-13,7.7
	c-4.5,1.5-9,2.6-13.7,2c-4.4-0.6-8.1-2.6-11-6c-0.9-1.1-1.3-2.5-1.5-3.9c-0.1-1-0.4-2-0.4-3.1c-0.2-3.1,0.8-5.9,1.8-8.7
	c1.4-4.1,3.2-8.1,5.8-11.7c1.9-2.6,3.9-5.2,6.2-7.6c3.6-3.6,7.4-6.8,12-9c1.5-0.7,3.2-0.4,4.9-0.6C274.3,303.9,275.3,304,276.8,304z
	 M276.4,306c-1.2,0-2.4,0-3.6,0c-2.3,0-4.4,0.6-6.4,1.9c-3.1,2-5.8,4.4-8.4,7c-6.3,6.2-10.5,13.5-12.9,22c-0.7,2.5-0.7,5.1-0.3,7.6
	c0.3,1.7,1.1,3.3,2.4,4.5c4.2,3.8,9.4,4.6,14.6,3.7c10-1.7,18.2-6.8,24.4-15c4.5-6,7.7-12.4,6.9-20.2c-0.4-3.9-2.2-7-5.6-9
	C284.1,306.4,280.3,305.7,276.4,306z"/>
<path class="st1" d="M276.4,306c4-0.3,7.7,0.4,11.2,2.4c3.5,2,5.2,5.2,5.6,9c0.8,7.8-2.4,14.2-6.9,20.2c-6.2,8.2-14.4,13.2-24.4,15
	c-5.2,0.9-10.4,0.2-14.6-3.7c-1.4-1.2-2.2-2.8-2.4-4.5c-0.4-2.5-0.4-5,0.3-7.6c2.4-8.5,6.6-15.8,12.9-22c2.6-2.6,5.4-4.9,8.4-7
	c2-1.3,4.1-1.9,6.4-1.9C274,306,275.2,306,276.4,306z M287.9,322.5c-0.2-3.6-0.6-5.5-2.2-8.4c-2-3.5-4.8-5.9-8.9-6.6
	c-2.3-0.4-4.6,0.1-6.7,0.9c-4.4,1.7-8,4.6-11.2,8c-2.4,2.5-2.4,2.5-1.3,5.8c2.2,6.7,5.2,13,8.8,19c0.4,0.7,0.8,1.5,1.8,1.4
	c3.8-0.3,7.5-1,10.7-3.2C284.8,335.4,288.2,329.9,287.9,322.5z"/>
<path class="st0" d="M287.9,322.5c0.2,7.4-3.1,12.9-9,17c-3.2,2.2-6.9,2.9-10.7,3.2c-1,0.1-1.4-0.7-1.8-1.4c-3.7-6-6.6-12.4-8.8-19
	c-1.1-3.3-1.1-3.3,1.3-5.8c3.2-3.4,6.7-6.4,11.2-8c2.2-0.8,4.4-1.3,6.7-0.9c4.1,0.7,6.9,3.1,8.9,6.6
	C287.4,317,287.8,318.9,287.9,322.5z M286.2,324.9c0-5.5-2-9.7-4.8-13.6c-1.1-1.6-2.4-1.9-4.1-1.6c-3.2,0.6-5.8,2.3-8.5,3.9
	c-1,0.6-1.5,1.3-1.6,2.5c-0.1,1.4-0.4,2.7-0.6,4c-0.3,2.3-0.9,4.5-0.9,6.8c-0.1,4.8,2.2,8.6,5.7,11.7c0.3,0.2,0.5,0.4,0.9,0.4
	c3.2-0.3,6.2-1,8.8-3C284.8,333.1,286,328.9,286.2,324.9z"/>
<path class="st1" d="M286.2,324.9c-0.2,4-1.4,8.2-5.2,11.2c-2.6,2-5.6,2.7-8.8,3c-0.4,0-0.6-0.2-0.9-0.4c-3.5-3.1-5.7-6.9-5.7-11.7
	c0-2.3,0.6-4.5,0.9-6.8c0.2-1.3,0.5-2.7,0.6-4c0.1-1.2,0.6-1.9,1.6-2.5c2.7-1.7,5.3-3.3,8.5-3.9c1.7-0.3,3,0,4.1,1.6
	C284.2,315.2,286.2,319.4,286.2,324.9z"/>
</svg>
