<?xml version="1.0" encoding="utf-8"?>
<!-- Generator: Adobe Illustrator 19.2.1, SVG Export Plug-In . SVG Version: 6.00 Build 0)  -->
<svg version="1.1" id="Layer_1" xmlns="http://www.w3.org/2000/svg" xmlns:xlink="http://www.w3.org/1999/xlink" x="0px" y="0px"
	 viewBox="0 0 700 700" style="enable-background:new 0 0 700 700;" xml:space="preserve">
<style type="text/css">
	.st0{fill:#EC2F26;}
	.st1{fill:#6B298A;}
	.st2{fill:#FDFEFD;}
	.st3{fill:#FE6960;}
</style>
<path class="st0" d="M273,151c53.3,0,106.7,0,160,0c1.1,1,2.3,1.6,3.8,1.8c15.5,2.2,28.1,9.2,37.5,21.9c6.8,9.1,10.9,19.2,12.8,30.3
	c-0.4,1.4-0.5,2.7,0.6,3.8l0.1,0.4c0,0.8-0.1,1.6-0.1,2.5c0,47,0,93.9,0,140.9c-1.3,0.2-2.6,0.5-3.9,0.5c-21.6,0-43.2,0-64.8,0
	c-0.4-4.1-2-7.3-6.3-8.3c-5-1.3-8.6,0.7-11.1,5c-0.1,3.3-2.3,3.4-4.8,3.4c-9.6-0.1-19.2,0-28.8,0c-1.5-7.2-5.9-10.3-11.9-8.3
	c-4,1.4-5.1,4.8-6,8.4c-10.8-0.1-21.6-0.3-32.5-0.4c-1.8-6-4.8-8.7-9.5-8.5c-5.4,0.2-7.7,3.7-8.7,8.6c-19.6,0-39.2,0.1-58.9,0.1
	c-1.3,0-2.5-0.6-3.8-1c11.7-4.4,23.9-7.4,35.9-10.9c7.4-2.2,7.7-2.6,4.8-10.4c-9.2-0.2-18.3,2.1-27.6,2.3
	c-5.3-0.8-10.5,0.8-16.1,0.8c0.3-1.2,0.6-2.1,0.9-3c4.3-4.8,10-7.8,14.7-12c5.6-5,11.7-9.6,17.5-14.4c-1.7-2.9-2.9-5.2-5.2-7
	c-13.6,7.3-27.1,14.6-40.6,21.8c-0.3-0.3-0.5-0.7-0.8-1c7.2-13.4,14.5-26.8,21.7-40.2c-2.1-2.3-4.3-3.8-6.7-4.9
	c-7,6.3-11.2,15.3-19.6,21.4c-0.3-2.1-0.6-2.9-0.6-3.7c0-26.5-0.4-53,0.2-79.4c0.2-11.9,3.3-23.6,10.6-33.2
	c10.9-14.4,25.8-22.7,43.7-25.2C271.3,152.8,272.3,152.2,273,151z M325.2,278.8c-0.4-1.1-0.8-2.2-1.1-3.3
	c-6.9-24.1-11.4-48.6-14.9-73.3c-0.6-4-1.9-5-5.6-4.9c-7.8,0.2-15.7,0.1-23.5,0.1c-7.6,0-8,0.3-6.6,8c2.3,12.8,4,25.8,7.2,38.5
	c6.1,24,12.1,48,21.6,71c1.3,3,2.9,4,5.9,3.9c10.8-0.1,21.7-0.2,32.5,0c3,0,4.4-1.2,5.4-3.9c3.2-8.4,6.3-16.8,8.7-25.4
	c1-3.4,2.1-6.8,3.3-11c4.5,12.6,8.7,24.3,12.8,35.9c1.1,3.2,2.8,4.4,6.2,4.3c8.8-0.2,17.7-0.1,26.5-0.1c10.1,0,10,0,13.5-9.5
	c11.5-31.1,19.5-63.2,25.4-95.8c0.9-5,2.5-10,1.3-15.6c-11.7,0-23.2,0-34.9,0c-4,27.5-9.1,54.3-17,82.2c-1.2-3.5-2.1-5.6-2.6-7.7
	c-6.3-23.5-11.9-47.1-14.9-71.3c-0.2-1.9-0.5-3.6-3.1-3.6c-9.1,0-18.2,0-27.6,0C339.7,225.2,334.4,252.4,325.2,278.8z"/>
<path class="st1" d="M236.9,352.1c1.3,0.3,2.5,1,3.8,1c19.6,0,39.2,0,58.9-0.1c1.4,6.1,4.1,8.9,8.8,8.9c4.9,0,7.7-2.6,9.4-8.9
	c10.8,0.1,21.6,0.3,32.5,0.4c0.5,1.4,0.7,3,1.6,4.1c2.1,2.6,4.3,6.4,8.1,5.2c4.2-1.4,8.2-3.9,8.1-9.5c9.6,0,19.2,0,28.8,0
	c2.5,0,4.7-0.1,4.8-3.4c-0.3,7.3,2,11.4,6.5,11.9c6.1,0.7,9.7-2.1,10.9-8.6c21.6,0,43.2,0,64.8,0c1.3,0,2.6-0.3,3.9-0.5
	c0.3,0.3,0.5,0.6,0.8,0.9c0,45.8,0.3,91.6,0,137.4c-0.2,28-18.4,50.2-45.5,57.4c-2.2,0.6-4.5,0.8-6.1,2.8c-57.7,0-115.3,0-173,0
	c-2.1-1-4.2-2.1-6.4-2.8c-28.2-8.7-41.4-36.3-42-61.2c-0.6-24.3-0.1-48.6-0.1-72.9c0-1.3-0.8-3,1.5-4.1c5.6,8,12,15.5,18.4,22.9
	c2.2-1.3,3.9-2.2,5.5-3.3c1-0.7,2.3-1.5,1-3c-3.3-3.7-4.4-8.6-6.9-12.8c-5.1-8.6-10.3-17.3-14-26.7l0,0c3.7,0.2,6.3,2.7,9.3,4.2
	c10.7,5.6,21.2,11.4,31.8,17.2c2.1-2.4,3.7-4.4,4.9-7.3c-12.2-9.8-24.4-19.7-36.6-29.6c0.1-0.3,0.3-0.7,0.4-1
	c15.6,1.6,31.2,3.2,46.7,4.8c2.5-8.5,2.5-8.5-5.2-10.9c-1.7-0.5-3.5-1-5.3-1.5c-9.8-3-19.7-5.9-29.5-8.9
	C236.6,353.8,234.2,353.8,236.9,352.1z M373.8,508.7c4.2-27.6,9.2-54.8,18.1-81.1c8.2,26.6,13.1,53.8,17.1,81.1
	c11.9,0,23.3,0,34.8,0c0.8-3.9,0.4-7.6-0.3-11.1c-2.5-12.7-4.8-25.5-7.7-38.1c-5.2-22.9-11.6-45.4-20.4-67.2
	c-1.3-3.1-2.9-4.5-6.5-4.4c-10.7,0.3-21.3,0.2-32,0c-3.2-0.1-4.8,1.1-5.8,4c-3.8,11.2-7.8,22.3-11.8,33.6c-3.1-0.9-2.7-3.6-3.2-5.3
	c-2.8-9.8-6.3-19.2-9.9-28.7c-1-2.6-2.4-3.5-5.1-3.5c-9.8,0.1-19.7,0.5-29.5-0.1c-6-0.3-8.6,1.8-10.6,7.4
	c-11.4,31.5-19.9,63.8-25.7,96.8c-1,5.5-2.6,10.9-1.6,17.1c11.1,0,21.9,0,32.7,0c2.3,0,2.6-1.4,2.9-3.2c1.9-11.7,3.7-23.3,5.9-34.9
	c2.7-14.5,6-28.8,10.8-43c8.3,26.4,14,53.4,18,80.8C354.1,508.7,363.8,508.7,373.8,508.7z"/>
<path class="st2" d="M325.2,278.8c9.2-26.4,14.5-53.6,18.4-81.4c9.4,0,18.5,0,27.6,0c2.6,0,2.8,1.7,3.1,3.6
	c3.1,24.2,8.6,47.8,14.9,71.3c0.6,2.1,1.4,4.2,2.6,7.7c7.9-27.9,13-54.7,17-82.2c11.7,0,23.3,0,34.9,0c1.2,5.6-0.4,10.6-1.3,15.6
	c-5.9,32.6-13.9,64.7-25.4,95.8c-3.5,9.5-3.4,9.5-13.5,9.5c-8.8,0-17.7-0.1-26.5,0.1c-3.4,0.1-5.1-1.1-6.2-4.3
	c-4-11.7-8.2-23.3-12.8-35.9c-1.2,4.1-2.3,7.5-3.3,11c-2.5,8.6-5.5,17.1-8.7,25.4c-1,2.7-2.4,3.9-5.4,3.9c-10.8-0.2-21.7-0.1-32.5,0
	c-3,0-4.7-0.9-5.9-3.9c-9.5-23-15.6-47-21.6-71c-3.2-12.7-4.9-25.6-7.2-38.5c-1.4-7.7-0.9-8,6.6-8c7.8,0,15.7,0.1,23.5-0.1
	c3.7-0.1,5,1,5.6,4.9c3.5,24.7,8,49.3,14.9,73.3C324.5,276.6,324.9,277.7,325.2,278.8z"/>
<path class="st2" d="M368.1,353.1c0.1,5.6-3.9,8.1-8.1,9.5c-3.8,1.2-6-2.6-8.1-5.2c-0.9-1.1-1.1-2.7-1.6-4.1c0.9-3.6,2-7,6-8.4
	C362.1,342.8,366.6,345.9,368.1,353.1z"/>
<path class="st2" d="M419.1,353.1c-1.3,6.5-4.9,9.4-10.9,8.6c-4.5-0.5-6.8-4.6-6.5-11.9c2.5-4.3,6.1-6.3,11.1-5
	C417.1,345.9,418.7,349,419.1,353.1z"/>
<path class="st2" d="M317.8,352.9c-1.7,6.3-4.5,9-9.4,8.9c-4.7,0-7.4-2.8-8.8-8.9c0.9-4.8,3.2-8.4,8.7-8.6
	C313,344.2,316,346.9,317.8,352.9z"/>
<path class="st3" d="M487.9,209.3c1.4,1.5,1,3.5,1,5.2c0,45.2,0,90.3,0,135.5c0,1.2-0.2,2.3-0.3,3.5c-0.3-0.3-0.5-0.6-0.8-0.9
	c0-47,0-93.9,0-140.9C487.8,210.9,487.9,210.1,487.9,209.3z"/>
<path class="st3" d="M250,333.1c-6.2,1.9-12.6,1.6-19.2,2.5c-0.1-3.2,1.2-4.7,3.9-4.7c-0.3,0.9-0.5,1.8-0.9,3
	C239.5,333.9,244.8,332.3,250,333.1z"/>
<path class="st3" d="M487.2,205.1c0.8,1.2,1.2,2.4,0.6,3.8C486.7,207.8,486.8,206.4,487.2,205.1z"/>
<path class="st2" d="M373.8,508.7c-10,0-19.8,0-29.9,0c-4.1-27.4-9.7-54.4-18-80.8c-4.9,14.1-8.1,28.5-10.8,43
	c-2.2,11.6-4,23.3-5.9,34.9c-0.3,1.8-0.6,3.2-2.9,3.2c-10.8,0-21.6,0-32.7,0c-1-6.1,0.7-11.6,1.6-17.1c5.9-33,14.3-65.3,25.7-96.8
	c2-5.6,4.6-7.7,10.6-7.4c9.8,0.6,19.7,0.2,29.5,0.1c2.8,0,4.1,0.9,5.1,3.5c3.6,9.5,7.1,19,9.9,28.7c0.5,1.8,0.2,4.4,3.2,5.3
	c4-11.3,8-22.4,11.8-33.6c1-2.9,2.6-4.1,5.8-4c10.7,0.2,21.3,0.3,32,0c3.7-0.1,5.3,1.3,6.5,4.4c8.8,21.8,15.3,44.3,20.4,67.2
	c2.9,12.6,5.2,25.4,7.7,38.1c0.7,3.6,1.1,7.2,0.3,11.1c-11.5,0-22.9,0-34.8,0c-4-27.4-8.9-54.5-17.1-81.1
	C383,453.9,378,481.1,373.8,508.7z"/>
<path class="st1" d="M221,387c-0.2-0.1-0.4-0.2-0.6-0.3c0.1-0.1,0.2-0.2,0.3-0.3C220.8,386.6,220.9,386.8,221,387
	C221,387,221,387,221,387z"/>
</svg>
