<?xml version="1.0" encoding="utf-8"?>
<!-- Generator: Adobe Illustrator 19.2.1, SVG Export Plug-In . SVG Version: 6.00 Build 0)  -->
<svg version="1.1" xmlns="http://www.w3.org/2000/svg" xmlns:xlink="http://www.w3.org/1999/xlink" x="0px" y="0px"
	 viewBox="0 0 3375 2385" style="enable-background:new 0 0 3375 2385;" xml:space="preserve">
<style type="text/css">
	.st0{display:none;}
	.st1{fill:#4D4D4D;}
	.st2{fill:#5A5A5A;}
	.st3{fill:#7F8080;}
	.st4{fill:#87995B;}
	.st5{display:none;fill:#87995B;}
	.st6{opacity:0.28;}
	.st7{fill:#010202;}
	.st8{fill:#2F323B;}
	.st9{fill:#78797A;}
	.st10{fill:#C5C5C7;}
	.st11{fill:#717070;}
	.st12{fill:#95AA39;}
	.st13{opacity:0.27;}
	.st14{fill:#2B2D3D;}
	.st15{display:inline;fill:#5E5E5E;}
	.st16{display:inline;}
	.st17{fill:#5E5E5E;}
</style>
<g id="map_A1">
	<g id="Layer_1" class="st0">
		
			<image style="display:inline;overflow:visible;" width="1170" height="704" xlink:href="59CF58827E8B2975.png"  transform="matrix(-1.020000e-03 -0.6088 0.6092 -1.019000e-03 1010.8452 -1437.542)">
		</image>
	</g>
	<g id="Layer_6">
		<rect x="-3" y="-2840" class="st1" width="2413" height="1715"/>
		<rect y="-118" class="st2" width="3379" height="2538"/>
	</g>
	<g id="Layer_7">
	</g>
	<g id="streets">
		<polygon class="st3" points="1697.1,-3316.4 1669.2,-3241.2 1802.1,-2885 1851.5,-2845.3 1667.5,-2772.8 1545.7,-2694 
			1380.1,-2819.7 1217.5,-2995.9 1150,-2913.1 1470.7,-2639.8 1312,-2418 1180.3,-1983.7 784.4,-2018.3 758,-1925.7 1181,-1902.6 
			1163.6,-1819.3 1162.2,-1604.9 1372.6,-1401.3 1403.8,-1497.8 1229.6,-1715.6 1257.6,-1961 1474.7,-2524.2 1692.7,-2702 
			2118.5,-2801.7 1909.8,-2923.1 1795,-3323.2 		"/>
		<polyline class="st3" points="1458.5,-2520.1 1649.8,-2408.5 1689,-2478 1731.6,-2489 1957.8,-2682.3 2028.5,-2789.8 
			2118.5,-2801.7 1996.5,-2593.7 1768.7,-2442.9 1887.3,-2339.3 1884.2,-2262.6 1896.8,-2192.2 1866,-2011.1 1866,-2011.1 
			2029.4,-2041.4 2100.3,-2065.9 2128,-1968.3 2155.3,-1860.3 1891.6,-1787.9 1517,-1680.6 1492.8,-1796 1348.1,-1886.7 
			1214.3,-1897.2 1212.7,-2003.8 1317.7,-1941.1 1583.8,-2353.4 1423.7,-2450.5 		"/>
		<polyline class="st3" points="2010.4,-2864.6 2219.3,-2887.8 2271.6,-2905.8 2408.3,-2929.1 2658.3,-2925 2666.6,-3357.5 
			2768.3,-3358 2764.8,-3127 2730,-2922.1 2764.7,-2863.3 2788.7,-2787.2 2866.7,-2161.7 2869.7,-2085.2 2874.1,-1998.4 
			2839.7,-1901.5 2820.1,-1961.6 2779.4,-1968.3 2771.3,-2065.5 2695.7,-2176.6 2660,-2376.9 2741.5,-2643.2 2718.1,-2732.4 
			2669.9,-2856.1 2398.5,-2869.9 2185.6,-2821.1 2118.5,-2801.7 2010.4,-2864.6 		"/>
		<polygon class="st3" points="1866,-2302.6 1932.1,-2291.9 1996.2,-2323 1900.4,-2419.6 2130.4,-2659.6 2172.1,-2599.2 
			2235.1,-2624 2333.1,-2608 2535.6,-2661.9 2593.9,-2716.7 2718.1,-2732.4 2741.5,-2643.1 2569,-2610.4 2580,-2445.3 2359,-2425.6 
			2399.9,-2156.8 2404.8,-2090.2 2507.7,-2127.6 2695.5,-2175.7 2771,-2063.7 2652,-2034.1 2605.4,-2042.3 2128,-1968.3 
			2100.3,-2065.9 2353.1,-2102.5 2308.8,-2288.2 2212.7,-2265.9 2231.4,-2194.5 2078,-2162.3 2100.3,-2065.9 2029.4,-2041.4 
			2024.4,-2129.5 1941.2,-2101.4 1954.5,-2182.7 1846.8,-2185.1 		"/>
		<polygon class="st3" points="1490.8,-1831.4 1439.6,-1664 1382.1,-1466.8 1338.6,-1193 1319,-1086.1 1245.7,-1104.5 
			1195.4,-1037.1 681.4,-1099.2 346.2,-1093.1 367.1,-1032.5 1059.7,-947.9 1284.3,-956.8 1392,-1066.7 1410.1,-1177.7 
			1440.9,-1366.4 1663.5,-1353.8 1836.5,-1346.1 1805.7,-962.8 1882,-973.2 1881.3,-1338.3 2051.2,-1349.1 2188.7,-1366.5 
			2414.8,-1413.5 2501.5,-1431.3 2473,-1496.1 2429.7,-1520.2 2279.3,-1505.5 2140.2,-1458.3 2092.6,-1580 1974.4,-1555.3 
			1945.4,-1657.5 1976.8,-1663.9 1954.5,-1853.6 1876.4,-1849.8 1906.6,-1560.1 1913.2,-1495.4 2011.3,-1501.2 2029.8,-1416.5 
			1832.7,-1406.2 1736.1,-1406.8 1619.5,-1419.5 1549.4,-1425.9 1449,-1433.5 1517.3,-1680.6 1612.1,-1740.1 		"/>
		<polyline class="st3" points="2765,-2862.2 2881.1,-2877.5 3020.4,-2769.4 3079.5,-2546.4 3294.2,-2601.4 3351.8,-2383.6 
			3264.4,-2356.3 3248.1,-2437.5 3287.5,-2451.3 3268.2,-2519.4 3069.1,-2482.3 3126,-2295.7 3134.9,-2179.5 3460.4,-2207.9 
			3615.8,-2182.5 3601.5,-2094.9 3448.9,-2132.5 3160.3,-2110.3 3163.3,-1954.1 3147.4,-1801.9 3039.5,-1717.6 2991.7,-1647.5 
			2952.6,-1696.9 2867.2,-1895 2840.3,-1899.4 2874.2,-1999.3 2869.8,-2085.7 2866.7,-2161.9 2764.8,-2863.4 		"/>
		<polyline class="st3" points="2498.1,-1431.8 2651.2,-1485.3 2651.2,-1485.3 2819.2,-1569.3 2855.5,-1588.7 2991.7,-1647.5 
			3114.6,-1330.2 3167.3,-1224.8 3283.2,-1271.7 3204.3,-1486.5 3039.5,-1717.6 2952.6,-1696.9 2833.8,-1658.5 2724.4,-1584.6 
			2448,-1508.7 2411.7,-1414.5 2488.3,-869.4 2562.4,-857.3 2515.8,-1338.3 2498.1,-1431.8 		"/>
		<polyline class="st3" points="1267.6,-2823.1 1142.6,-2653.5 1047.6,-2473.9 932.9,-2003.9 909.1,-1935.6 910.7,-1681.5 
			951.1,-1537.5 1119.9,-1334.5 1147.4,-1286 1243.2,-1213 1339.3,-1197.3 1408.9,-1181.3 1541.3,-1166.2 1575.3,-1153.8 
			1828.2,-1136.3 1882.4,-1142.3 2116.8,-1144.1 2188.2,-1162 2257.2,-1186.4 2297.5,-1179.8 2445.2,-1200.6 2515.5,-1189.1 
			2663.6,-1212.1 2799.9,-1248.7 2817.6,-1264.1 3130.5,-1427.5 3170,-1522.2 3244.2,-1581 3302.1,-1633.6 3426.5,-1908.3 
			3447.7,-2132.7 3459.8,-2206.7 3461.9,-2381.1 3388.1,-2626.1 3309.3,-2847 3408.8,-2868 3554.5,-2407.7 3553,-2115.6 
			3516.7,-1893.5 3407.9,-1579.6 3250.8,-1399.2 2951.3,-1189.4 2724.2,-1153.7 2413.2,-1097.5 2074.5,-1070.5 1781.3,-1044.9 
			1390.2,-1067 1171.9,-1125.5 898.7,-1499.2 846.5,-1691.4 842.5,-1969.3 946.5,-2373.9 1012.9,-2594.8 1189,-2858.9 1311.9,-2975 
			1481.4,-3075.4 1751.1,-3190.6 2270.2,-3316.3 2699.9,-3272.7 3147,-3173.1 3290.4,-3058.5 3408.8,-2868 3309.4,-2847 
			3229.5,-3011.5 3073.9,-3129.2 2773.2,-3209.7 2662.2,-3227.8 2369.9,-3275.6 2086.1,-3232.5 2010,-3211.2 1841.9,-3151 
			1741.9,-3127.9 1503.5,-3032.6 1314.2,-2881.1 1267.9,-2822.8 		"/>
		<polyline class="st3" points="576,-2373.9 582.8,-2145.4 748.6,-2091.7 853.6,-2012.3 850.6,-1926 572.8,-2062.7 536.1,-1977.4 
			734,-1909.8 706.6,-1858.5 760.4,-1629.4 860.9,-1640.2 890.3,-1562.5 819.7,-1574 728.9,-1552.8 624.9,-1497.4 504.6,-1435.4 
			335.7,-1354.6 367.1,-1032.6 293.1,-1033.2 275.1,-1495.2 212.1,-1667.9 74.9,-2234.5 65,-2232.7 101.8,-2388.1 		"/>
		<polygon class="st3" points="678,-3347.3 774.7,-3284.7 856.9,-3343 1059,-3295.5 1011.3,-3247 1030.9,-3123.6 1351,-2955.5 
			1198,-2872 1150.1,-2912.7 925.4,-2986.6 731.6,-3160.7 680.8,-3093.4 577.5,-2719.5 839.5,-2672.4 874.2,-2628.9 1013.6,-2594.5 
			994.5,-2533.5 566.6,-2652.4 570.8,-2345 497.3,-2344.3 490.7,-2766.8 		"/>
	</g>
	<g id="Layer_5">
		<path class="st4" d="M1580.8-2338.7"/>
		<polygon class="st5" points="1867.1,-1946.8 1745.4,-1758.3 1793,-1750.5 1815.7,-1788.4 1864.1,-1832.6 1874.4,-1888.8 
			1887.5,-1919.1 		"/>
		<path class="st5" d="M1838.4-1689.4c0.9,1.3-1.6,50.6-1.6,50.6l171.6-49.2l5.4-33.3l-34.7-19.6l-49.6,40.6l-34.9-10.9
			L1838.4-1689.4z"/>
		<path class="st4" d="M2078.5-2506.2c0,0,9,118.6,9.2,108.5c0.1-10.1,453-85.6,453-85.6l-8.7-156.3L2078.5-2506.2z"/>
		<path class="st4" d="M518.6-1870.2c11.2,15.4,151.5,235.2,151.5,235.2l-252,136.6l-23.8-99.7L518.6-1870.2z"/>
		<polyline class="st4" points="681.9,-1534.6 504.5,-1434.9 588.7,-1168.8 650.5,-1142.1 740.3,-1259.8 681.9,-1534.6 		"/>
	</g>
	<g id="buildings">
		<g class="st6">
			<polygon class="st7" points="1445.8,-1432.5 1514,-1679.6 1888.6,-1786.9 1902,-1559.3 1772.5,-1548.8 1756.3,-1643.9 
				1596.8,-1612.9 1545.9,-1425 			"/>
			<polygon class="st7" points="1941.6,-1801.3 2114.4,-1851.6 2153.5,-1688.2 2193.3,-1699.5 2215,-1560.5 2159.9,-1549.2 
				2142.1,-1587.5 1969.1,-1551.2 1940.2,-1653.4 1971.6,-1659.8 			"/>
			<polygon class="st7" points="1615,-1418.8 1731.7,-1406.1 1738,-1478.5 1626.7,-1490.3 			"/>
			<polygon class="st7" points="1438.2,-1367.2 1659.7,-1352.9 1652.9,-1280.9 1556.6,-1288.4 1539.1,-1164 1407.3,-1177.9 			"/>
			<polygon class="st7" points="1680.4,-1349.5 1676,-1275.9 1827.4,-1272.7 1831.7,-1345.4 			"/>
			<polygon class="st7" points="1571.6,-1152.4 1824.8,-1135.1 1828.2,-1232 1669.3,-1243.3 1661.5,-1182.7 1577.6,-1189.4 			"/>
			<polygon class="st7" points="1489.8,-1795 1428.3,-1643 1379.1,-1466.2 1258.4,-1572 1218,-1735.6 1245.9,-1891.8 
				1345.1,-1885.7 			"/>
			<polygon class="st7" points="1836.3,-1490.3 1828.3,-1405.4 2024.8,-1415.8 2006.4,-1500.5 			"/>
			<polygon class="st7" points="1876.7,-1337.6 1879.3,-1141.2 2113.7,-1143.1 2105.7,-1279.2 2070.6,-1270.8 2068.2,-1211.9 
				1941.2,-1202 1940.2,-1288.9 2045.3,-1296.6 2046.1,-1348.4 			"/>
			<polygon class="st7" points="1159,-1603.9 1369.3,-1400.3 1336,-1196.4 1240.2,-1212 1144.4,-1285 1188.5,-1337.6 1275,-1293.8 
				1320.3,-1370.7 1251.1,-1418.8 1116.9,-1333.5 951,-1527.2 907.8,-1681.3 906.7,-1936.2 1009.2,-1910.8 1001.3,-1862.1 
				961.9,-1871.1 963,-1778.7 1015,-1778.8 1052.5,-1590.4 1109.2,-1611.5 1079,-1799 1086.4,-1906.7 1178.3,-1903.2 
				1160.7,-1819.2 			"/>
			<polygon class="st7" points="1580.8,-2352.4 1314.7,-1940.1 1254.6,-1960 1312.7,-2237.9 1420.7,-2449.5 			"/>
			<polygon class="st7" points="1427.2,-2582.6 1309,-2417 1177.3,-1982.7 929.9,-2002.9 1044.6,-2472.9 1139.8,-2652.3 
				1202.4,-2616.8 1104.3,-2450.5 1033.8,-2142.9 1126.3,-2120.2 1242.8,-2445.6 1355.3,-2624.1 			"/>
			<polygon class="st7" points="1264.9,-2821.8 1482.4,-2657.1 1444.3,-2609.6 1291.1,-2726.1 1260.4,-2693.4 1202.3,-2740.6 			"/>
			<polygon class="st7" points="1459.1,-2514.1 1641.9,-2377.9 1686,-2477 1605.9,-2547.1 1579.9,-2509.6 1506.1,-2551.6 			"/>
			<polygon class="st7" points="1539.6,-2581.1 1571.7,-2552.7 1718.4,-2675.6 1838.9,-2700.2 1663,-2537.8 1728.6,-2488 
				1954.8,-2681.3 2025.5,-2788.8 1704.5,-2714.6 			"/>
			<polygon class="st7" points="1738.9,-3126.8 1819.8,-2893.3 1894.8,-2825.3 1664.5,-2771.8 1543.9,-2692.8 1476.8,-2746.7 
				1603.4,-2832.4 1751.2,-2876.6 1682.9,-3032.1 1535.6,-2967.5 1377.1,-2818.7 1311.2,-2880.1 1500.5,-3031.5 			"/>
			<polygon class="st7" points="1765.7,-2441.9 1884.5,-2340 1881.8,-2264.9 1938.5,-2255.6 2018.3,-2318.1 1933.8,-2412.7 
				2120.7,-2617.9 2177.8,-2581.5 2269.1,-2620.2 2177.3,-2741.3 2100.6,-2776.6 1993.5,-2592.7 			"/>
			<polygon class="st7" points="2182.6,-2820.1 2204.3,-2767.1 2280.8,-2747.1 2574.2,-2796.4 2590.9,-2715.5 2715,-2731.3 
				2666.9,-2855 2395.5,-2868.9 			"/>
			<polygon class="st7" points="2306.9,-2674.5 2330,-2606.1 2532.5,-2660.4 2514.4,-2735.5 			"/>
			<polygon class="st7" points="1838.8,-3149.7 1906.8,-2922.1 1968.8,-2856.3 2216.3,-2886.8 2207.4,-2971.8 2019.5,-2930.3 
				1980.6,-3051.6 2037.3,-3078.1 2006.9,-3209.6 			"/>
			<polygon class="st7" points="2083.1,-3231.5 2085.4,-3155.6 2371.8,-3188.3 2558.6,-3169.1 2556.6,-3017.4 2248.4,-2990.5 
				2268.6,-2904.8 2405.3,-2928.1 2655.5,-2925.1 2659.2,-3226.8 2366.9,-3274.6 			"/>
			<polygon class="st7" points="1894,-2192.7 1951.7,-2183.3 1938.2,-2100.4 2036.2,-2126.1 2048.9,-2036.7 1863.4,-2010.8 			"/>
			<polygon class="st7" points="2061.1,-2151.2 2079.7,-2043.4 2347.6,-2085.8 2305.8,-2287.2 2209.7,-2264.9 2228.4,-2193.5 			"/>
			<polygon class="st7" points="2396.9,-2155.8 2356,-2424.6 2577,-2444.3 2566,-2609.4 2738.4,-2642 2780.9,-2390.1 
				2656.9,-2375.5 2692.5,-2174.7 2504.7,-2126.6 2482.6,-2216.9 2604.2,-2238.5 2573.6,-2375.6 2419.5,-2363.6 2452.2,-2168.4 			
				"/>
			<polygon class="st7" points="2125,-1967.3 2461.5,-2016.2 2602.4,-2041.3 2619.4,-1848.6 2545.8,-1834 2536.7,-1923.8 
				2435.8,-1916.6 2476.6,-1701 2396.1,-1702.7 2423.5,-1519.7 2273.6,-1505 2225.6,-1874.9 2152.3,-1859.3 			"/>
			<polygon class="st7" points="2183.2,-1365.9 2408.6,-1413 2442,-1198.3 2295.1,-1174.8 2279.8,-1251.7 2380.5,-1255.8 
				2355.5,-1337.8 2237.1,-1315.9 2253.6,-1181.6 2184.9,-1159.1 			"/>
			<polygon class="st7" points="2649,-2033.1 2768.3,-2064.5 2776.4,-1967.3 2817.1,-1960.6 2836.7,-1900.5 2658.8,-1857.4 			"/>
			<polygon class="st7" points="2459.2,-1594.6 2663.4,-1670.5 2721.4,-1583.6 2466.8,-1495.6 			"/>
			<polygon class="st7" points="2749.7,-1850.1 2864.2,-1894.1 2949.6,-1695.9 2837.3,-1642.1 			"/>
			<polygon class="st7" points="2495.1,-1430.8 2648.2,-1484.3 2816.2,-1568.3 2868,-1481.4 2691.2,-1398.8 2515.2,-1336.4 			"/>
			<polygon class="st7" points="2508.8,-1312.7 2597.4,-1328 2607.4,-1280.8 2764.8,-1314.6 2796.9,-1247.3 2660.4,-1210.1 
				2511.3,-1187 			"/>
			<polygon class="st7" points="2852.5,-1587.7 2890.5,-1510.6 2938.1,-1538.3 2982.8,-1439.8 2792.9,-1331.6 2814.6,-1262.8 
				3127.4,-1426.3 2988.7,-1646.5 			"/>
			<polygon class="st7" points="2866.7,-2084.2 3094.8,-2110.3 3105.2,-1941.5 3068.1,-1838.6 2988.2,-1783.3 2871.1,-1997.4 			"/>
			<polygon class="st7" points="2785.7,-2786.2 2827.2,-2483.2 2863.7,-2160.7 3092.5,-2189.2 3077.3,-2298 2968.8,-2285.5 
				2935.8,-2507.2 3021.1,-2535.1 2947.6,-2759.8 2849.4,-2810 			"/>
			<polygon class="st7" points="2755.8,-3053.2 2727,-2921.1 2761.7,-2862.3 2889,-2878.5 3028.7,-2770.7 3088,-2547.3 
				3385.2,-2625.1 3321.3,-2815.3 3226.5,-3010.5 3070.7,-3127.1 2769.8,-3206.6 2772.6,-3130.2 3000.3,-3078 3139.7,-2954.4 
				3076.3,-2908.4 2954.2,-3009.4 			"/>
			<polygon class="st7" points="3078,-2484 3134.1,-2297.6 3144.2,-2180.7 3457.2,-2205.7 3459.1,-2380.1 3385.2,-2625.1 
				3303,-2603.6 3361.4,-2384.7 3261.4,-2355.3 3245.1,-2436.5 3284.5,-2450.3 3265.2,-2518.4 			"/>
			<polygon class="st7" points="3168.3,-2111.1 3445.1,-2131.7 3423.7,-1907.2 3299.1,-1632.6 3229.8,-1673 3344.7,-1919.4 
				3347.5,-2022.2 3285.1,-2020.5 3277.5,-1965.3 3172.5,-1955.8 			"/>
			<path class="st7" d="M3163.1-1916.3c2.4,8.7-18.8,115.4-18.8,115.4l-107.8,84.3l130.5,195.4l74.2-58.8l-81.4-104.4l81.4-81.7
				l26.7-140L3163.1-1916.3z"/>
			<polygon class="st7" points="563.8,-2653 991.5,-2532.5 916.7,-2268.6 854.6,-2293.5 810.4,-2139.5 880.7,-2128 850.5,-2011 
				732.6,-2035 745.5,-2090.6 568.8,-2145.7 			"/>
			<polygon class="st7" points="847.6,-1925 569.8,-2061.7 533.1,-1976.4 731,-1908.8 703.6,-1857.5 747.5,-1684.2 757.4,-1628.4 
				857.7,-1638 843.5,-1690.4 			"/>
			<polygon class="st7" points="332.6,-1353.4 501.5,-1433.9 536.5,-1323.3 459,-1289.7 440.3,-1338.4 406.5,-1317.3 442.1,-1186.1 
				557.9,-1247 579.2,-1095.4 343.2,-1092.1 			"/>
			<polygon class="st7" points="642.8,-1517.4 725.6,-1550.1 816.3,-1570.6 858.5,-1456.8 723.2,-1327.7 			"/>
			<path class="st7" d="M930.6-1450.4c-1.4,8.8,238.2,326.4,238.2,326.4l73.9,20.5l-50.3,67l-121.7,1.7l-233.1-38.1l-159.1-26
				l70.7-111.2l214.3,56.8l35.1-44.7l-172.5-168.7L930.6-1450.4z"/>
			<path class="st7" d="M734.1-3203c-6.9,21.7,232.4,215.4,232.4,215.4l180.6,75.9l47.9,40.7l-184.4,277.5l-139.5-34.4l51-90.3
				l69.6,40.2l77-175.8l-149-81.1L759-3081l-104.8,300l194.5,39.8l-11.4,69.9l-262.4-47.1L678-3092.3L734.1-3203z"/>
			<polygon class="st7" points="1508.1,-3512.4 1372.8,-3257.3 1107.8,-3388.3 1008.3,-3246 1027.9,-3122.6 1307.9,-2973.9 
				1714.5,-3175.2 1666.2,-3240.2 1694.1,-3315.4 1693.2,-3382.4 			"/>
			<polygon class="st7" points="2512.7,-1119.7 2949.1,-1187.1 2947,-1253.6 3111.6,-1329.2 3164.3,-1223.8 3280.2,-1270.7 
				3325,-1161 3227.7,-1109.8 3271,-830.3 2581.5,-726.7 			"/>
			<polygon class="st7" points="1702.7,-2276.2 1790.9,-2227.3 1726.7,-1960.7 1555.2,-2012.8 			"/>
			<polygon class="st7" points="1705.7,-2277.2 1793.9,-2228.3 1729.7,-1961.7 1558.2,-2013.8 			"/>
		</g>
		<g>
			<g>
				<polygon class="st8" points="1448.8,-1433.5 1517,-1680.6 1891.6,-1787.9 1905,-1560.3 1775.5,-1549.8 1759.3,-1644.9 
					1599.8,-1613.9 1548.9,-1426 				"/>
				<polygon class="st8" points="1944.6,-1802.3 2117.4,-1852.6 2156.5,-1689.2 2196.3,-1700.5 2218,-1561.5 2162.9,-1550.2 
					2145.1,-1588.5 1972.1,-1552.2 1943.2,-1654.4 1974.6,-1660.8 				"/>
				<polygon class="st8" points="1618,-1419.8 1734.7,-1407.1 1741,-1479.5 1629.7,-1491.3 				"/>
				<polygon class="st8" points="1441.2,-1368.2 1662.7,-1353.9 1655.9,-1281.9 1559.6,-1289.4 1542.1,-1165 1410.3,-1178.9 				"/>
				<polygon class="st8" points="1683.4,-1350.5 1679,-1276.9 1830.4,-1273.7 1834.7,-1346.4 				"/>
				<polygon class="st8" points="1574.6,-1153.4 1827.8,-1136.1 1831.2,-1233 1672.3,-1244.3 1664.5,-1183.7 1580.6,-1190.4 				"/>
				<polygon class="st8" points="1492.8,-1796 1431.3,-1644 1382.1,-1467.2 1261.4,-1573 1221,-1736.6 1248.9,-1892.8 
					1348.1,-1886.7 				"/>
				<polygon class="st8" points="1839.3,-1491.3 1831.3,-1406.4 2027.8,-1416.8 2009.4,-1501.5 				"/>
				<polygon class="st8" points="1879.7,-1338.6 1882.3,-1142.2 2116.7,-1144.1 2108.7,-1280.2 2073.6,-1271.8 2071.2,-1212.9 
					1944.2,-1203 1943.2,-1289.9 2048.3,-1297.6 2049.1,-1349.4 				"/>
				<polygon class="st8" points="1162,-1604.9 1372.3,-1401.3 1339,-1197.4 1243.2,-1213 1147.4,-1286 1191.5,-1338.6 1278,-1294.8 
					1323.3,-1371.7 1254.1,-1419.8 1119.9,-1334.5 954,-1528.2 910.8,-1682.3 909.7,-1937.2 1012.2,-1911.8 1004.3,-1863.1 
					964.9,-1872.1 966,-1779.7 1018,-1779.8 1055.5,-1591.4 1112.2,-1612.5 1082,-1800 1089.4,-1907.7 1181.3,-1904.2 
					1163.7,-1820.2 				"/>
				<polygon class="st8" points="1583.8,-2353.4 1317.7,-1941.1 1257.6,-1961 1315.7,-2238.9 1423.7,-2450.5 				"/>
				<polygon class="st8" points="1430.2,-2583.6 1312,-2418 1180.3,-1983.7 932.9,-2003.9 1047.6,-2473.9 1142.8,-2653.3 
					1205.4,-2617.8 1107.3,-2451.5 1036.8,-2143.9 1129.3,-2121.2 1245.8,-2446.6 1358.3,-2625.1 				"/>
				<polygon class="st8" points="1267.9,-2822.8 1485.4,-2658.1 1447.3,-2610.6 1294.1,-2727.1 1263.4,-2694.4 1205.3,-2741.6 				
					"/>
				<polygon class="st8" points="1462.1,-2515.1 1644.9,-2378.9 1689,-2478 1608.9,-2548.1 1582.9,-2510.6 1509.1,-2552.6 				"/>
				<polygon class="st8" points="1542.6,-2582.1 1574.7,-2553.7 1721.4,-2676.6 1841.9,-2701.2 1666,-2538.8 1731.6,-2489 
					1957.8,-2682.3 2028.5,-2789.8 1707.5,-2715.6 				"/>
				<polygon class="st8" points="1741.9,-3127.8 1822.8,-2894.3 1897.8,-2826.3 1667.5,-2772.8 1546.9,-2693.8 1479.8,-2747.7 
					1606.4,-2833.4 1754.2,-2877.6 1685.9,-3033.1 1538.6,-2968.5 1380.1,-2819.7 1314.2,-2881.1 1503.5,-3032.5 				"/>
				<polygon class="st8" points="1768.7,-2442.9 1887.5,-2341 1884.8,-2265.9 1941.5,-2256.6 2021.3,-2319.1 1936.8,-2413.7 
					2123.7,-2618.9 2180.8,-2582.5 2272.1,-2621.2 2180.3,-2742.3 2103.6,-2777.6 1996.5,-2593.7 				"/>
				<polygon class="st8" points="2185.6,-2821.1 2207.3,-2768.1 2283.8,-2748.1 2577.2,-2797.4 2593.9,-2716.5 2718,-2732.3 
					2669.9,-2856 2398.5,-2869.9 				"/>
				<polygon class="st8" points="2309.9,-2675.5 2333,-2607.1 2535.5,-2661.4 2517.4,-2736.5 				"/>
				<polygon class="st8" points="1841.8,-3150.7 1909.8,-2923.1 1971.8,-2857.3 2219.3,-2887.8 2210.4,-2972.8 2022.5,-2931.3 
					1983.6,-3052.6 2040.3,-3079.1 2009.9,-3210.6 				"/>
				<polygon class="st8" points="2086.1,-3232.5 2088.4,-3156.6 2374.8,-3189.3 2561.6,-3170.1 2559.6,-3018.4 2251.4,-2991.5 
					2271.6,-2905.8 2408.3,-2929.1 2658.5,-2926.1 2662.2,-3227.8 2369.9,-3275.6 				"/>
				<polygon class="st8" points="1897,-2193.7 1954.7,-2184.3 1941.2,-2101.4 2039.2,-2127.1 2051.9,-2037.7 1866.4,-2011.8 				"/>
				<polygon class="st8" points="2064.1,-2152.2 2082.7,-2044.4 2350.6,-2086.8 2308.8,-2288.2 2212.7,-2265.9 2231.4,-2194.5 				
					"/>
				<polygon class="st8" points="2399.9,-2156.8 2359,-2425.6 2580,-2445.3 2569,-2610.4 2741.4,-2643 2783.9,-2391.1 
					2659.9,-2376.5 2695.5,-2175.7 2507.7,-2127.6 2485.6,-2217.9 2607.2,-2239.5 2576.6,-2376.6 2422.5,-2364.6 2455.2,-2169.4 
									"/>
				<polygon class="st8" points="2128,-1968.3 2464.5,-2017.2 2605.4,-2042.3 2622.4,-1849.6 2548.8,-1835 2539.7,-1924.8 
					2438.8,-1917.6 2479.6,-1702 2399.1,-1703.7 2426.5,-1520.7 2276.6,-1506 2228.6,-1875.9 2155.3,-1860.3 				"/>
				<polygon class="st8" points="2186.2,-1366.9 2411.6,-1414 2445,-1199.3 2298.1,-1175.8 2282.8,-1252.7 2383.5,-1256.8 
					2358.5,-1338.8 2240.1,-1316.9 2256.6,-1182.6 2187.9,-1160.1 				"/>
				<polygon class="st8" points="2652,-2034.1 2771.3,-2065.5 2779.4,-1968.3 2820.1,-1961.6 2839.7,-1901.5 2661.8,-1858.4 				"/>
				<polygon class="st8" points="2462.2,-1595.6 2666.4,-1671.5 2724.4,-1584.6 2469.8,-1496.6 				"/>
				<polygon class="st8" points="2752.7,-1851.1 2867.2,-1895.1 2952.6,-1696.9 2840.3,-1643.1 				"/>
				<polygon class="st8" points="2498.1,-1431.8 2651.2,-1485.3 2819.2,-1569.3 2871,-1482.4 2694.2,-1399.8 2518.2,-1337.4 				"/>
				<polygon class="st8" points="2511.8,-1313.7 2600.4,-1329 2610.4,-1281.8 2767.8,-1315.6 2799.9,-1248.3 2663.4,-1211.1 
					2514.3,-1188 				"/>
				<polygon class="st8" points="2855.5,-1588.7 2893.5,-1511.6 2941.1,-1539.3 2985.8,-1440.8 2795.9,-1332.6 2817.6,-1263.8 
					3130.4,-1427.3 2991.7,-1647.5 				"/>
				<polygon class="st8" points="2869.7,-2085.2 3097.8,-2111.3 3108.2,-1942.5 3071.1,-1839.6 2991.2,-1784.3 2874.1,-1998.4 				
					"/>
				<polygon class="st8" points="2788.7,-2787.2 2830.2,-2484.2 2866.7,-2161.7 3095.5,-2190.2 3080.3,-2299 2971.8,-2286.5 
					2938.8,-2508.2 3024.1,-2536.1 2950.6,-2760.8 2852.4,-2811 				"/>
				<polygon class="st8" points="2758.8,-3054.2 2730,-2922.1 2764.7,-2863.3 2892,-2879.5 3031.7,-2771.7 3091,-2548.3 
					3388.2,-2626.1 3324.3,-2816.3 3229.5,-3011.5 3073.7,-3128.1 2772.8,-3207.6 2775.6,-3131.2 3003.3,-3079 3142.7,-2955.4 
					3079.3,-2909.4 2957.2,-3010.4 				"/>
				<polygon class="st8" points="3081,-2485 3137.1,-2298.6 3147.2,-2181.7 3460.2,-2206.7 3462.1,-2381.1 3388.2,-2626.1 
					3306,-2604.6 3364.4,-2385.7 3264.4,-2356.3 3248.1,-2437.5 3287.5,-2451.3 3268.2,-2519.4 				"/>
				<polygon class="st8" points="3171.3,-2112.1 3448.1,-2132.7 3426.7,-1908.2 3302.1,-1633.6 3232.8,-1674 3347.7,-1920.4 
					3350.5,-2023.2 3288.1,-2021.5 3280.5,-1966.3 3175.5,-1956.8 				"/>
				<path class="st8" d="M3166.1-1917.3c2.4,8.7-18.8,115.4-18.8,115.4l-107.8,84.3l130.5,195.4l74.2-58.8l-81.4-104.4l81.4-81.7
					l26.7-140L3166.1-1917.3z"/>
				<polygon class="st8" points="566.8,-2654 994.5,-2533.5 919.7,-2269.6 857.6,-2294.5 813.4,-2140.5 883.7,-2129 853.5,-2012 
					735.6,-2036 748.5,-2091.6 571.8,-2146.7 				"/>
				<polygon class="st8" points="850.6,-1926 572.8,-2062.7 536.1,-1977.4 734,-1909.8 706.6,-1858.5 750.5,-1685.2 760.4,-1629.4 
					860.7,-1639 846.5,-1691.4 				"/>
				<polygon class="st8" points="335.6,-1354.4 504.5,-1434.9 539.5,-1324.3 462,-1290.7 443.3,-1339.4 409.5,-1318.3 
					445.1,-1187.1 560.9,-1248 582.2,-1096.4 346.2,-1093.1 				"/>
				<polygon class="st8" points="645.8,-1518.4 728.6,-1551.1 819.3,-1571.6 861.5,-1457.8 726.2,-1328.7 				"/>
				<path class="st8" d="M933.6-1451.4c-1.4,8.8,238.2,326.4,238.2,326.4l73.9,20.5l-50.3,67l-121.7,1.7l-233.1-38.1l-159.1-26
					l70.7-111.2l214.3,56.8l35.1-44.7l-172.5-168.7L933.6-1451.4z"/>
				<path class="st8" d="M737.1-3204c-6.9,21.7,232.4,215.4,232.4,215.4l180.6,75.9l47.9,40.7l-184.4,277.5l-139.5-34.4l51-90.3
					l69.6,40.2l77-175.8l-149-81.1L762-3082l-104.8,300l194.5,39.8l-11.4,69.9l-262.4-47.1L681-3093.3L737.1-3204z"/>
				<polygon class="st8" points="1511.1,-3513.4 1375.8,-3258.3 1110.8,-3389.3 1011.3,-3247 1030.9,-3123.6 1310.9,-2974.9 
					1717.5,-3176.2 1669.2,-3241.2 1697.1,-3316.4 1696.2,-3383.4 				"/>
				<polygon class="st8" points="2515.7,-1120.7 2952.1,-1188.1 2950,-1254.6 3114.6,-1330.2 3167.3,-1224.8 3283.2,-1271.7 
					3328,-1162 3230.7,-1110.8 3274,-831.3 2584.5,-727.7 				"/>
				<g>
					<g class="st6">
						<polygon points="1705.7,-2277.2 1793.9,-2228.3 1729.7,-1961.7 1558.2,-2013.8 						"/>
					</g>
					<g>
						<polygon class="st8" points="1708.7,-2278.2 1796.9,-2229.3 1732.7,-1962.7 1561.2,-2014.8 						"/>
					</g>
				</g>
			</g>
		</g>
	</g>
	<g id="THE_buildings">
		<g>
			<g class="st6">
				<polygon class="st9" points="71.9,-2233.5 498.2,-2251.1 512.4,-2128.7 496,-2028.2 272.1,-1494.2 206.7,-1489.2 181.9,-1604.7 
					114.5,-1599.2 				"/>
			</g>
			<g>
				<polygon class="st10" points="74.9,-2234.5 501.2,-2252.1 515.4,-2129.7 499,-2029.2 275.1,-1495.2 209.7,-1490.2 
					184.9,-1605.7 117.5,-1600.2 				"/>
			</g>
		</g>
		<g>
			<g class="st6">
				<polygon class="st9" points="2189.5,-2350.9 2287.3,-2367.9 2307.7,-2279.3 2209.7,-2264.9 				"/>
			</g>
			<g>
				<polygon class="st10" points="2192.5,-2351.9 2290.3,-2368.9 2310.7,-2280.3 2212.7,-2265.9 				"/>
			</g>
		</g>
		<polygon class="st10" points="1495.6,-2406.9 1583.8,-2353.4 1519.4,-2255.7 1433.5,-2309.3 		"/>
		<polygon class="st10" points="1089.4,-1907.7 1181.3,-1904.2 1163.6,-1819.3 1083.7,-1825.2 		"/>
		<polyline class="st10" points="1937.2,-2092.3 1923.5,-2019.9 1981.4,-2028 1976.7,-2111.4 1939,-2101.7 		"/>
		<polygon class="st10" points="1451,-2147.6 1315.7,-2238.9 1296.6,-2147.6 1409.7,-2083.7 		"/>
		<polygon class="st10" points="1081.5,-1992.7 1093.4,-2065.3 1012.2,-2078.6 987.6,-1998.8 		"/>
	</g>
</g>
<g id="A0">
	<g>
		<path class="st11" d="M2288.8-569.4l-38.3,103.4l182.6,489.5L2501,78l-252.9,99.6L2080.8,286l-227.6-172.8L1629.8-129L1537-15.2
			l440.7,375.5l-218.1,304.8l-181,596.9c0,0-523.6-154-544.1-98s-36.3,177.8-36.3,177.8l567.8,31.7l-11.6,111.1l-0.7,298.1
			l289.3,279.8l16.4-132.6l-213.1-299.4l38.6-337.3l298.3-774l299.6-244.4l585.2-137L2581.1-29l-157.7-549.8L2288.8-569.4z"/>
		<polyline class="st11" points="1960.9,524.9 2223.8,678.3 2277.7,582.7 2336.2,567.7 2647.2,302 2744.4,154.3 2868,137.9 
			2700.4,423.8 2387.2,631 2550.2,773.4 2546,878.8 2563.3,975.6 2520.9,1224.4 2520.9,1224.4 2745.6,1182.8 2842.9,1149.1 
			2881.1,1283.2 2918.5,1431.6 2556.1,1531.2 2041.3,1678.6 2008.1,1520 1809.2,1395.3 1625.4,1381 1623.2,1234.5 1767.4,1320.7 
			2120,754 1913.1,620.6 		"/>
		<polyline class="st11" points="2719.4,51.5 3006.5,19.6 3078.4,-5.2 3266.3,-37.2 3609.9,-31.5 3621.3,-625.9 3760.9,-626.6 
			3756.1,-309.2 3708.4,-27.6 3756.1,53.2 3789.1,157.8 3896.2,1017.5 3900.4,1122.5 3906.4,1241.8 3859.2,1375.1 3832.2,1292.4 
			3776.3,1283.3 3765.2,1149.6 3661.2,996.9 3612.2,721.6 3724.2,355.7 3692,233.1 3625.7,63.2 3252.8,44.1 2960.2,111.2 
			2868,137.9 2719.4,51.5 		"/>
		<polygon class="st11" points="2521,823.8 2611.8,838.6 2699.8,795.8 2568.2,663.1 2884.3,333.2 2941.7,416.2 3028.2,382.1 
			3162.9,404.1 3441.2,330.1 3521.4,254.7 3692,233.1 3724.1,355.9 3487.1,400.8 3502.3,627.7 3198.6,654.8 3254.8,1024.2 
			3261.4,1115.7 3402.8,1064.4 3661,998.2 3764.7,1152.2 3601.2,1192.9 3537.1,1181.6 2881.1,1283.2 2842.9,1149.1 3158.8,1098.9 
			3129.5,861.1 2997.4,874.2 3023.2,972.4 2833.8,1038.1 2842.9,1149.1 2745.6,1182.8 2750.5,1091.6 2600.2,1124.5 2642.6,988.5 
			2494.6,985.3 		"/>
		<polygon class="st11" points="2005.4,1471.3 1935,1701.5 1855.9,1972.5 1796.2,2348.8 1769.3,2495.7 1668.5,2470.4 1599.3,2562.9 
			893,2477.7 432.3,2486 461,2569.4 1412.9,2685.6 1721.5,2673.4 1869.6,2522.3 1894.5,2369.8 1936.8,2110.4 2242.7,2127.8 
			2480.4,2138.3 2438,2665.1 2542.9,2650.9 2542,2149 2775.5,2134.3 2964.4,2110.3 3275.2,2045.8 3394.4,2021.3 3355.2,1932.2 
			3295.6,1899 3089,1919.2 2897.7,1984.1 2832.3,1816.9 2669.9,1850.8 2630,1710.3 2673.3,1701.6 2642.6,1440.9 2535.3,1446 
			2576.7,1844.3 2585.8,1933.2 2720.6,1925.2 2746,2041.6 2475.2,2055.8 2342.5,2054.9 2182.2,2037.4 2085.9,2028.6 1947.9,2018.3 
			2041.8,1678.7 2172.1,1596.8 		"/>
		<polyline class="st11" points="3756.5,54.7 3916,33.7 4107.4,182.3 4188.8,488.8 4483.7,413.1 4562.9,712.5 4442.8,750 
			4420.4,638.4 4474.5,619.5 4448.1,525.9 4174.4,576.9 4252.6,833.3 4264.8,992.9 4712.2,954 4925.8,988.8 4906.1,1109.3 
			4696.4,1057.5 4299.7,1088 4303.8,1302.7 4282,1512 4133.8,1627.8 4068,1724.1 4014.3,1656.2 3896.9,1383.9 3860,1377.9 
			3906.6,1240.6 3900.5,1121.9 3896.3,1017.2 3756.1,53.1 		"/>
		<polyline class="st11" points="3389.7,2020.5 3600.1,1947 3600.1,1947 3831,1831.6 3880.8,1804.9 4068,1724.1 4236.9,2160.1 
			4309.3,2305.1 4468.6,2240.6 4360.2,1945.4 4133.7,1627.8 4014.3,1656.2 3851,1708.9 3700.7,1810.5 3320.8,1914.8 3271,2044.4 
			3376.2,2793.4 3478,2810.1 3414,2149 3389.7,2020.5 		"/>
		<polyline class="st11" points="1698.5,108.5 1526.8,341.6 1396.2,588.3 1238.6,1234.3 1205.9,1328.2 1208.1,1677.4 1263.6,1875.3 
			1495.6,2154.3 1533.5,2220.9 1665,2321.2 1797.2,2342.8 1892.8,2364.8 2074.7,2385.5 2121.5,2402.6 2469.1,2426.7 2543.5,2418.4 
			2865.6,2415.9 2963.8,2391.3 3058.6,2357.8 3113.9,2366.9 3316.9,2338.3 3413.5,2354.1 3617.1,2322.5 3804.5,2272.2 
			3828.8,2251.1 4258.7,2026.5 4313.1,1896.3 4415,1815.5 4494.6,1743.3 4665.6,1365.7 4694.8,1057.2 4711.3,955.7 4714.2,715.9 
			4612.8,379.2 4504.5,75.6 4641.2,46.8 4841.4,679.4 4839.4,1080.9 4789.6,1386 4640,1817.5 4424.1,2065.4 4012.5,2353.7 
			3700.4,2402.7 3273,2480 2807.5,2517.1 2404.6,2552.2 1867.1,2521.9 1567,2441.6 1191.5,1927.9 1119.8,1663.9 1114.3,1281.9 
			1257.3,725.8 1348.6,422.3 1590.6,59.3 1759.5,-100.2 1992.4,-238.2 2363.1,-396.6 3076.5,-569.3 3667,-509.4 4281.5,-372.5 
			4478.5,-215.1 4641.3,46.8 4504.6,75.6 4394.9,-150.4 4181,-312.1 3767.7,-422.8 3615.2,-447.7 3213.5,-513.3 2823.5,-454.1 
			2718.8,-424.8 2487.8,-342.1 2350.4,-310.4 2022.8,-179.4 1762.6,28.8 1699.1,108.9 		"/>
		<polyline class="st11" points="748.2,725.8 757.5,1039.9 985.4,1113.7 1129.7,1222.8 1125.6,1341.3 743.9,1153.5 693.4,1270.8 
			965.4,1363.7 927.8,1434.1 1001.6,1748.9 1139.8,1734.2 1180.1,1840.9 1083.2,1825.1 958.3,1854.2 815.4,1930.4 650.1,2015.7 
			418,2126.6 461.1,2569.2 359.5,2568.4 334.7,1933.4 248.1,1696.1 59.6,917.4 96.5,706.3 		"/>
		<polygon class="st11" points="888.3,-611.9 1021.1,-525.9 1134.2,-606 1411.9,-540.8 1346.4,-474.1 1373.3,-304.4 1813.2,-73.4 
			1603,41.3 1537.1,-14.7 1228.3,-116.2 962,-355.4 892.1,-263 750.2,250.9 1110.3,315.5 1157.9,375.3 1349.6,422.6 1323.2,506.5 
			735.1,343 741,765.5 639.9,766.4 630.9,185.9 		"/>
	</g>
	<path class="st4" d="M2129,774.2"/>
	<polygon class="st5" points="2522.5,1312.8 2355.2,1571.9 2420.7,1582.6 2451.9,1530.5 2518.3,1469.7 2532.5,1392.5 2550.5,1350.8 
			"/>
	<path class="st5" d="M2483,1666.6c1.3,1.8-2.2,69.5-2.2,69.5l235.9-67.5l7.5-45.7l-47.7-26.9l-68.2,55.7l-48-15L2483,1666.6z"/>
	<g>
		<path class="st12" d="M2813,543.9c0,0,12.4,163,12.6,149.1c0.1-13.9,622.6-117.6,622.6-117.6l-11.9-214.8L2813,543.9z"/>
		<path class="st12" d="M669.4,1418c15.4,21.2,208.2,323.2,208.2,323.2L531.3,1929l-32.6-137L669.4,1418z"/>
		<polyline class="st12" points="893.7,1879.2 650,2016.3 765.7,2381.9 850.7,2418.7 974.1,2256.9 893.7,1879.2 		"/>
	</g>
	<g>
		<g>
			<g class="st13">
				<polygon points="1927.8,2026.7 2021.5,1687.1 2536.2,1539.7 2554.8,1852.5 2376.7,1866.9 2354.5,1736.2 2135.3,1778.7 
					2065.3,2037 				"/>
			</g>
			<g>
				<polygon class="st14" points="1947.6,2018.2 2041.3,1678.6 2556.1,1531.2 2574.6,1843.9 2396.5,1858.4 2374.4,1727.7 
					2155.1,1770.2 2085.1,2028.5 				"/>
			</g>
		</g>
		<g>
			<g class="st13">
				<polygon points="2609.1,1519.8 2846.6,1450.7 2900.4,1675.3 2955.1,1659.8 2984.8,1850.9 2909.2,1866.4 2884.8,1813.7 
					2646.9,1863.6 2607.2,1723.1 2650.4,1714.3 				"/>
			</g>
			<g>
				<polygon class="st14" points="2628.9,1511.3 2866.4,1442.2 2920.2,1666.8 2975,1651.3 3004.7,1842.4 2929.1,1857.9 
					2904.6,1805.2 2666.8,1855.1 2627.1,1714.6 2670.2,1705.8 				"/>
			</g>
		</g>
		<g>
			<g class="st13">
				<polygon points="2160.4,2045.6 2320.7,2063.1 2329.3,1963.6 2176.4,1947.3 				"/>
			</g>
			<g>
				<polygon class="st14" points="2180.2,2037.1 2340.5,2054.6 2349.1,1955 2196.3,1938.8 				"/>
			</g>
		</g>
		<g>
			<g class="st13">
				<polygon points="1917.4,2116.4 2221.8,2136.1 2212.4,2235 2080.1,2224.8 2056,2395.7 1874.9,2376.6 				"/>
			</g>
			<g>
				<polygon class="st14" points="1937.2,2107.9 2241.6,2127.6 2232.2,2226.5 2099.9,2216.2 2075.8,2387.2 1894.8,2368.1 				"/>
			</g>
		</g>
		<g>
			<g class="st13">
				<polygon points="2250.2,2140.7 2244.1,2242 2452.2,2246.3 2458.1,2146.4 				"/>
			</g>
			<g>
				<polygon class="st14" points="2270,2132.2 2264,2233.5 2472,2237.8 2477.9,2137.9 				"/>
			</g>
		</g>
		<g>
			<g class="st13">
				<polygon points="2100.6,2411.7 2448.7,2435.4 2453.3,2302.2 2234.9,2286.8 2224.2,2370.1 2108.9,2360.8 				"/>
			</g>
			<g>
				<polygon class="st14" points="2120.4,2403.2 2468.5,2426.9 2473.1,2293.7 2254.8,2278.3 2244,2361.6 2128.7,2352.3 				"/>
			</g>
		</g>
		<g>
			<g class="st13">
				<polygon points="1988.2,1528.5 1903.7,1737.5 1836.1,1980.5 1670.2,1835.1 1614.7,1610.2 1653.1,1395.5 1789.3,1403.9 				"/>
			</g>
			<g>
				<polygon class="st14" points="2008.1,1520 1923.5,1729 1856,1972 1690.1,1826.6 1634.6,1601.7 1672.9,1387 1809.2,1395.3 				
					"/>
			</g>
		</g>
		<g>
			<g class="st13">
				<polygon points="2464.5,1947.3 2453.5,2064 2723.5,2049.6 2698.2,1933.3 				"/>
			</g>
			<g>
				<polygon class="st14" points="2484.3,1938.8 2473.3,2055.5 2743.3,2041.1 2718,1924.8 				"/>
			</g>
		</g>
		<g>
			<g class="st13">
				<polygon points="2519.9,2157.1 2523.6,2427.1 2845.7,2424.5 2834.7,2237.5 2786.5,2248.9 2783.1,2330 2608.7,2343.5 
					2607.2,2224.1 2751.6,2213.5 2752.8,2142.3 				"/>
			</g>
			<g>
				<polygon class="st14" points="2539.7,2148.6 2543.4,2418.6 2865.6,2416 2854.6,2229 2806.3,2240.4 2802.9,2321.5 2628.5,2335 
					2627.1,2215.6 2771.5,2205 2772.7,2133.8 				"/>
			</g>
		</g>
		<g>
			<g class="st13">
				<polygon points="1533.6,1791.2 1822.6,2070.9 1776.8,2351.2 1645.1,2329.7 1513.6,2229.4 1574.1,2157.2 1693.1,2217.4 
					1755.2,2111.7 1660.2,2045.5 1475.8,2162.8 1247.8,1896.6 1188.4,1684.8 1186.9,1334.6 1327.8,1369.5 1316.8,1436.3 
					1262.7,1424 1264.2,1550.9 1335.7,1550.8 1387.3,1809.8 1465.1,1780.7 1423.6,1523.1 1448.5,1366.1 1552.3,1382.2 
					1534.7,1489.9 				"/>
			</g>
			<g>
				<polygon class="st14" points="1553.4,1782.7 1842.5,2062.4 1796.7,2342.7 1665,2321.2 1533.5,2220.9 1594,2148.7 1712.9,2208.9 
					1775.1,2103.2 1680.1,2037 1495.6,2154.2 1267.7,1888.1 1208.3,1676.3 1206.7,1326 1347.6,1361 1336.7,1427.8 1282.6,1415.5 
					1284,1542.4 1355.5,1542.3 1407.2,1801.3 1485,1772.2 1443.5,1514.6 1468.4,1357.6 1572.1,1373.7 1554.6,1481.4 				"/>
			</g>
		</g>
		<g>
			<g class="st13">
				<polygon points="2107.4,762.5 1895.5,1093.1 1747.6,1329.2 1665.1,1301.8 1737.9,989.8 1805.8,886 1893.2,629.1 				"/>
			</g>
			<g>
				<polygon class="st14" points="2127.2,754 1915.4,1084.6 1767.4,1320.7 1684.9,1293.3 1757.7,981.3 1825.7,877.5 1913.1,620.6 
									"/>
			</g>
		</g>
		<g>
			<g class="st13">
				<polygon points="1902.2,446.1 1739.8,673.7 1558.8,1270.5 1344.8,1256.7 1222.5,1227.8 1376.5,596.9 1507.2,350.3 1593.2,399.2 
					1458.4,627.7 1361.6,1050.4 1488.7,1081.6 1648.7,634.4 1803.3,389.1 				"/>
			</g>
			<g>
				<polygon class="st14" points="1922.1,437.6 1759.6,665.2 1578.7,1262 1364.6,1248.2 1242.3,1219.3 1396.3,588.4 1527.1,341.8 
					1613,390.7 1478.3,619.2 1381.4,1041.9 1508.6,1073.1 1668.6,625.9 1823.2,380.6 				"/>
			</g>
		</g>
		<g>
			<g class="st13">
				<polygon points="1679.2,117.4 1978.1,343.7 1925.7,409 1715.2,249 1673,293.9 1593.1,229 				"/>
			</g>
			<g>
				<polygon class="st14" points="1699.1,108.9 1997.9,335.2 1945.5,400.5 1735,240.5 1692.9,285.4 1613,220.5 				"/>
			</g>
		</g>
		<g>
			<g class="st13">
				<polygon points="1946,540.3 2197.3,727.5 2257.8,591.2 2147.8,495 2112,546.5 2010.6,488.8 				"/>
			</g>
			<g>
				<polygon class="st14" points="1965.8,531.8 2217.2,719 2277.7,582.7 2167.7,486.5 2131.9,538 2030.5,480.3 				"/>
			</g>
		</g>
		<g>
			<g class="st13">
				<polygon points="2056.7,448.2 2100.8,487.3 2302.4,318.3 2468,284.5 2226.2,507.8 2316.4,576.2 2627.3,310.5 2724.5,162.8 
					2283.3,264.8 				"/>
			</g>
			<g>
				<polygon class="st14" points="2076.6,439.7 2120.7,478.8 2322.2,309.8 2487.8,276 2246.1,499.3 2336.2,567.7 2647.2,302 
					2744.4,154.3 2303.1,256.3 				"/>
			</g>
		</g>
		<g>
			<g class="st13">
				<polygon points="2330.6,-301.7 2441.7,19.2 2544.8,112.6 2228.3,186.2 2062.6,294.8 1970.4,220.6 2144.4,102.9 2347.5,42.1 
					2253.6,-171.6 2051.2,-82.9 1833.4,121.7 1742.8,37.3 2002.9,-170.8 				"/>
			</g>
			<g>
				<polygon class="st14" points="2350.4,-310.2 2461.6,10.7 2564.6,104.1 2248.1,177.7 2082.5,286.3 1990.2,212.1 2164.3,94.4 
					2367.3,33.6 2273.5,-180.1 2071.1,-91.4 1853.2,113.2 1762.6,28.8 2022.8,-179.3 				"/>
			</g>
		</g>
		<g>
			<g class="st13">
				<polygon points="2367.4,639.5 2530.7,779.6 2526.9,882.8 2604.9,895.5 2714.6,809.6 2598.4,679.6 2855.3,397.6 2933.8,447.6 
					3059.2,394.5 2933.1,228.1 2827.6,179.6 2680.5,432.2 				"/>
			</g>
			<g>
				<polygon class="st14" points="2387.2,631 2550.6,771.1 2546.8,874.3 2624.7,887 2734.5,801.1 2618.2,671.1 2875.2,389.1 
					2953.6,439.1 3079.1,386 2952.9,219.6 2847.5,171.1 2700.4,423.7 				"/>
			</g>
		</g>
		<g>
			<g class="st13">
				<polygon points="2940.3,119.7 2970.2,192.6 3075.3,220.1 3478.5,152.3 3501.5,263.5 3672.1,241.8 3605.9,71.8 3233,52.7 				"/>
			</g>
			<g>
				<polygon class="st14" points="2960.2,111.2 2990.1,184.1 3095.2,211.6 3498.4,143.8 3521.3,255 3691.9,233.3 3625.7,63.3 
					3252.8,44.2 				"/>
			</g>
		</g>
		<g>
			<g class="st13">
				<polygon points="3111.2,319.9 3142.9,413.8 3421.3,339.2 3396.4,235.9 				"/>
			</g>
			<g>
				<polygon class="st14" points="3131.1,311.4 3162.7,405.3 3441.1,330.7 3416.2,227.4 				"/>
			</g>
		</g>
		<g>
			<g class="st13">
				<polygon points="2467.9,-333.2 2561.3,-20.5 2646.6,70 2986.6,28.1 2974.4,-88.7 2716.2,-31.7 2662.7,-198.4 2740.7,-234.8 
					2698.9,-415.6 				"/>
			</g>
			<g>
				<polygon class="st14" points="2487.8,-341.7 2581.1,-29 2666.4,61.5 3006.5,19.6 2994.2,-97.2 2736.1,-40.2 2682.6,-206.9 
					2760.5,-243.3 2718.7,-424.1 				"/>
			</g>
		</g>
		<polygon class="st14" points="2823.5,-454.1 2826.7,-349.8 3220.3,-394.8 3477,-368.4 3474.2,-159.9 3050.6,-122.9 3078.4,-5.2 
			3266.3,-37.2 3610.1,-33 3615.2,-447.7 3213.5,-513.3 		"/>
		<g>
			<g class="st13">
				<polygon points="2543.8,981.9 2623.1,994.9 2593.1,1110.3 2739.2,1090.2 2756.6,1196.4 2501.6,1231.9 				"/>
			</g>
			<g>
				<polygon class="st14" points="2563.6,973.4 2642.9,986.4 2612.9,1101.8 2759,1081.7 2776.5,1187.9 2521.5,1223.4 				"/>
			</g>
		</g>
		<g>
			<g class="st13">
				<polygon points="2773.3,1039 2799,1187.1 3167.1,1128.9 3112.1,864.1 2982.1,904.4 3003.3,980.9 				"/>
			</g>
			<g>
				<polygon class="st14" points="2793.2,1030.5 2818.8,1178.6 3186.9,1120.4 3132,855.6 3001.9,895.9 3023.2,972.4 				"/>
			</g>
		</g>
		<g>
			<g class="st13">
				<polygon points="3234.9,1032.7 3178.7,663.3 3482.4,636.3 3467.3,409.3 3704.3,364.5 3762.6,710.7 3592.3,730.8 3641.2,1006.7 
					3383,1072.9 3352.7,948.7 3519.8,919 3477.7,730.6 3266,747.1 3310.9,1015.4 				"/>
			</g>
			<g>
				<polygon class="st14" points="3254.8,1024.2 3198.6,654.8 3502.2,627.8 3487.1,400.8 3724.1,356 3782.4,702.2 3612.1,722.3 
					3661,998.2 3402.8,1064.4 3372.5,940.2 3539.6,910.5 3497.6,722 3285.8,738.6 3330.7,1006.9 				"/>
			</g>
		</g>
		<g>
			<g class="st13">
				<polygon points="2861.2,1291.7 3323.7,1224.6 3517.3,1190.1 3540.6,1454.9 3439.5,1474.9 3427,1351.5 3288.3,1361.5 
					3344.4,1657.7 3233.8,1655.3 3271.5,1906.8 3065.5,1927.1 2999.5,1418.7 2898.7,1440.1 				"/>
			</g>
			<g>
				<polygon class="st14" points="2881.1,1283.2 3343.6,1216.1 3537.1,1181.6 3560.4,1446.4 3459.3,1466.4 3446.8,1343 3308.2,1353 
					3364.2,1649.2 3253.7,1646.8 3291.3,1898.3 3085.3,1918.6 3019.3,1410.2 2918.5,1431.6 				"/>
			</g>
		</g>
		<g>
			<g class="st13">
				<polygon points="2941.2,2118.3 3251,2053.6 3296.8,2348.6 3094.9,2380.9 3073.9,2275.2 3212.3,2269.5 3178,2156.9 3015.2,2187 
					3037.9,2371.6 2943.5,2402.5 				"/>
			</g>
			<g>
				<polygon class="st14" points="2961,2109.8 3270.9,2045.1 3316.7,2340.1 3114.8,2372.4 3093.7,2266.7 3232.1,2261 3197.9,2148.4 
					3035.1,2178.5 3057.8,2363.1 2963.3,2394 				"/>
			</g>
		</g>
		<polygon class="st14" points="3601.2,1192.9 3765.2,1149.6 3776.3,1283.3 3832.2,1292.4 3859.2,1375.1 3614.6,1434.3 		"/>
		<polygon class="st14" points="3340.3,1795.4 3621,1691.1 3700.7,1810.5 3350.7,1931.5 		"/>
		<polygon class="st14" points="3739.6,1444.3 3896.9,1383.8 4014.3,1656.2 3859.9,1730.2 		"/>
		<polygon class="st14" points="3389.7,2020.5 3600.1,1947 3831,1831.6 3902.2,1951.1 3659.2,2064.5 3417.2,2150.3 		"/>
		<polygon class="st14" points="3408.4,2182.8 3530.2,2161.8 3544,2226.7 3760.3,2180.3 3804.4,2272.8 3616.9,2323.8 3412,2355.6 		
			"/>
		<polygon class="st14" points="3880.8,1804.9 3933.1,1910.9 3998.5,1872.8 4059.9,2008.2 3799,2156.9 3828.8,2251.4 4258.7,2026.7 
			4068,1724.1 		"/>
		<polygon class="st14" points="3900.4,1122.5 4213.8,1086.7 4228.1,1318.7 4177.2,1460.1 4067.4,1536.1 3906.4,1241.8 		"/>
		<polygon class="st14" points="3789.1,157.8 3846.1,574.2 3896.2,1017.5 4210.6,978.3 4189.8,828.8 4040.6,846 3995.3,541.2 
			4112.5,502.9 4011.5,194.1 3876.6,125.1 		"/>
		<polygon class="st14" points="3747.9,-209.1 3708.4,-27.6 3756.1,53.2 3931.1,31 4123,179.1 4204.5,486.1 4612.9,379.3 
			4525.1,117.9 4394.9,-150.4 4180.7,-310.7 3767.3,-420 3771,-314.9 4083.9,-243.2 4275.5,-73.4 4188.4,-10.2 4020.6,-148.9 		"/>
		<polygon class="st14" points="4190.8,573.1 4267.8,829.3 4281.7,989.9 4711.9,955.6 4714.5,716 4612.9,379.3 4500,408.8 
			4580.2,709.6 4442.8,750 4420.4,638.4 4474.5,619.5 4448,525.8 		"/>
		<polygon class="st14" points="4314.9,1085.6 4695.3,1057.3 4665.9,1365.8 4494.6,1743.3 4399.3,1687.7 4557.3,1349.1 
			4561.2,1207.8 4475.4,1210.1 4464.9,1286 4320.7,1299 		"/>
		<path class="st14" d="M4307.7,1353.4c3.3,11.9-25.9,158.5-25.9,158.5l-148.2,115.8l179.4,268.6l101.9-80.8L4303.2,1672
			l111.8-112.2l36.6-192.4L4307.7,1353.4z"/>
		<g>
			<g class="st13">
				<polygon points="715.7,349.4 1303.4,515 1200.6,877.7 1115.2,843.4 1054.6,1055.1 1151.2,1070.8 1109.6,1231.7 947.6,1198.8 
					965.3,1122.3 722.5,1046.5 				"/>
			</g>
			<g>
				<polygon class="st14" points="735.5,340.9 1323.2,506.5 1220.4,869.2 1135.1,834.9 1074.4,1046.6 1171.1,1062.3 1129.4,1223.2 
					967.4,1190.3 985.1,1113.8 742.3,1038 				"/>
			</g>
		</g>
		<g>
			<g class="st13">
				<polygon points="1105.8,1349.9 724,1162 673.6,1279.3 945.5,1372.2 907.9,1442.6 968.2,1680.8 981.8,1757.5 1119.6,1744.4 
					1100.1,1672.4 				"/>
			</g>
			<g>
				<polygon class="st14" points="1125.6,1341.4 743.9,1153.5 693.4,1270.8 965.3,1363.7 927.7,1434.1 988,1672.3 1001.6,1748.9 
					1139.5,1735.9 1119.9,1663.9 				"/>
			</g>
		</g>
		<g>
			<g class="st13">
				<polygon points="398.1,2135.4 630.2,2024.8 678.3,2176.8 571.7,2222.9 546.1,2156.1 499.6,2185.1 548.5,2365.3 707.7,2281.7 
					736.9,2490 412.5,2494.5 				"/>
			</g>
			<g>
				<polygon class="st14" points="417.9,2126.9 650,2016.3 698.1,2168.3 591.6,2214.4 565.9,2147.6 519.4,2176.6 568.3,2356.8 
					727.5,2273.2 756.7,2481.5 432.4,2486 				"/>
			</g>
		</g>
		<g>
			<g class="st13">
				<polygon points="824.3,1910 938.1,1865.1 1062.8,1836.9 1120.8,1993.3 934.9,2170.7 				"/>
			</g>
			<g>
				<polygon class="st14" points="844.2,1901.5 957.9,1856.6 1082.6,1828.4 1140.6,1984.8 954.7,2162.2 				"/>
			</g>
		</g>
		<g>
			<g class="st13">
				<path d="M1219.7,2002.1c-2,12,327.4,448.5,327.4,448.5l101.6,28.2l-69.1,92.1l-167.3,2.3l-320.3-52.3l-218.6-35.7l97.1-152.8
					l294.5,78l48.2-61.4L1076,2117.3L1219.7,2002.1z"/>
			</g>
			<g>
				<path class="st14" d="M1239.6,1993.6c-2,12,327.4,448.5,327.4,448.5l101.6,28.2l-69.1,92.1l-167.3,2.3l-320.3-52.3l-218.6-35.7
					l97.1-152.8l294.5,78l48.2-61.4l-237.1-231.8L1239.6,1993.6z"/>
			</g>
		</g>
		<g>
			<g class="st13">
				<path d="M949.6-406.4c-9.5,29.8,319.4,296,319.4,296L1517.3-6.2l65.9,55.9l-253.4,381.3l-191.7-47.3l70.1-124.1l95.7,55.3
					l105.9-241.6L1205-38L984-238.8l-144,412.3l267.3,54.7l-15.7,96.1l-360.6-64.7l141.6-513.9L949.6-406.4z"/>
			</g>
			<g>
				<path class="st14" d="M969.5-414.9c-9.5,29.8,319.4,296,319.4,296l248.2,104.3l65.9,55.9l-253.4,381.3l-191.7-47.3l70.1-124.1
					l95.7,55.3l105.9-241.6L1224.9-46.5l-221.1-200.8l-144,412.3l267.3,54.7l-15.7,96.1L750.7,251l141.6-513.9L969.5-414.9z"/>
			</g>
		</g>
		<polygon class="st14" points="2033.2,-840.2 1847.2,-489.6 1483.1,-669.7 1346.4,-474.1 1373.3,-304.4 1758.1,-100.2 
			2316.9,-376.8 2250.6,-466.1 2288.8,-569.4 2287.7,-661.5 		"/>
		<polygon class="st14" points="3413.9,2448.1 4013.6,2355.5 4010.7,2264.1 4236.9,2160.1 4309.3,2305.1 4468.6,2240.6 
			4530.2,2391.3 4396.5,2461.8 4456,2845.8 3508.4,2988.2 		"/>
		<g>
			<g class="st13">
				<polygon points="2282,866.8 2403.1,934 2314.9,1300.5 2079.3,1228.8 				"/>
				<polygon points="2285,865.8 2406.1,933 2317.9,1299.5 2082.3,1227.8 				"/>
			</g>
			<g>
				<g class="st6">
					<polygon points="2301.8,858.3 2423,925.5 2334.7,1292 2099.1,1220.3 					"/>
				</g>
				<g>
					<polygon class="st14" points="2304.8,857.3 2426,924.5 2337.7,1291 2102.1,1219.3 					"/>
				</g>
			</g>
		</g>
	</g>
	<g>
		<g class="st6">
			<polygon class="st9" points="56.6,918.4 642.4,894.2 661.9,1062.5 639.4,1200.6 331.7,1934.4 241.8,1941.3 207.7,1782.5 
				115.1,1790.1 			"/>
		</g>
		<g>
			<polygon class="st10" points="59.6,917.4 645.4,893.2 664.9,1061.5 642.4,1199.6 334.7,1933.4 244.8,1940.3 210.7,1781.5 
				118.1,1789.1 			"/>
		</g>
	</g>
	<polygon class="st10" points="1554.6,1481.4 1451.2,1465.5 1468.4,1356.6 1571.8,1372.5 	"/>
	<polygon class="st10" points="1914.2,1084.4 1758,982.2 1825.3,877.9 1981.4,980.2 	"/>
	
		<rect x="1966.4" y="673.8" transform="matrix(0.5296 -0.8482 0.8482 0.5296 308.6555 2074.1221)" class="st10" width="116" height="169.9"/>
	
		<rect x="2620.2" y="1097.3" transform="matrix(0.9897 -0.1432 0.1432 0.9897 -137.5583 391.153)" class="st10" width="56.6" height="107.7"/>
	
		<rect x="2980.6" y="743.6" transform="matrix(0.9604 -0.2785 0.2785 0.9604 -105.3947 881.0192)" class="st10" width="135.8" height="135.8"/>
	
		<rect x="1254" y="1120" transform="matrix(0.2265 -0.974 0.974 0.2265 -132.3287 2187.3723)" class="st10" width="114" height="114"/>
</g>
<g id="Layer_9" class="st0">
	<rect x="-127" y="-1128" class="st15" width="4871" height="1126"/>
	<rect x="2382" y="-3523" class="st15" width="1302" height="3287"/>
	<rect x="3" y="-3946" class="st15" width="2641" height="1126"/>
	<g class="st16">
		<g class="st13">
			<rect x="3362" y="-623" width="1753" height="3627"/>
		</g>
		<g>
			<rect x="3382" y="-632" class="st17" width="1753" height="3627"/>
		</g>
	</g>
	<rect x="-100" y="2385" class="st15" width="3893" height="1126"/>
</g>
</svg>
