<?xml version="1.0" encoding="utf-8"?>
<!-- Generator: Adobe Illustrator 19.2.1, SVG Export Plug-In . SVG Version: 6.00 Build 0)  -->
<svg version="1.1" id="Layer_1" xmlns="http://www.w3.org/2000/svg" xmlns:xlink="http://www.w3.org/1999/xlink" x="0px" y="0px"
	 viewBox="0 0 1000 500" style="enable-background:new 0 0 1000 500;" xml:space="preserve">
<style type="text/css">
	.st0{fill:#5A5A5A;}
	.st1{fill:#717171;}
	.st2{fill:#86985B;}
	.st3{fill:#7C8430;}
	.st4{opacity:0.27;}
	.st5{fill:#1D1D1B;}
	.st6{fill:#2B2D3D;}
	.st7{opacity:0.28;}
	.st8{fill:#454347;}
	.st9{fill:#C4C3C6;}
</style>
<rect x="-2" y="-85" class="st0" width="1092" height="714"/>
<rect x="-2" y="-85" class="st0" width="1240" height="693"/>
<g>
	<path class="st1" d="M622.7-207.9l-10.4,28.2l49.8,133.6l18.5,14.9L611.6-4l-45.7,29.6l-62.1-47.2l-61-66.1l-25.3,31.1L537.8,45.9
		L478.3,129l-49.4,163c0,0-142.9-42-148.5-26.8c-5.6,15.3-9.9,48.5-9.9,48.5l155,8.7l-3.2,30.3l-0.2,81.4l79,76.4l4.5-36.2
		l-58.2-81.7l10.5-92.1l81.4-211.3l81.8-66.7l159.7-37.4l-78.3-45.6l-43-150.1L622.7-207.9z"/>
	<polyline class="st1" points="533.2,90.8 605,132.6 619.7,106.5 635.6,102.4 720.5,29.9 747,-10.4 780.8,-14.9 735,63.2 
		649.6,119.7 694,158.6 692.9,187.4 697.6,213.8 686.1,281.7 686.1,281.7 747.4,270.3 773.9,261.1 784.3,297.7 794.6,338.2 
		695.7,365.4 555.2,405.6 546.1,362.4 491.8,328.3 441.6,324.4 441,284.4 480.4,308 576.6,153.3 520.1,116.9 	"/>
	<polyline class="st1" points="740.2,-38.5 818.6,-47.2 838.2,-53.9 889.5,-62.6 983.3,-61.1 986.4,-223.3 1024.5,-223.5 
		1023.2,-136.9 1010.2,-60 1023.2,-38 1032.2,-9.4 1061.4,225.2 1062.6,253.9 1064.2,286.4 1051.3,322.8 1044,300.2 1028.7,297.7 
		1025.7,261.3 997.3,219.6 983.9,144.5 1014.5,44.6 1005.7,11.1 987.6,-35.3 885.8,-40.5 805.9,-22.1 780.8,-14.9 740.2,-38.5 	"/>
	<polygon class="st1" points="686.1,172.3 710.8,176.4 734.9,164.7 699,128.5 785.2,38.5 800.9,61.1 824.5,51.8 861.3,57.8 
		937.2,37.6 959.1,17 1005.7,11.1 1014.5,44.6 949.8,56.9 953.9,118.8 871,126.2 886.4,227 888.2,252 926.8,238 997.2,219.9 
		1025.5,262 980.9,273.1 963.4,270 784.3,297.7 773.9,261.1 860.1,247.4 852.2,182.5 816.1,186.1 823.1,212.9 771.4,230.8 
		773.9,261.1 747.4,270.3 748.7,245.4 707.7,254.4 719.3,217.3 678.9,216.4 	"/>
	<polygon class="st1" points="545.3,349.1 526.1,411.9 504.5,485.9 488.3,588.6 480.9,628.7 453.4,621.8 434.5,647 241.7,623.8 
		116,626 123.8,648.8 383.6,680.5 467.9,677.2 508.3,635.9 515.1,594.3 526.6,523.5 610.1,528.2 675,531.1 663.4,674.9 692.1,671 
		691.8,534 755.5,530 807.1,523.5 891.9,505.9 924.4,499.2 913.8,474.9 897.5,465.8 841.1,471.3 788.9,489 771.1,443.4 726.7,452.7 
		715.8,414.3 727.6,411.9 719.3,340.8 690,342.2 701.3,450.9 703.8,475.1 740.6,473 747.5,504.7 673.6,508.6 637.4,508.4 
		593.6,503.6 567.3,501.2 529.7,498.4 555.3,405.7 590.8,383.3 	"/>
	<polyline class="st1" points="1023.3,-37.6 1066.8,-43.3 1119.1,-2.7 1141.3,80.9 1221.8,60.3 1243.4,142 1210.6,152.2 
		1204.5,121.7 1219.3,116.6 1212,91 1137.3,105 1158.7,174.9 1162,218.5 1284.1,207.9 1342.4,217.4 1337.1,250.3 1279.8,236.1 
		1171.6,244.5 1172.7,303.1 1166.7,360.2 1126.3,391.8 1108.3,418.1 1093.6,399.5 1061.6,325.2 1051.5,323.6 1064.3,286.1 
		1062.6,253.7 1061.4,225.1 1023.2,-38 	"/>
	<polyline class="st1" points="923.2,499 980.6,478.9 980.6,478.9 1043.6,447.4 1057.2,440.1 1108.3,418.1 1154.4,537.1 
		1174.2,576.6 1217.7,559 1188.1,478.5 1126.2,391.8 1093.6,399.5 1049.1,413.9 1008,441.7 904.4,470.1 890.8,505.5 919.5,709.9 
		947.3,714.5 929.8,534.1 923.2,499 	"/>
	<polyline class="st1" points="461.6,-22.9 414.7,40.7 379.1,108.1 336.1,284.4 327.1,310 327.7,405.3 342.9,459.3 406.2,535.5 
		416.5,553.7 452.4,581.1 488.5,586.9 514.6,592.9 564.3,598.6 577,603.3 671.9,609.8 692.2,607.6 780.1,606.9 806.9,600.2 
		832.8,591 847.9,593.5 903.3,585.7 929.7,590 985.2,581.4 1036.4,567.7 1043,561.9 1160.4,500.6 1175.2,465.1 1203,443 
		1224.8,423.3 1271.4,320.3 1279.4,236.1 1283.9,208.3 1284.7,142.9 1257,51 1227.5,-31.9 1264.8,-39.7 1319.4,132.9 1318.8,242.5 
		1305.3,325.8 1264.4,443.6 1205.5,511.2 1093.1,589.9 1008,603.3 891.3,624.4 764.3,634.5 654.3,644.1 507.6,635.8 425.7,613.9 
		323.2,473.7 303.6,401.6 302.1,297.4 341.2,145.6 366.1,62.8 432.1,-36.3 478.2,-79.9 541.8,-117.5 643,-160.7 837.7,-207.9 
		998.9,-191.5 1166.6,-154.2 1220.4,-111.2 1264.8,-39.7 1227.5,-31.9 1197.5,-93.6 1139.1,-137.7 1026.4,-167.9 984.7,-174.7 
		875.1,-192.6 768.6,-176.4 740.1,-168.5 677,-145.9 639.5,-137.2 550.1,-101.5 479.1,-44.7 461.7,-22.8 	"/>
	<polyline class="st1" points="202.2,145.6 204.8,231.3 267,251.5 306.3,281.2 305.2,313.6 201,262.3 187.3,294.3 261.5,319.7 
		251.2,338.9 271.4,424.9 309.1,420.8 320.1,450 293.6,445.6 259.6,453.6 220.6,474.4 175.4,497.6 112.1,527.9 123.9,648.7 
		96.1,648.5 89.3,475.2 65.7,410.4 14.3,197.9 24.3,140.3 	"/>
	<polygon class="st1" points="240.5,-219.5 276.7,-196 307.6,-217.9 383.4,-200.1 365.5,-181.9 372.8,-135.6 492.9,-72.5 
		435.5,-41.2 417.5,-56.5 333.2,-84.2 260.6,-149.5 241.5,-124.3 202.8,16 301,33.6 314,49.9 366.4,62.8 359.2,85.7 198.6,41.1 
		200.2,156.4 172.7,156.7 170.2,-1.8 	"/>
</g>
<path class="st2" d="M579.1,158.8"/>
<g>
	<path class="st3" d="M765.8,96c0,0,3.4,44.5,3.4,40.7s169.9-32.1,169.9-32.1L935.8,46L765.8,96z"/>
	<path class="st3" d="M180.7,334.5c4.2,5.8,56.8,88.2,56.8,88.2L143,474l-8.9-37.4L180.7,334.5z"/>
	<polyline class="st3" points="241.9,460.4 175.4,497.8 207,597.6 230.2,607.7 263.9,563.5 241.9,460.4 	"/>
</g>
<g>
	<g>
		<g class="st4">
			<polygon class="st5" points="509.7,506.9 535.3,414.2 675.8,373.9 680.9,459.3 632.3,463.2 626.2,427.6 566.4,439.2 547.3,509.7 
							"/>
		</g>
		<g>
			<polygon class="st6" points="529.6,498.4 555.2,405.6 695.7,365.4 700.7,450.8 652.1,454.7 646.1,419.1 586.2,430.7 567.1,501.2 
							"/>
		</g>
	</g>
	<g>
		<g class="st4">
			<polygon class="st5" points="695.7,368.5 760.5,349.6 775.2,410.9 790.1,406.7 798.2,458.9 777.6,463.1 770.9,448.7 706,462.3 
				695.2,424 707,421.6 			"/>
		</g>
		<g>
			<polygon class="st6" points="715.5,360 780.4,341.1 795,402.4 810,398.2 818.1,450.4 797.4,454.6 790.8,440.2 725.9,453.8 
				715,415.5 726.8,413.1 			"/>
		</g>
	</g>
	<g>
		<g class="st4">
			<polygon class="st5" points="573.2,512 617,516.8 619.3,489.6 577.6,485.2 			"/>
		</g>
		<g>
			<polygon class="st6" points="593.1,503.5 636.8,508.3 639.2,481.1 597.4,476.7 			"/>
		</g>
	</g>
	<g>
		<g class="st4">
			<polygon class="st5" points="506.9,531.3 590,536.7 587.4,563.7 551.3,560.9 544.7,607.6 495.3,602.3 			"/>
		</g>
		<g>
			<polygon class="st6" points="526.7,522.8 609.8,528.2 607.3,555.2 571.1,552.4 564.6,599.1 515.2,593.8 			"/>
		</g>
	</g>
	<g>
		<g class="st4">
			<polygon class="st5" points="597.7,538 596.1,565.6 652.9,566.8 654.5,539.5 			"/>
		</g>
		<g>
			<polygon class="st6" points="617.6,529.5 615.9,557.1 672.7,558.3 674.3,531 			"/>
		</g>
	</g>
	<g>
		<g class="st4">
			<polygon class="st5" points="556.9,611.9 651.9,618.4 653.2,582 593.6,577.8 590.6,600.6 559.2,598 			"/>
		</g>
		<g>
			<polygon class="st6" points="576.7,603.4 671.8,609.9 673,573.5 613.4,569.3 610.5,592.1 579,589.5 			"/>
		</g>
	</g>
	<g>
		<g class="st4">
			<polygon class="st5" points="526.2,370.9 503.2,427.9 484.7,494.2 439.4,454.5 424.3,393.2 434.8,334.6 472,336.8 			"/>
		</g>
		<g>
			<polygon class="st6" points="546.1,362.4 523,419.4 504.6,485.7 459.3,446 444.1,384.7 454.6,326.1 491.8,328.3 			"/>
		</g>
	</g>
	<g>
		<g class="st4">
			<polygon class="st5" points="656.2,485.2 653.2,517 726.9,513.1 720,481.4 			"/>
		</g>
		<g>
			<polygon class="st6" points="676.1,476.7 673.1,508.5 746.8,504.6 739.9,472.8 			"/>
		</g>
	</g>
	<g>
		<g class="st4">
			<polygon class="st5" points="671.3,542.4 672.4,616.1 760.3,615.4 757.3,564.4 744.1,567.5 743.2,589.6 695.6,593.3 695.2,560.7 
				734.6,557.8 734.9,538.4 			"/>
		</g>
		<g>
			<polygon class="st6" points="691.2,533.9 692.2,607.6 780.1,606.9 777.1,555.9 763.9,559 763,581.1 715.4,584.8 715,552.2 
				754.4,549.3 754.8,529.9 			"/>
		</g>
	</g>
	<g>
		<g class="st4">
			<polygon class="st5" points="402.1,442.6 481,518.9 468.5,595.4 432.6,589.6 396.7,562.2 413.2,542.5 445.7,558.9 462.6,530.1 
				436.7,512 386.4,544 324.1,471.3 307.9,413.5 307.5,317.9 346,327.5 343,345.7 328.2,342.4 328.6,377 348.1,376.9 362.2,447.6 
				383.5,439.7 372.1,369.4 378.9,326.5 407.2,330.9 402.5,360.3 			"/>
		</g>
		<g>
			<polygon class="st6" points="422,434.1 500.9,510.4 488.4,586.9 452.4,581.1 416.5,553.7 433.1,534 465.5,550.4 482.5,521.5 
				456.6,503.5 406.2,535.5 344,462.8 327.8,405 327.4,309.4 365.8,319 362.8,337.2 348.1,333.8 348.5,368.5 368,368.4 382.1,439.1 
				403.3,431.2 392,360.9 398.8,318 427.1,322.4 422.3,351.8 			"/>
		</g>
	</g>
	<g>
		<g class="st4">
			<polygon class="st5" points="558.8,161.8 500.9,252 460.6,316.5 438,309 457.9,223.8 476.4,195.5 500.3,125.4 			"/>
		</g>
		<g>
			<polygon class="st6" points="578.6,153.3 520.8,243.5 480.4,308 457.9,300.5 477.7,215.3 496.3,187 520.1,116.9 			"/>
		</g>
	</g>
	<g>
		<g class="st4">
			<polygon class="st5" points="502.8,75.5 458.4,137.6 409,300.5 350.6,296.7 317.2,288.8 359.3,116.6 394.9,49.3 418.4,62.6 
				381.6,125 355.2,240.4 389.9,248.9 433.6,126.8 475.8,59.9 			"/>
		</g>
		<g>
			<polygon class="st6" points="522.6,66.9 478.3,129 428.9,292 370.5,288.2 337.1,280.3 379.1,108.1 414.8,40.8 438.3,54.1 
				401.5,116.5 375,231.9 409.7,240.4 453.4,118.3 495.6,51.4 			"/>
		</g>
	</g>
	<g>
		<g class="st4">
			<polygon class="st5" points="441.9,-14.3 523.5,47.5 509.2,65.3 451.7,21.6 440.2,33.9 418.4,16.2 			"/>
		</g>
		<g>
			<polygon class="st6" points="461.7,-22.8 543.3,39 529,56.8 471.5,13.1 460,25.4 438.2,7.7 			"/>
		</g>
	</g>
	<g>
		<g class="st4">
			<polygon class="st5" points="514.7,101.1 583.3,152.2 599.8,115 569.8,88.8 560,102.8 532.4,87.1 			"/>
		</g>
		<g>
			<polygon class="st6" points="534.6,92.6 603.1,143.7 619.7,106.5 589.6,80.3 579.9,94.3 552.2,78.6 			"/>
		</g>
	</g>
	<g>
		<g class="st4">
			<polygon class="st5" points="544.9,76 557,86.7 612,40.6 657.2,31.3 591.2,92.3 615.8,111 700.7,38.4 727.2,-1.9 606.8,25.9 			
				"/>
		</g>
		<g>
			<polygon class="st6" points="564.8,67.5 576.8,78.2 631.8,32.1 677,22.8 611,83.8 635.6,102.4 720.5,29.9 747,-10.4 626.6,17.4 
							"/>
		</g>
	</g>
	<g>
		<g class="st4">
			<polygon class="st5" points="619.7,-128.7 650,-41.1 678.1,-15.6 591.8,4.5 546.5,34.1 521.4,13.9 568.9,-18.2 624.3,-34.8 
				598.7,-93.2 543.4,-68.9 484,-13.1 459.2,-36.1 530.2,-92.9 			"/>
		</g>
		<g>
			<polygon class="st6" points="639.5,-137.2 669.9,-49.6 698,-24.1 611.6,-4 566.4,25.6 541.2,5.4 588.7,-26.7 644.1,-43.3 
				618.5,-101.7 563.3,-77.4 503.8,-21.6 479.1,-44.6 550.1,-101.4 			"/>
		</g>
	</g>
	<g>
		<g class="st4">
			<polygon class="st5" points="629.7,128.2 674.3,166.5 673.3,194.6 694.5,198.1 724.5,174.7 692.8,139.2 762.9,62.2 784.3,75.9 
				818.5,61.4 784.1,15.9 755.3,2.7 715.2,71.7 			"/>
		</g>
		<g>
			<polygon class="st6" points="649.6,119.7 694.1,158 693.1,186.1 714.4,189.6 744.3,166.2 712.6,130.7 782.7,53.7 804.2,67.4 
				838.4,52.9 804,7.4 775.2,-5.8 735,63.2 			"/>
		</g>
	</g>
	<g>
		<g class="st4">
			<polygon class="st5" points="786.1,-13.6 794.3,6.3 822.9,13.7 933,-4.7 939.3,25.6 985.8,19.7 967.8,-26.7 866,-31.9 			"/>
		</g>
		<g>
			<polygon class="st6" points="805.9,-22.1 814.1,-2.2 842.8,5.2 952.8,-13.2 959.1,17.1 1005.7,11.2 987.6,-35.2 885.8,-40.4 			
				"/>
		</g>
	</g>
	<g>
		<g class="st4">
			<polygon class="st5" points="832.7,41 841.4,66.6 917.4,46.3 910.6,18.1 			"/>
		</g>
		<g>
			<polygon class="st6" points="852.6,32.5 861.2,58.1 937.2,37.8 930.4,9.6 			"/>
		</g>
	</g>
	<g>
		<g class="st4">
			<polygon class="st5" points="657.2,-137.3 682.6,-51.9 705.9,-27.2 798.7,-38.6 795.4,-70.5 724.9,-55 710.3,-100.5 
				731.6,-110.4 720.2,-159.8 			"/>
		</g>
		<g>
			<polygon class="st6" points="677,-145.8 702.5,-60.4 725.8,-35.7 818.6,-47.2 815.2,-79 744.8,-63.5 730.2,-109 751.5,-118.9 
				740,-168.3 			"/>
		</g>
	</g>
	<polygon class="st6" points="768.6,-176.4 769.5,-148 876.9,-160.3 947,-153 946.3,-96.1 830.6,-86 838.2,-53.9 889.5,-62.6 
		983.3,-61.5 984.7,-174.7 875.1,-192.6 	"/>
	<g>
		<g class="st4">
			<polygon class="st5" points="677.9,221.7 699.5,225.2 691.3,256.7 731.2,251.2 736,280.2 666.4,289.9 			"/>
		</g>
		<g>
			<polygon class="st6" points="697.7,213.2 719.4,216.7 711.2,248.2 751,242.7 755.8,271.7 686.2,281.4 			"/>
		</g>
	</g>
	<g>
		<g class="st4">
			<polygon class="st5" points="740.5,237.3 747.5,277.7 848,261.8 833,189.5 797.5,200.5 803.3,221.4 			"/>
		</g>
		<g>
			<polygon class="st6" points="760.4,228.8 767.4,269.2 867.8,253.3 852.8,181 817.3,192 823.1,212.9 			"/>
		</g>
	</g>
	<g>
		<g class="st4">
			<polygon class="st5" points="866.5,235.5 851.2,134.7 934.1,127.3 929.9,65.4 994.6,53.2 1010.5,147.7 964,153.1 977.4,228.4 
				906.9,246.5 898.6,212.6 944.2,204.5 932.8,153.1 875,157.6 887.2,230.8 			"/>
		</g>
		<g>
			<polygon class="st6" points="886.4,227 871,126.2 953.9,118.8 949.8,56.9 1014.4,44.7 1030.4,139.2 983.9,144.6 997.2,219.9 
				926.8,238 918.5,204.1 964.1,196 952.6,144.6 894.8,149.1 907.1,222.3 			"/>
		</g>
	</g>
	<g>
		<g class="st4">
			<polygon class="st5" points="764.5,306.2 890.7,287.9 943.6,278.5 949.9,350.8 922.3,356.2 918.9,322.6 881.1,325.3 896.4,406.1 
				866.2,405.5 876.5,474.1 820.3,479.7 802.2,340.9 774.7,346.7 			"/>
		</g>
		<g>
			<polygon class="st6" points="784.3,297.7 910.6,279.4 963.4,270 969.8,342.3 942.2,347.7 938.8,314.1 900.9,316.8 916.2,397.6 
				886,397 896.3,465.6 840.1,471.2 822.1,332.4 794.6,338.2 			"/>
		</g>
	</g>
	<g>
		<g class="st4">
			<polygon class="st5" points="786.3,531.8 870.9,514.2 883.4,594.7 828.3,603.5 822.6,574.7 860.3,573.1 851,542.4 806.5,550.6 
				812.7,601 787,609.4 			"/>
		</g>
		<g>
			<polygon class="st6" points="806.2,523.3 890.7,505.7 903.2,586.2 848.1,595 842.4,566.2 880.2,564.6 870.8,533.9 826.4,542.1 
				832.6,592.5 806.8,600.9 			"/>
		</g>
	</g>
	<polygon class="st6" points="980.9,273.1 1025.7,261.3 1028.7,297.7 1044,300.2 1051.3,322.8 984.6,339 	"/>
	<polygon class="st6" points="909.7,437.5 986.3,409.1 1008,441.7 912.5,474.7 	"/>
	<polygon class="st6" points="1018.7,341.7 1061.6,325.2 1093.6,399.5 1051.5,419.7 	"/>
	<polygon class="st6" points="923.2,499 980.6,478.9 1043.6,447.4 1063,480 996.7,511 930.7,534.4 	"/>
	<polygon class="st6" points="928.3,543.3 961.5,537.5 965.3,555.2 1024.3,542.6 1036.4,567.8 985.2,581.8 929.3,590.4 	"/>
	<polygon class="st6" points="1057.2,440.1 1071.5,469.1 1089.3,458.7 1106.1,495.6 1034.9,536.2 1043,562 1160.4,500.7 
		1108.3,418.1 	"/>
	<polygon class="st6" points="1062.6,253.9 1148.1,244.1 1152,307.4 1138.1,346 1108.1,366.8 1064.2,286.4 	"/>
	<polygon class="st6" points="1032.2,-9.4 1047.7,104.2 1061.4,225.2 1147.2,214.5 1141.6,173.7 1100.8,178.4 1088.5,95.2 
		1120.5,84.8 1092.9,0.5 1056.1,-18.3 	"/>
	<polygon class="st6" points="1020.9,-109.6 1010.2,-60 1023.2,-38 1070.9,-44 1123.3,-3.6 1145.6,80.2 1257,51 1233.1,-20.3 
		1197.5,-93.6 1139.1,-137.3 1026.2,-167.1 1027.2,-138.5 1112.7,-118.9 1165,-72.5 1141.2,-55.3 1095.4,-93.1 	"/>
	<polygon class="st6" points="1141.8,103.9 1162.9,173.9 1166.6,217.7 1284.1,208.3 1284.8,142.9 1257,51 1226.2,59.1 1248.1,141.2 
		1210.6,152.2 1204.5,121.7 1219.3,116.6 1212,91 	"/>
	<polygon class="st6" points="1175.7,243.8 1279.5,236.1 1271.5,320.3 1224.8,423.3 1198.7,408.1 1241.9,315.7 1242.9,277.2 
		1219.5,277.8 1216.6,298.5 1177.3,302.1 	"/>
	<path class="st6" d="M1173.7,316.9c0.9,3.3-7.1,43.3-7.1,43.3l-40.4,31.6l49,73.3L1203,443l-30.5-39.2l30.5-30.6l10-52.5
		L1173.7,316.9z"/>
	<g>
		<g class="st4">
			<polygon class="st5" points="178.9,49.1 339.3,94.2 311.3,193.2 288,183.9 271.4,241.6 297.8,246 286.4,289.9 242.2,280.9 
				247,260 180.8,239.3 			"/>
		</g>
		<g>
			<polygon class="st6" points="198.7,40.5 359.2,85.7 331.1,184.7 307.8,175.4 291.3,233.1 317.6,237.5 306.3,281.4 262.1,272.4 
				266.9,251.5 200.6,230.8 			"/>
		</g>
	</g>
	<g>
		<g class="st4">
			<polygon class="st5" points="285.4,322.1 181.2,270.8 167.4,302.9 241.6,328.2 231.4,347.4 247.8,412.4 251.5,433.4 289.2,429.8 
				283.8,410.1 			"/>
		</g>
		<g>
			<polygon class="st6" points="305.2,313.6 201,262.3 187.3,294.3 261.5,319.7 251.2,338.9 267.7,403.9 271.4,424.9 309,421.3 
				303.7,401.6 			"/>
		</g>
	</g>
	<g>
		<g class="st4">
			<polygon class="st5" points="92.2,536.5 155.6,506.3 168.7,547.8 139.6,560.4 132.6,542.2 119.9,550.1 133.3,599.3 176.7,576.4 
				184.7,633.3 96.2,634.5 			"/>
		</g>
		<g>
			<polygon class="st6" points="112.1,528 175.4,497.8 188.5,539.3 159.5,551.9 152.5,533.7 139.8,541.6 153.1,590.8 196.6,567.9 
				204.5,624.8 116,626 			"/>
		</g>
	</g>
	<g>
		<g class="st4">
			<polygon class="st5" points="208.6,475 239.6,462.8 273.6,455 289.5,497.7 238.7,546.2 			"/>
		</g>
		<g>
			<polygon class="st6" points="228.4,466.5 259.5,454.2 293.5,446.5 309.3,489.2 258.6,537.7 			"/>
		</g>
	</g>
	<g>
		<g class="st4">
			<path class="st5" d="M316.5,500.1c-0.5,3.3,89.4,122.4,89.4,122.4l27.7,7.7l-18.9,25.1L369,656l-87.4-14.3l-59.7-9.7l26.5-41.7
				l80.4,21.3l13.2-16.8l-64.7-63.3L316.5,500.1z"/>
		</g>
		<g>
			<path class="st6" d="M336.3,491.6c-0.5,3.3,89.4,122.4,89.4,122.4l27.7,7.7l-18.9,25.1l-45.7,0.6l-87.4-14.3l-59.7-9.7l26.5-41.7
				l80.4,21.3l13.2-16.8l-64.7-63.3L336.3,491.6z"/>
		</g>
	</g>
	<g>
		<g class="st4">
			<path class="st5" d="M242.8-157.2c-2.6,8.1,87.2,80.8,87.2,80.8L397.7-48l18,15.3l-69.2,104l-52.3-12.9l19.1-33.9l26.1,15.1
				l28.9-65.9l-55.9-30.4l-60.3-54.8L212.8,1l73,14.9l-4.3,26.2l-98.4-17.7l38.7-140.3L242.8-157.2z"/>
		</g>
		<g>
			<path class="st6" d="M262.6-165.8C260-157.6,349.8-85,349.8-85l67.7,28.5l18,15.3l-69.1,104L314,49.9L333.1,16l26.1,15.1
				l28.9-65.9l-55.9-30.4L272-120L232.7-7.5l73,14.9l-4.3,26.2L202.9,16l38.7-140.3L262.6-165.8z"/>
		</g>
	</g>
	<polygon class="st6" points="552.9,-281.8 502.2,-186.1 402.8,-235.3 365.5,-181.9 372.8,-135.6 477.9,-79.8 630.4,-155.4 
		612.3,-179.7 622.7,-207.9 622.4,-233.1 	"/>
	<polygon class="st6" points="929.8,615.7 1093.5,590.4 1092.7,565.5 1154.4,537.1 1174.2,576.6 1217.7,559 1234.5,600.2 
		1198,619.4 1214.2,724.2 955.6,763.1 	"/>
	<g>
		<g class="st4">
			<polygon class="st5" points="604.2,191 637.3,209.3 613.2,309.4 548.9,289.8 			"/>
			<polygon class="st5" points="607.2,190 640.3,208.3 616.2,308.4 551.9,288.8 			"/>
		</g>
		<g>
			<g class="st7">
				<polygon points="624.1,182.5 657.1,200.8 633.1,300.9 568.7,281.3 				"/>
			</g>
			<g>
				<polygon class="st6" points="627.1,181.5 660.1,199.8 636.1,299.9 571.7,280.3 				"/>
			</g>
		</g>
	</g>
</g>
<g>
	<g class="st7">
		<polygon class="st8" points="11.3,198.9 171.2,192.3 176.5,238.2 170.3,275.9 86.3,476.2 61.8,478.1 52.5,434.7 27.2,436.8 		"/>
	</g>
	<g>
		<polygon class="st9" points="14.3,197.9 174.2,191.3 179.5,237.2 173.3,274.9 89.3,475.2 64.8,477.1 55.5,433.7 30.2,435.8 		"/>
	</g>
</g>
<polygon class="st9" points="422.3,351.8 394.1,347.5 398.8,317.8 427,322.1 "/>
<polygon class="st9" points="520.5,243.5 477.8,215.6 496.2,187.1 538.8,215 "/>
<rect x="534.7" y="131.4" transform="matrix(0.5296 -0.8482 0.8482 0.5296 127.814 539.7128)" class="st9" width="31.7" height="46.4"/>
<rect x="713.1" y="247" transform="matrix(0.9897 -0.1432 0.1432 0.9897 -30.0492 105.9158)" class="st9" width="15.4" height="29.4"/>
<rect x="811.5" y="150.5" transform="matrix(0.9604 -0.2785 0.2785 0.9604 -14.231 237.8602)" class="st9" width="37.1" height="37.1"/>
<rect x="340.3" y="253.2" transform="matrix(0.2265 -0.974 0.974 0.2265 13.4896 554.4496)" class="st9" width="31.1" height="31.1"/>
</svg>
